<svg width="57" height="33" viewBox="0 0 57 33" fill="none" xmlns="http://www.w3.org/2000/svg">
<path d="M38.373 25.7464V7.49609H56.6375L50.1692 16.6213L56.6375 25.7464H38.373Z" fill="#00E777"/>
<path d="M19.034 7.49609V25.7464H0.769531L7.23739 16.6213L0.769531 7.49609H19.034Z" fill="#00E777"/>
<path d="M28.7035 32.1004C37.5193 32.1004 44.6658 24.9538 44.6658 16.1381C44.6658 7.32235 37.5193 0.175781 28.7035 0.175781C19.8878 0.175781 12.7412 7.32235 12.7412 16.1381C12.7412 24.9538 19.8878 32.1004 28.7035 32.1004Z" fill="#4D6CD9"/>
<path d="M28.7264 26.7864C34.6075 26.7864 39.3441 22.0189 39.3059 16.1378C39.2676 10.2568 34.4689 5.48926 28.5878 5.48926C22.7066 5.48926 17.97 10.2568 18.0083 16.1378C18.0465 22.0189 22.8452 26.7864 28.7264 26.7864Z" fill="#FBFBFB"/>
</svg>
