<svg width="47" height="51" viewBox="0 0 47 51" fill="none" xmlns="http://www.w3.org/2000/svg">
<path d="M25.2869 25.6164C25.7641 25.8919 25.9275 26.5021 25.6521 26.9792L13.1969 48.5522C12.783 49.269 11.7266 49.1991 11.4108 48.434L9.3549 43.4539C9.18226 43.0357 8.74982 42.786 8.30134 42.8456L2.96048 43.5553C2.13997 43.6643 1.55123 42.7843 1.96509 42.0675L14.4202 20.4945C14.6957 20.0174 15.3059 19.8539 15.7831 20.1294L25.2869 25.6164Z" fill="#00E777"/>
<path d="M31.2713 20.1287C31.7484 19.8532 32.3586 20.0167 32.6341 20.4939L45.0894 42.0667C45.5033 42.7836 44.9145 43.6635 44.094 43.5545L38.7532 42.8449C38.3047 42.7853 37.8722 43.035 37.6996 43.4532L35.6438 48.4333C35.3279 49.1984 34.2715 49.2683 33.8576 48.5515L21.4023 26.9786C21.1268 26.5015 21.2903 25.8913 21.7675 25.6158L31.2713 20.1287Z" fill="#00E777"/>
<path d="M14.3102 2.79717C14.7972 0.934898 16.9578 0.087684 18.5809 1.1225L22.5168 3.63184C23.4144 4.20416 24.5569 4.22587 25.4757 3.68806L29.504 1.33001C31.1653 0.357594 33.2921 1.28626 33.708 3.16568L34.7168 7.72314C34.9468 8.76258 35.7393 9.5858 36.7693 9.85517L41.2851 11.0363C43.1474 11.5233 43.9946 13.6839 42.9598 15.307L40.4505 19.2428C39.8782 20.1405 39.8564 21.283 40.3943 22.2018L42.7523 26.2301C43.7247 27.8913 42.7961 30.0181 40.9166 30.4341L36.3592 31.4428C35.3197 31.6729 34.4965 32.4654 34.2271 33.4954L33.0461 38.0112C32.559 39.8735 30.3985 40.7207 28.7754 39.6859L24.8395 37.1765C23.9418 36.6042 22.7993 36.5825 21.8806 37.1203L17.8522 39.4784C16.191 40.4508 14.0642 39.5221 13.6482 37.6427L12.6395 33.0852C12.4094 32.0458 11.6169 31.2226 10.5869 30.9532L6.07109 29.7721C4.20882 29.2851 3.36161 27.1245 4.39642 25.5014L6.90577 21.5656C7.47809 20.6679 7.49979 19.5254 6.96198 18.6066L4.60394 14.5783C3.63152 12.9171 4.56018 10.7902 6.43961 10.3743L10.9971 9.36556C12.0365 9.1355 12.8597 8.34298 13.1291 7.31302L14.3102 2.79717Z" fill="#4D6CD9"/>
<path d="M35.5984 19.9897C35.5984 26.7998 30.0776 32.3205 23.2675 32.3205C16.4573 32.3205 10.9366 26.7998 10.9366 19.9897C10.9366 13.1795 16.4573 7.65878 23.2675 7.65878C30.0776 7.65878 35.5984 13.1795 35.5984 19.9897Z" stroke="#1749C7" stroke-width="1.99529"/>
<path d="M22.7657 15.1494C23.1474 14.4723 24.1223 14.4723 24.5039 15.1494L25.6304 17.1479C25.7728 17.4005 26.018 17.5787 26.3022 17.636L28.551 18.0898C29.3128 18.2435 29.6141 19.1707 29.0881 19.7429L27.5355 21.4318C27.3393 21.6452 27.2456 21.9335 27.2789 22.2215L27.5423 24.5005C27.6315 25.2725 26.8428 25.8456 26.1361 25.5222L24.05 24.5674C23.7864 24.4468 23.4833 24.4468 23.2197 24.5674L21.1336 25.5222C20.4269 25.8456 19.6382 25.2725 19.7274 24.5005L19.9908 22.2215C20.0241 21.9335 19.9304 21.6452 19.7342 21.4318L18.1815 19.7429C17.6556 19.1707 17.9568 18.2435 18.7187 18.0898L20.9675 17.636C21.2517 17.5787 21.4969 17.4005 21.6393 17.1479L22.7657 15.1494Z" fill="#E8EAFA"/>
</svg>
