<svg width="25" height="25" viewBox="0 0 25 25" fill="none" xmlns="http://www.w3.org/2000/svg">
<path d="M18.8398 5.26068C17.2523 3.67313 15.0991 2.78125 12.854 2.78125C10.6088 2.78125 8.45565 3.67313 6.8681 5.26068C5.28055 6.84823 4.38867 9.00141 4.38867 11.2465C4.38867 13.4917 5.28055 15.6449 6.8681 17.2324L12.1257 22.5C12.2184 22.5935 12.3288 22.6677 12.4503 22.7183C12.5719 22.769 12.7023 22.7951 12.834 22.7951C12.9657 22.7951 13.0961 22.769 13.2177 22.7183C13.3393 22.6677 13.4496 22.5935 13.5423 22.5L18.8398 17.1825C20.4207 15.6016 21.3089 13.4574 21.3089 11.2216C21.3089 8.98583 20.4207 6.84162 18.8398 5.26068ZM17.4132 15.7559L12.854 20.3351L8.29473 15.7559C7.394 14.8543 6.78078 13.706 6.53259 12.456C6.28439 11.206 6.41236 9.91044 6.90033 8.73316C7.38829 7.55587 8.21434 6.54968 9.27405 5.84178C10.3338 5.13388 11.5796 4.75605 12.854 4.75605C14.1284 4.75605 15.3742 5.13388 16.4339 5.84178C17.4936 6.54968 18.3196 7.55587 18.8076 8.73316C19.2956 9.91044 19.4235 11.206 19.1753 12.456C18.9271 13.706 18.3139 14.8543 17.4132 15.7559ZM9.86103 8.18377C9.05565 8.99164 8.60339 10.0858 8.60339 11.2266C8.60339 12.3673 9.05565 13.4615 9.86103 14.2694C10.4594 14.8688 11.2214 15.2781 12.0515 15.446C12.8816 15.614 13.7428 15.533 14.5271 15.2133C15.3114 14.8937 15.9838 14.3495 16.4599 13.6491C16.9361 12.9487 17.1948 12.1233 17.2037 11.2765C17.2082 10.711 17.0993 10.1504 16.8834 9.62775C16.6674 9.10511 16.3489 8.63107 15.9467 8.23366C15.5513 7.82919 15.0798 7.50691 14.5594 7.28536C14.0389 7.06381 13.4798 6.94737 12.9142 6.94273C12.3486 6.9381 11.7877 7.04536 11.2637 7.25835C10.7397 7.47133 10.263 7.78584 9.86103 8.18377ZM14.54 12.8527C14.1619 13.2366 13.6623 13.4772 13.1264 13.5334C12.5906 13.5896 12.0519 13.458 11.6024 13.1609C11.1529 12.8639 10.8206 12.42 10.6621 11.9051C10.5037 11.3901 10.5291 10.8361 10.7339 10.3378C10.9388 9.83954 11.3103 9.42785 11.7851 9.17317C12.2598 8.9185 12.8083 8.83664 13.3368 8.9416C13.8652 9.04656 14.3408 9.33182 14.6822 9.74861C15.0235 10.1654 15.2096 10.6878 15.2084 11.2266C15.1939 11.8424 14.9355 12.4273 14.4901 12.8527H14.54Z" fill="#4D6CD9"/>
</svg>
