<svg width="21" height="20" viewBox="0 0 21 20" fill="none" xmlns="http://www.w3.org/2000/svg">
<path d="M17.7246 4.36851H14.7317V3.37086C14.7317 2.57709 14.4163 1.81582 13.8551 1.25454C13.2938 0.693256 12.5325 0.37793 11.7387 0.37793H9.74345C8.94967 0.37793 8.18841 0.693256 7.62712 1.25454C7.06584 1.81582 6.75051 2.57709 6.75051 3.37086V4.36851H3.75758C2.96381 4.36851 2.20254 4.68383 1.64126 5.24512C1.07997 5.8064 0.764648 6.56766 0.764648 7.36144V16.3402C0.764648 17.134 1.07997 17.8953 1.64126 18.4566C2.20254 19.0178 2.96381 19.3332 3.75758 19.3332H17.7246C18.5184 19.3332 19.2796 19.0178 19.8409 18.4566C20.4022 17.8953 20.7175 17.134 20.7175 16.3402V7.36144C20.7175 6.56766 20.4022 5.8064 19.8409 5.24512C19.2796 4.68383 18.5184 4.36851 17.7246 4.36851ZM8.7458 3.37086C8.7458 3.10627 8.85091 2.85252 9.038 2.66542C9.2251 2.47833 9.47885 2.37322 9.74345 2.37322H11.7387C12.0033 2.37322 12.2571 2.47833 12.4442 2.66542C12.6313 2.85252 12.7364 3.10627 12.7364 3.37086V4.36851H8.7458V3.37086ZM18.7222 16.3402C18.7222 16.6048 18.6171 16.8586 18.43 17.0457C18.2429 17.2328 17.9892 17.3379 17.7246 17.3379H3.75758C3.49299 17.3379 3.23923 17.2328 3.05214 17.0457C2.86505 16.8586 2.75994 16.6048 2.75994 16.3402V11.3021H5.75287V12.3497C5.75287 12.6142 5.85798 12.868 6.04507 13.0551C6.23217 13.2422 6.48592 13.3473 6.75051 13.3473C7.0151 13.3473 7.26886 13.2422 7.45595 13.0551C7.64305 12.868 7.74816 12.6142 7.74816 12.3497V11.3021H13.734V12.3497C13.734 12.6142 13.8391 12.868 14.0262 13.0551C14.2133 13.2422 14.4671 13.3473 14.7317 13.3473C14.9963 13.3473 15.25 13.2422 15.4371 13.0551C15.6242 12.868 15.7293 12.6142 15.7293 12.3497V11.3021H18.7222V16.3402ZM18.7222 9.35673H2.75994V7.36144C2.75994 7.09685 2.86505 6.84309 3.05214 6.656C3.23923 6.4689 3.49299 6.36379 3.75758 6.36379H17.7246C17.9892 6.36379 18.2429 6.4689 18.43 6.656C18.6171 6.84309 18.7222 7.09685 18.7222 7.36144V9.35673Z" fill="#4D6CD9"/>
</svg>
