<svg width="121" height="120" viewBox="0 0 121 120" fill="none" xmlns="http://www.w3.org/2000/svg">
<g filter="url(#filter0_d_4143_240265)">
<rect x="20.75" y="20" width="80" height="80" rx="16" fill="white"/>
</g>
<path d="M83.1939 70.4512C82.0969 69.4876 72.2707 65.943 67.7538 64.3442C69.5794 62.1118 70.8082 59.4838 71.296 57.588C71.9963 56.8982 72.5085 55.6179 72.5532 54.3764C72.5915 53.3304 72.2898 52.4208 71.6981 51.7704C71.7335 51.4322 74.2431 46.3573 72.2939 41.6582C71.0211 38.5899 69.0475 36.6012 65.2459 36.0588C62.579 35.6788 60.7394 37.2649 60.7394 37.2649C60.7394 37.2649 52.5921 33.6652 49.1386 40.7364C46.1173 46.9223 49.0707 51.9659 49.0829 51.9996C48.5335 52.582 48.2382 53.3629 48.2411 54.2546C48.2446 55.4885 48.8375 56.886 49.6346 57.6234C49.9635 58.8799 51.4272 61.7597 53.4159 64.3436C44.1066 67.927 38.6255 70.0695 38.1678 70.515C37.1177 71.5378 35.5845 79.2314 34.7642 83.7269C34.7177 83.981 34.7868 84.2426 34.9515 84.441C35.1169 84.6394 35.3617 84.7537 35.6204 84.7537H85.5376C85.5423 84.7543 85.5492 84.7537 85.5492 84.7537C86.0302 84.7537 86.42 84.3638 86.42 83.8829C86.4194 83.7884 84.3431 71.4612 83.1939 70.4512ZM51.2543 56.929C51.2039 56.7189 51.0774 56.5356 50.8999 56.4144C50.5355 56.1649 49.9809 55.1746 49.9809 54.2505C49.9809 52.5965 51.2827 52.1667 51.3344 51.963L53.4083 45.6408C53.8533 47.0929 61.0747 51.1242 67.4782 46.9815C68.8386 49.5207 69.2673 51.8992 69.272 51.963C69.29 52.2131 70.8122 52.4736 70.8122 54.3137C70.8122 55.2791 70.3214 56.1806 70.0099 56.4028C69.8353 56.5269 69.7129 56.7108 69.6659 56.9197C69.2377 58.8109 66.2008 66.721 60.5845 66.721C55.158 66.721 51.5044 57.9674 51.2543 56.929ZM62.3725 69.5462C62.3725 70.4367 61.5719 70.7383 60.5845 70.7383C59.5972 70.7383 58.7966 70.4373 58.7966 69.5462C58.7966 68.6551 59.5972 67.9334 60.5845 67.9334C61.5719 67.9334 62.3725 68.6557 62.3725 69.5462ZM54.0384 65.9401C54.34 65.8235 55.3442 65.4975 55.3924 65.4667C56.3641 66.3584 57.2639 66.9275 58.463 67.2674L55.3553 71.7217L54.0384 65.9401ZM56.7296 83.8539L59.4341 71.8847C59.6476 71.9247 61.5394 71.9317 61.7692 71.9021L64.4395 83.8533H56.7296V83.8539ZM65.8498 71.7217L62.644 67.3162C63.7758 66.9478 64.8363 66.323 65.7761 65.4667C65.8324 65.5027 66.68 65.8113 67.0437 65.9401L65.8498 71.7217Z" fill="#4D6CD9"/>
<defs>
<filter id="filter0_d_4143_240265" x="0.75" y="0" width="120" height="120" filterUnits="userSpaceOnUse" color-interpolation-filters="sRGB">
<feFlood flood-opacity="0" result="BackgroundImageFix"/>
<feColorMatrix in="SourceAlpha" type="matrix" values="0 0 0 0 0 0 0 0 0 0 0 0 0 0 0 0 0 0 127 0" result="hardAlpha"/>
<feOffset/>
<feGaussianBlur stdDeviation="10"/>
<feColorMatrix type="matrix" values="0 0 0 0 0.301961 0 0 0 0 0.423529 0 0 0 0 0.85098 0 0 0 0.16 0"/>
<feBlend mode="normal" in2="BackgroundImageFix" result="effect1_dropShadow_4143_240265"/>
<feBlend mode="normal" in="SourceGraphic" in2="effect1_dropShadow_4143_240265" result="shape"/>
</filter>
</defs>
</svg>
