<svg width="121" height="120" viewBox="0 0 121 120" fill="none" xmlns="http://www.w3.org/2000/svg">
<g filter="url(#filter0_d_4143_240274)">
<rect x="20.25" y="20" width="80" height="80" rx="16" fill="white"/>
</g>
<path d="M84.9839 66.3528L81.5875 62.5869L77.8227 65.9833C77.3983 66.3663 77.3641 67.0205 77.7471 67.4449C78.1301 67.8703 78.7844 67.9035 79.2098 67.5205L80.423 66.4263C79.039 76.0222 70.2681 82.9029 60.548 81.8698C59.9797 81.8077 59.4704 82.2207 59.4094 82.789C59.3493 83.3583 59.7613 83.8676 60.3296 83.9277C61.0522 84.0053 61.7706 84.0426 62.4828 84.0426C72.4451 84.0426 81.0648 76.6733 82.4799 66.6675L83.4467 67.7389C83.6506 67.9656 83.9332 68.0815 84.2158 68.0815C84.4632 68.0815 84.7106 67.9935 84.9083 67.8144C85.3327 67.4315 85.3669 66.7772 84.9839 66.3528Z" fill="#4D6CD9"/>
<path d="M61.5438 60.2221V61.2573H83.2821V60.2221C83.2821 55.2027 79.8619 50.9668 75.2296 49.7236C77.3009 48.6874 78.7274 46.5436 78.7274 44.0737C78.7274 40.5914 75.8942 37.7593 72.4129 37.7593C68.9307 37.7593 66.0985 40.5914 66.0985 44.0737C66.0985 46.5436 67.5239 48.6864 69.5953 49.7236C64.9629 50.9679 61.5438 55.2027 61.5438 60.2221Z" fill="#4D6CD9"/>
<path d="M63.7274 40.1974L60.4139 36.3591C60.0402 35.9264 59.387 35.8777 58.9543 36.2514C58.5216 36.6251 58.473 37.2793 58.8466 37.712L59.7369 38.743C48.816 37.9356 39.1715 46.0346 38.1291 56.9866C38.0752 57.5559 38.4924 58.0611 39.0617 58.1159C39.0949 58.119 39.128 58.1201 39.1611 58.1201C39.689 58.1201 40.1393 57.7184 40.1911 57.1833C41.1331 47.2706 49.9267 39.9614 59.829 40.8278L58.5361 41.9437C58.1034 42.3174 58.0558 42.9706 58.4295 43.4033C58.6344 43.6403 58.9232 43.7625 59.2131 43.7625C59.4532 43.7625 59.6944 43.6797 59.889 43.5109L63.7274 40.1974Z" fill="#4D6CD9"/>
<path d="M48.9358 72.8081C51.0071 71.7719 52.4336 69.6281 52.4336 67.1582C52.4336 63.6759 49.6003 60.8438 46.1191 60.8438C42.6369 60.8438 39.8047 63.6759 39.8047 67.1582C39.8047 69.6281 41.2301 71.7708 43.3014 72.8081C38.6691 74.0523 35.25 78.2871 35.25 83.3066V84.3417H56.9882V83.3066C56.9882 78.2871 53.5681 74.0513 48.9358 72.8081Z" fill="#4D6CD9"/>
<defs>
<filter id="filter0_d_4143_240274" x="0.25" y="0" width="120" height="120" filterUnits="userSpaceOnUse" color-interpolation-filters="sRGB">
<feFlood flood-opacity="0" result="BackgroundImageFix"/>
<feColorMatrix in="SourceAlpha" type="matrix" values="0 0 0 0 0 0 0 0 0 0 0 0 0 0 0 0 0 0 127 0" result="hardAlpha"/>
<feOffset/>
<feGaussianBlur stdDeviation="10"/>
<feColorMatrix type="matrix" values="0 0 0 0 0.301961 0 0 0 0 0.423529 0 0 0 0 0.85098 0 0 0 0.16 0"/>
<feBlend mode="normal" in2="BackgroundImageFix" result="effect1_dropShadow_4143_240274"/>
<feBlend mode="normal" in="SourceGraphic" in2="effect1_dropShadow_4143_240274" result="shape"/>
</filter>
</defs>
</svg>
