<svg width="25" height="25" viewBox="0 0 25 25" fill="none" xmlns="http://www.w3.org/2000/svg">
<path d="M14.919 8.86477H15.9166C16.1812 8.86477 16.435 8.75966 16.6221 8.57257C16.8092 8.38547 16.9143 8.13172 16.9143 7.86713C16.9143 7.60253 16.8092 7.34878 16.6221 7.16169C16.435 6.97459 16.1812 6.86948 15.9166 6.86948H14.919C14.6544 6.86948 14.4006 6.97459 14.2136 7.16169C14.0265 7.34878 13.9214 7.60253 13.9214 7.86713C13.9214 8.13172 14.0265 8.38547 14.2136 8.57257C14.4006 8.75966 14.6544 8.86477 14.919 8.86477ZM14.919 12.8553H15.9166C16.1812 12.8553 16.435 12.7502 16.6221 12.5631C16.8092 12.376 16.9143 12.1223 16.9143 11.8577C16.9143 11.5931 16.8092 11.3394 16.6221 11.1523C16.435 10.9652 16.1812 10.8601 15.9166 10.8601H14.919C14.6544 10.8601 14.4006 10.9652 14.2136 11.1523C14.0265 11.3394 13.9214 11.5931 13.9214 11.8577C13.9214 12.1223 14.0265 12.376 14.2136 12.5631C14.4006 12.7502 14.6544 12.8553 14.919 12.8553ZM9.93077 8.86477H10.9284C11.193 8.86477 11.4468 8.75966 11.6339 8.57257C11.821 8.38547 11.9261 8.13172 11.9261 7.86713C11.9261 7.60253 11.821 7.34878 11.6339 7.16169C11.4468 6.97459 11.193 6.86948 10.9284 6.86948H9.93077C9.66618 6.86948 9.41243 6.97459 9.22533 7.16169C9.03824 7.34878 8.93313 7.60253 8.93313 7.86713C8.93313 8.13172 9.03824 8.38547 9.22533 8.57257C9.41243 8.75966 9.66618 8.86477 9.93077 8.86477ZM9.93077 12.8553H10.9284C11.193 12.8553 11.4468 12.7502 11.6339 12.5631C11.821 12.376 11.9261 12.1223 11.9261 11.8577C11.9261 11.5931 11.821 11.3394 11.6339 11.1523C11.4468 10.9652 11.193 10.8601 10.9284 10.8601H9.93077C9.66618 10.8601 9.41243 10.9652 9.22533 11.1523C9.03824 11.3394 8.93313 11.5931 8.93313 11.8577C8.93313 12.1223 9.03824 12.376 9.22533 12.5631C9.41243 12.7502 9.66618 12.8553 9.93077 12.8553ZM21.9025 20.8365H20.9049V3.87655C20.9049 3.61196 20.7998 3.3582 20.6127 3.17111C20.4256 2.98401 20.1718 2.87891 19.9072 2.87891H5.9402C5.67561 2.87891 5.42185 2.98401 5.23476 3.17111C5.04766 3.3582 4.94255 3.61196 4.94255 3.87655V20.8365H3.94491C3.68032 20.8365 3.42656 20.9416 3.23947 21.1287C3.05237 21.3158 2.94727 21.5696 2.94727 21.8341C2.94727 22.0987 3.05237 22.3525 3.23947 22.5396C3.42656 22.7267 3.68032 22.8318 3.94491 22.8318H21.9025C22.1671 22.8318 22.4209 22.7267 22.6079 22.5396C22.795 22.3525 22.9001 22.0987 22.9001 21.8341C22.9001 21.5696 22.795 21.3158 22.6079 21.1287C22.4209 20.9416 22.1671 20.8365 21.9025 20.8365ZM13.9214 20.8365H11.9261V16.8459H13.9214V20.8365ZM18.9096 20.8365H15.9166V15.8483C15.9166 15.5837 15.8115 15.3299 15.6244 15.1428C15.4373 14.9557 15.1836 14.8506 14.919 14.8506H10.9284C10.6638 14.8506 10.4101 14.9557 10.223 15.1428C10.0359 15.3299 9.93077 15.5837 9.93077 15.8483V20.8365H6.93784V4.87419H18.9096V20.8365Z" fill="#4D6CD9"/>
</svg>
