<svg width="23" height="23" viewBox="0 0 23 23" fill="none" xmlns="http://www.w3.org/2000/svg">
<path d="M21.8298 11.8553C21.8298 17.3652 17.3632 21.8318 11.8534 21.8318C6.34356 21.8318 1.87695 17.3652 1.87695 11.8553C1.87695 6.34551 6.34356 1.87891 11.8534 1.87891C17.3632 1.87891 21.8298 6.34551 21.8298 11.8553Z" stroke="#4D6CD9" stroke-width="1.99529"/>
<path d="M8.28903 12.7069L8.30151 12.705C8.35586 12.6969 8.41109 12.6961 8.46562 12.7026C8.49876 12.7003 8.53205 12.7006 8.56516 12.7034H11.0086C11.5534 12.7012 12.0785 12.5105 12.4883 12.1671C12.852 11.8623 13.1033 11.4555 13.2092 11.0074H8.5584C8.3374 11.0074 8.12438 10.9229 7.96648 10.7707C7.80838 10.6184 7.71849 10.4106 7.71849 10.1927C7.71849 9.97474 7.80838 9.76693 7.96648 9.6146C8.12438 9.46246 8.3374 9.37792 8.5584 9.37792H12.8923C12.7135 9.10068 12.4715 8.86431 12.1827 8.68766C11.8217 8.46678 11.4026 8.34852 10.9741 8.34702H8.5584C8.3374 8.34702 8.12438 8.26248 7.96648 8.11034C7.80838 7.95801 7.71849 7.7502 7.71849 7.53228C7.71849 7.31437 7.80838 7.10655 7.96648 6.95423C8.12438 6.80208 8.3374 6.71754 8.5584 6.71754H16.1513C16.3723 6.71754 16.5853 6.80208 16.7432 6.95423C16.9013 7.10656 16.9912 7.31437 16.9912 7.53228C16.9912 7.7502 16.9013 7.95801 16.7432 8.11034C16.5853 8.26248 16.3723 8.34702 16.1513 8.34702H14.2359C14.4557 8.66395 14.6252 9.01142 14.7381 9.37792H16.1513C16.3723 9.37792 16.5853 9.46246 16.7432 9.6146C16.9013 9.76693 16.9912 9.97474 16.9912 10.1927C16.9912 10.4106 16.9013 10.6184 16.7432 10.7707C16.5853 10.9229 16.3723 11.0074 16.1513 11.0074H14.9044C14.7856 11.9058 14.3385 12.7348 13.6424 13.3445C12.9117 13.9846 11.9596 14.3367 10.9741 14.3329M8.28903 12.7069L10.9743 14.1832M8.28903 12.7069L8.27705 12.7108M8.28903 12.7069L8.27705 12.7108M10.9741 14.3329C10.974 14.3329 10.9739 14.3329 10.9737 14.3329L10.9743 14.1832M10.9741 14.3329H10.9743V14.1832M10.9741 14.3329H10.3929M10.9743 14.1832H10.262L10.3929 14.3329M10.3929 14.3329L13.2882 17.6421M10.3929 14.3329H10.1941L13.1763 17.7415M13.2882 17.6421C13.2883 17.6423 13.2885 17.6424 13.2886 17.6426L13.2889 17.6429L13.1763 17.7415M13.2882 17.6421L13.1763 17.7415M13.2882 17.6421L13.1763 17.7415M8.27705 12.7108C8.21843 12.7301 8.16295 12.7577 8.11249 12.7929L8.03641 12.8356L8.02305 12.8432M8.27705 12.7108L8.02305 12.8432M8.02305 12.8432L8.01149 12.8532M8.02305 12.8432L8.01149 12.8532M8.01149 12.8532C7.96468 12.8939 7.92392 12.941 7.89052 12.993C7.86461 13.0267 7.84119 13.0621 7.82046 13.0991L7.80722 13.1226M8.01149 12.8532L7.80722 13.1226M7.80722 13.1226L7.80308 13.1494M7.80722 13.1226L7.80308 13.1494M7.80308 13.1494C7.79774 13.1839 7.79576 13.2188 7.79714 13.2536C7.75186 13.3303 7.72489 13.4165 7.71897 13.5058C7.71564 13.5395 7.71517 13.5734 7.71757 13.6071C7.71084 13.6606 7.71179 13.7148 7.7204 13.7681L7.72255 13.7814M7.80308 13.1494L7.72255 13.7814M7.72255 13.7814L7.72704 13.7941M7.72255 13.7814L7.72704 13.7941M7.72704 13.7941C7.7441 13.8424 7.76727 13.8882 7.79591 13.9306M7.72704 13.7941L7.79591 13.9306M7.79591 13.9306C7.7977 13.9372 7.79988 13.9443 7.80255 13.9516C7.81517 13.9864 7.84013 14.0305 7.8868 14.0647L7.79591 13.9306ZM12.0153 18.7056L12.1271 18.6061L12.0152 18.7054L12.0153 18.7056ZM14.052 8.34702C14.0145 8.29625 13.9757 8.24635 13.9356 8.19738H14.1266L14.052 8.34702Z" fill="#4D6CD9" stroke="#4D6CD9" stroke-width="0.299293"/>
</svg>
