<svg width="41" height="41" viewBox="0 0 41 41" fill="none" xmlns="http://www.w3.org/2000/svg">
<path d="M40.5317 20.6277C40.5317 24.8005 39.2235 28.8683 36.791 32.2588C34.3586 35.6493 30.9243 38.1919 26.9715 39.5288C23.0186 40.8657 18.7461 40.9297 14.755 39.7117C10.7639 38.4937 7.25504 36.0551 4.72217 32.739C2.18929 29.4228 0.759842 25.396 0.63492 21.225C0.509997 17.0541 1.69589 12.9489 4.02576 9.48711C6.35563 6.0253 9.71221 3.38107 13.6233 1.92642C17.5343 0.471775 21.803 0.279928 25.8288 1.37787L23.922 8.3694C21.3584 7.67023 18.6401 7.7924 16.1495 8.71872C13.659 9.64504 11.5215 11.3289 10.0378 13.5334C8.55418 15.7378 7.79901 18.352 7.87856 21.0081C7.95811 23.6641 8.86838 26.2284 10.4813 28.3401C12.0943 30.4519 14.3287 32.0048 16.8702 32.7804C19.4117 33.556 22.1325 33.5153 24.6497 32.6639C27.1669 31.8126 29.3538 30.1935 30.9028 28.0344C32.4518 25.8753 33.2849 23.2849 33.2849 20.6277H40.5317Z" fill="#00E777"/>
<path d="M28.5452 3.42744C31.3427 4.72326 33.782 6.68189 35.6514 9.13352C37.5208 11.5851 38.764 14.4558 39.2732 17.4965L34.534 18.2901C34.1539 16.0202 33.2259 13.8773 31.8303 12.0471C30.4348 10.217 28.614 8.75489 26.5256 7.78756L28.5452 3.42744Z" fill="#4D6CD9"/>
</svg>
