<svg width="80" height="80" viewBox="0 0 80 80" fill="none" xmlns="http://www.w3.org/2000/svg">
<rect width="80" height="80" fill="#4D6CD9"/>
<g clip-path="url(#clip0_4134_237756)">
<rect width="1440" height="900" transform="translate(-1031 -453)" fill="white"/>
<rect x="-1031" y="-453" width="1440" height="900" fill="#4D6CD9"/>
<path fill-rule="evenodd" clip-rule="evenodd" d="M74 640C293.257 640 471 462.257 471 243C471 23.743 293.257 -154 74 -154C-145.257 -154 -323 23.743 -323 243C-323 462.257 -145.257 640 74 640ZM74 458C192.741 458 289 361.741 289 243C289 124.259 192.741 28 74 28C-44.7412 28 -141 124.259 -141 243C-141 361.741 -44.7412 458 74 458Z" fill="url(#paint0_linear_4134_237756)"/>
<g filter="url(#filter0_d_4134_237756)">
<rect x="-836" y="-341" width="1050" height="676" rx="16" fill="white"/>
</g>
<rect x="1" y="1" width="78" height="78" rx="15" fill="white" stroke="#4D6CD9" stroke-width="2"/>
<path d="M53.0825 43.3858C52.3968 40.8013 50.2343 38.8498 47.5971 38.5333L45.2236 38.2168L44.5379 36.1598C46.4367 34.8412 47.9135 32.7841 48.441 30.3051C49.1267 29.9359 50.2343 29.0392 50.2343 26.7712C50.2343 25.1361 49.9706 24.134 49.3904 23.6065C49.2322 23.501 49.1267 23.4483 48.9684 23.3428C48.441 18.3321 44.4324 14.4817 39.4744 14.4817C34.5164 14.4817 30.5078 18.3321 29.9803 23.3428C29.8221 23.3956 29.7166 23.501 29.6111 23.6065C29.0309 24.1867 28.7672 25.1361 28.7672 26.7712C28.7672 29.0392 29.8748 29.9359 30.5078 30.3051C31.088 32.7841 32.5121 34.8412 34.4109 36.1598L33.7252 38.2168L31.4044 38.5333C28.7144 38.9025 26.5519 40.8013 25.919 43.3858L25.7607 44.0715H53.2935L53.0825 43.3858ZM33.145 21.1803C33.1978 20.7583 33.567 20.4946 33.9362 20.6001C35.3075 20.9165 37.3118 21.1275 39.4744 21.1275C41.6369 21.1275 43.5885 20.9165 45.0126 20.6001C45.3818 20.4946 45.6983 20.7583 45.8037 21.1803C45.9092 21.9187 45.962 22.7626 46.0675 23.5538L41.215 23.9757C40.6348 24.0285 40.0546 24.0812 39.5271 24.0812C38.9469 24.0812 38.3667 24.0812 37.8393 23.9757L32.9868 23.5538C32.9868 22.7626 33.0923 21.866 33.145 21.1803ZM35.0966 39.008L35.7822 36.951C36.9426 37.4784 38.1558 37.7949 39.4744 37.7949C40.7403 37.7949 42.0061 37.4784 43.1138 36.951L43.7994 39.008C41.215 40.9068 37.7338 40.9068 35.0966 39.008ZM39.4744 36.2125C35.835 36.2125 32.723 33.4171 31.9846 29.5667C31.9319 29.2502 31.7209 29.0392 31.4044 28.9338C31.2989 28.9338 30.3495 28.6173 30.3495 26.7712C30.3495 25.7691 30.455 25.2944 30.5605 25.0306C30.7187 25.0306 30.8242 25.0306 30.8242 25.0306C30.8242 25.2944 30.9825 26.2965 31.2462 26.2965H32.3538C32.5648 26.2965 32.7758 26.0855 32.7758 25.8746C32.7758 25.8746 32.8285 25.4526 32.8813 24.8724L33.6725 25.1361C33.6725 26.1383 33.7252 26.7712 33.9362 27.1404C34.4109 28.0371 35.0966 28.5118 36.0987 28.5118C37.3646 28.5118 38.2085 28.0898 38.6832 27.2987C38.9469 26.8767 39.0524 26.2965 39.1052 25.3471C39.1052 25.1889 39.2107 25.0834 39.3689 25.0834H39.8436C39.9491 25.0834 40.0546 25.1889 40.1073 25.3471C40.1601 26.2965 40.3183 26.8767 40.5293 27.2987C40.9512 28.0898 41.7951 28.5118 43.061 28.5118C44.0632 28.5118 44.7489 28.0371 45.2236 27.1404C45.3818 26.7712 45.4873 26.0855 45.4873 25.1361L46.2257 24.8724C46.2784 25.4526 46.3312 25.8746 46.3312 25.8746C46.3312 26.1383 46.4894 26.2965 46.7532 26.2965H47.8608C48.0718 26.2965 48.2827 25.2944 48.2827 25.0306C48.2827 25.0306 48.441 25.0306 48.5465 25.0306C48.652 25.2944 48.7575 25.8218 48.7575 26.7712C48.7575 28.6173 47.7553 28.9338 47.7026 28.9338C47.4388 28.9865 47.1751 29.2502 47.1224 29.5667C46.2784 33.4171 43.1138 36.2125 39.4744 36.2125Z" fill="#4D6CD9"/>
<path d="M41.4253 30.9906C40.6869 31.8345 38.2606 31.8345 37.5222 30.9906C37.3112 30.7796 36.9947 30.7269 36.731 30.9378C36.52 31.1488 36.4673 31.4653 36.6783 31.729C37.2584 32.4147 38.3133 32.8366 39.4737 32.8366C40.6341 32.8366 41.689 32.4147 42.2692 31.729C42.4802 31.518 42.4274 31.1488 42.2165 30.9378C41.9527 30.7269 41.6363 30.7269 41.4253 30.9906Z" fill="#4D6CD9"/>
<path d="M53.9257 45.9177H25.0216C23.8084 45.9177 22.859 46.9726 23.0173 48.1858L24.9688 62.8488C25.1271 63.8509 25.971 64.5894 26.9731 64.5894H52.0269C53.029 64.5894 53.873 63.8509 54.0312 62.8488L55.9827 48.1858C56.141 46.9726 55.1916 45.9177 53.9257 45.9177ZM39.4736 57.3106C38.3133 57.3106 37.3638 56.3612 37.3638 55.2008C37.3638 54.0404 38.3133 53.091 39.4736 53.091C40.634 53.091 41.5834 54.0404 41.5834 55.2008C41.5834 56.4139 40.634 57.3106 39.4736 57.3106Z" fill="#4D6CD9"/>
</g>
<defs>
<filter id="filter0_d_4134_237756" x="-916" y="-421" width="1210" height="836" filterUnits="userSpaceOnUse" color-interpolation-filters="sRGB">
<feFlood flood-opacity="0" result="BackgroundImageFix"/>
<feColorMatrix in="SourceAlpha" type="matrix" values="0 0 0 0 0 0 0 0 0 0 0 0 0 0 0 0 0 0 127 0" result="hardAlpha"/>
<feOffset/>
<feGaussianBlur stdDeviation="40"/>
<feColorMatrix type="matrix" values="0 0 0 0 0.0650159 0 0 0 0 0.151255 0 0 0 0 0.454481 0 0 0 0.22 0"/>
<feBlend mode="normal" in2="BackgroundImageFix" result="effect1_dropShadow_4134_237756"/>
<feBlend mode="normal" in="SourceGraphic" in2="effect1_dropShadow_4134_237756" result="shape"/>
</filter>
<linearGradient id="paint0_linear_4134_237756" x1="90.6484" y1="-9.28709" x2="74" y2="640" gradientUnits="userSpaceOnUse">
<stop stop-color="#4D6CD9"/>
<stop offset="1" stop-color="#6A85E5"/>
</linearGradient>
<clipPath id="clip0_4134_237756">
<rect width="1440" height="900" fill="white" transform="translate(-1031 -453)"/>
</clipPath>
</defs>
</svg>
