<svg width="25" height="25" viewBox="0 0 25 25" fill="none" xmlns="http://www.w3.org/2000/svg">
<path d="M22.4958 20.7416V18.968C22.4952 18.1821 22.2337 17.4186 21.7521 16.7974C21.2706 16.1763 20.5964 15.7326 19.8354 15.5361" stroke="#4D6CD9" stroke-width="1.99529" stroke-linecap="round" stroke-linejoin="round"/>
<path d="M17.175 20.7436V18.97C17.175 18.0293 16.8013 17.127 16.1361 16.4618C15.4709 15.7966 14.5686 15.4229 13.6279 15.4229H6.53351C5.59274 15.4229 4.6905 15.7966 4.02527 16.4618C3.36005 17.127 2.98633 18.0293 2.98633 18.97V20.7436" stroke="#4D6CD9" stroke-width="1.99529" stroke-linecap="round" stroke-linejoin="round"/>
<path d="M16.2881 4.89551C17.0511 5.09087 17.7274 5.53462 18.2103 6.15681C18.6933 6.77899 18.9554 7.54421 18.9554 8.33184C18.9554 9.11946 18.6933 9.88469 18.2103 10.5069C17.7274 11.1291 17.0511 11.5728 16.2881 11.7682" stroke="#4D6CD9" stroke-width="1.99529" stroke-linecap="round" stroke-linejoin="round"/>
<path d="M10.0809 11.8746C12.0399 11.8746 13.628 10.2865 13.628 8.32745C13.628 6.3684 12.0399 4.78027 10.0809 4.78027C8.12182 4.78027 6.53369 6.3684 6.53369 8.32745C6.53369 10.2865 8.12182 11.8746 10.0809 11.8746Z" stroke="#4D6CD9" stroke-width="1.99529" stroke-linecap="round" stroke-linejoin="round"/>
</svg>
