<svg width="100" height="100" viewBox="0 0 100 100" fill="none" xmlns="http://www.w3.org/2000/svg">
<path d="M34.2618 15.2611C36.577 10.9187 42.0841 9.44305 46.2603 12.0461L50.6705 14.795C52.9984 16.246 55.8399 16.6201 58.464 15.8211L63.4354 14.3072C68.143 12.8738 73.0806 15.7245 74.193 20.5181L75.3677 25.5804C75.9878 28.2525 77.7324 30.5262 80.153 31.8167L84.7388 34.2617C89.0812 36.5768 90.5568 42.084 87.9537 46.2601L85.2048 50.6704C83.7538 52.9983 83.3797 55.8397 84.1788 58.4638L85.6926 63.4353C87.1261 68.1429 84.2754 73.0804 79.4817 74.1928L74.4194 75.3675C71.7473 75.9876 69.4736 77.7323 68.1831 80.1529L65.7382 84.7386C63.423 89.081 57.9159 90.5566 53.7397 87.9536L49.3295 85.2047C47.0016 83.7537 44.1601 83.3796 41.536 84.1786L36.5646 85.6924C31.857 87.1259 26.9194 84.2752 25.807 79.4816L24.6323 74.4193C24.0122 71.7472 22.2676 69.4735 19.847 68.1829L15.2612 65.738C10.9188 63.4229 9.44321 57.9157 12.0462 53.7396L14.7952 49.3293C16.2462 47.0014 16.6203 44.16 15.8212 41.5358L14.3074 36.5644C12.8739 31.8568 15.7246 26.9192 20.5183 25.8069L25.5806 24.6321C28.2527 24.0121 30.5264 22.2674 31.8169 19.8468L34.2618 15.2611Z" stroke="#1749C7"/>
<path d="M35.9343 18.6044C37.9771 14.7728 42.8364 13.4708 46.5212 15.7676L50.6396 18.3346C52.7225 19.6329 55.2648 19.9676 57.6128 19.2527L62.2552 17.839C66.409 16.5742 70.7657 19.0895 71.7472 23.3192L72.8442 28.0465C73.399 30.4374 74.96 32.4717 77.1258 33.6264L81.4081 35.9095C85.2396 37.9523 86.5416 42.8116 84.2448 46.4964L81.6778 50.6148C80.3795 52.6977 80.0448 55.24 80.7598 57.5879L82.1734 62.2304C83.4382 66.3842 80.9229 70.7409 76.6932 71.7224L71.9659 72.8194C69.5751 73.3742 67.5407 74.9352 66.386 77.101L64.1029 81.3833C62.0601 85.2148 57.2009 86.5168 53.516 84.22L49.3976 81.653C47.3147 80.3547 44.7724 80.02 42.4245 80.735L37.782 82.1486C33.6283 83.4134 29.2716 80.8981 28.2901 76.6684L27.1931 71.9411C26.6383 69.5503 25.0772 67.5159 22.9115 66.3612L18.6292 64.0781C14.7976 62.0353 13.4956 57.1761 15.7924 53.4912L18.3594 49.3728C19.6577 47.2899 19.9924 44.7476 19.2775 42.3997L17.8638 37.7572C16.599 33.6034 19.1143 29.2468 23.344 28.2653L28.0713 27.1683C30.4622 26.6135 32.4965 25.0524 33.6512 22.8867L35.9343 18.6044Z" stroke="#1749C7" stroke-linecap="round" stroke-linejoin="round"/>
<path d="M30.2488 33.3296L38.3344 31.1631" stroke="#1749C7" stroke-width="0.523179"/>
<path d="M43.2209 25.9346L45.1592 27.7502L47.8144 27.6979L46.6866 30.1023L47.5569 32.6114L44.9217 32.2818L42.8043 33.8848L42.3034 31.2768L40.1245 29.7584L42.4502 28.476L43.2209 25.9346Z" fill="#1749C7"/>
<path d="M50.0671 28.0195L58.1528 25.853" stroke="#1749C7" stroke-width="0.523179"/>
<path d="M27.8692 42.2602L32.1787 52.1822L29.4239 52.9203L28.792 51.0987L27.8268 51.3573L28.1648 53.2577L25.378 54.0044L23.9766 43.3032L27.8692 42.2602ZM28.2244 49.2872C27.7744 48.1535 27.251 46.7452 26.6539 45.0625C26.9103 47.1102 27.127 48.6006 27.304 49.5338L28.2244 49.2872Z" fill="#1749C7"/>
<path d="M37.3603 44.5473L34.6694 45.2683L34.1871 43.4682C34.0468 42.9447 33.9298 42.6272 33.8359 42.5155C33.7452 42.3984 33.6018 42.3661 33.4058 42.4186C33.1842 42.478 33.0647 42.5944 33.0472 42.7679C33.0298 42.9413 33.0912 43.2898 33.2314 43.8132L34.5177 48.6135C34.6522 49.1157 34.7698 49.4354 34.8705 49.5726C34.9713 49.7098 35.126 49.7504 35.3348 49.6945C35.5351 49.6408 35.6445 49.5294 35.6631 49.3602C35.686 49.1899 35.6216 48.8217 35.4699 48.2557L35.1227 46.9599L37.8136 46.2389L37.9214 46.641C38.2076 47.7092 38.3338 48.4872 38.3002 48.9752C38.2708 49.462 38.0412 49.9431 37.6114 50.4186C37.1859 50.893 36.5939 51.2318 35.8354 51.435C35.0471 51.6462 34.3591 51.6778 33.7714 51.5297C33.1836 51.3816 32.7394 51.0787 32.4386 50.621C32.1368 50.1592 31.8501 49.4218 31.5788 48.409L30.7697 45.3896C30.5702 44.6449 30.4464 44.0805 30.3983 43.6966C30.3491 43.3084 30.404 42.9083 30.563 42.4962C30.7263 42.083 31.0055 41.7186 31.4004 41.4029C31.7985 41.0819 32.2894 40.8431 32.8732 40.6867C33.6658 40.4743 34.3609 40.4523 34.9586 40.6205C35.5563 40.7888 35.9977 41.081 36.2828 41.4972C36.5667 41.9092 36.8381 42.5982 37.0969 43.5642L37.3603 44.5473Z" fill="#1749C7"/>
<path d="M42.5381 38.3296L43.0922 40.3979L41.4943 40.826L43.7093 49.0926L41.0184 49.8136L38.8034 41.5471L37.2119 41.9735L36.6577 39.9053L42.5381 38.3296Z" fill="#1749C7"/>
<path d="M45.8426 37.4442L48.6118 47.779L45.9209 48.5L43.1517 38.1652L45.8426 37.4442Z" fill="#1749C7"/>
<path d="M53.3144 35.4421L54.7158 46.1434L50.6315 47.2378L46.3092 37.3192L49.1471 36.5588C50.238 39.3179 51.1172 41.6616 51.7846 43.59C51.3927 41.565 51.0665 39.7595 50.806 38.1736L50.4765 36.2025L53.3144 35.4421Z" fill="#1749C7"/>
<path d="M53.7746 35.3188L58.2616 34.1165L58.8158 36.1848L57.0197 36.666L57.5448 38.6257L59.2258 38.1753L59.7526 40.1414L58.0716 40.5918L58.6805 42.8643L60.6556 42.3351L61.2097 44.4033L56.5438 45.6536L53.7746 35.3188Z" fill="#1749C7"/>
<path d="M61.9112 33.1386L64.1262 41.4052L65.7625 40.9667L66.3167 43.0349L61.9895 44.1944L59.2203 33.8596L61.9112 33.1386Z" fill="#1749C7"/>
<path d="M69.9392 30.9875L69.7438 38.1074L70.7461 41.8481L68.2534 42.516L67.2511 38.7753L63.5922 32.6882L66.0658 32.0254C66.9929 33.9344 67.5734 35.2316 67.8073 35.917C67.6611 34.7748 67.5472 33.3526 67.4656 31.6503L69.9392 30.9875Z" fill="#1749C7"/>
<path d="M39.6483 53.4439L42.4175 63.7786L39.7266 64.4997L38.5635 60.1589L37.7581 60.3747L38.9212 64.7154L36.2303 65.4365L33.4611 55.1017L36.152 54.3807L37.1424 58.0767L37.9477 57.8609L36.9574 54.1649L39.6483 53.4439Z" fill="#1749C7"/>
<path d="M43.4258 52.4317L46.1949 62.7665L43.504 63.4875L40.7349 53.1527L43.4258 52.4317Z" fill="#1749C7"/>
<path d="M44.5059 52.1423L46.4107 51.6319C47.6805 51.2916 48.5522 51.1105 49.0258 51.0885C49.5038 51.0654 49.9375 51.2183 50.327 51.5472C50.7197 51.8707 51.0341 52.4729 51.2701 53.3538C51.4856 54.1582 51.5303 54.7254 51.4042 55.0557C51.278 55.386 50.9283 55.6576 50.3551 55.8705C50.9231 55.8597 51.3284 55.9404 51.5709 56.1126C51.8134 56.2848 51.9811 56.4588 52.0739 56.6346C52.1698 56.805 52.3295 57.3073 52.553 58.1414L53.2833 60.8671L50.7842 61.5368L49.864 58.1025C49.7157 57.5493 49.5792 57.2187 49.4543 57.1107C49.3338 57.0016 49.0881 56.9968 48.7174 57.0961L49.966 61.756L47.2751 62.477L44.5059 52.1423ZM47.6706 53.1894L48.2864 55.4875C48.5889 55.4064 48.789 55.3095 48.8867 55.1966C48.9874 55.0784 48.9768 54.7916 48.8548 54.3363L48.7026 53.7682C48.6148 53.4405 48.4975 53.2415 48.3508 53.1714C48.2084 53.1001 47.9817 53.1061 47.6706 53.1894Z" fill="#1749C7"/>
<path d="M54.2532 49.5305L57.0224 59.8652L54.3315 60.5863L51.5624 50.2515L54.2532 49.5305Z" fill="#1749C7"/>
<path d="M61.3416 47.6312L64.1108 57.9659L61.7523 58.5979L59.0936 54.2747L60.3525 58.9729L58.1026 59.5758L55.3334 49.241L57.5833 48.6382L60.3387 52.8875L59.0917 48.234L61.3416 47.6312Z" fill="#1749C7"/>
<path d="M69.622 49.4901L66.9311 50.2111L66.6797 49.2728C66.5212 48.6812 66.3964 48.3178 66.3053 48.1826C66.2143 48.0474 66.0729 48.0054 65.8811 48.0568C65.715 48.1013 65.6191 48.1954 65.5937 48.3391C65.5683 48.4827 65.6262 48.8184 65.7676 49.3461L67.0966 54.306C67.2209 54.7699 67.3329 55.0683 67.4324 55.2013C67.5308 55.33 67.6695 55.3703 67.8485 55.3224C68.0445 55.2699 68.1544 55.1515 68.1781 54.9672C68.206 54.7819 68.1556 54.4487 68.0268 53.9679L67.6984 52.7422L67.1551 52.8878L66.7343 51.3175L69.8854 50.4732L71.3718 56.0203L69.678 56.4742L69.2303 55.8005C69.1326 56.1688 68.9648 56.4715 68.7269 56.7085C68.4921 56.9402 68.1851 57.1068 67.8058 57.2085C67.3541 57.3295 66.9011 57.3346 66.4467 57.2237C65.9953 57.1075 65.6241 56.915 65.3329 56.6464C65.0417 56.3778 64.8232 56.0737 64.6774 55.7342C64.5305 55.3904 64.3618 54.8632 64.1714 54.1525L63.3487 51.0821C63.0841 50.0948 62.9453 49.3634 62.9321 48.8881C62.9189 48.4127 63.1141 47.9225 63.5177 47.4175C63.9244 46.9072 64.5283 46.5447 65.3294 46.33C66.1177 46.1188 66.8151 46.1052 67.4216 46.2894C68.0282 46.4735 68.4701 46.7679 68.7475 47.1725C69.0238 47.5728 69.2753 48.1964 69.5023 49.0433L69.622 49.4901Z" fill="#1749C7"/>
<path d="M40.7495 72.5186L48.8351 70.352" stroke="#1749C7" stroke-width="0.523179"/>
<path d="M53.7217 65.1236L55.6599 66.9391L58.3151 66.8868L57.1874 69.2912L58.0576 71.8004L55.4224 71.4708L53.305 73.0738L52.8041 70.4657L50.6252 68.9473L52.9509 67.665L53.7217 65.1236Z" fill="#1749C7"/>
<path d="M60.5679 67.2085L68.6535 65.042" stroke="#1749C7" stroke-width="0.523179"/>
</svg>
