<svg width="30" height="31" viewBox="0 0 30 31" fill="none" xmlns="http://www.w3.org/2000/svg">
<path d="M28.082 12.7433L26.7723 12.0092L14.9849 5.33521H14.8408C14.7605 5.30062 14.6772 5.2738 14.592 5.25513H14.3431H14.1074C14.0179 5.27381 13.9303 5.30062 13.8455 5.33521H13.7014L1.91396 12.0092C1.7124 12.1256 1.54474 12.2945 1.4281 12.4985C1.31146 12.7025 1.25 12.9344 1.25 13.1705C1.25 13.4066 1.31146 13.6385 1.4281 13.8425C1.54474 14.0465 1.7124 14.2153 1.91396 14.3318L5.17515 16.1738V22.5007C5.17515 23.5628 5.58911 24.5813 6.32596 25.3323C7.06282 26.0832 8.06221 26.5051 9.10429 26.5051H19.582C20.6241 26.5051 21.6235 26.0832 22.3603 25.3323C23.0972 24.5813 23.5111 23.5628 23.5111 22.5007V16.1738L26.1306 14.6788V18.4963C26.1306 18.8503 26.2686 19.1899 26.5142 19.4402C26.7598 19.6905 27.0929 19.8311 27.4403 19.8311C27.7876 19.8311 28.1208 19.6905 28.3664 19.4402C28.612 19.1899 28.75 18.8503 28.75 18.4963V13.9046C28.7496 13.6681 28.6875 13.4359 28.5702 13.2319C28.4528 13.0278 28.2844 12.8592 28.082 12.7433ZM20.8917 22.5007C20.8917 22.8547 20.7537 23.1943 20.5081 23.4446C20.2625 23.6949 19.9294 23.8355 19.582 23.8355H9.10429C8.75693 23.8355 8.4238 23.6949 8.17818 23.4446C7.93256 23.1943 7.79457 22.8547 7.79457 22.5007V17.6554L13.7014 20.9924L13.8978 21.0725H14.0157C14.1244 21.0865 14.2344 21.0865 14.3431 21.0725C14.4519 21.0865 14.5619 21.0865 14.6706 21.0725H14.7884C14.858 21.0576 14.9244 21.0305 14.9849 20.9924L20.8917 17.6554V22.5007ZM14.3431 18.3095L5.25373 13.1571L14.3431 8.00481L23.4326 13.1571L14.3431 18.3095Z" fill="#4D6CD9"/>
</svg>
