<svg width="81" height="80" viewBox="0 0 81 80" fill="none" xmlns="http://www.w3.org/2000/svg">
<rect x="0.5" width="80" height="80" rx="16" fill="white"/>
<path d="M60.3478 47.7833C59.8964 47.5038 59.3448 47.468 58.8647 47.6973L48.9555 52.4549C48.4037 53.1785 47.5296 53.6514 46.548 53.6514H39.254C38.8599 53.6514 38.5375 53.329 38.5375 52.9349C38.5375 52.5409 38.8599 52.2184 39.254 52.2184H46.548C47.0997 52.2184 47.5798 51.939 47.8664 51.5163C47.8735 51.5019 47.8807 51.4876 47.8879 51.4804C48.0383 51.2368 48.1243 50.9574 48.1243 50.6565C48.1243 49.7895 47.415 49.0873 46.548 49.0873L41.2889 49.0945C41.1097 49.0945 40.9449 49.03 40.8088 48.9082C38.5661 46.902 35.6643 45.6624 33.0562 45.5979C30.269 45.5334 27.7541 45.512 26.5719 45.512V55.3639C29.6457 57.1623 37.1045 61.1532 39.9633 60.9956C45.6022 60.6875 60.0756 50.5203 60.2189 50.42C60.2404 50.4057 60.2619 50.3914 60.2834 50.3842C60.7634 50.1119 61.0572 49.6103 61.0572 49.0658C61.0572 48.5356 60.7992 48.0699 60.3478 47.7833ZM19.5 44.0933V57.5206H25.1389V44.0933H19.5ZM22.323 55.7651C21.6352 55.7651 21.0691 55.1991 21.0691 54.5041C21.0691 53.8162 21.6352 53.2574 22.323 53.2574C23.018 53.2574 23.5769 53.8162 23.5769 54.5041C23.5769 55.1991 23.018 55.7651 22.323 55.7651Z" fill="#4D6CD9"/>
<path d="M39.5656 18C32.9085 18 27.4921 23.4165 27.4921 30.0739C27.4921 36.7312 32.9085 42.1474 39.5656 42.1474C46.2226 42.1474 51.6391 36.7312 51.6391 30.0739C51.6391 23.4165 46.2226 18 39.5656 18ZM46.8195 36.3298C46.7789 36.2237 46.7222 36.1241 46.6484 36.0541C46.5051 35.9037 46.3045 35.8177 46.0967 35.8177C45.9032 35.8177 45.674 35.918 45.5378 36.0541C45.2369 36.3551 45.2369 36.8495 45.5378 37.1504C45.607 37.2196 45.7003 37.2786 45.7998 37.3208C44.293 38.5696 42.3919 39.3599 40.3116 39.4975C40.3279 39.435 40.3503 39.3745 40.3503 39.3071C40.3503 38.8772 39.9993 38.5261 39.5622 38.5261C39.1323 38.5261 38.7812 38.8772 38.7812 39.3071C38.7812 39.3708 38.8031 39.4276 38.8177 39.487C36.778 39.3076 34.9238 38.492 33.4532 37.2426C33.5015 37.2121 33.5566 37.1875 33.5937 37.1504C33.8946 36.8495 33.8946 36.3551 33.5865 36.047C33.4361 35.8965 33.2426 35.8177 33.0348 35.8177C32.8414 35.8177 32.6121 35.9108 32.4831 36.0541C32.443 36.0943 32.4222 36.1447 32.3928 36.1909C31.126 34.7189 30.3106 32.8611 30.148 30.8218C30.2091 30.8372 30.2679 30.8595 30.3336 30.8595C30.7635 30.8595 31.1146 30.5084 31.1146 30.0713C31.1146 29.6414 30.7635 29.2904 30.3336 29.2904C30.2679 29.2904 30.209 29.3126 30.1479 29.328C30.3101 27.2876 31.1257 25.4287 32.3931 23.9561C32.4228 24.0041 32.4462 24.0587 32.4831 24.0957C32.6121 24.2318 32.8485 24.3322 33.0348 24.3322C33.2283 24.3322 33.4576 24.2318 33.5937 24.0957C33.8946 23.7876 33.8946 23.2932 33.5865 22.9923C33.5493 22.9551 33.4962 22.9353 33.4491 22.9085C34.9204 21.6569 36.7763 20.8398 38.8182 20.6603C38.8033 20.7205 38.7812 20.7782 38.7812 20.8428C38.7812 21.2727 39.1323 21.6238 39.5622 21.6238C39.9993 21.6238 40.3503 21.2727 40.3503 20.8428C40.3503 20.7744 40.3278 20.713 40.3111 20.6498C42.3912 20.7873 44.2923 21.5773 45.799 22.8259C45.6993 22.8663 45.6066 22.9235 45.5378 22.9923C45.2369 23.2932 45.2369 23.7876 45.545 24.1029C45.674 24.239 45.9032 24.3322 46.0967 24.3322C46.283 24.3322 46.5123 24.239 46.6412 24.1029C46.7233 24.0247 46.7813 23.926 46.8215 23.8198C48.1769 25.3343 49.0466 27.2764 49.1965 29.4162C49.078 29.3435 48.9466 29.2904 48.7979 29.2904C48.368 29.2904 48.0169 29.6414 48.0169 30.0713C48.0169 30.5084 48.368 30.8595 48.7979 30.8595C48.9465 30.8595 49.0778 30.8063 49.1964 30.7333C49.046 32.8733 48.1756 34.8154 46.8195 36.3298Z" fill="#4D6CD9"/>
<path d="M39.6326 36.568C39.2366 36.568 38.9161 36.2472 38.9161 35.8515V23.6125C38.9161 23.2168 39.2366 22.896 39.6326 22.896C40.0287 22.896 40.3491 23.2168 40.3491 23.6125V35.8515C40.3491 36.2472 40.0287 36.568 39.6326 36.568Z" fill="#4D6CD9"/>
<path d="M39.6294 31.6095C38.8231 31.6095 38.1674 30.9509 38.1674 30.1412C38.1674 29.3314 38.8231 28.6729 39.6294 28.6729C40.4391 28.6729 41.0977 29.3314 41.0977 30.1412C41.0977 30.9509 40.4391 31.6095 39.6294 31.6095Z" fill="#4D6CD9"/>
<path d="M35.0551 35.427C34.8718 35.427 34.6885 35.357 34.5485 35.2171C34.2687 34.9372 34.2687 34.4838 34.5485 34.2039L40.678 28.0741C40.9579 27.7942 41.4113 27.7942 41.6912 28.0741C41.9711 28.354 41.9711 28.8074 41.6912 29.0873L35.5617 35.2171C35.4218 35.357 35.2385 35.427 35.0551 35.427Z" fill="#4D6CD9"/>
</svg>
