<svg width="200" height="200" viewBox="0 0 200 200" fill="none" xmlns="http://www.w3.org/2000/svg">
<rect width="200" height="200" rx="16" fill="white"/>
<path d="M143.734 87.1845C148.667 87.1845 152.679 83.1721 152.679 78.2395C152.679 73.3069 148.667 69.2944 143.734 69.2944C140.726 69.2944 138.075 70.7977 136.452 73.0813C136.129 74.3847 135.618 75.6085 134.943 76.7286C134.858 77.222 134.79 77.723 134.79 78.2395C134.79 83.1721 138.803 87.1845 143.734 87.1845Z" fill="#4D6CD9"/>
<path d="M136.078 126.069V128.564V147.255C136.078 148.768 137.31 149.999 138.823 149.999H148.647C150.161 149.999 151.392 148.767 151.392 147.255V128.564V125.496H154.46H155.095C156.608 125.496 157.839 124.264 157.839 122.752V104.701C157.839 99.7436 153.806 95.7119 148.85 95.7119H141.973C142.36 96.9576 142.569 98.2775 142.569 99.6462V119.633C142.569 123.172 139.673 126.069 136.133 126.069H136.078Z" fill="#4D6CD9"/>
<path d="M123.554 80.1144C129.196 80.1144 133.787 75.524 133.787 69.8814C133.787 64.2389 129.196 59.6484 123.554 59.6484C117.911 59.6484 113.321 64.2389 113.321 69.8814C113.321 75.524 117.911 80.1144 123.554 80.1144Z" fill="#4D6CD9"/>
<path d="M114.747 126.068V146.632C114.747 148.489 116.258 150 118.115 150H128.993C130.85 150 132.361 148.489 132.361 146.632V126.068V123H135.429H136.131C137.988 123 139.499 121.489 139.499 119.632V99.6445C139.499 93.9751 134.886 89.3616 129.217 89.3616H120.036C120.664 90.9891 121.023 92.7474 121.023 94.5889V116.512C121.023 120.127 118.26 123.094 114.747 123.492V126.068Z" fill="#4D6CD9"/>
<path d="M65.5482 78.2395C65.5482 77.7217 65.4803 77.222 65.3957 76.7286C64.7203 75.6085 64.209 74.3847 63.886 73.0813C62.2636 70.7977 59.6122 69.2944 56.6031 69.2944C51.6705 69.2944 47.6581 73.3069 47.6581 78.2395C47.6581 83.1721 51.6705 87.1845 56.6031 87.1845C61.5357 87.1845 65.5482 83.1721 65.5482 78.2395Z" fill="#4D6CD9"/>
<path d="M48.9461 125.496V128.564V147.255C48.9461 148.768 50.1776 149.999 51.6911 149.999H61.5153C63.0288 149.999 64.259 148.767 64.259 147.255V128.564V126.069H64.2052C60.6656 126.069 57.7694 123.173 57.7694 119.633V99.645C57.7694 98.2776 57.9795 96.9563 58.3653 95.7107H51.4886C46.533 95.712 42.5 99.7437 42.5 104.701V122.751C42.5 124.264 43.7315 125.495 45.245 125.495H45.8794H48.9461V125.496Z" fill="#4D6CD9"/>
<path d="M76.7834 80.1144C82.426 80.1144 87.0164 75.524 87.0164 69.8814C87.0164 64.2389 82.426 59.6484 76.7834 59.6484C71.1408 59.6484 66.5504 64.2389 66.5504 69.8814C66.5504 75.524 71.1396 80.1144 76.7834 80.1144Z" fill="#4D6CD9"/>
<path d="M64.2051 123H64.9074H67.9754V126.068V146.632C67.9754 148.489 69.4863 149.999 71.3432 149.999H82.2208C84.0777 149.999 85.5887 148.489 85.5887 146.632V126.068V123.494C82.076 123.096 79.3118 120.128 79.3118 116.513V94.5901C79.3118 92.7486 79.6706 90.9903 80.2985 89.3628H71.1177C65.4482 89.3628 60.8347 93.975 60.8347 99.6458V119.632C60.8373 121.489 62.3482 123 64.2051 123Z" fill="#4D6CD9"/>
<path d="M100.169 73.0444C106.521 73.0444 111.691 67.876 111.691 61.5222C111.691 55.1684 106.522 50 100.169 50C93.8148 50 88.6464 55.1684 88.6464 61.5222C88.6464 67.876 93.8148 73.0444 100.169 73.0444Z" fill="#4D6CD9"/>
<path d="M86.373 120.506H87.1432H90.2112V123.574V146.008C90.2112 148.209 92.0015 150 94.2031 150H106.135C108.336 150 110.127 148.21 110.127 146.008V123.574V120.506H113.195H113.966C116.166 120.506 117.957 118.716 117.957 116.514V94.5909C117.957 88.2076 112.765 83.0149 106.381 83.0149H93.9583C87.5751 83.0149 82.3823 88.2076 82.3823 94.5909V116.514C82.381 118.716 84.1726 120.506 86.373 120.506Z" fill="#4D6CD9"/>
</svg>
