<svg width="49" height="46" viewBox="0 0 49 46" fill="none" xmlns="http://www.w3.org/2000/svg">
<path d="M36.9252 15.1067C41.7375 15.1067 48.499 21.32 48.499 31.3709C48.499 31.6755 48.499 31.9192 48.4381 32.2237C46.7934 27.5333 42.4684 24.0612 37.2907 23.6957C36.9252 22.721 36.4379 21.9901 35.8896 21.1982C34.7932 19.4926 33.453 17.9697 32.052 16.8732C33.6967 15.7158 35.4023 15.1067 36.9252 15.1067Z" fill="#4D6CD9"/>
<path d="M36.8671 0C40.2174 0 43.0195 2.74117 43.0195 6.15239C43.0195 7.49252 42.654 8.6499 41.923 9.68545C41.6793 9.92911 41.5575 10.1728 41.3748 10.2946C40.2783 11.452 38.6945 12.183 36.9889 12.183C35.6488 12.183 34.3696 11.8175 33.3949 11.0256C33.8822 9.74636 34.1868 8.52807 34.1868 7.12703C34.1868 5.23867 33.5777 3.41123 32.603 1.88836C33.6386 0.730978 35.1005 0 36.8671 0Z" fill="#4D6CD9"/>
<path d="M36.4997 26.7417C37.2915 26.7417 38.0834 26.9244 38.7535 27.0463C42.5911 27.96 45.515 31.3712 45.8196 35.3916C45.8805 35.6962 45.8805 35.9398 45.8805 36.2444C45.8805 37.0972 45.8196 37.8891 45.576 38.681C44.4795 42.7014 40.8855 45.6862 36.4387 45.6862C34.4286 45.6862 32.6011 45.077 31.0173 43.9806C29.9209 43.2496 29.0681 42.275 28.3371 41.1785C27.4843 39.7775 26.936 38.0109 26.936 36.3053C26.936 31.6149 30.4691 27.6554 34.9768 26.9244C35.1595 26.8635 35.2814 26.8635 35.4641 26.8635C35.8905 26.7417 36.1951 26.7417 36.4997 26.7417ZM42.1038 34.417C42.4693 33.9906 42.5911 33.3814 42.3475 32.8941C41.9211 31.9804 40.7028 31.7367 39.9718 32.4677C38.388 34.2342 36.8042 36.0617 35.1595 37.8282C34.6113 37.28 34.0021 36.7317 33.4539 36.1835C32.7229 35.5134 31.4437 35.7571 31.0782 36.6708C30.8346 37.219 31.0173 37.8282 31.4437 38.1937L34.1849 40.813C34.4286 41.0567 34.794 41.2394 35.2204 41.2394C35.6468 41.2394 36.0123 41.0567 36.3169 40.7521L37.9007 38.9247C39.3626 37.4627 40.7637 35.9398 42.1038 34.417Z" fill="#4D6CD9"/>
<path d="M29.5543 19.1271C31.199 20.2236 32.7219 21.8683 33.9402 23.9394C33.6356 24.0003 33.2092 24.1221 32.9047 24.1831C27.7269 25.7059 23.8893 30.5182 23.8893 36.2442C23.8893 38.0716 24.2548 39.7772 24.9857 41.361C21.2699 41.4219 17.4932 40.9955 14.9348 39.8382C14.082 39.5336 13.351 39.0463 12.8028 38.559C12.3155 38.0716 11.95 37.6452 11.7063 36.9752C11.4627 36.4269 11.3408 35.8178 11.3408 35.0868C11.3408 27.2288 15.0566 21.5028 19.0161 18.8226C19.8689 18.2134 20.7217 17.787 21.6354 17.4824C22.4882 17.1779 23.341 16.9951 24.1329 16.9951C25.0466 16.9951 26.0213 17.2388 27.0568 17.6043C27.9096 18.0307 28.6406 18.4571 29.5543 19.1271Z" fill="#4D6CD9"/>
<path d="M24.1352 0.243652C27.851 0.243652 30.8358 3.22848 30.8358 6.94428C30.8358 10.6601 27.851 13.6449 24.1352 13.6449C20.4194 13.6449 17.4346 10.6601 17.4346 6.94428C17.4346 3.22848 20.4194 0.243652 24.1352 0.243652Z" fill="#4D6CD9"/>
<path d="M0.5 31.3101C0.5 21.2592 7.26154 15.0459 12.0738 15.0459C13.4748 15.0459 15.1195 15.5941 16.6424 16.6297C15.0586 17.7871 13.6576 19.3099 12.5002 21.1983C9.81996 25.2187 8.23618 30.3964 8.35801 35.0259C8.35801 35.6351 8.35801 36.1833 8.54075 36.7316C5.61684 36.427 3.11934 35.6351 1.90104 34.4168C0.926403 33.564 0.5 32.5284 0.5 31.3101Z" fill="#4D6CD9"/>
<path d="M5.86108 6.21343C5.86108 2.86312 8.60225 0.0610352 12.0135 0.0610352C13.5973 0.0610352 14.9374 0.609268 16.0338 1.5839C14.9374 3.16769 14.3282 5.05605 14.3282 7.18806C14.3282 8.71093 14.6328 10.112 15.181 11.4521C14.3282 12.0612 13.2318 12.4267 12.0135 12.4267C10.3079 12.4267 8.72408 11.6958 7.62761 10.5384C7.44487 10.2947 7.32304 10.0511 7.07938 9.8074C6.28749 8.71093 5.86108 7.55355 5.86108 6.21343Z" fill="#4D6CD9"/>
</svg>
