<svg width="80" height="81" viewBox="0 0 80 81" fill="none" xmlns="http://www.w3.org/2000/svg">
<path d="M52.4259 32.6055C57.2382 32.6055 63.9997 38.8188 63.9997 48.8697C63.9997 49.1743 63.9997 49.418 63.9388 49.7225C62.2941 45.0321 57.9692 41.5599 52.7914 41.1945C52.4259 40.2198 51.9386 39.4888 51.3904 38.6969C50.2939 36.9913 48.9538 35.4685 47.5527 34.372C49.1974 33.2146 50.903 32.6055 52.4259 32.6055Z" fill="white"/>
<path d="M52.3676 17.5C55.7179 17.5 58.5199 20.2412 58.5199 23.6524C58.5199 24.9925 58.1545 26.1499 57.4235 27.1854C57.1798 27.4291 57.058 27.6728 56.8752 27.7946C55.7788 28.952 54.195 29.683 52.4894 29.683C51.1493 29.683 49.87 29.3175 48.8954 28.5256C49.3827 27.2464 49.6873 26.0281 49.6873 24.627C49.6873 22.7387 49.0782 20.9112 48.1035 19.3884C49.1391 18.231 50.601 17.5 52.3676 17.5Z" fill="white"/>
<path d="M51.9992 44.2422C52.7911 44.2422 53.583 44.4249 54.253 44.5468C58.0906 45.4605 61.0146 48.8717 61.3191 52.8921C61.38 53.1967 61.38 53.4403 61.38 53.7449C61.38 54.5977 61.3191 55.3896 61.0755 56.1815C59.979 60.2019 56.385 63.1867 51.9383 63.1867C49.9281 63.1867 48.1006 62.5775 46.5168 61.4811C45.4204 60.7501 44.5676 59.7755 43.8366 58.679C42.9838 57.2779 42.4355 55.5114 42.4355 53.8058C42.4355 49.1154 45.9686 45.1559 50.4763 44.4249C50.659 44.364 50.7809 44.364 50.9636 44.364C51.39 44.2422 51.6946 44.2422 51.9992 44.2422ZM57.6033 51.9174C57.9688 51.491 58.0906 50.8819 57.847 50.3946C57.4206 49.4809 56.2023 49.2372 55.4713 49.9682C53.8875 51.7347 52.3037 53.5621 50.659 55.3287C50.1108 54.7804 49.5017 54.2322 48.9534 53.684C48.2224 53.0139 46.9432 53.2576 46.5778 54.1713C46.3341 54.7195 46.5168 55.3287 46.9432 55.6942L49.6844 58.3135C49.9281 58.5572 50.2936 58.7399 50.72 58.7399C51.1464 58.7399 51.5118 58.5572 51.8164 58.2526L53.4002 56.4251C54.8622 54.9632 56.2632 53.4403 57.6033 51.9174Z" fill="white"/>
<path d="M45.0534 36.6281C46.6981 37.7246 48.2209 39.3693 49.4392 41.4404C49.1346 41.5013 48.7082 41.6231 48.4037 41.684C43.2259 43.2069 39.3883 48.0192 39.3883 53.7452C39.3883 55.5726 39.7538 57.2782 40.4848 58.862C36.769 58.9229 32.9922 58.4965 30.4338 57.3391C29.581 57.0346 28.85 56.5472 28.3018 56.0599C27.8145 55.5726 27.449 55.1462 27.2053 54.4761C26.9617 53.9279 26.8398 53.3188 26.8398 52.5878C26.8398 44.7298 30.5556 39.0038 34.5151 36.3235C35.3679 35.7144 36.2207 35.288 37.1344 34.9834C37.9872 34.6788 38.8401 34.4961 39.6319 34.4961C40.5457 34.4961 41.5203 34.7398 42.5559 35.1052C43.4087 35.5316 44.1396 35.958 45.0534 36.6281Z" fill="white"/>
<path d="M39.6342 17.7422C43.35 17.7422 46.3348 20.727 46.3348 24.4428C46.3348 28.1586 43.35 31.1434 39.6342 31.1434C35.9184 31.1434 32.9336 28.1586 32.9336 24.4428C32.9336 20.727 35.9184 17.7422 39.6342 17.7422Z" fill="white"/>
<path d="M16 48.8111C16 38.7602 22.7615 32.5469 27.5738 32.5469C28.9748 32.5469 30.6195 33.0951 32.1424 34.1307C30.5586 35.288 29.1576 36.8109 28.0002 38.6993C25.32 42.7196 23.7362 47.8974 23.858 52.5269C23.858 53.1361 23.858 53.6843 24.0408 54.2325C21.1168 53.928 18.6193 53.1361 17.401 51.9178C16.4264 51.065 16 50.0294 16 48.8111Z" fill="white"/>
<path d="M21.3613 23.7149C21.3613 20.3646 24.1025 17.5625 27.5137 17.5625C29.0975 17.5625 30.4376 18.1107 31.5341 19.0854C30.4376 20.6692 29.8285 22.5575 29.8285 24.6895C29.8285 26.2124 30.1331 27.6134 30.6813 28.9536C29.8285 29.5627 28.732 29.9282 27.5137 29.9282C25.8081 29.9282 24.2243 29.1972 23.1279 28.0398C22.9451 27.7962 22.8233 27.5525 22.5796 27.3089C21.7877 26.2124 21.3613 25.055 21.3613 23.7149Z" fill="white"/>
</svg>
