<svg width="24" height="24" viewBox="0 0 24 24" fill="none" xmlns="http://www.w3.org/2000/svg">
<path fill-rule="evenodd" clip-rule="evenodd" d="M11.9922 10.7328C14.5517 10.7328 16.6261 12.8074 16.6261 15.3666C16.6261 17.9261 14.5517 20.0005 11.9922 20.0005C9.43277 20.0005 7.3584 17.9261 7.3584 15.3666C7.3584 12.8074 9.43277 10.7328 11.9922 10.7328ZM11.9922 11.6042C13.0305 11.6042 13.9716 12.0261 14.6521 12.7068L14.6523 12.7065C15.333 13.3872 15.7546 14.3284 15.7546 15.3666C15.7546 16.4049 15.3328 17.3463 14.6523 18.0265H14.6521V18.0267C13.9719 18.7072 13.0305 19.129 11.9922 19.129C10.954 19.129 10.0126 18.7072 9.33242 18.0267V18.0265H9.33215C8.65172 17.3463 8.22985 16.4049 8.22985 15.3666C8.22985 14.3284 8.65145 13.3872 9.33215 12.7065L9.33242 12.7068C10.0128 12.0261 10.954 11.6042 11.9922 11.6042ZM14.4914 12.8672C13.8527 12.2282 12.9686 11.8324 11.9922 11.8324C11.0159 11.8324 10.1318 12.2282 9.49304 12.8672V12.8674C8.85378 13.5067 8.458 14.3905 8.458 15.3666C8.458 16.343 8.85378 17.2271 9.49277 17.8658L9.49304 17.8661C10.1318 18.5051 11.0159 18.9009 11.9922 18.9009C12.9686 18.9009 13.8527 18.5051 14.4914 17.8661L14.4917 17.8658C15.1307 17.2271 15.5265 16.343 15.5265 15.3666C15.5265 14.3905 15.1307 13.5067 14.4914 12.8674V12.8672Z" fill="#4D6CD9"/>
<path fill-rule="evenodd" clip-rule="evenodd" d="M6 3C8.12657 3 10.2534 3 12.38 3C11.324 4.82927 10.2682 6.658 9.21218 8.48727C8.14137 6.658 7.07082 4.82927 6 3Z" fill="#4D6CD9"/>
<path fill-rule="evenodd" clip-rule="evenodd" d="M12.8912 3C14.5886 3 16.2863 3 17.9838 3C16.9479 4.82927 15.9124 6.658 14.8763 8.48727C13.1586 8.48727 11.441 8.48727 9.72314 8.48727C10.7792 6.658 11.8349 4.82927 12.8912 3Z" fill="#4D6CD9"/>
<path d="M14.2168 9.30493H9.76514V10.0469H14.2168V9.30493Z" fill="#4D6CD9"/>
</svg>
