<svg width="38" height="50" viewBox="0 0 38 50" fill="none" xmlns="http://www.w3.org/2000/svg">
<path d="M25.5066 1.10718V14.2857H37.0244L25.5066 1.10718Z" fill="#4D6CD9"/>
<path d="M23.7143 17.8571C23.2407 17.8571 22.7865 17.669 22.4516 17.3341C22.1167 16.9992 21.9286 16.545 21.9286 16.0714V0H2.28571C1.81211 0 1.35791 0.188137 1.02302 0.523023C0.688138 0.85791 0.5 1.31211 0.5 1.78571V48.2143C0.5 48.6879 0.688138 49.1421 1.02302 49.477C1.35791 49.8119 1.81211 50 2.28571 50H36.2143C36.6879 50 37.1421 49.8119 37.477 49.477C37.8119 49.1421 38 48.6879 38 48.2143V17.8571H23.7143ZM9.42857 21.4286H27.2857C27.7593 21.4286 28.2135 21.6167 28.5484 21.9516C28.8833 22.2865 29.0714 22.7407 29.0714 23.2143C29.0714 23.6879 28.8833 24.1421 28.5484 24.477C28.2135 24.8119 27.7593 25 27.2857 25H9.42857C8.95497 25 8.50077 24.8119 8.16588 24.477C7.83099 24.1421 7.64286 23.6879 7.64286 23.2143C7.64286 22.7407 7.83099 22.2865 8.16588 21.9516C8.50077 21.6167 8.95497 21.4286 9.42857 21.4286ZM9.42857 28.5714H20.1429C20.6165 28.5714 21.0707 28.7596 21.4055 29.0944C21.7404 29.4293 21.9286 29.8835 21.9286 30.3571C21.9286 30.8307 21.7404 31.2849 21.4055 31.6198C21.0707 31.9547 20.6165 32.1429 20.1429 32.1429H9.42857C8.95497 32.1429 8.50077 31.9547 8.16588 31.6198C7.83099 31.2849 7.64286 30.8307 7.64286 30.3571C7.64286 29.8835 7.83099 29.4293 8.16588 29.0944C8.50077 28.7596 8.95497 28.5714 9.42857 28.5714ZM30.8571 39.2857H9.42857C8.95497 39.2857 8.50077 39.0976 8.16588 38.7627C7.83099 38.4278 7.64286 37.9736 7.64286 37.5C7.64286 37.0264 7.83099 36.5722 8.16588 36.2373C8.50077 35.9024 8.95497 35.7143 9.42857 35.7143H30.8571C31.3307 35.7143 31.7849 35.9024 32.1198 36.2373C32.4547 36.5722 32.6429 37.0264 32.6429 37.5C32.6429 37.9736 32.4547 38.4278 32.1198 38.7627C31.7849 39.0976 31.3307 39.2857 30.8571 39.2857Z" fill="#4D6CD9"/>
</svg>
