<svg width="21" height="20" viewBox="0 0 21 20" fill="none" xmlns="http://www.w3.org/2000/svg">
<path d="M12.5 6H13.5C13.7652 6 14.0196 5.89464 14.2071 5.70711C14.3946 5.51957 14.5 5.26522 14.5 5C14.5 4.73478 14.3946 4.48043 14.2071 4.29289C14.0196 4.10536 13.7652 4 13.5 4H12.5C12.2348 4 11.9804 4.10536 11.7929 4.29289C11.6054 4.48043 11.5 4.73478 11.5 5C11.5 5.26522 11.6054 5.51957 11.7929 5.70711C11.9804 5.89464 12.2348 6 12.5 6ZM12.5 10H13.5C13.7652 10 14.0196 9.89464 14.2071 9.70711C14.3946 9.51957 14.5 9.26522 14.5 9C14.5 8.73478 14.3946 8.48043 14.2071 8.29289C14.0196 8.10536 13.7652 8 13.5 8H12.5C12.2348 8 11.9804 8.10536 11.7929 8.29289C11.6054 8.48043 11.5 8.73478 11.5 9C11.5 9.26522 11.6054 9.51957 11.7929 9.70711C11.9804 9.89464 12.2348 10 12.5 10ZM7.5 6H8.5C8.76522 6 9.01957 5.89464 9.20711 5.70711C9.39464 5.51957 9.5 5.26522 9.5 5C9.5 4.73478 9.39464 4.48043 9.20711 4.29289C9.01957 4.10536 8.76522 4 8.5 4H7.5C7.23478 4 6.98043 4.10536 6.79289 4.29289C6.60536 4.48043 6.5 4.73478 6.5 5C6.5 5.26522 6.60536 5.51957 6.79289 5.70711C6.98043 5.89464 7.23478 6 7.5 6ZM7.5 10H8.5C8.76522 10 9.01957 9.89464 9.20711 9.70711C9.39464 9.51957 9.5 9.26522 9.5 9C9.5 8.73478 9.39464 8.48043 9.20711 8.29289C9.01957 8.10536 8.76522 8 8.5 8H7.5C7.23478 8 6.98043 8.10536 6.79289 8.29289C6.60536 8.48043 6.5 8.73478 6.5 9C6.5 9.26522 6.60536 9.51957 6.79289 9.70711C6.98043 9.89464 7.23478 10 7.5 10ZM19.5 18H18.5V1C18.5 0.734784 18.3946 0.48043 18.2071 0.292893C18.0196 0.105357 17.7652 0 17.5 0H3.5C3.23478 0 2.98043 0.105357 2.79289 0.292893C2.60536 0.48043 2.5 0.734784 2.5 1V18H1.5C1.23478 18 0.98043 18.1054 0.792893 18.2929C0.605357 18.4804 0.5 18.7348 0.5 19C0.5 19.2652 0.605357 19.5196 0.792893 19.7071C0.98043 19.8946 1.23478 20 1.5 20H19.5C19.7652 20 20.0196 19.8946 20.2071 19.7071C20.3946 19.5196 20.5 19.2652 20.5 19C20.5 18.7348 20.3946 18.4804 20.2071 18.2929C20.0196 18.1054 19.7652 18 19.5 18ZM11.5 18H9.5V14H11.5V18ZM16.5 18H13.5V13C13.5 12.7348 13.3946 12.4804 13.2071 12.2929C13.0196 12.1054 12.7652 12 12.5 12H8.5C8.23478 12 7.98043 12.1054 7.79289 12.2929C7.60536 12.4804 7.5 12.7348 7.5 13V18H4.5V2H16.5V18Z" fill="#4D6CD9"/>
</svg>
