<svg width="24" height="24" viewBox="0 0 24 24" fill="none" xmlns="http://www.w3.org/2000/svg">
<path d="M17.0957 12.3824C17.5425 12.3824 17.9732 12.4468 18.3837 12.5635C18.3918 12.5514 18.3958 12.5394 18.4039 12.5273L19.0559 11.5371C19.233 11.2675 19.233 10.9213 19.0559 10.6516L18.4039 9.66146C18.2147 9.37568 18.1221 9.02953 18.1422 8.6874L18.2066 7.49196C18.2227 7.17398 18.0497 6.8721 17.7639 6.7272L16.7053 6.19187C16.3954 6.03489 16.1498 5.78936 15.9929 5.47943L15.4656 4.42487C15.3207 4.13909 15.0228 3.96601 14.7008 3.98211L13.5054 4.04651C13.1633 4.06664 12.8171 3.97004 12.5313 3.78488L11.5412 3.13283C11.2715 2.95572 10.9253 2.95572 10.6556 3.13283L9.66549 3.78891C9.37971 3.97809 9.03355 4.07066 8.69142 4.05054L7.49598 3.98614C7.178 3.96601 6.87613 4.14311 6.73122 4.42889L6.19589 5.48748C6.03891 5.79741 5.79339 6.04294 5.48346 6.19992L4.42487 6.73525C4.13909 6.88015 3.96601 7.178 3.98211 7.50001L4.04651 8.69545C4.06664 9.03758 3.97004 9.38373 3.78489 9.66951L3.13283 10.6597C2.95572 10.9294 2.95572 11.2755 3.13283 11.5452L3.79294 12.5273C3.98211 12.8131 4.07469 13.1592 4.05456 13.5014L3.99016 14.6968C3.97406 15.0148 4.14714 15.3167 4.43292 15.4616L5.49151 15.9969C5.80144 16.1539 6.04696 16.3994 6.20394 16.7093L6.73927 17.7679C6.88418 18.0537 7.18203 18.2268 7.50403 18.2107L8.69947 18.1463C9.0416 18.1261 9.38776 18.2227 9.67354 18.4079L10.6637 19.06C10.9334 19.2371 11.2795 19.2371 11.5492 19.06L12.5394 18.4079C12.5514 18.3998 12.5635 18.3958 12.5756 18.3878C12.4589 17.9772 12.3945 17.5465 12.3945 17.0998C12.3864 14.4955 14.4996 12.3824 17.0957 12.3824ZM9.53266 8.14402C10.2934 8.14402 10.9133 8.76387 10.9133 9.52461C10.9133 10.2853 10.2934 10.9052 9.53266 10.9052C8.77192 10.9052 8.15207 10.2853 8.15207 9.52461C8.15207 8.76387 8.7679 8.14402 9.53266 8.14402ZM9.21468 13.5497C9.13418 13.6302 9.03355 13.6664 8.9289 13.6664C8.82425 13.6664 8.72362 13.6261 8.64312 13.5497C8.48615 13.3927 8.48615 13.1391 8.64312 12.9821L13.1109 8.51432C13.2679 8.35734 13.5215 8.35734 13.6785 8.51432C13.8354 8.6713 13.8354 8.92488 13.6785 9.08185L9.21468 13.5497ZM11.2836 12.6641C11.2836 11.9034 11.9034 11.2836 12.6641 11.2836C13.4249 11.2836 14.0447 11.9034 14.0447 12.6641C14.0447 13.4249 13.4249 14.0447 12.6641 14.0447C11.9034 14.0447 11.2836 13.4249 11.2836 12.6641Z" fill="#4D6CD9"/>
<path d="M12.6684 13.2398C12.9862 13.2398 13.2439 12.9821 13.2439 12.6642C13.2439 12.3463 12.9862 12.0886 12.6684 12.0886C12.3505 12.0886 12.0928 12.3463 12.0928 12.6642C12.0928 12.9821 12.3505 13.2398 12.6684 13.2398Z" fill="#4D6CD9"/>
<path d="M17.0957 13.1874C14.9423 13.1874 13.1914 14.9383 13.1914 17.0917C13.1914 19.2451 14.9423 20.996 17.0957 20.996C19.2491 20.996 21 19.2451 21 17.0917C21 14.9383 19.2491 13.1874 17.0957 13.1874ZM18.1382 15.6145H18.6896C18.911 15.6145 19.0921 15.7956 19.0921 16.017C19.0921 16.2384 18.911 16.4195 18.6896 16.4195H18.1382C17.9611 17.1722 17.305 17.7397 16.5121 17.784L18.0577 19.2451C18.2187 19.398 18.2267 19.6516 18.0738 19.8126C17.9933 19.8971 17.8886 19.9374 17.78 19.9374C17.6793 19.9374 17.5827 19.9012 17.5022 19.8287L15.2281 17.6753C15.1073 17.5626 15.0711 17.3855 15.1315 17.2326C15.1919 17.0796 15.3408 16.979 15.5058 16.979H16.4195C16.8099 16.979 17.144 16.7495 17.297 16.4155H15.5098C15.2885 16.4155 15.1073 16.2343 15.1073 16.013C15.1073 15.7916 15.2885 15.6105 15.5098 15.6105H17.297C17.144 15.2804 16.8099 15.047 16.4195 15.047H15.5058C15.2844 15.047 15.1033 14.8658 15.1033 14.6444C15.1033 14.4231 15.2844 14.2419 15.5058 14.2419H16.4195H18.6937C18.915 14.2419 19.0962 14.4231 19.0962 14.6444C19.0962 14.8658 18.915 15.047 18.6937 15.047H17.9007C18.0094 15.22 18.0899 15.4092 18.1382 15.6145Z" fill="#4D6CD9"/>
<path d="M9.53261 10.1043C9.8505 10.1043 10.1082 9.84659 10.1082 9.52871C10.1082 9.21082 9.8505 8.95312 9.53261 8.95312C9.21473 8.95312 8.95703 9.21082 8.95703 9.52871C8.95703 9.84659 9.21473 10.1043 9.53261 10.1043Z" fill="#4D6CD9"/>
</svg>
