<svg width="26" height="26" viewBox="0 0 26 26" fill="none" xmlns="http://www.w3.org/2000/svg">
<path d="M23 13C23 18.5228 18.5228 23 13 23C7.47715 23 3 18.5228 3 13C3 7.47715 7.47715 3 13 3C18.5228 3 23 7.47715 23 13Z" stroke="#4D6CD9" stroke-width="2"/>
<path d="M9.02407 15.2145L13.1622 19.8662C13.3079 20.0304 13.5142 20.131 13.7351 20.1476C13.956 20.1642 14.1755 20.0957 14.3453 19.9557C14.5153 19.8156 14.6219 19.615 14.6395 19.3973C14.6572 19.1797 14.5843 18.9652 14.4386 18.8008C14.4385 18.8007 14.4383 18.8005 14.4382 18.8004L11.5361 15.4833H12.1185C13.1064 15.4872 14.0608 15.1342 14.7933 14.4926C15.491 13.8815 15.9391 13.0505 16.0582 12.15H17.3081C17.5296 12.15 17.7431 12.0652 17.9014 11.9127C18.0599 11.7601 18.15 11.5518 18.15 11.3333C18.15 11.1149 18.0599 10.9066 17.9014 10.7539C17.7431 10.6014 17.5296 10.5167 17.3081 10.5167H15.8915C15.7784 10.1493 15.6085 9.801 15.3882 9.48333H17.3081C17.5296 9.48333 17.7431 9.39859 17.9014 9.24608C18.0599 9.0934 18.15 8.88509 18.15 8.66666C18.15 8.44824 18.0599 8.23993 17.9014 8.08724C17.7431 7.93474 17.5296 7.85 17.3081 7.85H9.69725C9.47573 7.85 9.26221 7.93474 9.10393 8.08724C8.94546 8.23993 8.85535 8.44824 8.85535 8.66666C8.85535 8.88509 8.94546 9.0934 9.10393 9.24608C9.26221 9.39859 9.47573 9.48333 9.69725 9.48333H12.1186C12.5482 9.48483 12.9682 9.60337 13.3301 9.82477C13.6196 10.0018 13.8622 10.2388 14.0413 10.5167H9.69725C9.47573 10.5167 9.26221 10.6014 9.10393 10.7539C8.94546 10.9066 8.85535 11.1149 8.85535 11.3333C8.85535 11.5518 8.94546 11.7601 9.10393 11.9127C9.26221 12.0652 9.47573 12.15 9.69725 12.15H14.359C14.2529 12.5992 14.001 13.0069 13.6364 13.3124C13.2257 13.6566 12.6993 13.8478 12.1533 13.85H9.70402C9.67083 13.8472 9.63747 13.8469 9.60425 13.8492C9.54959 13.8426 9.49424 13.8435 9.43975 13.8516L9.42725 13.8535L9.41524 13.8575C9.35647 13.8767 9.30087 13.9044 9.25029 13.9397L9.17402 13.9826L9.16064 13.9901L9.14905 14.0002C9.10213 14.041 9.06128 14.0881 9.02779 14.1403C9.00182 14.174 8.97835 14.2095 8.95757 14.2466L8.9443 14.2702L8.94015 14.297C8.93479 14.3316 8.93281 14.3666 8.93419 14.4015C8.8888 14.4784 8.86177 14.5648 8.85584 14.6543C8.8525 14.6881 8.85203 14.722 8.85444 14.7558C8.84769 14.8095 8.84864 14.8638 8.85728 14.9172L8.85943 14.9306L8.86393 14.9433C8.88102 14.9917 8.90425 15.0376 8.93296 15.0801C8.93475 15.0867 8.93694 15.0938 8.93961 15.1012C8.95226 15.136 8.97728 15.1803 9.02407 15.2145Z" fill="#4D6CD9" stroke="#4D6CD9" stroke-width="0.3"/>
</svg>
