<svg width="24" height="24" viewBox="0 0 24 24" fill="none" xmlns="http://www.w3.org/2000/svg">
<path d="M22.4656 9.99058L21.4179 9.40327L11.9879 4.06407H11.8727C11.8084 4.03639 11.7418 4.01494 11.6736 4H11.4745H11.2859C11.2143 4.01495 11.1442 4.03639 11.0764 4.06407H10.9611L1.53117 9.40327C1.36992 9.4964 1.23579 9.63146 1.14248 9.79467C1.04916 9.95788 1 10.1434 1 10.3323C1 10.5212 1.04916 10.7067 1.14248 10.8699C1.23579 11.0331 1.36992 11.1682 1.53117 11.2613L4.14012 12.7349V17.7965C4.14012 18.6461 4.47129 19.4609 5.06077 20.0617C5.65026 20.6625 6.44977 21 7.28343 21H15.6656C16.4993 21 17.2988 20.6625 17.8883 20.0617C18.4777 19.4609 18.8089 18.6461 18.8089 17.7965V12.7349L20.9045 11.5389V14.593C20.9045 14.8762 21.0148 15.1478 21.2113 15.348C21.4078 15.5483 21.6743 15.6608 21.9522 15.6608C22.2301 15.6608 22.4966 15.5483 22.6931 15.348C22.8896 15.1478 23 14.8762 23 14.593V10.9196C22.9997 10.7304 22.95 10.5446 22.8561 10.3814C22.7622 10.2182 22.6275 10.0833 22.4656 9.99058ZM16.7134 17.7965C16.7134 18.0797 16.603 18.3513 16.4065 18.5516C16.21 18.7518 15.9435 18.8643 15.6656 18.8643H7.28343C7.00554 18.8643 6.73904 18.7518 6.54254 18.5516C6.34605 18.3513 6.23566 18.0797 6.23566 17.7965V13.9202L10.9611 16.5898L11.1183 16.6539H11.2126C11.2995 16.6651 11.3875 16.6651 11.4745 16.6539C11.5615 16.6651 11.6495 16.6651 11.7365 16.6539H11.8308C11.8864 16.6419 11.9396 16.6203 11.9879 16.5898L16.7134 13.9202V17.7965ZM11.4745 14.4435L4.20298 10.3216L11.4745 6.19975L18.746 10.3216L11.4745 14.4435Z" fill="#4D6CD9"/>
</svg>
