<svg width="43" height="42" viewBox="0 0 43 42" fill="none" xmlns="http://www.w3.org/2000/svg">
<path d="M0.5 12C0.5 5.37258 5.87258 0 12.5 0H30.5C37.1274 0 42.5 5.37258 42.5 12V30C42.5 36.6274 37.1274 42 30.5 42H12.5C5.87258 42 0.5 36.6274 0.5 30V12Z" fill="white"/>
<path d="M12.5 15H14.5H30.5" fill="#FF3B2D"/>
<path d="M12.5 15H14.5H30.5" stroke="#FF3B2D" stroke-width="2" stroke-linecap="round" stroke-linejoin="round"/>
<path d="M17.5 15V13C17.5 12.4696 17.7107 11.9609 18.0858 11.5858C18.4609 11.2107 18.9696 11 19.5 11H23.5C24.0304 11 24.5391 11.2107 24.9142 11.5858C25.2893 11.9609 25.5 12.4696 25.5 13V15M28.5 15V29C28.5 29.5304 28.2893 30.0391 27.9142 30.4142C27.5391 30.7893 27.0304 31 26.5 31H16.5C15.9696 31 15.4609 30.7893 15.0858 30.4142C14.7107 30.0391 14.5 29.5304 14.5 29V15H28.5Z" stroke="#FF3B2D" stroke-width="1.5" stroke-linecap="round" stroke-linejoin="round"/>
<path d="M19.5 20V26" stroke="#FF3B2D" stroke-width="1.5" stroke-linecap="round" stroke-linejoin="round"/>
<path d="M23.5 20V26" stroke="#FF3B2D" stroke-width="1.5" stroke-linecap="round" stroke-linejoin="round"/>
<path d="M12.5 1.5H30.5V-1.5H12.5V1.5ZM41 12V30H44V12H41ZM30.5 40.5H12.5V43.5H30.5V40.5ZM2 30V12H-1V30H2ZM12.5 40.5C6.70101 40.5 2 35.799 2 30H-1C-1 37.4558 5.04416 43.5 12.5 43.5V40.5ZM41 30C41 35.799 36.299 40.5 30.5 40.5V43.5C37.9558 43.5 44 37.4558 44 30H41ZM30.5 1.5C36.299 1.5 41 6.20101 41 12H44C44 4.54416 37.9558 -1.5 30.5 -1.5V1.5ZM12.5 -1.5C5.04416 -1.5 -1 4.54416 -1 12H2C2 6.20101 6.70101 1.5 12.5 1.5V-1.5Z" fill="#FF3B2D"/>
</svg>
