<svg width="25" height="24" viewBox="0 0 25 24" fill="none" xmlns="http://www.w3.org/2000/svg">
<path d="M15.8333 19.9996V18.2218C15.8333 17.2788 15.4587 16.3745 14.7919 15.7077C14.1251 15.0409 13.2208 14.6663 12.2778 14.6663H6.05556C5.11256 14.6663 4.20819 15.0409 3.5414 15.7077C2.8746 16.3745 2.5 17.2788 2.5 18.2218V19.9996" stroke="#4D6CD9" stroke-width="2" stroke-linecap="round" stroke-linejoin="round"/>
<path d="M16.7222 11.1115L18.4999 12.8893L22.0555 9.33374" stroke="#4D6CD9" stroke-width="2" stroke-linecap="round" stroke-linejoin="round"/>
<path d="M9.16676 11.1111C11.1304 11.1111 12.7223 9.51923 12.7223 7.55556C12.7223 5.59188 11.1304 4 9.16676 4C7.20308 4 5.61121 5.59188 5.61121 7.55556C5.61121 9.51923 7.20308 11.1111 9.16676 11.1111Z" stroke="#4D6CD9" stroke-width="2" stroke-linecap="round" stroke-linejoin="round"/>
</svg>
