<svg width="25" height="26" viewBox="0 0 25 26" fill="none" xmlns="http://www.w3.org/2000/svg">
<g clip-path="url(#clip0_2721:16171)">
<path d="M24.5002 13.2705C24.5147 12.4318 24.4278 11.5944 24.2414 10.7764H12.7451V15.3038H19.4933C19.3655 16.0977 19.0778 16.8576 18.6476 17.5378C18.2174 18.218 17.6536 18.8045 16.99 19.262L16.9665 19.4136L20.6016 22.2193L20.8533 22.2444C23.1661 20.1161 24.4998 16.9847 24.4998 13.2705" fill="#4285F4"/>
<path d="M12.7444 25.2C16.0504 25.2 18.826 24.1155 20.8534 22.2448L16.9893 19.2625C15.9554 19.9811 14.5676 20.4827 12.7444 20.4827C11.196 20.4737 9.68974 19.9791 8.43935 19.069C7.18896 18.159 6.25794 16.8798 5.77838 15.4128L5.63487 15.425L1.85507 18.3394L1.80566 18.4763C2.82366 20.4977 4.38594 22.1971 6.31782 23.3845C8.24969 24.572 10.475 25.2005 12.7449 25.2" fill="#34A853"/>
<path d="M5.77879 15.413C5.51096 14.6364 5.37276 13.8213 5.36969 13.0002C5.37462 12.1804 5.50772 11.3663 5.7642 10.5874L5.75738 10.4256L1.93123 7.46436L1.80608 7.52366C0.947315 9.22241 0.5 11.098 0.5 13.0001C0.5 14.9021 0.947315 16.7777 1.80608 18.4765L5.77879 15.413Z" fill="#FBBC05"/>
<path d="M12.7449 5.5175C14.4995 5.49035 16.1964 6.1414 17.4796 7.33402L20.9355 3.97216C18.719 1.90046 15.7838 0.76375 12.7449 0.800165C10.475 0.799627 8.24973 1.42818 6.31786 2.61555C4.38599 3.80292 2.82369 5.50229 1.80566 7.52364L5.7652 10.5874C6.24948 9.12067 7.18359 7.84243 8.43583 6.93284C9.68806 6.02325 11.1953 5.52821 12.7449 5.5175Z" fill="#EB4335"/>
</g>
<defs>
<clipPath id="clip0_2721:16171">
<rect width="24" height="24.4" fill="white" transform="translate(0.5 0.800049)"/>
</clipPath>
</defs>
</svg>
