<svg width="30" height="30" viewBox="0 0 30 30" fill="none" xmlns="http://www.w3.org/2000/svg">
<rect x="0.5" y="0.5" width="29" height="29" rx="7.5" fill="white" stroke="#DFE5FF"/>
<path fill-rule="evenodd" clip-rule="evenodd" d="M19.6679 17.3176L19.7662 20.4828C19.2708 20.7342 18.6988 20.9459 18.0687 21.108L17.7117 18.9672L17.3277 21.271C16.621 21.4007 15.8587 21.4716 15.0628 21.4716C14.2673 21.4716 13.5049 21.4007 12.7983 21.271L12.4142 18.9672L12.0572 21.108C11.4271 20.9459 10.8548 20.7342 10.3594 20.4828L10.458 17.3176C10.4896 16.3117 11.4124 15.6239 12.6624 15.2542C13.3211 15.779 14.1555 16.0926 15.0628 16.0926C15.9705 16.0926 16.8044 15.779 17.4632 15.2542C18.7136 15.6239 19.6364 16.3117 19.6679 17.3176Z" fill="#4D6CD9"/>
<path fill-rule="evenodd" clip-rule="evenodd" d="M15.0627 9.37109C16.6455 9.37109 17.9286 10.6542 17.9286 12.237C17.9286 13.8198 16.6455 15.1029 15.0627 15.1029C13.4799 15.1029 12.1968 13.8198 12.1968 12.237C12.1968 10.6542 13.4799 9.37109 15.0627 9.37109Z" fill="#4D6CD9"/>
<path fill-rule="evenodd" clip-rule="evenodd" d="M26.0397 15.9153L26.1253 18.6699C25.6941 18.8885 25.1963 19.0728 24.6481 19.214L24.3373 17.3508L24.0028 19.3557C23.3883 19.4687 22.7246 19.5301 22.0323 19.5301C21.5824 19.5301 21.1447 19.5043 20.7246 19.4552L20.6575 17.2869C20.6477 16.9778 20.5842 16.6752 20.4675 16.3886C20.1465 15.6017 19.4853 15.0568 18.7373 14.6879C19.0607 14.4476 19.4755 14.258 19.943 14.1196C20.5166 14.5761 21.2425 14.8492 22.0323 14.8492C22.8221 14.8492 23.548 14.5761 24.1212 14.1196C25.209 14.4414 26.0123 15.0396 26.0397 15.9153Z" fill="#4D6CD9"/>
<path fill-rule="evenodd" clip-rule="evenodd" d="M22.0318 9C23.4091 9 24.5255 10.1165 24.5255 11.4938C24.5255 12.8715 23.4091 13.9879 22.0318 13.9879C20.6541 13.9879 19.5376 12.8715 19.5376 11.4938C19.5376 10.1165 20.6541 9 22.0318 9Z" fill="#4D6CD9"/>
<path fill-rule="evenodd" clip-rule="evenodd" d="M9.40064 19.4552C8.98057 19.5043 8.54331 19.5301 8.09336 19.5301C7.40063 19.5301 6.73737 19.4687 6.12242 19.3557L5.78834 17.3508L5.47759 19.214C4.92938 19.0728 4.43112 18.8885 4 18.6699L4.08598 15.9153C4.113 15.0396 4.91669 14.4414 6.00451 14.1196C6.5777 14.5761 7.3036 14.8492 8.09336 14.8492C8.88313 14.8492 9.60903 14.5761 10.1822 14.1196C10.6502 14.258 11.0649 14.4476 11.3884 14.6879C10.6404 15.0568 9.97873 15.6017 9.65816 16.3886C9.54107 16.6752 9.47801 16.9778 9.46819 17.2869L9.40064 19.4552Z" fill="#4D6CD9"/>
<path fill-rule="evenodd" clip-rule="evenodd" d="M8.0933 9C9.47058 9 10.5875 10.1165 10.5875 11.4938C10.5875 12.8715 9.47058 13.9879 8.0933 13.9879C6.71601 13.9879 5.59912 12.8715 5.59912 11.4938C5.59912 10.1165 6.71601 9 8.0933 9Z" fill="#4D6CD9"/>
</svg>
