<svg width="25" height="25" viewBox="0 0 25 25" fill="none" xmlns="http://www.w3.org/2000/svg">
<path d="M13.0772 24.1425V23.9974V22.6393V22.5002L13.216 22.4897C14.7201 22.3768 16.0019 21.7655 16.9285 20.4754L16.9308 20.4722L16.9308 20.4722C17.3813 19.8786 17.6671 19.1679 17.7582 18.4178H13.1775H13.0275V18.2678V18.2642V18.2606V18.257V18.2533V18.2498V18.2462V18.2426V18.239V18.2354V18.2318V18.2282V18.2246V18.221V18.2174V18.2138V18.2103V18.2067V18.2031V18.1995V18.1959V18.1924V18.1888V18.1852V18.1816V18.1781V18.1745V18.1709V18.1674V18.1638V18.1602V18.1567V18.1531V18.1495V18.146V18.1424V18.1389V18.1353V18.1318V18.1282V18.1246V18.1211V18.1175V18.114V18.1105V18.1069V18.1034V18.0998V18.0963V18.0927V18.0892V18.0857V18.0821V18.0786V18.0751V18.0715V18.068V18.0645V18.0609V18.0574V18.0539V18.0504V18.0468V18.0433V18.0398V18.0363V18.0328V18.0292V18.0257V18.0222V18.0187V18.0152V18.0117V18.0082V18.0047V18.0011V17.9976V17.9941V17.9906V17.9871V17.9836V17.9801V17.9766V17.9731V17.9696V17.9661V17.9626V17.9591V17.9557V17.9522V17.9487V17.9452V17.9417V17.9382V17.9347V17.9312V17.9278V17.9243V17.9208V17.9173V17.9138V17.9104V17.9069V17.9034V17.8999V17.8965V17.893V17.8895V17.8861V17.8826V17.8791V17.8757V17.8722V17.8687V17.8653V17.8618V17.8583V17.8549V17.8514V17.848V17.8445V17.8411V17.8376V17.8342V17.8307V17.8272V17.8238V17.8204V17.8169V17.8135V17.81V17.8066V17.8031V17.7997V17.7962V17.7928V17.7894V17.7859V17.7825V17.7791V17.7756V17.7722V17.7687V17.7653V17.7619V17.7585V17.755V17.7516V17.7482V17.7447V17.7413V17.7379V17.7345V17.7311V17.7276V17.7242V17.7208V17.7174V17.714V17.7105V17.7071V17.7037V17.7003V17.6969V17.6935V17.6901V17.6867V17.6833V17.6798V17.6764V17.673V17.6696V17.6662V17.6628V17.6594V17.656V17.6526V17.6492V17.6458V17.6424V17.639V17.6356V17.6322V17.6289V17.6255V17.6221V17.6187V17.6153V17.6119V17.6085V17.6051V17.6017V17.5984V17.595V17.5916V17.5882V17.5848V17.5814V17.5781V17.5747V17.5713V17.5679V17.5646V17.5612V17.5578V17.5544V17.5511V17.5477V17.5443V17.5409V17.5376V17.5342V17.5308V17.5275V17.5241V17.5207V17.5174V17.514V17.5106V17.5073V17.5039V17.5006V17.4972V17.4938V17.4905V17.4871V17.4838V17.4804V17.4771V17.4737V17.4704V17.467V17.4636V17.4603V17.4569V17.4536V17.4502V17.4469V17.4436V17.4402V17.4369V17.4335V17.4302V17.4268V17.4235V17.4201V17.4168V17.4135V17.4101V17.4068V17.4034V17.4001V17.3968V17.3934V17.3901V17.3868V17.3834V17.3801V17.3768V17.3734V17.3701V17.3668V17.3634V17.3601V17.3568V17.3535V17.3501V17.3468V17.3435V17.3402V17.3368V17.3335V17.3302V17.3269V17.3235V17.3202V17.3169V17.3136V17.3103V17.3069V17.3036V17.3003V17.297V17.2937V17.2904V17.287V17.2837V17.2804V17.2771V17.2738V17.2705V17.2672V17.2639V17.2605V17.2572V17.2539V17.2506V17.2473V17.244V17.2407V17.2374V17.2341V17.2308V17.2275V17.2242V17.2209V17.2176V17.2143V17.211V17.2077V17.2044V17.2011V17.1978V17.1945V17.1912V17.1879V17.1846V17.1813V17.178V17.1747V17.1714V17.1681V17.1648V17.1615V17.1582V17.1549V17.1516V17.1484V17.1451V17.1418V17.1385V17.1352V17.1319V17.1286V17.1253V17.122V17.1188V17.1155V17.1122V17.1089V17.1056V17.1023V17.0991V17.0958V17.0925V17.0892V17.0859V17.0826V17.0794V17.0761V17.0728V17.0695V17.0662V17.063V17.0597V17.0564V17.0531V17.0499V17.0466V17.0433V17.04V17.0368V17.0335V17.0302V17.0269V17.0237V17.0204V17.0171V17.0138V17.0106V17.0073V17.004V17.0008V16.9975V16.9942V16.991V16.9877V16.9844V16.9811V16.9779V16.9746V16.9713V16.9681V16.9648V16.9615V16.9583V16.955V16.9518V16.9485V16.9452V16.942V16.9387V16.9354V16.9322V16.9289V16.9256V16.9224V16.9191V16.9159V16.9126V16.9093V16.9061V16.9028V16.8996V16.8963V16.893V16.8898V16.8865V16.8833V16.88V16.8767V16.8735V16.8702V16.867V16.8637V16.8605V16.8572V16.854V16.8507V16.8474V16.8442V16.8409V16.8377V16.8344V16.8312V16.8279V16.8247V16.8214V16.8182V16.8149V16.8117V16.8084V16.8051V16.8019V16.7986V16.7954V16.7921V16.7889V16.7856V16.7824V16.7791V16.7759V16.7726V16.7694V16.7661V16.7629V16.7596V16.7564V16.7531V16.7499V16.7466V16.7434V16.7401V16.7369V16.7337V16.7304V16.7272V16.7239V16.7207V16.7174V16.7142V16.7109V16.7077V16.7044V16.7012V16.6979V16.6947V16.6914V16.6882V16.6849V16.6817V16.6785V16.6752V16.672V16.6687V16.6655V16.6622V16.659V16.6557V16.6525V16.6493V16.646V16.6428V16.6395V16.6363V16.633V16.6298V16.6265V16.6233V16.6201V16.6168V16.6136V16.6103V16.6071V16.6038V16.6006V16.5974V16.5941V16.5909V16.5876V16.5844V16.5811V16.5779V16.5746V16.5714V16.5682V16.5649V16.5617V16.5584V16.5552V16.5519V16.5487V16.5455C13.0275 16.3464 13.0279 16.1476 13.0283 15.949C13.0293 15.4939 13.0302 15.0397 13.0261 14.5851V14.5851C13.0224 14.1545 12.9453 13.894 12.7994 13.7351C12.6558 13.5786 12.4152 13.4883 12.0001 13.4756L12 13.4756C11.3308 13.4549 10.6604 13.4582 9.98711 13.4627L9.987 13.4627C9.697 13.4645 9.40657 13.4661 9.11621 13.4659M13.0772 24.1425L9.1163 13.3159M13.0772 24.1425L13.2222 24.1473C13.2761 24.1491 13.3298 24.15 13.3833 24.15C15.2901 24.15 16.9613 23.1671 18.0736 21.7623C19.185 20.3584 19.7491 18.5196 19.4271 16.7894L19.4042 16.6669H19.2796H14.7195C14.7173 16.6256 14.7151 16.5857 14.7129 16.547C14.7031 16.3722 14.6947 16.2218 14.6936 16.0701L14.6936 16.0699C14.6916 15.83 14.6927 15.5869 14.6938 15.3427C14.6956 14.9774 14.6973 14.6095 14.6884 14.2461C14.6751 13.7021 14.5411 13.2271 14.2809 12.8387C14.0202 12.4496 13.639 12.1569 13.1476 11.9682L13.1476 11.9681L13.1425 11.9664C12.7057 11.8165 12.2501 11.7337 11.7903 11.7205M13.0772 24.1425L13.0938 12.1083C12.6705 11.963 12.2291 11.8829 11.7836 11.8704M9.11621 13.4659L9.1163 13.3159M9.11621 13.4659H9.1163V13.3159M9.11621 13.4659H9.11489H9.11348H9.11207H9.11066H9.10925H9.10785H9.10644H9.10503H9.10362H9.10221H9.1008H9.09939H9.09798H9.09658H9.09517H9.09376H9.09235H9.09094H9.08953H9.08812H9.08671H9.0853H9.0839H9.08249H9.08108H9.07967H9.07826H9.07685H9.07544H9.07403H9.07262H9.07121H9.0698H9.06839H9.06698H9.06557H9.06416H9.06275H9.06134H9.05993H9.05852H9.05711H9.0557H9.05429H9.05288H9.05147H9.05006H9.04865H9.04724H9.04583H9.04442H9.04301H9.04159H9.04018H9.03877H9.03736H9.03595H9.03454H9.03313H9.03171H9.0303H9.02889H9.02748H9.02606H9.02465H9.02324H9.02183H9.02041H9.019H9.01759H9.01618H9.01476H9.01335H9.01193H9.01052H9.00911H9.00769H9.00628H9.00486H9.00345H9.00204H9.00062H8.99921H8.99779H8.99638H8.99496H8.99354H8.99213H8.99071H8.9893H8.98788H8.98646H8.98505H8.98363H8.98221H8.9808H8.97938H8.97796H8.97654H8.97513H8.97371H8.97229H8.97087H8.96945H8.96804H8.96662H8.9652H8.96378H8.96236H8.96094H8.95952H8.9581H8.95668H8.95526H8.95384H8.95242H8.95099H8.94957H8.94815H8.94673H8.94531H8.94389H8.94246H8.94104H8.93962H8.93819H8.93677H8.93535H8.93392H8.9325H8.93107H8.92965H8.92823H8.9268H8.92537H8.92395H8.92252H8.9211H8.91967H8.91824H8.91682H8.91539H8.91396H8.91253H8.91111H8.90968H8.90825H8.90682H8.90539H8.90396H8.90253H8.9011H8.89967H8.89824H8.89681H8.89538H8.89395H8.89252H8.89109H8.88965H8.88822H8.88679H8.88536H8.88392H8.88249H8.88106H8.87962H8.87819H8.87675H8.87532H8.87388H8.87245H8.87101H8.86957H8.86814H8.8667H8.86526H8.86382H8.86238H8.86095H8.85951H8.85807H8.85663H8.85519H8.85375H8.85231H8.85087H8.84943H8.84799H8.84654H8.8451H8.84366H8.84222H8.84077H8.83933H8.83788H8.83644H8.835H8.83355H8.83211H8.83066H8.82921H8.82777H8.82632H8.82487H8.82342H8.82198H8.82053H8.81908H8.81763H8.81618H8.81473H8.81328H8.81183H8.81038H8.80893H8.80747H8.80602H8.80457H8.80312H8.80166H8.80021H8.79875H8.7973H8.79584H8.79439H8.79293H8.79148H8.79002H8.78856H8.7871H8.78565H8.78419H8.78273H8.78127H8.77981H8.77835H8.77689H8.77543H8.77396H8.7725H8.77104H8.76958H8.76811H8.76665H8.76518H8.76372H8.76225H8.76079H8.75932H8.75786H8.75639H8.75492H8.75345H8.75198H8.75051H8.74905H8.74758H8.74611H8.74463H8.74316H8.74169H8.74022H8.73875H8.73727H8.7358H8.73432H8.73285H8.73137H8.7299H8.72842H8.72694H8.72547H8.72399H8.72251H8.72103H8.71955H8.71807H8.71659H8.71511H8.71363H8.71215H8.71067H8.70918H8.7077H8.70622H8.70473H8.70325H8.70176H8.70027H8.69879H8.6973H8.69581H8.69432H8.69283H8.69135H8.68986H8.68836H8.68687H8.68538H8.68389H8.6824H8.6809H8.67941H8.67792H8.67642H8.67492H8.67343H8.67193H8.67043H8.66894H8.66744H8.66594H8.66444H8.66294H8.66144H8.65994H8.65844H8.65693H8.65543H8.65393H8.65242H8.65092H8.64941H8.64791H8.6464H8.64489H8.64338H8.64188H8.64037H8.63886H8.63735H8.63584H8.63432H8.63281H8.6313H8.62979H8.62827H8.62676H8.62524H8.62373H8.62221H8.62069H8.61917H8.61766H8.61614H8.61462H8.6131H8.61158H8.61005H8.60853H8.60701H8.60548H8.60396H8.60244H8.60091H8.59938H8.59786H8.59633H8.5948H8.59327H8.59174H8.59021H8.58868H8.58715H8.58562H8.58408H8.58255H8.58102H8.57948H8.57795H8.57641H8.57487H8.57334H8.5718H8.57026H8.56872H8.56718H8.56564H8.56409H8.56255H8.56101H8.55946H8.55792H8.55637H8.55483H8.55328H8.55173H8.55019H8.54864H8.54709H8.54554H8.54398H8.54243H8.54088H8.53933H8.53777H8.53622H8.53466H8.53311H8.53155H8.52999H8.52843H8.52687H8.52531H8.52375H8.52219H8.52063H8.51907H8.5175H8.51594H8.51437H8.51281H8.51124H8.50967H8.5081H8.50653H8.50496H8.50339H8.50182H8.50025H8.49868H8.4971H8.49553H8.49395H8.49238H8.4908H8.48922H8.48764H8.48606H8.48448H8.4829H8.48132H8.47974H8.47816H8.47657H8.47499H8.4734H8.47181H8.47023H8.46864H8.46705H8.46546H8.46387H8.46228H8.46068H8.45909H8.4575H8.4559H8.45431H8.45271H8.45111H8.44952H8.44792H8.44632H8.44472H8.44311H8.44151H8.43991H8.43831H8.4367H8.43509H8.43349H8.43188H8.43027H8.42866H8.42705H8.42544H8.42383H8.42222H8.4206H8.41899H8.41738H8.41576H8.41414H8.41252H8.41091H8.40929H8.40767H8.40604H8.40442H8.4028H8.40117H8.39955H8.39792H8.3963H8.39467H8.39304H8.39141H8.38978H8.38815H8.38652H8.38488H8.38325H8.38162H8.37998H8.37834H8.3767H8.37507H8.37343H8.37179H8.37014H8.3685H8.36686H8.36522H8.36357H8.36192H8.36028H8.35863H8.35698H8.35533H8.35368H8.21027L8.20383 13.3226C8.05946 10.1087 9.06085 7.51444 11.5316 5.63029L11.5318 5.63007C12.8491 4.6304 14.4165 4.04941 16.0446 3.95811L16.0528 3.95765V3.95787C16.2294 3.95765 16.404 3.91727 16.5646 3.8393C16.7253 3.76132 16.8682 3.64749 16.9831 3.50533L16.9835 3.50488C17.1752 3.2696 17.462 2.88114 17.7025 2.54889C17.8224 2.38331 17.9302 2.23261 18.0079 2.12329L18.0999 1.99374L18.1248 1.95851L18.1312 1.94937L18.1328 1.94706L18.1333 1.94648L18.1334 1.94634L18.1334 1.94631L18.256 2.03265M9.1163 13.3159H8.35368C8.21111 10.142 9.1976 7.59879 11.6225 5.74956C12.9164 4.76766 14.4551 4.19747 16.053 4.10787C16.2524 4.10762 16.4494 4.06202 16.6302 3.97424C16.8109 3.88646 16.9712 3.75863 17.0998 3.59964C17.3837 3.25122 17.8679 2.57841 18.1097 2.23906C18.1093 2.19901 18.1089 2.16411 18.1084 2.13511C18.1078 2.10358 18.1073 2.07905 18.1068 2.06248L18.1063 2.04374L18.1062 2.03909L18.1061 2.03798L18.1061 2.03774L18.1061 2.03769L18.256 2.03265M18.256 2.03265L18.406 2.02766L18.406 2.02777L18.406 2.02815L18.406 2.02955L18.4062 2.03478L18.4067 2.05472C18.4072 2.07211 18.4078 2.09752 18.4083 2.12998C18.4094 2.19488 18.4104 2.28802 18.4099 2.40151C18.409 2.6283 18.4022 2.93739 18.3789 3.26557C18.3555 3.59301 18.3154 3.94335 18.2466 4.25128C18.1888 4.51018 18.107 4.75815 17.9845 4.93506L21.6354 12.6042L21.6975 12.7347L21.5695 12.8016C21.2602 12.9634 20.4916 13.4152 19.7043 13.8779L19.6709 13.8976C18.8769 14.3643 18.0705 14.838 17.7262 15.0181L17.59 15.0893L17.5221 14.9514C17.4198 14.7437 17.3364 14.5485 17.2542 14.3563C17.2106 14.2543 17.1674 14.1532 17.1219 14.0514L17.0955 13.998C16.8792 13.5593 16.6711 13.1371 16.4788 12.7071L16.4733 12.6946L16.4738 12.6944C16.4275 12.5589 16.3443 12.4414 16.2355 12.3561C16.1269 12.2708 15.9973 12.2212 15.863 12.2125L15.8516 12.2118L15.8516 12.2113C15.3909 12.146 14.9488 11.9803 14.5541 11.7253C14.1595 11.4703 13.8213 11.1317 13.5611 10.7321C13.301 10.3324 13.1247 9.88051 13.0435 9.40573C12.9622 8.93097 12.9777 8.44369 13.089 7.97552L13.1061 7.90355L13.1736 7.87331L14.9367 7.08372L15.0308 7.04158L15.1039 7.11434L15.2041 7.21411L15.2989 7.30855L15.2158 7.41349C14.9128 7.79622 14.7217 8.18122 14.669 8.56613C14.6168 8.94737 14.6984 9.34178 14.9646 9.7516C15.2186 10.1426 15.5256 10.352 15.8728 10.4392C16.2253 10.5277 16.6337 10.4937 17.092 10.3688L17.2119 10.3362L17.2663 10.4478C17.3474 10.6141 17.4285 10.78 17.5096 10.9458C17.692 11.3186 17.8739 11.6906 18.0535 12.0636L18.0535 12.0636C18.1514 12.2672 18.2487 12.471 18.3474 12.6789C18.7925 12.3746 19.2271 12.0773 19.436 11.9322L16.4825 5.73278C13.3528 5.62493 10.1755 8.21894 9.94896 11.71M18.256 2.03265L18.4059 2.0276L18.3909 1.58056L18.1334 1.9463L18.256 2.03265ZM18.256 2.03265L18.3787 2.11902L18.3786 2.11906L18.3785 2.11922L18.3781 2.11982L18.3764 2.1222L18.3699 2.13148L18.3448 2.167L18.2599 2.28656C18.2626 2.90078 18.2263 4.45051 17.8093 4.91592L21.5 12.6687C21.1874 12.8322 20.4175 13.2847 19.6348 13.7448C18.9154 14.1677 18.1851 14.5969 17.7889 14.8141C17.7897 14.8157 17.7905 14.8173 17.7912 14.8189L17.6567 14.8851L17.5872 14.7522C17.5887 14.7514 17.5902 14.7506 17.5918 14.7498C17.5198 14.5961 17.4574 14.4499 17.3946 14.3029C17.3503 14.1992 17.3058 14.0951 17.2577 13.9876L17.2305 13.9325C17.0138 13.4931 16.8068 13.0733 16.6158 12.6459C16.5602 12.4835 16.4602 12.3417 16.3281 12.2381C16.196 12.1344 16.0377 12.0735 15.8727 12.0628C15.4337 12.0006 15.0121 11.8427 14.6355 11.5993C14.2589 11.3559 13.9357 11.0326 13.6868 10.6503C13.438 10.268 13.2692 9.83529 13.1913 9.38042C13.1134 8.92556 13.1283 8.45869 13.2349 8.01021L9.94896 11.71M11.7836 11.8704L11.7926 11.7207C11.7918 11.7206 11.791 11.7206 11.7903 11.7205M11.7836 11.8704C11.3356 11.8435 10.8856 11.8493 10.417 11.8552C10.2606 11.8572 10.1022 11.8592 9.94107 11.8601L11.7836 11.8704ZM11.7903 11.7205C11.3373 11.6935 10.8793 11.6993 10.4089 11.7053C10.257 11.7072 10.1037 11.7092 9.94896 11.71M11.7903 11.7205L9.94896 11.71M17.375 11.012C17.5573 11.3847 17.739 11.756 17.9183 12.1286L14.8388 9.83332C15.3844 10.6731 16.1889 10.7704 17.1315 10.5136C17.2127 10.6801 17.2939 10.8462 17.375 11.012ZM14.998 7.22062L15.0982 7.32039L14.9792 7.22906C14.9797 7.22847 14.9801 7.22787 14.9806 7.22728L14.9815 7.22801L14.998 7.22062ZM5.3583 13.416L5.20841 13.4217L5.2139 13.566H5.3583H6.63128H6.77241L6.781 13.4251C6.78997 13.278 6.79752 13.1458 6.80456 13.0226C6.81547 12.8317 6.82517 12.6622 6.83701 12.491L6.83703 12.491L6.83716 12.4887C6.95508 10.2942 7.75765 8.20087 9.1215 6.52749C10.8103 4.49034 13.1469 3.1595 15.7001 2.77806C15.9686 2.76781 16.2303 2.68942 16.4626 2.55005L16.4753 2.54239L16.4864 2.53236C16.8012 2.24576 17.0892 1.92073 17.3707 1.60303C17.4814 1.47809 17.591 1.35428 17.701 1.23439L17.7059 1.22905L17.7102 1.22325L17.8104 1.09023L17.9913 0.85H17.6906H17.4969V0.849888L17.4911 0.850112C15.522 0.926364 13.6802 1.31797 12.0069 2.11021H7.849H7.699V2.26021V3.68792V3.83792H7.849H9.35462C9.09365 4.06286 8.84173 4.29904 8.59952 4.54584H5.35312H5.20312V4.69584V6.12355V6.27355H5.35312H7.18283C7.08426 6.42212 6.98812 6.57439 6.89506 6.72954H3.5H3.35V6.87954V8.30724V8.45724H3.5H6.03638C5.79249 9.0576 5.59674 9.67809 5.45117 10.3123L5.45107 10.3128C5.2957 10.9987 5.23549 11.777 5.21368 12.38C5.20274 12.6823 5.20141 12.9421 5.20281 13.1266C5.20351 13.2189 5.2049 13.2923 5.20612 13.3429L5.20771 13.401L5.20821 13.4162L5.20835 13.4202L5.20839 13.4213L5.2084 13.4216L5.2084 13.4216L5.3583 13.416Z" fill="#4D6CD9" stroke="#4D6CD9" stroke-width="0.3"/>
</svg>
