<svg width="100" height="100" viewBox="0 0 100 100" fill="none" xmlns="http://www.w3.org/2000/svg">
<path d="M53.3743 14.6286L53.4942 14.6535L53.6167 14.65L67.4032 14.2567L75.9681 25.1667L76.0431 25.2622L76.138 25.338L86.9557 33.982L86.5656 47.9016L86.5622 48.0219L86.5863 48.1398L89.3665 61.7804L80.1997 72.1896L80.1197 72.2805L80.0625 72.3872L73.5045 84.6338L59.8582 86.6619L59.7372 86.6799L59.6236 86.7253L46.8027 91.8517L35.0584 84.5568L34.9547 84.4924L34.8389 84.4536L21.7472 80.0649L17.396 66.8534L17.3582 66.7388L17.2953 66.6357L10.0588 54.7775L15.1446 41.8312L15.1887 41.719L15.2061 41.5998L17.2175 27.8248L29.3568 21.2083L29.4638 21.15L29.5545 21.0687L39.8657 11.8262L53.3743 14.6286Z" stroke="#1749C7" stroke-width="2.09272"/>
<path d="M72.038 29.5616L72.3646 29.1528L72.038 29.5616L80.8559 36.6075C80.9776 36.7048 81.0481 36.8557 81.0436 37.0153L80.7257 48.3592C80.7224 48.478 80.7327 48.5969 80.7564 48.7134L83.022 59.8292C83.0539 59.9855 83.0105 60.147 82.9068 60.2648L75.4357 68.7485C75.3571 68.8377 75.2891 68.9357 75.2329 69.0406L69.8863 79.025C69.8117 79.1643 69.6776 79.258 69.526 79.2805L58.3975 80.9345C58.2799 80.952 58.1647 80.9831 58.0543 81.0273L47.5971 85.2085C47.4543 85.2656 47.2932 85.2516 47.1618 85.17L37.5832 79.2202C37.4822 79.1575 37.3742 79.1067 37.2615 79.0689L26.5868 75.4905C26.4409 75.4416 26.3243 75.3253 26.2746 75.1744L22.7277 64.4049C22.6905 64.292 22.6405 64.1837 22.5785 64.0822L16.6812 54.4185C16.5988 54.2836 16.5842 54.1167 16.6423 53.9688L20.7868 43.4187C20.8303 43.308 20.8609 43.1927 20.878 43.0751L22.5174 31.8479C22.5405 31.6901 22.6356 31.5545 22.7715 31.4804L32.6681 26.0863C32.7725 26.0294 32.87 25.9605 32.9585 25.8812L41.3676 18.3437C41.4836 18.2398 41.6401 18.1979 41.7901 18.2291L52.8082 20.5148C52.9246 20.539 53.0434 20.5495 53.1623 20.5461L64.4064 20.2253C64.5593 20.2209 64.7069 20.2895 64.8038 20.4129L71.7877 29.3091C71.8612 29.4026 71.9451 29.4873 72.038 29.5616Z" stroke="#1749C7" stroke-width="1.04636"/>
<path d="M31.8616 38.7495L39.9471 36.583" stroke="#1749C7" stroke-width="0.523179"/>
<path d="M44.8337 31.3545L46.7719 33.1701L49.4271 33.1178L48.2993 35.5222L49.1696 38.0313L46.5344 37.7017L44.417 39.3047L43.9161 36.6966L41.7373 35.1783L44.0629 33.896L44.8337 31.3545Z" fill="#1749C7"/>
<path d="M51.6799 33.4395L59.7655 31.2729" stroke="#1749C7" stroke-width="0.523179"/>
<path d="M42.4214 44.5679L46.3198 59.1172L42.347 60.1817L40.7096 54.0708L39.5206 54.3894L41.158 60.5003L37.1852 61.5648L33.2867 47.0155L37.2595 45.951L38.6537 51.1542L39.8427 50.8356L38.4485 45.6324L42.4214 44.5679Z" fill="#1749C7"/>
<path d="M55.3863 50.2249C55.778 51.6867 56.018 52.7333 56.1063 53.3646C56.1992 53.9882 56.1212 54.6031 55.8723 55.2092C55.6297 55.8136 55.2205 56.3374 54.6448 56.7806C54.069 57.2238 53.3502 57.5609 52.4883 57.7919C51.6705 58.011 50.9007 58.0824 50.179 58.0061C49.462 57.9221 48.8371 57.6786 48.3043 57.2755C47.7715 56.8725 47.3871 56.3815 47.1511 55.8027C46.9151 55.2238 46.5964 54.1855 46.1951 52.6877L45.5281 50.1984C45.1364 48.7366 44.8941 47.6938 44.8011 47.0702C44.7129 46.4389 44.7901 45.821 45.0327 45.2166C45.2816 44.6106 45.6939 44.0859 46.2697 43.6427C46.8454 43.1995 47.5642 42.8624 48.4261 42.6314C49.2439 42.4123 50.0114 42.3447 50.7284 42.4287C51.4501 42.505 52.0773 42.7447 52.6101 43.1477C53.1429 43.5508 53.5273 44.0417 53.7633 44.6206C53.9993 45.1995 54.318 46.2378 54.7193 47.7356L55.3863 50.2249ZM50.1325 46.5085C49.9511 45.8315 49.7946 45.4111 49.6631 45.2473C49.5362 45.0758 49.3501 45.023 49.1048 45.0887C48.8971 45.1443 48.7576 45.2652 48.6861 45.4513C48.6193 45.6298 48.6862 46.0934 48.8869 46.8423L50.7073 53.6362C50.9336 54.4809 51.1079 54.9929 51.2301 55.172C51.3585 55.3495 51.5549 55.4028 51.8191 55.332C52.0896 55.2596 52.2321 55.0994 52.2466 54.8515C52.2611 54.6036 52.1536 54.0513 51.924 53.1946L50.1325 46.5085Z" fill="#1749C7"/>
<path d="M62.5968 39.1619L63.377 42.0735L61.0179 42.7057L64.1362 54.3433L60.1634 55.4079L57.0451 43.7702L54.6953 44.3998L53.9152 41.4881L62.5968 39.1619Z" fill="#1749C7"/>
<path d="M40.0164 69.4541L48.1019 67.2876" stroke="#1749C7" stroke-width="0.523179"/>
<path d="M52.9885 62.0591L54.9267 63.8747L57.5819 63.8224L56.4541 66.2267L57.3244 68.7358L54.6892 68.4063L52.5718 70.0093L52.0709 67.4012L49.8921 65.8828L52.2177 64.6005L52.9885 62.0591Z" fill="#1749C7"/>
<path d="M59.8345 64.144L67.92 61.9775" stroke="#1749C7" stroke-width="0.523179"/>
</svg>
