<svg width="17" height="16" viewBox="0 0 17 16" fill="none" xmlns="http://www.w3.org/2000/svg">
<path d="M16.5 15.9995V9.80998C16.5 6.49343 14.808 4.95024 12.552 4.95024C10.7315 4.95024 9.9155 5.99804 9.461 6.73354V5.20395H6.031C6.0765 6.21722 6.031 15.9995 6.031 15.9995H9.461V9.97057C9.461 9.64886 9.483 9.3261 9.574 9.09593C9.8215 8.45092 10.386 7.78343 11.333 7.78343C12.5745 7.78343 13.0705 8.77316 13.0705 10.2243V16H16.5V15.9995ZM2.4175 3.73033C3.613 3.73033 4.3585 2.90067 4.3585 1.86438C4.3365 0.805597 3.6135 0 2.4405 0C1.2675 0 0.5 0.805074 0.5 1.86438C0.5 2.90067 1.2445 3.73033 2.396 3.73033H2.4175ZM4.1325 15.9995V5.20395H0.703V15.9995H4.1325Z" fill="#8A90A9"/>
</svg>
