<svg width="1440" height="900" viewBox="0 0 1440 900" fill="none" xmlns="http://www.w3.org/2000/svg">
<rect width="1440" height="900" fill="#4D6CD9"/>
<mask id="mask0" mask-type="alpha" maskUnits="userSpaceOnUse" x="0" y="0" width="1440" height="900">
<rect width="1440" height="900" fill="#4D6CD9"/>
</mask>
<g mask="url(#mask0)">
<path fill-rule="evenodd" clip-rule="evenodd" d="M1105 1093C1324.26 1093 1502 915.257 1502 696C1502 476.743 1324.26 299 1105 299C885.743 299 708 476.743 708 696C708 915.257 885.743 1093 1105 1093ZM1105 911C1223.74 911 1320 814.741 1320 696C1320 577.259 1223.74 481 1105 481C986.259 481 890 577.259 890 696C890 814.741 986.259 911 1105 911Z" fill="url(#paint0_linear)"/>
<circle cx="899.368" cy="65.3684" r="5.36842" fill="#5C78DC"/>
<circle cx="899.368" cy="97.579" r="5.36842" fill="#5C78DC"/>
<circle cx="899.368" cy="129.789" r="5.36842" fill="#5C78DC"/>
<circle cx="899.368" cy="162" r="5.36842" fill="#5C78DC"/>
<circle cx="899.368" cy="194.21" r="5.36842" fill="#5C78DC"/>
<circle cx="899.368" cy="226.421" r="5.36842" fill="#5C78DC"/>
<circle cx="899.368" cy="258.632" r="5.36842" fill="#5C78DC"/>
<circle cx="931.579" cy="65.3684" r="5.36842" fill="#5C78DC"/>
<circle cx="931.579" cy="97.579" r="5.36842" fill="#5C78DC"/>
<circle cx="931.579" cy="129.789" r="5.36842" fill="#5C78DC"/>
<circle cx="931.579" cy="162" r="5.36842" fill="#5C78DC"/>
<circle cx="931.579" cy="194.21" r="5.36842" fill="#5C78DC"/>
<circle cx="931.579" cy="226.421" r="5.36842" fill="#5C78DC"/>
<circle cx="931.579" cy="258.632" r="5.36842" fill="#5C78DC"/>
<circle cx="963.789" cy="65.3684" r="5.36842" fill="#5C78DC"/>
<circle cx="963.789" cy="97.579" r="5.36842" fill="#5C78DC"/>
<circle cx="963.789" cy="129.789" r="5.36842" fill="#5C78DC"/>
<circle cx="963.789" cy="162" r="5.36842" fill="#5C78DC"/>
<circle cx="963.789" cy="194.21" r="5.36842" fill="#5C78DC"/>
<circle cx="963.789" cy="226.421" r="5.36842" fill="#5C78DC"/>
<circle cx="963.789" cy="258.632" r="5.36842" fill="#5C78DC"/>
<circle cx="996" cy="65.3684" r="5.36842" fill="#5C78DC"/>
<circle cx="996" cy="97.579" r="5.36842" fill="#5C78DC"/>
<circle cx="996" cy="129.789" r="5.36842" fill="#5C78DC"/>
<circle cx="996" cy="162" r="5.36842" fill="#5C78DC"/>
<circle cx="996" cy="194.21" r="5.36842" fill="#5C78DC"/>
<circle cx="996" cy="226.421" r="5.36842" fill="#5C78DC"/>
<circle cx="996" cy="258.632" r="5.36842" fill="#5C78DC"/>
<circle cx="1028.21" cy="65.3684" r="5.36842" fill="#5C78DC"/>
<circle cx="1028.21" cy="97.579" r="5.36842" fill="#5C78DC"/>
<circle cx="1028.21" cy="129.789" r="5.36842" fill="#5C78DC"/>
<circle cx="1028.21" cy="162" r="5.36842" fill="#5C78DC"/>
<circle cx="1028.21" cy="194.21" r="5.36842" fill="#5C78DC"/>
<circle cx="1028.21" cy="226.421" r="5.36842" fill="#5C78DC"/>
<circle cx="1028.21" cy="258.632" r="5.36842" fill="#5C78DC"/>
<circle cx="1060.42" cy="65.3684" r="5.36842" fill="#5C78DC"/>
<circle cx="1060.42" cy="97.579" r="5.36842" fill="#5C78DC"/>
<circle cx="1060.42" cy="129.789" r="5.36842" fill="#5C78DC"/>
<circle cx="1060.42" cy="162" r="5.36842" fill="#5C78DC"/>
<circle cx="1060.42" cy="194.21" r="5.36842" fill="#5C78DC"/>
<circle cx="1060.42" cy="226.421" r="5.36842" fill="#5C78DC"/>
<circle cx="1060.42" cy="258.632" r="5.36842" fill="#5C78DC"/>
<circle cx="1092.63" cy="65.3684" r="5.36842" fill="#5C78DC"/>
<circle cx="1092.63" cy="97.579" r="5.36842" fill="#5C78DC"/>
<circle cx="1092.63" cy="129.789" r="5.36842" fill="#5C78DC"/>
<circle cx="1092.63" cy="162" r="5.36842" fill="#5C78DC"/>
<circle cx="1092.63" cy="194.21" r="5.36842" fill="#5C78DC"/>
<circle cx="1092.63" cy="226.421" r="5.36842" fill="#5C78DC"/>
<circle cx="1092.63" cy="258.632" r="5.36842" fill="#5C78DC"/>
<circle cx="1124.84" cy="65.3684" r="5.36842" fill="#5C78DC"/>
<circle cx="1124.84" cy="97.579" r="5.36842" fill="#5C78DC"/>
<circle cx="1124.84" cy="129.789" r="5.36842" fill="#5C78DC"/>
<circle cx="1124.84" cy="162" r="5.36842" fill="#5C78DC"/>
<circle cx="1124.84" cy="194.21" r="5.36842" fill="#5C78DC"/>
<circle cx="1124.84" cy="226.421" r="5.36842" fill="#5C78DC"/>
<circle cx="1124.84" cy="258.632" r="5.36842" fill="#5C78DC"/>
<circle cx="1157.05" cy="65.3684" r="5.36842" fill="#5C78DC"/>
<circle cx="1157.05" cy="97.579" r="5.36842" fill="#5C78DC"/>
<circle cx="1157.05" cy="129.789" r="5.36842" fill="#5C78DC"/>
<circle cx="1157.05" cy="162" r="5.36842" fill="#5C78DC"/>
<circle cx="1157.05" cy="194.21" r="5.36842" fill="#5C78DC"/>
<circle cx="1157.05" cy="226.421" r="5.36842" fill="#5C78DC"/>
<circle cx="1157.05" cy="258.632" r="5.36842" fill="#5C78DC"/>
<circle cx="1189.26" cy="65.3684" r="5.36842" fill="#5C78DC"/>
<circle cx="1189.26" cy="97.579" r="5.36842" fill="#5C78DC"/>
<circle cx="1189.26" cy="129.789" r="5.36842" fill="#5C78DC"/>
<circle cx="1189.26" cy="162" r="5.36842" fill="#5C78DC"/>
<circle cx="1189.26" cy="194.21" r="5.36842" fill="#5C78DC"/>
<circle cx="1189.26" cy="226.421" r="5.36842" fill="#5C78DC"/>
<circle cx="1189.26" cy="258.632" r="5.36842" fill="#5C78DC"/>
<path fill-rule="evenodd" clip-rule="evenodd" d="M126 422C297.208 422 436 283.208 436 112C436 -59.2083 297.208 -198 126 -198C-45.2083 -198 -184 -59.2083 -184 112C-184 283.208 -45.2083 422 126 422ZM126 304C232.039 304 318 218.039 318 112C318 5.96133 232.039 -80 126 -80C19.9613 -80 -66 5.96133 -66 112C-66 218.039 19.9613 304 126 304Z" fill="url(#paint1_linear)"/>
<circle cx="140.368" cy="645.368" r="5.36842" fill="#5C78DC"/>
<circle cx="140.368" cy="677.579" r="5.36842" fill="#5C78DC"/>
<circle cx="140.368" cy="709.79" r="5.36842" fill="#5C78DC"/>
<circle cx="140.368" cy="742" r="5.36842" fill="#5C78DC"/>
<circle cx="140.368" cy="774.21" r="5.36842" fill="#5C78DC"/>
<circle cx="140.368" cy="806.421" r="5.36842" fill="#5C78DC"/>
<circle cx="140.368" cy="838.632" r="5.36842" fill="#5C78DC"/>
<circle cx="172.579" cy="645.368" r="5.36842" fill="#5C78DC"/>
<circle cx="172.579" cy="677.579" r="5.36842" fill="#5C78DC"/>
<circle cx="172.579" cy="709.79" r="5.36842" fill="#5C78DC"/>
<circle cx="172.579" cy="742" r="5.36842" fill="#5C78DC"/>
<circle cx="172.579" cy="774.21" r="5.36842" fill="#5C78DC"/>
<circle cx="172.579" cy="806.421" r="5.36842" fill="#5C78DC"/>
<circle cx="172.579" cy="838.632" r="5.36842" fill="#5C78DC"/>
<circle cx="204.789" cy="645.368" r="5.36842" fill="#5C78DC"/>
<circle cx="204.789" cy="677.579" r="5.36842" fill="#5C78DC"/>
<circle cx="204.789" cy="709.79" r="5.36842" fill="#5C78DC"/>
<circle cx="204.789" cy="742" r="5.36842" fill="#5C78DC"/>
<circle cx="204.789" cy="774.21" r="5.36842" fill="#5C78DC"/>
<circle cx="204.789" cy="806.421" r="5.36842" fill="#5C78DC"/>
<circle cx="204.789" cy="838.632" r="5.36842" fill="#5C78DC"/>
<circle cx="237" cy="645.368" r="5.36842" fill="#5C78DC"/>
<circle cx="237" cy="677.579" r="5.36842" fill="#5C78DC"/>
<circle cx="237" cy="709.79" r="5.36842" fill="#5C78DC"/>
<circle cx="237" cy="742" r="5.36842" fill="#5C78DC"/>
<circle cx="237" cy="774.21" r="5.36842" fill="#5C78DC"/>
<circle cx="237" cy="806.421" r="5.36842" fill="#5C78DC"/>
<circle cx="237" cy="838.632" r="5.36842" fill="#5C78DC"/>
<circle cx="269.211" cy="645.368" r="5.36842" fill="#5C78DC"/>
<circle cx="269.211" cy="677.579" r="5.36842" fill="#5C78DC"/>
<circle cx="269.211" cy="709.79" r="5.36842" fill="#5C78DC"/>
<circle cx="269.211" cy="742" r="5.36842" fill="#5C78DC"/>
<circle cx="269.211" cy="774.21" r="5.36842" fill="#5C78DC"/>
<circle cx="269.211" cy="806.421" r="5.36842" fill="#5C78DC"/>
<circle cx="269.211" cy="838.632" r="5.36842" fill="#5C78DC"/>
<circle cx="301.421" cy="645.368" r="5.36842" fill="#5C78DC"/>
<circle cx="301.421" cy="677.579" r="5.36842" fill="#5C78DC"/>
<circle cx="301.421" cy="709.79" r="5.36842" fill="#5C78DC"/>
<circle cx="301.421" cy="742" r="5.36842" fill="#5C78DC"/>
<circle cx="301.421" cy="774.21" r="5.36842" fill="#5C78DC"/>
<circle cx="301.421" cy="806.421" r="5.36842" fill="#5C78DC"/>
<circle cx="301.421" cy="838.632" r="5.36842" fill="#5C78DC"/>
<circle cx="333.632" cy="645.368" r="5.36842" fill="#5C78DC"/>
<circle cx="333.632" cy="677.579" r="5.36842" fill="#5C78DC"/>
<circle cx="333.632" cy="709.79" r="5.36842" fill="#5C78DC"/>
<circle cx="333.632" cy="742" r="5.36842" fill="#5C78DC"/>
<circle cx="333.632" cy="774.21" r="5.36842" fill="#5C78DC"/>
<circle cx="333.632" cy="806.421" r="5.36842" fill="#5C78DC"/>
<circle cx="333.632" cy="838.632" r="5.36842" fill="#5C78DC"/>
<circle cx="365.842" cy="645.368" r="5.36842" fill="#5C78DC"/>
<circle cx="365.842" cy="677.579" r="5.36842" fill="#5C78DC"/>
<circle cx="365.842" cy="709.79" r="5.36842" fill="#5C78DC"/>
<circle cx="365.842" cy="742" r="5.36842" fill="#5C78DC"/>
<circle cx="365.842" cy="774.21" r="5.36842" fill="#5C78DC"/>
<circle cx="365.842" cy="806.421" r="5.36842" fill="#5C78DC"/>
<circle cx="365.842" cy="838.632" r="5.36842" fill="#5C78DC"/>
<circle cx="398.052" cy="645.368" r="5.36842" fill="#5C78DC"/>
<circle cx="398.052" cy="677.579" r="5.36842" fill="#5C78DC"/>
<circle cx="398.052" cy="709.79" r="5.36842" fill="#5C78DC"/>
<circle cx="398.052" cy="742" r="5.36842" fill="#5C78DC"/>
<circle cx="398.052" cy="774.21" r="5.36842" fill="#5C78DC"/>
<circle cx="398.052" cy="806.421" r="5.36842" fill="#5C78DC"/>
<circle cx="398.052" cy="838.632" r="5.36842" fill="#5C78DC"/>
<circle cx="430.263" cy="645.368" r="5.36842" fill="#5C78DC"/>
<circle cx="430.263" cy="677.579" r="5.36842" fill="#5C78DC"/>
<circle cx="430.263" cy="709.79" r="5.36842" fill="#5C78DC"/>
<circle cx="430.263" cy="742" r="5.36842" fill="#5C78DC"/>
<circle cx="430.263" cy="774.21" r="5.36842" fill="#5C78DC"/>
<circle cx="430.263" cy="806.421" r="5.36842" fill="#5C78DC"/>
<circle cx="430.263" cy="838.632" r="5.36842" fill="#5C78DC"/>
</g>
<defs>
<linearGradient id="paint0_linear" x1="1121.65" y1="443.713" x2="1105" y2="1093" gradientUnits="userSpaceOnUse">
<stop stop-color="#4D6CD9"/>
<stop offset="1" stop-color="#6A85E5"/>
</linearGradient>
<linearGradient id="paint1_linear" x1="139" y1="-85" x2="126" y2="422" gradientUnits="userSpaceOnUse">
<stop stop-color="#4D6CD9"/>
<stop offset="1" stop-color="#6A85E5"/>
</linearGradient>
</defs>
</svg>
