<svg width="21" height="20" viewBox="0 0 21 20" fill="none" xmlns="http://www.w3.org/2000/svg">
<rect x="0.666504" width="20" height="20" rx="5" fill="#FF3B2D"/>
<rect x="4.6665" y="4" width="12" height="12" rx="5" fill="white"/>
<path d="M10.6665 0C16.1965 0 20.6665 4.481 20.6665 10C20.6665 15.521 16.1965 20 10.6665 20C5.1465 20 0.666504 15.521 0.666504 10C0.666504 4.481 5.1465 0 10.6665 0ZM10.6665 12.931C10.1865 12.931 9.7965 13.321 9.7965 13.801C9.7965 14.281 10.1865 14.681 10.6765 14.681C11.1565 14.681 11.5465 14.281 11.5465 13.801C11.5465 13.321 11.1565 12.931 10.6665 12.931ZM10.6665 5.33C10.1865 5.33 9.7865 5.731 9.7865 6.21V10.63C9.7865 11.111 10.1865 11.5 10.6665 11.5C11.1465 11.5 11.5365 11.111 11.5365 10.63V6.21C11.5365 5.731 11.1465 5.33 10.6665 5.33Z" fill="#FF3B2D"/>
</svg>
