<svg width="56" height="57" viewBox="0 0 56 57" fill="none" xmlns="http://www.w3.org/2000/svg">
<path d="M37.6924 38.1306V19.8372H56L49.5164 28.9839L56 38.1306H37.6924Z" fill="#00E777"/>
<path d="M18.3076 19.8372V38.1306H0L6.48313 28.9839L0 19.8372H18.3076Z" fill="#00E777"/>
<path d="M28 44.5C36.8366 44.5 44 37.3366 44 28.5C44 19.6634 36.8366 12.5 28 12.5C19.1634 12.5 12 19.6634 12 28.5C12 37.3366 19.1634 44.5 28 44.5Z" fill="#4D6CD9"/>
<path d="M28.0231 39.1736C33.9181 39.1736 38.6659 34.3948 38.6276 28.4999C38.5892 22.605 33.7792 17.8262 27.8842 17.8262C21.9891 17.8262 17.2413 22.605 17.2797 28.4999C17.318 34.3948 22.128 39.1736 28.0231 39.1736Z" fill="#FBFBFB"/>
</svg>
