<svg width="369" height="436" viewBox="0 0 369 436" fill="none" xmlns="http://www.w3.org/2000/svg">
<path d="M144 1H360C364.418 1 368 4.58172 368 9V38C368 42.4183 364.418 46 360 46H144" stroke="#CD433E" stroke-width="2" stroke-linecap="round"/>
<path d="M144 66H360C364.418 66 368 69.5817 368 74V103C368 107.418 364.418 111 360 111H144" stroke="#F2B241" stroke-width="2" stroke-linecap="round"/>
<path d="M131 130H360C364.418 130 368 133.582 368 138V167C368 171.418 364.418 175 360 175H93" stroke="#EDD85F" stroke-width="2" stroke-linecap="round"/>
<path d="M70 195H360C364.418 195 368 198.582 368 203V233C368 237.418 364.418 241 360 241H29" stroke="#8FC38B" stroke-width="2" stroke-linecap="round"/>
<path d="M3.5 260H360C364.418 260 368 263.582 368 268V297C368 301.418 364.418 305 360 305H3.5" stroke="#5DACC8" stroke-width="2" stroke-linecap="round"/>
<path d="M1.5 325H360C364.418 325 368 328.582 368 333V362C368 366.418 364.418 370 360 370H1.5" stroke="#9167B3" stroke-width="2" stroke-linecap="round"/>
<path d="M2 390H360C364.418 390 368 393.582 368 398V427C368 431.418 364.418 435 360 435H2" stroke="#4A779F" stroke-width="2" stroke-linecap="round"/>
</svg>
