<svg width="1366" height="547" viewBox="0 0 1366 547" fill="none" xmlns="http://www.w3.org/2000/svg">
<rect width="1366" height="547" fill="#4D6CD9"/>
<mask id="mask0" mask-type="alpha" maskUnits="userSpaceOnUse" x="0" y="0" width="1366" height="547">
<rect width="1366" height="547" fill="#4D6CD9"/>
</mask>
<g mask="url(#mask0)">
<path fill-rule="evenodd" clip-rule="evenodd" d="M1105 620C1324.26 620 1502 442.257 1502 223C1502 3.74295 1324.26 -174 1105 -174C885.743 -174 708 3.74295 708 223C708 442.257 885.743 620 1105 620ZM1105 438C1223.74 438 1320 341.741 1320 223C1320 104.259 1223.74 8 1105 8C986.259 8 890 104.259 890 223C890 341.741 986.259 438 1105 438Z" fill="url(#paint0_linear)"/>
<circle cx="140.368" cy="172.368" r="5.36842" fill="#5C78DC"/>
<circle cx="140.368" cy="204.579" r="5.36842" fill="#5C78DC"/>
<circle cx="140.368" cy="236.789" r="5.36842" fill="#5C78DC"/>
<circle cx="140.368" cy="269" r="5.36842" fill="#5C78DC"/>
<circle cx="140.368" cy="301.211" r="5.36842" fill="#5C78DC"/>
<circle cx="140.368" cy="333.421" r="5.36842" fill="#5C78DC"/>
<circle cx="140.368" cy="365.632" r="5.36842" fill="#5C78DC"/>
<circle cx="172.579" cy="172.368" r="5.36842" fill="#5C78DC"/>
<circle cx="172.579" cy="204.579" r="5.36842" fill="#5C78DC"/>
<circle cx="172.579" cy="236.789" r="5.36842" fill="#5C78DC"/>
<circle cx="172.579" cy="269" r="5.36842" fill="#5C78DC"/>
<circle cx="172.579" cy="301.211" r="5.36842" fill="#5C78DC"/>
<circle cx="172.579" cy="333.421" r="5.36842" fill="#5C78DC"/>
<circle cx="172.579" cy="365.632" r="5.36842" fill="#5C78DC"/>
<circle cx="204.789" cy="172.368" r="5.36842" fill="#5C78DC"/>
<circle cx="204.789" cy="204.579" r="5.36842" fill="#5C78DC"/>
<circle cx="204.789" cy="236.789" r="5.36842" fill="#5C78DC"/>
<circle cx="204.789" cy="269" r="5.36842" fill="#5C78DC"/>
<circle cx="204.789" cy="301.211" r="5.36842" fill="#5C78DC"/>
<circle cx="204.789" cy="333.421" r="5.36842" fill="#5C78DC"/>
<circle cx="204.789" cy="365.632" r="5.36842" fill="#5C78DC"/>
<circle cx="237.001" cy="172.368" r="5.36842" fill="#5C78DC"/>
<circle cx="237.001" cy="204.579" r="5.36842" fill="#5C78DC"/>
<circle cx="237.001" cy="236.789" r="5.36842" fill="#5C78DC"/>
<circle cx="237.001" cy="269" r="5.36842" fill="#5C78DC"/>
<circle cx="237.001" cy="301.21" r="5.36842" fill="#5C78DC"/>
<circle cx="237.001" cy="333.421" r="5.36842" fill="#5C78DC"/>
<circle cx="237.001" cy="365.631" r="5.36842" fill="#5C78DC"/>
<circle cx="269.212" cy="172.368" r="5.36842" fill="#5C78DC"/>
<circle cx="269.212" cy="204.579" r="5.36842" fill="#5C78DC"/>
<circle cx="269.212" cy="236.789" r="5.36842" fill="#5C78DC"/>
<circle cx="269.212" cy="269" r="5.36842" fill="#5C78DC"/>
<circle cx="269.212" cy="301.21" r="5.36842" fill="#5C78DC"/>
<circle cx="269.212" cy="333.421" r="5.36842" fill="#5C78DC"/>
<circle cx="269.212" cy="365.631" r="5.36842" fill="#5C78DC"/>
<circle cx="301.419" cy="172.368" r="5.36842" fill="#5C78DC"/>
<circle cx="301.419" cy="204.579" r="5.36842" fill="#5C78DC"/>
<circle cx="301.419" cy="236.789" r="5.36842" fill="#5C78DC"/>
<circle cx="301.419" cy="269" r="5.36842" fill="#5C78DC"/>
<circle cx="301.419" cy="301.21" r="5.36842" fill="#5C78DC"/>
<circle cx="301.419" cy="333.421" r="5.36842" fill="#5C78DC"/>
<circle cx="301.419" cy="365.631" r="5.36842" fill="#5C78DC"/>
<circle cx="333.63" cy="172.368" r="5.36842" fill="#5C78DC"/>
<circle cx="333.63" cy="204.579" r="5.36842" fill="#5C78DC"/>
<circle cx="333.63" cy="236.789" r="5.36842" fill="#5C78DC"/>
<circle cx="333.63" cy="269" r="5.36842" fill="#5C78DC"/>
<circle cx="333.63" cy="301.21" r="5.36842" fill="#5C78DC"/>
<circle cx="333.63" cy="333.421" r="5.36842" fill="#5C78DC"/>
<circle cx="333.63" cy="365.631" r="5.36842" fill="#5C78DC"/>
<circle cx="365.841" cy="172.368" r="5.36842" fill="#5C78DC"/>
<circle cx="365.841" cy="204.579" r="5.36842" fill="#5C78DC"/>
<circle cx="365.841" cy="236.789" r="5.36842" fill="#5C78DC"/>
<circle cx="365.841" cy="269" r="5.36842" fill="#5C78DC"/>
<circle cx="365.841" cy="301.21" r="5.36842" fill="#5C78DC"/>
<circle cx="365.841" cy="333.421" r="5.36842" fill="#5C78DC"/>
<circle cx="365.841" cy="365.631" r="5.36842" fill="#5C78DC"/>
<circle cx="398.053" cy="172.368" r="5.36842" fill="#5C78DC"/>
<circle cx="398.053" cy="204.579" r="5.36842" fill="#5C78DC"/>
<circle cx="398.053" cy="236.789" r="5.36842" fill="#5C78DC"/>
<circle cx="398.053" cy="269" r="5.36842" fill="#5C78DC"/>
<circle cx="398.053" cy="301.211" r="5.36842" fill="#5C78DC"/>
<circle cx="398.053" cy="333.421" r="5.36842" fill="#5C78DC"/>
<circle cx="398.053" cy="365.632" r="5.36842" fill="#5C78DC"/>
<circle cx="430.263" cy="172.368" r="5.36842" fill="#5C78DC"/>
<circle cx="430.263" cy="204.579" r="5.36842" fill="#5C78DC"/>
<circle cx="430.263" cy="236.789" r="5.36842" fill="#5C78DC"/>
<circle cx="430.263" cy="269" r="5.36842" fill="#5C78DC"/>
<circle cx="430.263" cy="301.211" r="5.36842" fill="#5C78DC"/>
<circle cx="430.263" cy="333.421" r="5.36842" fill="#5C78DC"/>
<circle cx="430.263" cy="365.632" r="5.36842" fill="#5C78DC"/>
</g>
<defs>
<linearGradient id="paint0_linear" x1="1121.65" y1="-29.2871" x2="1105" y2="620" gradientUnits="userSpaceOnUse">
<stop stop-color="#4D6CD9"/>
<stop offset="1" stop-color="#6A85E5"/>
</linearGradient>
</defs>
</svg>
