<svg width="200" height="200" viewBox="0 0 200 200" fill="none" xmlns="http://www.w3.org/2000/svg">
<rect width="200" height="200" rx="16" fill="white"/>
<path d="M41.2764 129.428H31.8765C29.4594 129.428 27.5 127.469 27.5 125.052V70.745C27.5 68.3279 29.4594 66.3684 31.8765 66.3684H41.2764C43.6935 66.3684 45.653 68.3279 45.653 70.745V125.052C45.653 127.469 43.6935 129.428 41.2764 129.428Z" fill="#4D6CD9"/>
<path d="M160.024 129.343H169.423C171.841 129.343 173.8 127.383 173.8 124.966V70.6595C173.8 68.2424 171.841 66.283 169.423 66.283H160.024C157.606 66.283 155.647 68.2424 155.647 70.6595V124.966C155.647 127.383 157.606 129.343 160.024 129.343Z" fill="#4D6CD9"/>
<path d="M124.965 73.8579L118.197 67.8686C112.613 61.3785 102.44 60.667 96.0028 66.3124L75.6146 84.1915C72.1419 87.2367 71.8174 92.7796 74.9325 96.2061C77.9949 99.5742 83.2917 99.8949 86.747 96.9154L104.51 81.4256C105.624 80.4543 107.296 80.5299 108.318 81.5978L146.513 121.466H148.9V73.8579H124.965Z" fill="#4D6CD9"/>
<path d="M132.683 119.057L104.378 89.4177L90.9853 101.588C85.0539 107.011 75.8472 106.591 70.434 100.65C65.0337 94.7239 65.4526 85.5435 71.37 80.1335L85.906 66.8434C77.7513 62.5838 67.4245 65.0366 62.1767 72.9834H52.7134V123.564H61.0138L74.4664 137.317C76.6853 139.777 80.3022 140.394 83.2113 138.809C87.078 136.701 88.0999 131.688 85.53 128.248L92.5487 136.092C94.5097 138.283 97.6521 138.977 100.354 137.814L100.527 137.739C104.996 135.816 106.277 130.116 103.074 126.488C98.4073 121.201 94.1149 116.16 94.1149 116.16L107.597 131.362C109.806 133.831 113.407 134.489 116.346 132.961L116.522 132.869C120.942 130.571 121.343 124.425 117.991 120.779C111.558 113.783 104.58 105.695 104.58 105.695C104.58 105.695 116.885 118.907 123.315 125.772C125.328 127.922 128.457 128.61 131.186 127.503L131.372 127.427C135.015 125.159 134.264 121.574 132.683 119.057Z" fill="#4D6CD9"/>
</svg>
