<svg width="24" height="24" viewBox="0 0 24 24" fill="none" xmlns="http://www.w3.org/2000/svg">
<path d="M21.7778 20V18.2222C21.7772 17.4344 21.515 16.6691 21.0323 16.0465C20.5496 15.4239 19.8739 14.9792 19.1111 14.7822" stroke="#4D6CD9" stroke-width="2" stroke-linecap="round" stroke-linejoin="round"/>
<path d="M16.4444 20.0001V18.2223C16.4444 17.2793 16.0698 16.3749 15.403 15.7081C14.7362 15.0414 13.8318 14.6667 12.8888 14.6667H5.77772C4.83473 14.6667 3.93036 15.0414 3.26357 15.7081C2.59677 16.3749 2.22217 17.2793 2.22217 18.2223V20.0001" stroke="#4D6CD9" stroke-width="2" stroke-linecap="round" stroke-linejoin="round"/>
<path d="M15.5555 4.11548C16.3204 4.3113 16.9982 4.7561 17.4823 5.37975C17.9664 6.00341 18.2292 6.77044 18.2292 7.55992C18.2292 8.34941 17.9664 9.11644 17.4823 9.74009C16.9982 10.3637 16.3204 10.8085 15.5555 11.0044" stroke="#4D6CD9" stroke-width="2" stroke-linecap="round" stroke-linejoin="round"/>
<path d="M9.33327 11.1111C11.2969 11.1111 12.8888 9.51923 12.8888 7.55556C12.8888 5.59188 11.2969 4 9.33327 4C7.36959 4 5.77771 5.59188 5.77771 7.55556C5.77771 9.51923 7.36959 11.1111 9.33327 11.1111Z" stroke="#4D6CD9" stroke-width="2" stroke-linecap="round" stroke-linejoin="round"/>
</svg>
