<svg width="61" height="60" viewBox="0 0 61 60" fill="none" xmlns="http://www.w3.org/2000/svg">
<rect x="1" y="0.5" width="59" height="59" rx="15.5" fill="white" stroke="#DFE5FF"/>
<path fill-rule="evenodd" clip-rule="evenodd" d="M39.8358 31.6352L40.0323 37.9657C39.0415 38.4684 37.8976 38.8918 36.6374 39.216L35.9234 34.9343L35.1553 39.5419C33.742 39.8015 32.2174 39.9431 30.6255 39.9431C29.0345 39.9431 27.5099 39.8015 26.0966 39.5419L25.3285 34.9343L24.6145 39.216C23.3543 38.8918 22.2095 38.4684 21.2188 37.9657L21.4161 31.6352C21.4791 29.6234 23.3248 28.2477 25.8247 27.5083C27.1422 28.558 28.811 29.1853 30.6255 29.1853C32.4409 29.1853 34.1089 28.558 35.4264 27.5083C37.9271 28.2477 39.7728 29.6234 39.8358 31.6352Z" fill="#4D6CD9"/>
<path fill-rule="evenodd" clip-rule="evenodd" d="M30.6254 15.7422C33.791 15.7422 36.3573 18.3084 36.3573 21.474C36.3573 24.6397 33.791 27.2059 30.6254 27.2059C27.4598 27.2059 24.8936 24.6397 24.8936 21.474C24.8936 18.3084 27.4598 15.7422 30.6254 15.7422Z" fill="#4D6CD9"/>
<path fill-rule="evenodd" clip-rule="evenodd" d="M52.5789 28.8307L52.75 34.3398C51.8878 34.7771 50.8921 35.1455 49.7957 35.428L49.1742 31.7015L48.5052 35.7114C47.2761 35.9374 45.9488 36.0602 44.5641 36.0602C43.6642 36.0602 42.7889 36.0086 41.9488 35.9103L41.8145 31.5738C41.7948 30.9556 41.6679 30.3504 41.4345 29.7772C40.7926 28.2034 39.4701 27.1136 37.9741 26.3758C38.621 25.8951 39.4505 25.516 40.3856 25.2393C41.5328 26.1523 42.9846 26.6984 44.5641 26.6984C46.1437 26.6984 47.5955 26.1523 48.7418 25.2393C50.9175 25.8829 52.524 27.0792 52.5789 28.8307Z" fill="#4D6CD9"/>
<path fill-rule="evenodd" clip-rule="evenodd" d="M44.5635 15C47.3181 15 49.5511 17.233 49.5511 19.9875C49.5511 22.7429 47.3181 24.9759 44.5635 24.9759C41.8082 24.9759 39.5752 22.7429 39.5752 19.9875C39.5752 17.233 41.8082 15 44.5635 15Z" fill="#4D6CD9"/>
<path fill-rule="evenodd" clip-rule="evenodd" d="M19.3013 35.9103C18.4611 36.0086 17.5866 36.0602 16.6867 36.0602C15.3013 36.0602 13.9747 35.9374 12.7448 35.7114L12.0767 31.7015L11.4552 35.428C10.3588 35.1455 9.36223 34.7771 8.5 34.3398L8.67196 28.8307C8.726 27.0792 10.3334 25.8829 12.509 25.2393C13.6554 26.1523 15.1072 26.6984 16.6867 26.6984C18.2663 26.6984 19.7181 26.1523 20.8644 25.2393C21.8004 25.516 22.6298 25.8951 23.2767 26.3758C21.7807 27.1136 20.4575 28.2034 19.8163 29.7772C19.5821 30.3504 19.456 30.9556 19.4364 31.5738L19.3013 35.9103Z" fill="#4D6CD9"/>
<path fill-rule="evenodd" clip-rule="evenodd" d="M16.6871 15C19.4416 15 21.6754 17.233 21.6754 19.9875C21.6754 22.7429 19.4416 24.9759 16.6871 24.9759C13.9325 24.9759 11.6987 22.7429 11.6987 19.9875C11.6987 17.233 13.9325 15 16.6871 15Z" fill="#4D6CD9"/>
<rect x="31" y="31.75" width="18.94" height="18.94" rx="9.47" fill="white"/>
<path d="M31 41.22C31 35.9899 35.2399 31.75 40.47 31.75C45.7001 31.75 49.94 35.9899 49.94 41.22C49.94 46.4501 45.7001 50.69 40.47 50.69C35.2399 50.69 31 46.4501 31 41.22Z" fill="#4D6CD9"/>
<path d="M37.4702 38.22L43.4702 44.22M37.4702 44.22L43.4702 38.22" stroke="white" stroke-width="2" stroke-linecap="round" stroke-linejoin="round"/>
<circle cx="40.5" cy="41.25" r="9.5" stroke="white" stroke-width="2"/>
</svg>
