<svg width="80" height="81" viewBox="0 0 80 81" fill="none" xmlns="http://www.w3.org/2000/svg">
<path fill-rule="evenodd" clip-rule="evenodd" d="M51.7817 45.6784L52.0438 54.1189C50.7227 54.7893 49.1975 55.3537 47.5172 55.7861L46.5652 50.0771L45.5411 56.2206C43.6567 56.5667 41.6238 56.7556 39.5014 56.7556C37.38 56.7556 35.3471 56.5667 33.4627 56.2206L32.4386 50.0771L31.4866 55.7861C29.8063 55.3537 28.28 54.7893 26.959 54.1189L27.2221 45.6784C27.3062 42.9959 29.767 41.1617 33.1003 40.1758C34.8569 41.5754 37.082 42.4118 39.5014 42.4118C41.9219 42.4118 44.1458 41.5754 45.9025 40.1758C49.2368 41.1617 51.6977 42.9959 51.7817 45.6784Z" fill="white"/>
<path fill-rule="evenodd" clip-rule="evenodd" d="M39.4999 24.4883C43.7207 24.4883 47.1424 27.9099 47.1424 32.1308C47.1424 36.3516 43.7207 39.7732 39.4999 39.7732C35.2791 39.7732 31.8574 36.3516 31.8574 32.1308C31.8574 27.9099 35.2791 24.4883 39.4999 24.4883Z" fill="white"/>
<path fill-rule="evenodd" clip-rule="evenodd" d="M68.7719 41.9409L69 49.2864C67.8504 49.8694 66.5228 50.3607 65.0609 50.7374L64.2322 45.7687L63.3402 51.1151C61.7015 51.4165 59.9317 51.5802 58.0855 51.5802C56.8856 51.5802 55.7185 51.5115 54.5983 51.3804L54.4193 45.5984C54.3931 44.7741 54.2239 43.9672 53.9127 43.203C53.0567 41.1046 51.2935 39.6514 49.2988 38.6677C50.1613 38.0269 51.2673 37.5214 52.5141 37.1523C54.0437 38.3697 55.9794 39.0979 58.0855 39.0979C60.1915 39.0979 62.1273 38.3697 63.6558 37.1523C66.5566 38.0105 68.6987 39.6056 68.7719 41.9409Z" fill="white"/>
<path fill-rule="evenodd" clip-rule="evenodd" d="M58.0847 23.5C61.7575 23.5 64.7348 26.4773 64.7348 30.15C64.7348 33.8239 61.7575 36.8012 58.0847 36.8012C54.4109 36.8012 51.4336 33.8239 51.4336 30.15C51.4336 26.4773 54.4109 23.5 58.0847 23.5Z" fill="white"/>
<path fill-rule="evenodd" clip-rule="evenodd" d="M24.4017 51.3804C23.2815 51.5115 22.1155 51.5802 20.9156 51.5802C19.0683 51.5802 17.2997 51.4165 15.6598 51.1151L14.7689 45.7687L13.9402 50.7374C12.4783 50.3607 11.1496 49.8694 10 49.2864L10.2293 41.9409C10.3013 39.6056 12.4445 38.0105 15.3454 37.1523C16.8739 38.3697 18.8096 39.0979 20.9156 39.0979C23.0217 39.0979 24.9574 38.3697 26.4859 37.1523C27.7338 37.5214 28.8398 38.0269 29.7023 38.6677C27.7076 39.6514 25.9433 41.1046 25.0884 43.203C24.7762 43.9672 24.608 44.7741 24.5818 45.5984L24.4017 51.3804Z" fill="white"/>
<path fill-rule="evenodd" clip-rule="evenodd" d="M20.9168 23.5C24.5895 23.5 27.5679 26.4773 27.5679 30.15C27.5679 33.8239 24.5895 36.8012 20.9168 36.8012C17.244 36.8012 14.2656 33.8239 14.2656 30.15C14.2656 26.4773 17.244 23.5 20.9168 23.5Z" fill="white"/>
</svg>
