<svg width="51" height="47" viewBox="0 0 51 47" fill="none" xmlns="http://www.w3.org/2000/svg">
<path d="M31.5513 41.5947H19.4598C17.8566 41.5947 16.5579 42.8935 16.5579 44.4967V46.4313H34.4532V44.4967C34.4532 42.8935 33.1532 41.5947 31.5513 41.5947Z" fill="#4D6CD9"/>
<path d="M49.7893 5.99092C49.169 5.09067 48.2055 4.5954 47.077 4.5954H39.5796C39.5796 2.03524 39.5796 0 39.5796 0H25.4981H11.4152C11.4152 0 11.4152 2.03524 11.4152 4.5954H3.91915C2.79061 4.5954 1.82716 5.09067 1.20679 5.99092C0.738605 6.67062 0.5 7.53734 0.5 8.56657C0.5 13.3051 5.86023 22.0071 14.6164 22.0071V21.7105C15.9319 23.4749 17.7389 25.011 20.1791 25.9319V31.4391C20.1791 32.507 21.0445 33.3737 22.1137 33.3737H23.3235V39.6613H27.6765V33.3737H28.8863C29.9555 33.3737 30.8209 32.507 30.8209 31.4391V25.9319C33.2611 25.0097 35.0681 23.4736 36.3836 21.7092V22.0071C45.1398 22.0071 50.5 13.3038 50.5 8.56657C50.4961 7.53734 50.2588 6.67062 49.7893 5.99092ZM6.08465 13.1001C4.70719 11.0197 4.33703 9.23724 4.3654 8.46338H11.4152C11.4152 9.76733 11.4152 11.0274 11.4152 12.0786C11.4152 13.527 11.717 15.677 12.5541 17.8902C9.08849 17.0751 6.93073 14.3769 6.08465 13.1001ZM29.4705 13.3954L30.4082 18.8627L25.4981 16.2819L20.588 18.8627L21.5269 13.3954L17.5545 9.52356L23.0437 8.72649L25.4981 3.75061L27.9538 8.72521L33.443 9.52228L29.4705 13.3954ZM44.9115 13.1001C44.0654 14.3769 41.9064 17.0751 38.4408 17.8915C39.2765 15.677 39.5796 13.527 39.5796 12.0786C39.5796 11.0287 39.5796 9.76733 39.5796 8.46338H46.6307C46.6604 9.23724 46.2902 11.0197 44.9115 13.1001Z" fill="#4D6CD9"/>
</svg>
