<svg width="24" height="24" viewBox="0 0 24 24" fill="none" xmlns="http://www.w3.org/2000/svg">
<circle cx="12" cy="12" r="11.25" fill="#E8EAFA" stroke="#4D6CD9" stroke-width="1.5"/>
<path d="M18.0447 8.40171C18.0228 8.31987 17.9849 8.24318 17.9332 8.17607C17.8815 8.10896 17.817 8.05277 17.7434 8.01075L14.4106 6.08795C14.3378 6.04531 14.2574 6.01745 14.1738 6.00597C14.0902 5.99448 14.0052 5.99961 13.9237 6.02104C13.8421 6.04248 13.7655 6.07981 13.6984 6.13088C13.6313 6.18196 13.5749 6.24578 13.5325 6.31869L12.0327 8.92087L10.533 6.31869C10.4905 6.24578 10.4342 6.18196 10.3671 6.13088C10.2999 6.07981 10.2234 6.04248 10.1418 6.02104C10.0602 5.99961 9.97524 5.99448 9.89168 6.00597C9.80812 6.01745 9.72765 6.04531 9.65488 6.08795L6.32203 8.01075C6.24848 8.05277 6.18398 8.10896 6.13227 8.17607C6.08057 8.24318 6.04268 8.31987 6.0208 8.40171C5.97838 8.56416 6.00139 8.73676 6.08489 8.88241L8.64862 13.26C8.3626 13.784 8.20448 14.3681 8.18715 14.9649C8.18562 15.547 8.31628 16.1219 8.56928 16.6462C8.82228 17.1705 9.19101 17.6305 9.64767 17.9916C10.1043 18.3526 10.637 18.6053 11.2055 18.7305C11.7741 18.8557 12.3636 18.8502 12.9297 18.7145C13.4958 18.5787 14.0237 18.3161 14.4735 17.9466C14.9234 17.5772 15.2835 17.1104 15.5267 16.5814C15.7699 16.0525 15.8898 15.4753 15.8774 14.8933C15.8651 14.3113 15.7207 13.7396 15.4553 13.2215L17.9549 8.88882C18.0015 8.81764 18.0334 8.73791 18.0488 8.65429C18.0642 8.57066 18.0628 8.4848 18.0447 8.40171ZM7.54621 8.79909L9.76384 7.51723L11.8276 11.1193C10.9479 11.1736 10.1143 11.5315 9.46901 12.1319L7.54621 8.79909ZM12.0327 17.5286C11.3528 17.5286 10.7007 17.2585 10.2199 16.7777C9.73911 16.2969 9.46901 15.6448 9.46901 14.9649C9.46901 14.2849 9.73911 13.6328 10.2199 13.152C10.7007 12.6712 11.3528 12.4011 12.0327 12.4011C12.7127 12.4011 13.3648 12.6712 13.8456 13.152C14.3264 13.6328 14.5965 14.2849 14.5965 14.9649C14.5965 15.6448 14.3264 16.2969 13.8456 16.7777C13.3648 17.2585 12.7127 17.5286 12.0327 17.5286ZM14.5965 12.1127C14.2485 11.7949 13.8442 11.5449 13.4043 11.3756L12.7762 10.2027L14.3273 7.51723L16.5449 8.79909L14.5965 12.1127Z" fill="#4D6CD9"/>
</svg>
