<svg width="81" height="80" viewBox="0 0 81 80" fill="none" xmlns="http://www.w3.org/2000/svg">
<rect x="0.5" width="80" height="80" rx="16" fill="white"/>
<path d="M32.8533 15C32.0022 15.0892 31.2861 15.8885 31.2907 16.7442V20.2326C31.2908 21.1458 32.1217 21.9766 33.0349 21.9767H37.1047V24.375C26.7008 25.264 18.5 34.0217 18.5 44.6512C18.5 55.8688 27.6312 65 38.8488 65C50.0665 65 59.1977 55.8688 59.1977 44.6512C59.1977 39.6651 57.3905 35.0946 54.4012 31.5516L55.7457 30.189L57.4899 31.9331C58.136 32.5814 59.3147 32.5814 59.9608 31.9331L62.1773 29.6984C62.8148 29.0537 62.8148 27.8904 62.1773 27.2456L56.2544 21.3227C55.6097 20.6852 54.4464 20.6852 53.8016 21.3227L51.5669 23.5392C50.9186 24.1853 50.9186 25.3641 51.5669 26.0102L53.2929 27.7362L51.9484 29.0807C48.8248 26.4483 44.8934 24.7425 40.593 24.375V21.9767H44.6628C45.576 21.9766 46.4069 21.1458 46.407 20.2326V16.7442C46.4069 15.8309 45.576 15.0001 44.6628 15H32.8533ZM38.8488 27.7907C48.1812 27.7907 55.7093 35.3187 55.7093 44.6512C55.7093 53.9836 48.1812 61.5116 38.8488 61.5116C29.5164 61.5116 21.9884 53.9836 21.9884 44.6512C21.9884 35.3187 29.5164 27.7907 38.8488 27.7907ZM32.4354 34.7674C31.4721 34.7674 30.6912 35.5484 30.6912 36.5116C30.6912 37.4748 31.4721 38.2558 32.4354 38.2558H38.8307C39.2327 38.2558 39.9483 38.7233 40.4841 39.4186H32.4354C31.4721 39.4186 30.6912 40.1996 30.6912 41.1628C30.6912 42.126 31.4721 42.907 32.4354 42.907H40.5022C39.9652 43.614 39.2366 44.0698 38.8307 44.0698C36.6582 44.0267 34.367 44.1366 32.2355 44.0517C31.5825 44.1217 30.9622 44.583 30.782 45.2145C30.6263 45.7599 30.7314 46.5715 31.1999 47.0314L39.3394 55.1709C39.9646 55.8868 41.2402 55.8334 41.883 55.2618C42.5933 54.6302 42.5217 53.3486 41.8104 52.7182L36.6505 47.5583H38.8307C41.4675 47.5583 43.7124 45.5953 44.4085 42.9071H46.3888C47.3522 42.9071 48.133 42.1261 48.133 41.1629C48.133 40.1997 47.3522 39.4187 46.3888 39.4187H44.4085C44.3038 39.0178 44.179 38.6203 44.0087 38.2559H46.3888C47.3522 38.2559 48.133 37.4749 48.133 36.5117C48.133 35.5485 47.3522 34.7675 46.3888 34.7675C41.7377 34.7675 37.0865 34.7676 32.4354 34.7674Z" fill="#4D6CD9"/>
</svg>
