<svg width="120" height="120" viewBox="0 0 120 120" fill="none" xmlns="http://www.w3.org/2000/svg">
<g filter="url(#filter0_d_4143_238924)">
<rect x="20" y="20" width="80" height="80" rx="16" fill="white"/>
</g>
<path d="M36.5106 71.7708H32.7506C31.7838 71.7708 31 70.987 31 70.0202V48.2975C31 47.3307 31.7838 46.5469 32.7506 46.5469H36.5106C37.4774 46.5469 38.2612 47.3307 38.2612 48.2975V70.0203C38.2612 70.987 37.4774 71.7708 36.5106 71.7708Z" fill="#4D6CD9"/>
<path d="M84.0084 71.7356H87.7684C88.7352 71.7356 89.519 70.9519 89.519 69.985V48.2623C89.519 47.2955 88.7352 46.5117 87.7684 46.5117H84.0084C83.0416 46.5117 82.2578 47.2955 82.2578 48.2623V69.9851C82.2578 70.9518 83.0416 71.7356 84.0084 71.7356Z" fill="#4D6CD9"/>
<path d="M69.9858 49.5432L67.2786 47.1474C65.045 44.5514 60.9758 44.2668 58.4009 46.525L50.2456 53.6766C48.8565 54.8947 48.7267 57.1118 49.9728 58.4824C51.1977 59.8297 53.3164 59.958 54.6986 58.7662L61.8036 52.5702C62.2492 52.1817 62.9183 52.212 63.3271 52.6391L78.605 68.5865H79.5597V49.5432H69.9858Z" fill="#4D6CD9"/>
<path d="M73.0737 67.6229L61.7516 55.7671L56.3947 60.635C54.0221 62.8043 50.3395 62.6364 48.1742 60.2602C46.0141 57.8896 46.1816 54.2174 48.5486 52.0534L54.363 46.7374C51.1011 45.0335 46.9704 46.0146 44.8713 49.1934H41.0859V69.4258H44.4061L49.7871 74.9267C50.6747 75.9108 52.1215 76.1576 53.2851 75.5234C54.8318 74.6805 55.2406 72.6753 54.2126 71.2992L57.0201 74.4367C57.8045 75.3134 59.0614 75.5907 60.142 75.1255L60.2114 75.0956C61.9991 74.3263 62.5114 72.0466 61.2301 70.5951C59.3635 68.4804 57.6465 66.4641 57.6465 66.4641L63.0394 72.545C63.923 73.5323 65.3633 73.7954 66.5388 73.1842L66.6093 73.1476C68.3772 72.2283 68.5378 69.7699 67.197 68.3117C64.6236 65.5133 61.8325 62.2781 61.8325 62.2781C61.8325 62.2781 66.7548 67.5627 69.3267 70.309C70.132 71.1688 71.3835 71.4439 72.475 71.0011L72.5493 70.9709C74.0064 70.0636 73.7062 68.6295 73.0737 67.6229Z" fill="#4D6CD9"/>
<defs>
<filter id="filter0_d_4143_238924" x="0" y="0" width="120" height="120" filterUnits="userSpaceOnUse" color-interpolation-filters="sRGB">
<feFlood flood-opacity="0" result="BackgroundImageFix"/>
<feColorMatrix in="SourceAlpha" type="matrix" values="0 0 0 0 0 0 0 0 0 0 0 0 0 0 0 0 0 0 127 0" result="hardAlpha"/>
<feOffset/>
<feGaussianBlur stdDeviation="10"/>
<feColorMatrix type="matrix" values="0 0 0 0 0.301961 0 0 0 0 0.423529 0 0 0 0 0.85098 0 0 0 0.16 0"/>
<feBlend mode="normal" in2="BackgroundImageFix" result="effect1_dropShadow_4143_238924"/>
<feBlend mode="normal" in="SourceGraphic" in2="effect1_dropShadow_4143_238924" result="shape"/>
</filter>
</defs>
</svg>
