<svg width="81" height="80" viewBox="0 0 81 80" fill="none" xmlns="http://www.w3.org/2000/svg">
<rect x="1.5" y="1" width="78" height="78" rx="15" fill="white" stroke="#4D6CD9" stroke-width="2"/>
<path d="M24.3132 38.7504C24.4188 38.7525 24.514 38.7122 24.5971 38.6511C24.8711 40.3236 25.5848 42.3533 27.3452 43.776C27.3452 43.776 31.3752 46.9721 35.6212 43.7116C37.3403 42.2791 38.0347 40.2625 38.2987 38.6056C38.3918 38.6892 38.5031 38.7499 38.6286 38.7504C39.0056 38.7514 39.5138 38.2093 40.0622 36.1027C40.7487 33.466 40.1009 32.9521 39.4777 32.9599C39.3888 32.961 39.3005 32.973 39.2163 32.9903C39.2189 32.9725 39.2205 32.9625 39.2205 32.9625C40.9615 25.6605 37.333 25.3829 36.7553 25.384C36.7061 25.384 36.6795 25.3861 36.6795 25.3861C36.3715 24.011 34.6205 22.5868 32.7927 22.5408C32.5318 22.534 32.2688 22.5559 32.0084 22.6092C31.358 22.7436 30.4911 22.7886 29.6065 22.787C27.661 22.7828 25.6302 22.5523 25.6302 22.5523C25.5701 23.4604 26.3486 24.091 26.3486 24.091C21.9196 26.7925 23.7611 32.9375 23.7611 32.9375L23.7595 32.995C23.6351 32.9578 23.6116 32.9599 23.4683 32.9589C22.8466 32.9542 22.2046 33.4728 22.889 36.1022C23.4327 38.1915 23.9373 38.7426 24.3132 38.7504Z" fill="#4D6CD9"/>
<path d="M44.4134 48.4874C40.4079 47.4689 37.1532 45.1778 37.1532 45.1778L34.6138 53.2081L34.1359 54.7196L34.1286 54.6987L33.7114 55.9797L32.3724 52.1818C35.7578 47.4579 31.4752 47.6414 31.4752 47.6414C31.4752 47.6414 27.1926 47.4574 30.578 52.1818L29.227 56.0095L28.8139 54.7154L25.7977 45.1772C25.7977 45.1772 22.543 47.4683 18.5375 48.4868C15.55 49.2465 15.4078 52.6962 15.528 54.4007L15.5144 54.3976C15.5144 54.3976 15.4799 56.7681 15.8616 57.7296C15.8616 57.7296 21.6934 61.5202 31.4616 61.5202L31.4564 61.2996L31.4752 61.5202C41.2434 61.5202 47.0752 57.7296 47.0752 57.7296C47.4569 56.7676 47.4224 54.3976 47.4224 54.3976C47.5432 52.6926 47.3988 49.2465 44.4134 48.4874Z" fill="#4D6CD9"/>
<path d="M62.5926 41.8281C60.7783 40.9748 59.855 40.8038 59.7912 40.7698C59.7274 40.7359 57.177 40.189 56.3279 39.3467L58.6875 44.8098L56.1407 44.4344L51.3165 51.4959L56.1407 44.435L52.0213 49.0475L54.7693 39.4962V37.3693C59.4948 37.4111 60.8866 35.3861 60.8866 35.3861C60.8866 35.3861 58.1866 35.3443 58.3534 28.2175C58.5207 21.0906 55.2352 19.9137 54.0102 19.4478C50.4439 18.0916 48.6516 20.2483 48.6516 20.2483C44.5174 19.8661 43.3766 24.3824 43.8843 29.5256C44.392 34.6693 41.5665 35.4698 41.5665 35.4698C43.5078 37.4529 47.6001 37.3274 47.6001 37.3274V39.4962L50.5322 48.9654L46.51 44.4621L46.4917 44.4355L46.487 44.436L46.4865 44.4355L46.487 44.436L43.9455 44.8109L46.1419 39.3373C46.1126 39.3665 46.0807 39.3953 46.0478 39.424C46.0368 39.4335 46.0253 39.4423 46.0143 39.4518C45.9913 39.4711 45.9678 39.4899 45.9432 39.5087C45.9296 39.5192 45.9155 39.5297 45.9014 39.5401C45.8774 39.5579 45.8533 39.5751 45.8282 39.5924C45.8136 39.6029 45.7984 39.6128 45.7832 39.6232C45.7561 39.641 45.7289 39.6588 45.7006 39.6766C45.6865 39.6855 45.6729 39.6944 45.6588 39.7027C45.6201 39.7262 45.5809 39.7493 45.5401 39.7723C45.5359 39.7743 45.5323 39.777 45.5281 39.7791C45.4837 39.8042 45.4382 39.8287 45.3916 39.8533C45.3765 39.8611 45.3608 39.869 45.3451 39.8773C45.3132 39.8936 45.2813 39.9098 45.2484 39.926C45.2301 39.9349 45.2123 39.9437 45.194 39.9521C45.1626 39.9673 45.1313 39.9819 45.0994 39.9966C45.0811 40.0049 45.0633 40.0133 45.045 40.0217C45.011 40.0368 44.977 40.052 44.9425 40.0671C44.9268 40.0739 44.9111 40.0813 44.8949 40.0881C44.8474 40.1084 44.7993 40.1288 44.7517 40.1482C44.7496 40.1492 44.747 40.1503 44.7449 40.1508C44.6931 40.1717 44.6414 40.1926 44.5896 40.2125C44.5776 40.2172 44.5655 40.2219 44.5535 40.2261C44.5138 40.2412 44.4746 40.2564 44.4348 40.271C44.4197 40.2768 44.4045 40.282 44.3894 40.2878C44.3522 40.3014 44.3156 40.315 44.279 40.3275C44.2644 40.3327 44.2503 40.338 44.2356 40.3427C44.1959 40.3568 44.1567 40.3704 44.1175 40.384C44.1075 40.3871 44.0976 40.3908 44.0877 40.3944C43.9862 40.4289 43.8874 40.4614 43.7928 40.4917C43.2679 40.659 42.8668 40.7573 42.8412 40.7709C42.7774 40.8049 41.8546 40.9758 40.0398 41.8291C39.8495 41.9185 39.6796 42.02 39.5254 42.1282C39.5212 42.1308 39.5175 42.1334 39.5133 42.1365C39.4705 42.1669 39.4292 42.1982 39.3889 42.2296C39.3805 42.2364 39.3722 42.2427 39.3638 42.249C39.3256 42.2798 39.2885 42.3107 39.2524 42.342C39.2435 42.3499 39.2352 42.3572 39.2263 42.365C39.1907 42.3964 39.1568 42.4283 39.1233 42.4607C39.1154 42.468 39.1081 42.4753 39.1008 42.4832C39.0673 42.5161 39.0349 42.5496 39.0036 42.5836C38.9989 42.5888 38.9947 42.5935 38.99 42.5987C38.8572 42.7451 38.7442 42.8957 38.6491 43.0458C38.6418 43.0573 38.6344 43.0688 38.6271 43.0798C38.6109 43.1064 38.5952 43.1331 38.5801 43.1592C38.5696 43.177 38.5591 43.1953 38.5492 43.2131C38.5367 43.2361 38.5246 43.2586 38.5126 43.2816C38.5011 43.3035 38.4896 43.3255 38.4786 43.3469C38.4692 43.3663 38.4598 43.3856 38.4504 43.4044C38.4378 43.4306 38.4263 43.4562 38.4148 43.4818C38.408 43.497 38.4012 43.5116 38.395 43.5263C38.3809 43.5587 38.3678 43.5906 38.3552 43.6225C38.3521 43.6303 38.349 43.6381 38.3458 43.6455C38.3145 43.726 38.2873 43.8039 38.2643 43.8776C38.2643 43.8776 38.2643 43.8776 38.2648 43.8776C38.2643 43.8797 38.2632 43.8818 38.2627 43.8844L38.6355 44.081H38.6365C38.6527 44.0899 38.6689 44.0988 38.6857 44.1077C40.5287 45.1011 43.0451 46.291 45.4591 46.9043C47.8113 47.5025 48.7499 49.4365 49.0845 51.3171C50.3754 51.4562 51.2501 51.4938 51.3086 51.4965C51.3107 51.4965 51.3144 51.4965 51.3144 51.4965C51.3149 51.4965 61.4016 51.0923 64.4999 47.5417V44.5374C64.5025 44.5364 64.4069 42.6819 62.5926 41.8281ZM51.3097 51.4844L51.3034 51.451L51.317 51.4954L51.3097 51.4844Z" fill="#4D6CD9"/>
</svg>
