<svg width="49" height="43" viewBox="0 0 49 43" fill="none" xmlns="http://www.w3.org/2000/svg">
<path d="M8.81321 19.7509C8.91882 19.753 9.01398 19.7127 9.09711 19.6516C9.37108 21.3241 10.0848 23.3538 11.8452 24.7764C11.8452 24.7764 15.8752 27.9726 20.1212 24.7121C21.8403 23.2796 22.5347 21.2629 22.7987 19.6061C22.8918 19.6897 23.0031 19.7504 23.1286 19.7509C23.5056 19.7519 24.0138 19.2098 24.5622 17.1032C25.2487 14.4665 24.6009 13.9526 23.9777 13.9604C23.8888 13.9615 23.8005 13.9735 23.7163 13.9907C23.7189 13.973 23.7205 13.963 23.7205 13.963C25.4615 6.66103 21.833 6.38341 21.2553 6.38445C21.2061 6.38445 21.1795 6.38654 21.1795 6.38654C20.8715 5.01147 19.1205 3.58725 17.2927 3.54124C17.0318 3.53444 16.7688 3.5564 16.5084 3.60973C15.858 3.7441 14.9911 3.78907 14.1065 3.7875C12.161 3.78331 10.1302 3.55274 10.1302 3.55274C10.0701 4.46092 10.8486 5.09146 10.8486 5.09146C6.41964 7.79299 8.26109 13.9379 8.26109 13.9379L8.25952 13.9955C8.13508 13.9583 8.11155 13.9604 7.9683 13.9594C7.34664 13.9547 6.70459 14.4733 7.38899 17.1027C7.93274 19.192 8.43728 19.743 8.81321 19.7509Z" fill="#4D6CD9"/>
<path d="M28.9134 29.4878C24.9079 28.4693 21.6532 26.1783 21.6532 26.1783L19.1138 34.2086L18.6359 35.7201L18.6286 35.6992L18.2114 36.9802L16.8724 33.1822C20.2578 28.4584 15.9752 28.6419 15.9752 28.6419C15.9752 28.6419 11.6926 28.4578 15.078 33.1822L13.727 37.01L13.3139 35.7159L10.2977 26.1777C10.2977 26.1777 7.04297 28.4688 3.03748 29.4873C0.0499633 30.247 -0.0922494 33.6967 0.0280042 35.4012L0.0144103 35.398C0.0144103 35.398 -0.0200972 37.7686 0.361577 38.7301C0.361577 38.7301 6.19335 42.5207 15.9616 42.5207L15.9564 42.3001L15.9752 42.5207C25.7434 42.5207 31.5752 38.7301 31.5752 38.7301C31.9569 37.7681 31.9224 35.398 31.9224 35.398C32.0432 33.6931 31.8988 30.247 28.9134 29.4878Z" fill="#4D6CD9"/>
<path d="M47.0926 22.8281C45.2783 21.9748 44.355 21.8038 44.2912 21.7698C44.2274 21.7359 41.677 21.189 40.8279 20.3467L43.1875 25.8098L40.6407 25.4344L35.8165 32.4959L40.6407 25.435L36.5213 30.0475L39.2693 20.4962V18.3693C43.9948 18.4111 45.3866 16.3861 45.3866 16.3861C45.3866 16.3861 42.6866 16.3443 42.8534 9.21746C43.0207 2.09061 39.7352 0.913693 38.5102 0.447841C34.9439 -0.90841 33.1516 1.24831 33.1516 1.24831C29.0174 0.866114 27.8766 5.38242 28.3843 10.5256C28.892 15.6693 26.0665 16.4698 26.0665 16.4698C28.0078 18.4529 32.1001 18.3274 32.1001 18.3274V20.4962L35.0322 29.9654L31.01 25.4621L30.9917 25.4355L30.987 25.436L30.9865 25.4355L30.987 25.436L28.4455 25.8109L30.6419 20.3373C30.6126 20.3665 30.5807 20.3953 30.5478 20.424C30.5368 20.4335 30.5253 20.4423 30.5143 20.4518C30.4913 20.4711 30.4678 20.4899 30.4432 20.5087C30.4296 20.5192 30.4155 20.5297 30.4014 20.5401C30.3774 20.5579 30.3533 20.5751 30.3282 20.5924C30.3136 20.6029 30.2984 20.6128 30.2832 20.6232C30.2561 20.641 30.2289 20.6588 30.2006 20.6766C30.1865 20.6855 30.1729 20.6944 30.1588 20.7027C30.1201 20.7262 30.0809 20.7493 30.0401 20.7723C30.0359 20.7743 30.0323 20.777 30.0281 20.7791C29.9837 20.8042 29.9382 20.8287 29.8916 20.8533C29.8765 20.8611 29.8608 20.869 29.8451 20.8773C29.8132 20.8936 29.7813 20.9098 29.7484 20.926C29.7301 20.9349 29.7123 20.9437 29.694 20.9521C29.6626 20.9673 29.6313 20.9819 29.5994 20.9966C29.5811 21.0049 29.5633 21.0133 29.545 21.0217C29.511 21.0368 29.477 21.052 29.4425 21.0671C29.4268 21.0739 29.4111 21.0813 29.3949 21.0881C29.3474 21.1084 29.2993 21.1288 29.2517 21.1482C29.2496 21.1492 29.247 21.1503 29.2449 21.1508C29.1931 21.1717 29.1414 21.1926 29.0896 21.2125C29.0776 21.2172 29.0655 21.2219 29.0535 21.2261C29.0138 21.2412 28.9746 21.2564 28.9348 21.271C28.9197 21.2768 28.9045 21.282 28.8894 21.2878C28.8522 21.3014 28.8156 21.315 28.779 21.3275C28.7644 21.3327 28.7503 21.338 28.7356 21.3427C28.6959 21.3568 28.6567 21.3704 28.6175 21.384C28.6075 21.3871 28.5976 21.3908 28.5877 21.3944C28.4862 21.4289 28.3874 21.4614 28.2928 21.4917C27.7679 21.659 27.3668 21.7573 27.3412 21.7709C27.2774 21.8049 26.3546 21.9758 24.5398 22.8291C24.3495 22.9185 24.1796 23.02 24.0254 23.1282C24.0212 23.1308 24.0175 23.1334 24.0133 23.1365C23.9705 23.1669 23.9292 23.1982 23.8889 23.2296C23.8805 23.2364 23.8722 23.2427 23.8638 23.249C23.8256 23.2798 23.7885 23.3107 23.7524 23.342C23.7435 23.3499 23.7352 23.3572 23.7263 23.365C23.6907 23.3964 23.6568 23.4283 23.6233 23.4607C23.6154 23.468 23.6081 23.4753 23.6008 23.4832C23.5673 23.5161 23.5349 23.5496 23.5036 23.5836C23.4989 23.5888 23.4947 23.5935 23.49 23.5987C23.3572 23.7451 23.2442 23.8957 23.1491 24.0458C23.1418 24.0573 23.1344 24.0688 23.1271 24.0798C23.1109 24.1064 23.0952 24.1331 23.0801 24.1592C23.0696 24.177 23.0591 24.1953 23.0492 24.2131C23.0367 24.2361 23.0246 24.2586 23.0126 24.2816C23.0011 24.3035 22.9896 24.3255 22.9786 24.3469C22.9692 24.3663 22.9598 24.3856 22.9504 24.4044C22.9378 24.4306 22.9263 24.4562 22.9148 24.4818C22.908 24.497 22.9012 24.5116 22.895 24.5263C22.8809 24.5587 22.8678 24.5906 22.8552 24.6225C22.8521 24.6303 22.849 24.6381 22.8458 24.6455C22.8145 24.726 22.7873 24.8039 22.7643 24.8776C22.7643 24.8776 22.7643 24.8776 22.7648 24.8776C22.7643 24.8797 22.7632 24.8818 22.7627 24.8844L23.1355 25.081H23.1365C23.1527 25.0899 23.1689 25.0988 23.1857 25.1077C25.0287 26.1011 27.5451 27.291 29.9591 27.9043C32.3113 28.5025 33.2499 30.4365 33.5845 32.3171C34.8754 32.4562 35.7501 32.4938 35.8086 32.4965C35.8107 32.4965 35.8144 32.4965 35.8144 32.4965C35.8149 32.4965 45.9016 32.0923 48.9999 28.5417V25.5374C49.0025 25.5364 48.9069 23.6819 47.0926 22.8281ZM35.8097 32.4844L35.8034 32.451L35.817 32.4954L35.8097 32.4844Z" fill="#4D6CD9"/>
</svg>
