<svg width="120" height="120" viewBox="0 0 120 120" fill="none" xmlns="http://www.w3.org/2000/svg">
<g filter="url(#filter0_d)">
<rect x="20" y="20" width="80" height="80" rx="16" fill="white"/>
</g>
<path d="M43.8132 58.7509C43.9188 58.753 44.014 58.7127 44.0971 58.6516C44.3711 60.3241 45.0848 62.3538 46.8452 63.7764C46.8452 63.7764 50.8752 66.9726 55.1212 63.7121C56.8403 62.2796 57.5347 60.2629 57.7987 58.6061C57.8918 58.6897 58.0031 58.7504 58.1286 58.7509C58.5056 58.7519 59.0138 58.2098 59.5622 56.1032C60.2487 53.4665 59.6009 52.9526 58.9777 52.9604C58.8888 52.9615 58.8005 52.9735 58.7163 52.9907C58.7189 52.973 58.7205 52.963 58.7205 52.963C60.4615 45.661 56.833 45.3834 56.2553 45.3845C56.2061 45.3845 56.1795 45.3865 56.1795 45.3865C55.8715 44.0115 54.1205 42.5872 52.2927 42.5412C52.0318 42.5344 51.7688 42.5564 51.5084 42.6097C50.858 42.7441 49.9911 42.7891 49.1065 42.7875C47.161 42.7833 45.1302 42.5527 45.1302 42.5527C45.0701 43.4609 45.8486 44.0915 45.8486 44.0915C41.4196 46.793 43.2611 52.9379 43.2611 52.9379L43.2595 52.9955C43.1351 52.9583 43.1116 52.9604 42.9683 52.9594C42.3466 52.9547 41.7046 53.4733 42.389 56.1027C42.9327 58.192 43.4373 58.743 43.8132 58.7509Z" fill="#9BA9E8"/>
<path d="M63.9134 68.4878C59.9079 67.4693 56.6532 65.1783 56.6532 65.1783L54.1138 73.2086L53.6359 74.7201L53.6286 74.6992L53.2114 75.9802L51.8724 72.1822C55.2578 67.4584 50.9752 67.6419 50.9752 67.6419C50.9752 67.6419 46.6926 67.4578 50.078 72.1822L48.727 76.01L48.3139 74.7159L45.2977 65.1777C45.2977 65.1777 42.043 67.4688 38.0375 68.4873C35.05 69.247 34.9078 72.6967 35.028 74.4012L35.0144 74.398C35.0144 74.398 34.9799 76.7686 35.3616 77.7301C35.3616 77.7301 41.1934 81.5207 50.9616 81.5207L50.9564 81.3001L50.9752 81.5207C60.7434 81.5207 66.5752 77.7301 66.5752 77.7301C66.9569 76.7681 66.9224 74.398 66.9224 74.398C67.0432 72.6931 66.8988 69.247 63.9134 68.4878Z" fill="#9BA9E8"/>
<path d="M82.0926 61.8281C80.2783 60.9748 79.355 60.8038 79.2912 60.7698C79.2274 60.7359 76.677 60.189 75.8279 59.3467L78.1875 64.8098L75.6407 64.4344L70.8165 71.4959L75.6407 64.435L71.5213 69.0475L74.2693 59.4962V57.3693C78.9948 57.4111 80.3866 55.3861 80.3866 55.3861C80.3866 55.3861 77.6866 55.3443 77.8534 48.2175C78.0207 41.0906 74.7352 39.9137 73.5102 39.4478C69.9439 38.0916 68.1516 40.2483 68.1516 40.2483C64.0174 39.8661 62.8766 44.3824 63.3843 49.5256C63.892 54.6693 61.0665 55.4698 61.0665 55.4698C63.0078 57.4529 67.1001 57.3274 67.1001 57.3274V59.4962L70.0322 68.9654L66.01 64.4621L65.9917 64.4355L65.987 64.436L65.9865 64.4355L65.987 64.436L63.4455 64.8109L65.6419 59.3373C65.6126 59.3665 65.5807 59.3953 65.5478 59.424C65.5368 59.4335 65.5253 59.4423 65.5143 59.4518C65.4913 59.4711 65.4678 59.4899 65.4432 59.5087C65.4296 59.5192 65.4155 59.5297 65.4014 59.5401C65.3774 59.5579 65.3533 59.5751 65.3282 59.5924C65.3136 59.6029 65.2984 59.6128 65.2832 59.6232C65.2561 59.641 65.2289 59.6588 65.2006 59.6766C65.1865 59.6855 65.1729 59.6944 65.1588 59.7027C65.1201 59.7262 65.0809 59.7493 65.0401 59.7723C65.0359 59.7743 65.0323 59.777 65.0281 59.7791C64.9837 59.8042 64.9382 59.8287 64.8916 59.8533C64.8765 59.8611 64.8608 59.869 64.8451 59.8773C64.8132 59.8936 64.7813 59.9098 64.7484 59.926C64.7301 59.9349 64.7123 59.9437 64.694 59.9521C64.6626 59.9673 64.6313 59.9819 64.5994 59.9966C64.5811 60.0049 64.5633 60.0133 64.545 60.0217C64.511 60.0368 64.477 60.052 64.4425 60.0671C64.4268 60.0739 64.4111 60.0813 64.3949 60.0881C64.3474 60.1084 64.2993 60.1288 64.2517 60.1482C64.2496 60.1492 64.247 60.1503 64.2449 60.1508C64.1931 60.1717 64.1414 60.1926 64.0896 60.2125C64.0776 60.2172 64.0655 60.2219 64.0535 60.2261C64.0138 60.2412 63.9746 60.2564 63.9348 60.271C63.9197 60.2768 63.9045 60.282 63.8894 60.2878C63.8522 60.3014 63.8156 60.315 63.779 60.3275C63.7644 60.3327 63.7503 60.338 63.7356 60.3427C63.6959 60.3568 63.6567 60.3704 63.6175 60.384C63.6075 60.3871 63.5976 60.3908 63.5877 60.3944C63.4862 60.4289 63.3874 60.4614 63.2928 60.4917C62.7679 60.659 62.3668 60.7573 62.3412 60.7709C62.2774 60.8049 61.3546 60.9758 59.5398 61.8291C59.3495 61.9185 59.1796 62.02 59.0254 62.1282C59.0212 62.1308 59.0175 62.1334 59.0133 62.1365C58.9705 62.1669 58.9292 62.1982 58.8889 62.2296C58.8805 62.2364 58.8722 62.2427 58.8638 62.249C58.8256 62.2798 58.7885 62.3107 58.7524 62.342C58.7435 62.3499 58.7352 62.3572 58.7263 62.365C58.6907 62.3964 58.6568 62.4283 58.6233 62.4607C58.6154 62.468 58.6081 62.4753 58.6008 62.4832C58.5673 62.5161 58.5349 62.5496 58.5036 62.5836C58.4989 62.5888 58.4947 62.5935 58.49 62.5987C58.3572 62.7451 58.2442 62.8957 58.1491 63.0458C58.1418 63.0573 58.1344 63.0688 58.1271 63.0798C58.1109 63.1064 58.0952 63.1331 58.0801 63.1592C58.0696 63.177 58.0591 63.1953 58.0492 63.2131C58.0367 63.2361 58.0246 63.2586 58.0126 63.2816C58.0011 63.3035 57.9896 63.3255 57.9786 63.3469C57.9692 63.3663 57.9598 63.3856 57.9504 63.4044C57.9378 63.4306 57.9263 63.4562 57.9148 63.4818C57.908 63.497 57.9012 63.5116 57.895 63.5263C57.8809 63.5587 57.8678 63.5906 57.8552 63.6225C57.8521 63.6303 57.849 63.6381 57.8458 63.6455C57.8145 63.726 57.7873 63.8039 57.7643 63.8776C57.7643 63.8776 57.7643 63.8776 57.7648 63.8776C57.7643 63.8797 57.7632 63.8818 57.7627 63.8844L58.1355 64.081H58.1365C58.1527 64.0899 58.1689 64.0988 58.1857 64.1077C60.0287 65.1011 62.5451 66.291 64.9591 66.9043C67.3113 67.5025 68.2499 69.4365 68.5845 71.3171C69.8754 71.4562 70.7501 71.4938 70.8086 71.4965C70.8107 71.4965 70.8144 71.4965 70.8144 71.4965C70.8149 71.4965 80.9016 71.0923 83.9999 67.5417V64.5374C84.0025 64.5364 83.9069 62.6819 82.0926 61.8281ZM70.8097 71.4844L70.8034 71.451L70.817 71.4954L70.8097 71.4844Z" fill="#9BA9E8"/>
<defs>
<filter id="filter0_d" x="0" y="0" width="120" height="120" filterUnits="userSpaceOnUse" color-interpolation-filters="sRGB">
<feFlood flood-opacity="0" result="BackgroundImageFix"/>
<feColorMatrix in="SourceAlpha" type="matrix" values="0 0 0 0 0 0 0 0 0 0 0 0 0 0 0 0 0 0 127 0" result="hardAlpha"/>
<feOffset/>
<feGaussianBlur stdDeviation="10"/>
<feColorMatrix type="matrix" values="0 0 0 0 0.301961 0 0 0 0 0.423529 0 0 0 0 0.85098 0 0 0 0.16 0"/>
<feBlend mode="normal" in2="BackgroundImageFix" result="effect1_dropShadow"/>
<feBlend mode="normal" in="SourceGraphic" in2="effect1_dropShadow" result="shape"/>
</filter>
</defs>
</svg>
