<svg width="80" height="81" viewBox="0 0 80 81" fill="none" xmlns="http://www.w3.org/2000/svg">
<path d="M37.5112 30.0376C37.5112 33.1942 34.9528 35.752 31.7968 35.752C28.6414 35.752 26.0824 33.1942 26.0824 30.0376C26.0824 26.8816 28.6414 24.3244 31.7968 24.3244C34.9528 24.3244 37.5112 26.8816 37.5112 30.0376ZM65.7646 57.8908L61.4908 63.445L47.116 52.3834C43.1746 56.1358 37.8412 58.4392 31.9696 58.4392C19.8364 58.4392 10 48.6028 10 36.4696C10 24.3364 19.8364 14.5 31.9696 14.5C44.104 14.5 53.9392 24.3364 53.9392 36.4696C53.9392 40.207 53.005 43.7254 51.3586 46.807L65.7646 57.8908ZM49.0432 36.4696C49.0432 27.04 41.3992 19.396 31.9696 19.396C22.54 19.396 14.8966 27.04 14.8966 36.4696C14.8966 42.2314 17.7502 47.3254 22.1212 50.4172V43.3234C22.1212 39.5914 25.7368 36.5668 29.4688 36.5668L34.126 36.568C37.8574 36.568 41.4748 39.5914 41.4748 43.3234V50.6548C46.0384 47.59 49.0432 42.3808 49.0432 36.4696ZM68.6332 60.0982L66.7696 58.6648L62.4964 64.2178L64.3594 65.6524C65.8924 66.8314 68.0926 66.5458 69.274 65.0116C70.4524 63.478 70.1662 61.2778 68.6332 60.0982Z" fill="white"/>
</svg>
