<svg width="80" height="81" viewBox="0 0 80 81" fill="none" xmlns="http://www.w3.org/2000/svg">
<path d="M23.3333 19.5V62.1386H46.5476V52.1896H56.4966V19.5H23.3333ZM30.4397 24.2376C30.9082 24.2376 31.3662 24.3766 31.7557 24.6368C32.1453 24.8971 32.4489 25.2671 32.6282 25.6999C32.8075 26.1328 32.8544 26.6091 32.763 27.0686C32.6716 27.5281 32.446 27.9502 32.1147 28.2814C31.7834 28.6127 31.3613 28.8383 30.9018 28.9297C30.4423 29.0211 29.966 28.9742 29.5332 28.7949C29.1003 28.6156 28.7304 28.312 28.4701 27.9225C28.2098 27.5329 28.0709 27.0749 28.0709 26.6064C28.0709 25.9782 28.3204 25.3757 28.7647 24.9314C29.2089 24.4872 29.8114 24.2376 30.4397 24.2376ZM30.4397 30.1597C31.3821 30.1597 32.2858 30.534 32.9522 31.2004C33.6186 31.8667 33.9929 32.7705 33.9929 33.7129H26.8865C26.8865 32.7705 27.2608 31.8667 27.9272 31.2004C28.5935 30.534 29.4973 30.1597 30.4397 30.1597ZM52.9434 49.1102H26.8865V47.9258H52.9434V49.1102ZM52.9434 44.3725H26.8865V43.1881H52.9434V44.3725ZM52.9434 39.6349H26.8865V38.4505H52.9434V39.6349ZM52.9434 33.7129H36.3617V32.5285H52.9434V33.7129ZM52.9434 28.9753H36.3617V27.7908H52.9434V28.9753Z" fill="white"/>
<path d="M47.7174 62.1392L56.4962 53.3604H47.7174V62.1392Z" fill="white"/>
</svg>
