<svg width="81" height="80" viewBox="0 0 81 80" fill="none" xmlns="http://www.w3.org/2000/svg">
<rect x="0.5" width="80" height="80" rx="16" fill="white"/>
<path d="M34.3988 17C27.3601 17 21.6213 22.7388 21.6213 29.7775C21.6213 36.8161 27.3601 42.555 34.3988 42.555C41.4375 42.555 47.1763 36.8161 47.1763 29.7775C47.1763 22.7388 41.4375 17 34.3988 17ZM34.3988 20.0666C39.7801 20.0666 44.1097 24.3962 44.1097 29.7775C44.1097 35.1588 39.7801 39.4884 34.3988 39.4884C29.0174 39.4884 24.6879 35.1588 24.6879 29.7775C24.6879 24.3962 29.0174 20.0666 34.3988 20.0666ZM29.2878 22.6221C28.441 22.6221 27.7545 23.3087 27.7545 24.1554C27.7545 25.0021 28.441 25.6887 29.2878 25.6887H34.287C34.4814 25.6887 34.8349 25.8893 35.1654 26.1998H29.2878C28.441 26.1998 27.7545 26.8864 27.7545 27.7331C27.7545 28.5798 28.441 29.2664 29.2878 29.2664H35.1814C34.847 29.5845 34.4841 29.7775 34.287 29.7775C32.584 29.7453 30.7793 29.8279 29.1121 29.7616C28.538 29.8231 27.9895 30.2277 27.8343 30.7838C27.6701 31.3724 27.7899 31.9767 28.2017 32.3809L34.3349 38.5141C34.8845 39.1435 35.9862 39.0998 36.5709 38.594C37.2029 38.0474 37.1324 36.9121 36.507 36.3579L32.9932 32.8441H34.287C36.3915 32.8441 38.1918 31.3526 38.791 29.2664H39.5098C40.3566 29.2664 41.0431 28.5798 41.0431 27.7331C41.0431 26.8864 40.3566 26.1998 39.5098 26.1998H38.791C38.741 26.028 38.681 25.8519 38.6153 25.6887H39.5098C40.3566 25.6887 41.0431 25.0021 41.0431 24.1554C41.0431 23.3087 40.3566 22.6221 39.5098 22.6221H34.287H29.2878V22.6221ZM52.6387 31.3108C51.8357 31.3525 51.1434 32.121 51.1852 32.924C51.2271 33.7269 51.9955 34.4194 52.7984 34.3774H58.2927L43.5986 49.0715L37.657 43.114C37.3392 42.7118 36.8095 42.4874 36.2994 42.539C35.9593 42.5758 35.633 42.7304 35.3891 42.9703L18.0117 59.3255C17.3751 59.8626 17.3263 60.9416 17.8998 61.5455C18.4733 62.1495 19.5506 62.1535 20.12 61.5455L36.4113 46.2126L42.1291 51.9305C42.338 52.3982 42.8046 52.749 43.3111 52.8249C43.8176 52.9009 44.3478 52.6997 44.6846 52.3138L60.4648 36.5336V42.0439C60.4536 42.8539 61.188 43.5932 61.9981 43.5932C62.8083 43.5932 63.5429 42.8539 63.5314 42.0439V32.8441C63.5314 32.0413 62.801 31.3109 61.9981 31.3108C58.7426 31.3108 55.4348 31.3108 52.6387 31.3108Z" fill="#4D6CD9"/>
</svg>
