<svg width="43" height="50" viewBox="0 0 43 50" fill="none" xmlns="http://www.w3.org/2000/svg">
<path d="M13.9454 0.0111596C14.2118 0.0111596 14.4783 0.0932947 14.7297 0.255178C15.2292 0.575552 15.5756 1.21175 15.5803 1.92496V1.94282C15.5785 2.17503 15.6672 2.39886 15.8278 2.56681C15.888 2.63107 15.9572 2.68647 16.0335 2.73109H16.0371C16.0879 2.76143 16.1417 2.78466 16.1973 2.80429H16.2009C16.2554 2.82214 16.3114 2.83463 16.3682 2.84177H16.3753C16.403 2.84177 16.431 2.84177 16.459 2.84177H16.4626C16.4917 2.84195 16.5208 2.84088 16.5497 2.84177C16.58 2.84177 16.6104 2.84175 16.6403 2.8239C16.6698 2.8239 16.6989 2.8059 16.7274 2.80233L16.7553 2.78469C16.7731 2.78469 16.7903 2.76682 16.8076 2.76682H16.8111C16.8385 2.74897 16.8652 2.74537 16.8913 2.73109C16.9445 2.70253 16.9948 2.66861 17.0412 2.62934H17.0448C17.0653 2.61149 17.0851 2.59364 17.104 2.574H17.1076C17.1492 2.53295 17.1865 2.48646 17.2192 2.43827C17.2352 2.41328 17.2507 2.38835 17.2645 2.36158C17.3346 2.2295 17.3707 2.08219 17.3691 1.9328V1.91494C17.3702 1.74002 17.3887 1.56787 17.4283 1.40598C17.5508 0.906949 17.8425 0.486998 18.2197 0.245156C18.7225 -0.077361 19.2854 -0.077361 19.7883 0.245156C20.2878 0.56553 20.6376 1.20172 20.6424 1.91494V1.9328C20.6406 2.16501 20.7293 2.38884 20.8899 2.55679C20.95 2.62104 21.0193 2.67645 21.0956 2.72107H21.0992C21.15 2.75141 21.2037 2.77464 21.2594 2.79427H21.263C21.3174 2.81212 21.3735 2.82457 21.4302 2.83349H21.4374C21.4652 2.83349 21.4931 2.83349 21.5211 2.83349C21.5819 2.83385 21.6426 2.83347 21.7023 2.81562C21.7318 2.81562 21.7609 2.79784 21.7894 2.79427L21.8173 2.77641C21.8351 2.77641 21.8523 2.75854 21.8696 2.75854H21.8732C21.9547 2.72641 22.0311 2.68184 22.0998 2.62651H22.1033H22.1069C22.1274 2.60866 22.1472 2.5908 22.1662 2.57117H22.1697C22.3396 2.40161 22.4339 2.16999 22.4312 1.92975C22.4312 1.92975 22.4312 1.91189 22.4312 1.91189C22.4365 1.19867 22.7822 0.562262 23.2818 0.241887C23.7846 -0.0806291 24.3475 -0.0806291 24.8504 0.241887C25.3466 0.56012 25.6952 1.19062 25.7045 1.89794C25.7044 1.91579 25.7009 1.91577 25.7009 1.92648C25.6938 2.385 26.0366 2.77393 26.4922 2.82586H26.4994C26.5271 2.82586 26.5551 2.82586 26.5831 2.82586C26.6939 2.8264 26.8039 2.80609 26.9073 2.76682H26.9282H26.9353H26.9496C26.9721 2.74897 26.994 2.74899 27.0158 2.73828C27.0421 2.72043 27.0678 2.7099 27.0926 2.69383C27.1179 2.67598 27.1424 2.65813 27.1657 2.63849C27.3758 2.46715 27.4963 2.20889 27.4934 1.93759C27.4934 1.93759 27.4899 1.91976 27.4899 1.90905C27.4988 1.20173 27.8477 0.571668 28.3439 0.253435C28.8468 -0.0692603 29.4097 -0.0692603 29.9126 0.253435C30.4045 0.568812 30.7448 1.19162 30.7597 1.89162C30.7508 4.06874 29.8818 6.16226 28.309 7.81429H14.7626C13.1898 6.16226 12.3211 4.06874 12.3119 1.89162C12.3262 1.19162 12.6705 0.568812 13.1625 0.253435C13.414 0.0928011 13.6804 0.00919879 13.9469 0.00919879L13.9454 0.0111596ZM15.779 9.60107H27.3908V11.1907H15.779V9.60107ZM15.3677 12.9755H27.701C39.5251 22.8598 42.5722 31.8105 42.5722 38.4754V39.2493C42.5722 42.0568 40.5847 44.7095 37.0853 46.7162C33.5859 48.7229 28.6459 50 23.1588 50H19.9099C14.4229 50 9.48283 48.7229 5.98344 46.7162C2.48406 44.7095 0.5 42.0568 0.5 39.2493V38.4754C0.5 31.8105 3.5437 22.8598 15.3677 12.9755ZM22.0154 21.4464C15.6091 21.4464 10.4455 26.6569 10.4455 33.0442C10.4455 39.4335 15.6091 44.6455 22.0154 44.6455C28.4203 44.6455 33.6481 39.4399 33.6481 33.0442C33.6485 32.9246 33.6247 32.8059 33.5783 32.6956H33.5748C33.3761 26.4738 28.2951 21.4499 22.0153 21.4499L22.0154 21.4464ZM22.0154 23.2312C27.4563 23.2312 31.8633 27.6203 31.8633 33.0442C31.8633 38.4704 27.4563 42.8607 22.0154 42.8607C16.5728 42.8607 12.2303 38.4769 12.2303 33.0442C12.2303 27.6139 16.5728 23.2312 22.0154 23.2312ZM17.658 26.8497V26.8675H17.6196V28.6523H19.4532C21.1207 28.6523 21.9606 29.4402 22.2629 30.4197H17.6579V32.2045H22.2629C21.9598 33.1828 21.1191 33.9719 19.4532 33.9719H18.8188H18.8116H18.8045H17.6193V35.1885L17.567 35.2402L17.6193 35.292V35.7557H18.0934L23.5942 41.131L24.8422 39.8552L20.5335 35.6476C22.4912 35.2537 23.7475 33.8035 24.0927 32.2035H26.5294V30.4186H24.0927C23.9547 29.777 23.657 29.1693 23.2386 28.6338H26.5294V26.849L17.658 26.8497Z" fill="#4D6CD9"/>
</svg>
