<svg width="80" height="81" viewBox="0 0 80 81" fill="none" xmlns="http://www.w3.org/2000/svg">
<path d="M32.4454 15.5112C32.7118 15.5112 32.9783 15.5933 33.2297 15.7552C33.7292 16.0756 34.0756 16.7117 34.0803 17.425V17.4428C34.0785 17.675 34.1672 17.8989 34.3278 18.0668C34.388 18.1311 34.4572 18.1865 34.5335 18.2311H34.5371C34.5879 18.2614 34.6417 18.2847 34.6973 18.3043H34.7009C34.7554 18.3221 34.8114 18.3346 34.8682 18.3418H34.8753C34.903 18.3418 34.931 18.3418 34.959 18.3418H34.9626C34.9917 18.3419 35.0208 18.3409 35.0497 18.3418C35.08 18.3418 35.1104 18.3418 35.1403 18.3239C35.1698 18.3239 35.1989 18.3059 35.2274 18.3023L35.2553 18.2847C35.2731 18.2847 35.2903 18.2668 35.3076 18.2668H35.3111C35.3385 18.249 35.3652 18.2454 35.3913 18.2311C35.4445 18.2025 35.4948 18.1686 35.5412 18.1293H35.5448C35.5653 18.1115 35.5851 18.0936 35.604 18.074H35.6076C35.6492 18.033 35.6865 17.9865 35.7192 17.9383C35.7352 17.9133 35.7507 17.8883 35.7645 17.8616C35.8346 17.7295 35.8707 17.5822 35.8691 17.4328V17.4149C35.8702 17.24 35.8887 17.0679 35.9283 16.906C36.0508 16.4069 36.3425 15.987 36.7197 15.7452C37.2225 15.4226 37.7854 15.4226 38.2883 15.7452C38.7878 16.0655 39.1376 16.7017 39.1424 17.4149V17.4328C39.1406 17.665 39.2293 17.8888 39.3899 18.0568C39.45 18.121 39.5193 18.1764 39.5956 18.2211H39.5992C39.65 18.2514 39.7037 18.2746 39.7594 18.2943H39.763C39.8174 18.3121 39.8735 18.3246 39.9302 18.3335H39.9374C39.9652 18.3335 39.9931 18.3335 40.0211 18.3335C40.0819 18.3338 40.1426 18.3335 40.2023 18.3156C40.2318 18.3156 40.2609 18.2978 40.2894 18.2943L40.3173 18.2764C40.3351 18.2764 40.3523 18.2585 40.3696 18.2585H40.3732C40.4547 18.2264 40.5311 18.1818 40.5998 18.1265H40.6033H40.6069C40.6274 18.1087 40.6472 18.0908 40.6662 18.0712H40.6697C40.8396 17.9016 40.9339 17.67 40.9312 17.4298C40.9312 17.4298 40.9312 17.4119 40.9312 17.4119C40.9365 16.6987 41.2822 16.0623 41.7818 15.7419C42.2846 15.4194 42.8475 15.4194 43.3504 15.7419C43.8466 16.0601 44.1952 16.6906 44.2045 17.3979C44.2044 17.4158 44.2009 17.4158 44.2009 17.4265C44.1938 17.885 44.5366 18.2739 44.9922 18.3259H44.9994C45.0271 18.3259 45.0551 18.3259 45.0831 18.3259C45.1939 18.3264 45.3039 18.3061 45.4073 18.2668H45.4282H45.4353H45.4496C45.4721 18.249 45.494 18.249 45.5158 18.2383C45.5421 18.2204 45.5678 18.2099 45.5926 18.1938C45.6179 18.176 45.6424 18.1581 45.6657 18.1385C45.8758 17.9672 45.9963 17.7089 45.9934 17.4376C45.9934 17.4376 45.9899 17.4198 45.9899 17.4091C45.9988 16.7017 46.3477 16.0717 46.8439 15.7534C47.3468 15.4307 47.9097 15.4307 48.4126 15.7534C48.9045 16.0688 49.2448 16.6916 49.2597 17.3916C49.2508 19.5687 48.3818 21.6623 46.809 23.3143H33.2626C31.6898 21.6623 30.8211 19.5687 30.8119 17.3916C30.8262 16.6916 31.1705 16.0688 31.6625 15.7534C31.914 15.5928 32.1804 15.5092 32.4469 15.5092L32.4454 15.5112ZM34.279 25.1011H45.8908V26.6907H34.279V25.1011ZM33.8677 28.4755H46.201C58.0251 38.3598 61.0722 47.3105 61.0722 53.9754V54.7493C61.0722 57.5568 59.0847 60.2095 55.5853 62.2162C52.0859 64.2229 47.1459 65.5 41.6588 65.5H38.4099C32.9229 65.5 27.9828 64.2229 24.4834 62.2162C20.9841 60.2095 19 57.5568 19 54.7493V53.9754C19 47.3105 22.0437 38.3598 33.8677 28.4755ZM40.5154 36.9464C34.1091 36.9464 28.9455 42.1569 28.9455 48.5442C28.9455 54.9335 34.1091 60.1455 40.5154 60.1455C46.9203 60.1455 52.1481 54.9399 52.1481 48.5442C52.1485 48.4246 52.1247 48.3059 52.0783 48.1956H52.0748C51.8761 41.9738 46.7951 36.9499 40.5153 36.9499L40.5154 36.9464ZM40.5154 38.7312C45.9563 38.7312 50.3633 43.1203 50.3633 48.5442C50.3633 53.9704 45.9563 58.3607 40.5154 58.3607C35.0728 58.3607 30.7303 53.9769 30.7303 48.5442C30.7303 43.1139 35.0728 38.7312 40.5154 38.7312ZM36.158 42.3497V42.3675H36.1196V44.1523H37.9532C39.6207 44.1523 40.4606 44.9402 40.7629 45.9197H36.1579V47.7045H40.7629C40.4598 48.6828 39.6191 49.4719 37.9532 49.4719H37.3188H37.3116H37.3045H36.1193V50.6885L36.067 50.7402L36.1193 50.792V51.2557H36.5934L42.0942 56.631L43.3422 55.3552L39.0335 51.1476C40.9912 50.7537 42.2475 49.3035 42.5927 47.7035H45.0294V45.9186H42.5927C42.4547 45.277 42.157 44.6693 41.7386 44.1338H45.0294V42.349L36.158 42.3497Z" fill="white"/>
</svg>
