<svg width="24" height="24" viewBox="0 0 24 24" fill="none" xmlns="http://www.w3.org/2000/svg">
<path d="M12.3998 8.75259H8.92537C8.79055 9.08206 8.46665 9.317 8.0913 9.317C7.59694 9.317 7.18717 8.90987 7.18717 8.41552C7.18717 7.92116 7.59694 7.51139 8.0913 7.51139C8.46592 7.51139 8.78941 7.74664 8.92471 8.0758H12.3687L12.2755 6.04483H8.92537C8.79055 6.3743 8.46665 6.60924 8.0913 6.60924C7.59694 6.60924 7.18717 6.20212 7.18717 5.70776C7.18717 5.21341 7.59694 4.80562 8.0913 4.80562C8.46572 4.80562 8.78927 5.03987 8.92471 5.36804H12.2445L12.1506 3.32188C12.1418 3.14173 11.9932 3.00015 11.8129 3H3.34985C3.16297 3.00068 3.01207 3.15284 3.01279 3.33972V14.1655C3.01279 14.5212 3.08879 14.8656 3.20974 15.1826H17.5634C17.5634 14.8781 17.5635 14.6423 17.5634 14.1655C17.5633 13.0375 16.9696 12.2337 16.2198 11.765C15.4699 11.2964 14.5742 11.1206 13.8412 11.1206H12.8643C12.6931 11.1206 12.4909 10.9208 12.4916 10.7386L12.3998 8.75259ZM2.67579 16.1964V17.55C2.67477 17.7381 2.82732 17.8911 3.01549 17.8903H5.38354V19.918H2.33872C1.88709 19.918 1.88709 20.5955 2.33872 20.5955C8.02711 20.6057 13.7186 20.5955 19.4273 20.5955C21.0149 20.5955 22.3022 19.3081 22.3022 17.7205C22.3022 17.3256 22.2234 16.9468 22.0795 16.6036C22.0275 16.4743 21.9016 16.3901 21.7623 16.3914C21.5191 16.3927 21.3571 16.6433 21.4549 16.8659C21.5647 17.1279 21.6248 17.416 21.6248 17.7205C21.6248 18.9449 20.6516 19.918 19.4273 19.918H15.5351V17.8903H17.9005C18.0887 17.891 18.2413 17.7381 18.2403 17.55V16.1964C18.2396 16.0095 18.0874 15.8587 17.9005 15.8594H2.99798C2.80737 15.8768 2.67561 16.0225 2.67579 16.1964V16.1964ZM6.05767 17.8903H10.1196V19.918H6.05767V17.8903ZM10.7964 17.8903H14.8584V19.918H10.7964V17.8903Z" fill="#4D6CD9"/>
</svg>
