<svg width="16" height="15" viewBox="0 0 16 15" fill="none" xmlns="http://www.w3.org/2000/svg">
<path d="M12.2743 9.53845C12.0805 9.72626 11.9915 9.99786 12.0356 10.2642L12.7008 13.9455C12.7569 14.2576 12.6252 14.5733 12.3641 14.7536C12.1082 14.9407 11.7678 14.9631 11.4887 14.8135L8.17474 13.0851C8.05952 13.0237 7.93157 12.9908 7.80063 12.9871H7.59786C7.52752 12.9975 7.45869 13.02 7.39583 13.0544L4.08116 14.791C3.9173 14.8734 3.73173 14.9025 3.54991 14.8734C3.10696 14.7895 2.81141 14.3675 2.88399 13.9223L3.54991 10.241C3.59406 9.97242 3.50502 9.69932 3.31123 9.50852L0.609357 6.8897C0.383391 6.67047 0.304826 6.34125 0.408082 6.0442C0.508346 5.7479 0.764241 5.53166 1.07326 5.48303L4.79198 4.94355C5.07481 4.91437 5.32323 4.74228 5.45043 4.48788L7.08906 1.12831C7.12797 1.05349 7.1781 0.98465 7.2387 0.926288L7.30605 0.873912C7.34121 0.835004 7.38162 0.80283 7.42651 0.776642L7.50807 0.746712L7.63527 0.694336H7.95027C8.23161 0.723517 8.47927 0.891869 8.60872 1.14328L10.269 4.48788C10.3888 4.73255 10.6215 4.9024 10.8901 4.94355L14.6088 5.48303C14.9231 5.52792 15.1857 5.74491 15.2897 6.0442C15.3877 6.34424 15.3032 6.67347 15.0727 6.8897L12.2743 9.53845Z" fill="#F5BC2F"/>
</svg>
