<svg width="25" height="24" viewBox="0 0 25 24" fill="none" xmlns="http://www.w3.org/2000/svg">
<path d="M13.3361 10.4752C13.3974 10.4141 13.4776 10.3836 13.5578 10.3836C13.6379 10.3836 13.7182 10.4141 13.7794 10.4752L14.6108 11.3043L15.9645 10.0338C16.0447 9.95876 16.1586 9.93089 16.2643 9.9605C17.3076 10.2536 18.9155 10.2076 20.0129 9.1132C20.8193 8.30915 21.2239 7.21783 21.1339 6.15946L19.9467 7.34325C19.3074 7.98036 18.2978 8.0107 17.6953 7.41002L16.9492 6.66593C16.6693 6.38678 16.5151 6.00965 16.5151 5.60364C16.5151 5.1683 16.6977 4.73659 17.0159 4.41913L18.202 3.23635C17.1247 3.14476 16.018 3.56035 15.2072 4.38719C14.2214 5.39258 14.0905 6.96946 14.3978 8.08633C14.4277 8.19505 14.3969 8.31162 14.317 8.39131L12.5055 10.1983L13.0603 10.7503L13.3361 10.4752Z" fill="#4D6CD9"/>
<path d="M10.9471 13.3015C10.8882 13.2427 10.8551 13.1628 10.8551 13.0795C10.8551 12.9962 10.8883 12.9164 10.9471 12.8576L11.365 12.4408L10.8101 11.8889L5.38554 17.2983C5.02787 17.655 4.82275 18.0777 4.82275 18.4577C4.82275 18.7347 4.92829 18.9806 5.13659 19.1882C5.70577 19.7556 6.49936 19.4724 7.03341 18.94L11.8175 14.1692L10.9471 13.3015Z" fill="#4D6CD9"/>
<path d="M11.0311 11.2245L11.8092 11.9982L12.616 11.1938L11.8395 10.4211C11.8394 10.4209 11.8394 10.4209 11.8394 10.4208L5.9162 4.52695C5.8863 4.49719 5.86278 4.46177 5.84696 4.42272L5.43267 3.40311L4.44442 3L3.5 3.93818L3.97163 4.83832L5.0014 5.26248C5.03943 5.27816 5.07398 5.30109 5.10316 5.33012L11.0308 11.2244C11.0308 11.2244 11.0309 11.2244 11.0311 11.2245Z" fill="#4D6CD9"/>
<path d="M14.8533 13.3298C14.7415 13.3016 14.6543 13.2145 14.6259 13.1029L14.3215 11.902L13.5579 11.1406L13.2822 11.4154L12.0312 12.6629L11.613 13.08L12.3879 13.8517C12.3881 13.8517 12.3882 13.8518 12.3885 13.8519L13.5136 14.2461C13.6035 14.2776 13.6742 14.3481 13.7058 14.4378L14.1017 15.5616L19.5552 21L21.5001 19.0606L16.0579 13.6336L14.8533 13.3298ZM19.8908 19.2527C19.8296 19.3139 19.7493 19.3445 19.6689 19.3445C19.5886 19.3445 19.5083 19.3139 19.4471 19.2528L15.3599 15.1722C15.2374 15.0498 15.2373 14.8514 15.3598 14.7289C15.4823 14.6063 15.6812 14.6063 15.8035 14.7287L19.8905 18.8093C20.0132 18.9317 20.0134 19.1301 19.8908 19.2527Z" fill="#4D6CD9"/>
</svg>
