<svg width="100" height="96" viewBox="0 0 100 96" fill="none" xmlns="http://www.w3.org/2000/svg">
<circle cx="13.3701" cy="57.9259" r="1.5" transform="rotate(-15 13.3701 57.9259)" fill="#1749C7"/>
<path d="M25.1568 47.9703L25.837 50.5087L23.8783 51.0335L26.5969 61.1792L23.2985 62.063L20.58 51.9173L18.6292 52.44L17.9491 49.9016L25.1568 47.9703Z" fill="#1749C7"/>
<path d="M25.9089 47.7688L28.2436 47.1432C29.8001 46.7262 30.8686 46.5042 31.4492 46.4774C32.035 46.4492 32.5668 46.637 33.0445 47.0408C33.526 47.438 33.9116 48.1772 34.2013 49.2583C34.4658 50.2455 34.5208 50.9417 34.3662 51.347C34.2117 51.7523 33.7832 52.0854 33.0806 52.3464C33.7769 52.3334 34.2737 52.4326 34.571 52.644C34.8684 52.8554 35.074 53.0691 35.1878 53.2849C35.3054 53.4941 35.5014 54.1105 35.7757 55.1342L36.6721 58.4796L33.6088 59.3004L32.4794 55.0854C32.2974 54.4064 32.1299 54.0007 31.9769 53.8681C31.829 53.7342 31.5279 53.7281 31.0735 53.8499L32.606 59.5691L29.3076 60.4529L25.9089 47.7688ZM29.7888 49.0552L30.5445 51.8756C30.9153 51.7762 31.1606 51.6573 31.2802 51.5189C31.4037 51.3739 31.3906 51.0219 31.2408 50.463L31.054 49.7658C30.9462 49.3636 30.8024 49.1194 30.6226 49.0333C30.448 48.9457 30.17 48.953 29.7888 49.0552Z" fill="#1749C7"/>
<path d="M34.5582 45.4512L40.0581 43.9775L40.7382 46.5159L38.5367 47.1058L39.1812 49.511L41.2417 48.9589L41.8883 51.3719L39.8278 51.924L40.5751 54.7131L42.996 54.0645L43.6761 56.6028L37.9569 58.1353L34.5582 45.4512Z" fill="#1749C7"/>
<path d="M48.5977 41.6893L51.9964 54.3734L49.1055 55.1481L45.8446 49.8416L47.3897 55.6078L44.6319 56.3467L41.2333 43.6626L43.991 42.9237L47.3703 48.1397L45.84 42.4283L48.5977 41.6893Z" fill="#1749C7"/>
<path d="M49.9296 41.3325L52.3975 40.6712C53.9905 40.2444 55.086 40.0292 55.6841 40.0257C56.2873 40.0208 56.78 40.1463 57.162 40.4022C57.5441 40.6581 57.827 40.9825 58.0107 41.3756C58.1929 41.7634 58.445 42.5579 58.7669 43.7592L59.9572 48.2014C60.2623 49.34 60.4118 50.1173 60.4056 50.5332C60.4033 50.9424 60.2984 51.2924 60.0908 51.5832C59.8818 51.8687 59.5933 52.1083 59.2254 52.3021C58.8561 52.4906 58.2771 52.6905 57.4884 52.9019L53.3283 54.0166L49.9296 41.3325ZM53.8094 42.6188L56.0451 50.9626C56.5204 50.8353 56.7877 50.6629 56.847 50.4455C56.9049 50.2228 56.8205 49.6884 56.5938 48.8423L55.2733 43.9144C55.1194 43.3399 55.0025 42.9765 54.9225 42.8244C54.8426 42.6723 54.7275 42.5772 54.5773 42.539C54.4258 42.4957 54.1698 42.5223 53.8094 42.6188Z" fill="#1749C7"/>
<path d="M62.0966 38.0723L65.4953 50.7564L62.1969 51.6402L58.7983 38.9561L62.0966 38.0723Z" fill="#1749C7"/>
<path d="M70.7851 35.7443L74.1838 48.4284L71.2928 49.203L68.032 43.8965L69.5771 49.6627L66.8193 50.4016L63.4206 37.7176L66.1784 36.9786L69.5577 42.1946L68.0273 36.4832L70.7851 35.7443Z" fill="#1749C7"/>
<path d="M80.9362 38.0289L77.6379 38.9127L77.3293 37.761C77.1348 37.035 76.9817 36.589 76.87 36.423C76.7584 36.257 76.585 36.2054 76.35 36.2684C76.1463 36.323 76.0289 36.4384 75.9977 36.6147C75.9666 36.791 76.0378 37.203 76.2113 37.8506L77.8425 43.9381C77.995 44.5074 78.1323 44.8736 78.2544 45.0368C78.3751 45.1948 78.5452 45.2444 78.7645 45.1857C79.0048 45.1213 79.1394 44.976 79.1684 44.7499C79.2026 44.5225 79.1407 44.1136 78.9825 43.5234L78.5795 42.0192L77.9135 42.1976L77.3971 40.2703L81.2595 39.2354L83.0838 46.0436L81.0076 46.5999L80.4586 45.773C80.3389 46.2249 80.1334 46.5962 79.8418 46.8871C79.5541 47.1713 79.1778 47.3757 78.713 47.5002C78.1593 47.6486 77.604 47.6547 77.0469 47.5184C76.4936 47.3756 76.0384 47.1393 75.6813 46.8095C75.3242 46.4797 75.0563 46.1065 74.8775 45.6898C74.6972 45.2678 74.4903 44.6208 74.2565 43.7485L73.2468 39.9801C72.9221 38.7684 72.7516 37.8708 72.7352 37.2874C72.7188 36.704 72.9579 36.1025 73.4525 35.483C73.9509 34.8568 74.691 34.4122 75.673 34.1491C76.6392 33.8902 77.4941 33.8738 78.2377 34.1C78.9813 34.3262 79.5231 34.6876 79.8633 35.1843C80.2021 35.6757 80.5108 36.4411 80.7893 37.4805L80.9362 38.0289Z" fill="#1749C7"/>
<circle cx="87.663" cy="38.0192" r="1.5" transform="rotate(-15 87.663 38.0192)" fill="#1749C7"/>
<path d="M32.5468 27.1176L33.473 27.9852L34.7418 27.9602L34.2029 29.1091L34.6188 30.3081L33.3595 30.1506L32.3477 30.9166L32.1084 29.6704L31.0672 28.9448L32.1785 28.332L32.5468 27.1176Z" fill="#1749C7"/>
<path d="M43.1027 20.1483L45.8812 22.751L49.6876 22.676L48.0709 26.1228L49.3185 29.7197L45.5408 29.2473L42.5054 31.5453L41.7873 27.8065L38.6638 25.6298L41.9978 23.7915L43.1027 20.1483Z" fill="#1749C7"/>
<path d="M55.7292 20.9057L56.6554 21.7733L57.9242 21.7483L57.3853 22.8972L57.8011 24.0962L56.5419 23.9387L55.5301 24.7047L55.2908 23.4584L54.2496 22.7329L55.3609 22.1201L55.7292 20.9057Z" fill="#1749C7"/>
<path d="M44.1367 70.3715L45.0629 71.2391L46.3317 71.2141L45.7928 72.363L46.2086 73.562L44.9494 73.4045L43.9376 74.1705L43.6982 72.9243L42.6571 72.1987L43.7684 71.5859L44.1367 70.3715Z" fill="#1749C7"/>
<path d="M54.6925 63.4022L57.4711 66.0049L61.2775 65.9299L59.6608 69.3767L60.9083 72.9736L57.1306 72.5012L54.0952 74.7992L53.3772 71.0604L50.2537 68.8837L53.5876 67.0454L54.6925 63.4022Z" fill="#1749C7"/>
<path d="M67.3191 64.1596L68.2452 65.0272L69.514 65.0022L68.9751 66.1511L69.391 67.3501L68.1318 67.1926L67.12 67.9586L66.8806 66.7123L65.8394 65.9868L66.9508 65.374L67.3191 64.1596Z" fill="#1749C7"/>
<path fill-rule="evenodd" clip-rule="evenodd" d="M82.2686 26.4892C73.4412 13.1389 56.7675 6.27893 40.4572 10.6493C24.147 15.0196 13.1371 29.2973 12.1675 45.2727L13.1878 44.9993C14.264 29.577 24.946 15.8408 40.7161 11.6152C56.4861 7.38961 72.6051 13.9446 81.2483 26.7625L82.2686 26.4892ZM79.4737 27.2381C71.1548 15.3416 55.9977 9.31325 41.1643 13.2879C26.3308 17.2625 16.2185 30.0618 14.9624 44.5238L17.0265 43.9707C18.4814 30.6224 27.9325 18.9038 41.6819 15.2197C55.4313 11.5356 69.4755 16.9586 77.4096 27.7911L79.4737 27.2381ZM83.6874 51.2205L85.7516 50.6674C84.4954 65.1294 74.3831 77.9287 59.5497 81.9033C44.7163 85.8779 29.5592 79.8495 21.2403 67.9532L23.3044 67.4001C31.2386 78.2325 45.2827 83.6556 59.0321 79.9714C72.7815 76.2873 82.2325 64.5688 83.6874 51.2205ZM19.4657 68.4287C28.1089 81.2466 44.2278 87.8015 59.9979 83.576C75.768 79.3504 86.4499 65.6142 87.5262 50.1919L88.5464 49.9185C87.5769 65.8938 76.567 80.1716 60.2567 84.5419C43.9465 88.9122 27.2728 82.0523 18.4454 68.702L19.4657 68.4287Z" fill="#1749C7"/>
<path d="M6.76074 46.7212L86.9613 25.2315" stroke="#1749C7"/>
<path d="M13.0386 70.1509L93.2391 48.6612" stroke="#1749C7"/>
</svg>
