<svg width="19" height="15" viewBox="0 0 19 15" fill="none" xmlns="http://www.w3.org/2000/svg">
<path d="M18.4372 1.82343C17.8722 2.08848 17.2264 2.25159 16.6209 2.35354C16.9237 2.31276 17.3475 1.76227 17.5291 1.55838C17.7914 1.23217 18.0134 0.844788 18.1345 0.437018C18.1547 0.396241 18.1547 0.355464 18.1345 0.335076C18.0941 0.314687 18.074 0.335076 18.0336 0.335076C17.3475 0.702069 16.6411 0.987508 15.8743 1.171C15.8137 1.19139 15.7734 1.171 15.733 1.13023C15.6725 1.04867 15.6119 0.987508 15.5514 0.926342C15.2285 0.661292 14.8854 0.437018 14.502 0.273911C13.9975 0.0700259 13.4324 -0.0319163 12.8875 0.00886061C12.3628 0.0496376 11.8381 0.192357 11.374 0.437018C10.9098 0.68168 10.486 1.02828 10.1429 1.45644C9.79986 1.8846 9.53751 2.39431 9.41642 2.9448C9.29534 3.4749 9.29534 3.98461 9.37606 4.51471C9.39624 4.59627 9.37606 4.61666 9.29534 4.59627C6.30859 4.16811 3.84654 3.10791 1.84865 0.804011C1.76792 0.702069 1.70738 0.702069 1.64684 0.804011C0.779068 2.12926 1.20286 4.24966 2.29262 5.30986C2.43389 5.45258 2.59533 5.5953 2.75678 5.71763C2.69624 5.73802 1.96973 5.65647 1.32395 5.30986C1.24322 5.2487 1.20286 5.28948 1.18268 5.39142C1.18268 5.53414 1.18268 5.65647 1.20286 5.81958C1.36431 7.16522 2.29262 8.40891 3.54383 8.87785C3.68509 8.93901 3.86672 9.00018 4.02817 9.02057C3.74564 9.08173 3.44293 9.12251 2.61552 9.06134C2.51461 9.04095 2.47425 9.10212 2.51461 9.18367C3.12003 10.8963 4.45196 11.406 5.461 11.6915C5.60226 11.7118 5.72335 11.7118 5.86461 11.7526C5.86461 11.773 5.84443 11.773 5.84443 11.773C5.52154 12.2827 4.37124 12.6701 3.82636 12.8536C2.85768 13.2002 1.78811 13.3429 0.758887 13.241C0.597441 13.2206 0.55708 13.2206 0.516718 13.241C0.476357 13.2614 0.516718 13.3021 0.55708 13.3429C0.758887 13.4856 0.980875 13.608 1.20286 13.7303C1.84865 14.0769 2.53479 14.3623 3.24112 14.5662C6.91401 15.5857 11.0712 14.8313 13.836 12.0585C15.9953 9.89727 16.7622 6.90017 16.7622 3.88267C16.7622 3.76034 16.9035 3.69917 16.9842 3.63801C17.5493 3.20985 17.9932 2.70014 18.417 2.12926C18.5179 2.00693 18.4978 1.8846 18.4978 1.84382V1.82343C18.4978 1.78266 18.5179 1.78266 18.4372 1.82343Z" fill="#8A90A9"/>
</svg>
