<svg width="94" height="107" viewBox="0 0 94 107" fill="none" xmlns="http://www.w3.org/2000/svg">
<ellipse cx="47.5394" cy="45.9657" rx="45.5586" ry="45.9657" fill="#9BA9E8"/>
<path d="M13.3413 68.0991C14.5297 59.4556 35.764 48.114 50.2635 49.7228C64.7631 51.3316 78.3118 60.9844 81.7782 68.0991C85.2446 75.2138 80.1539 100.795 80.1539 100.795H19.0163C19.0163 100.795 11.3109 83.0679 13.3413 68.0991Z" fill="#161515"/>
<path d="M25.414 49.3933C25.414 49.3933 23.6808 46.2256 27.6919 41.2993C31.703 36.373 50.9961 32.0063 60.9695 39.4407C70.9429 46.8752 72.1908 47.045 71.5866 49.4332C70.9825 51.8215 55.9779 61.864 54.8884 66.2907C53.799 70.7174 48.7083 78.2817 48.3616 78.2817C48.015 78.2817 43.8256 69.5282 40.4384 64.9317C37.0512 60.3351 25.414 49.3933 25.414 49.3933Z" fill="#161515"/>
<path d="M32.674 37.5819C32.4561 40.5797 35.3877 50.7021 38.5273 55.0789C41.6669 59.4556 46.3317 62.1935 49.085 62.4134C51.8383 62.6332 56.1565 59.4156 59.0881 53.58C62.0197 47.7443 64.3273 37.0323 64.3273 37.0323L32.674 37.5819Z" fill="#FFB18F"/>
<path d="M64.0994 38.0616C63.8038 37.6954 63.472 37.3606 63.109 37.0624L32.6243 37.592C32.456 39.8603 34.1496 46.3954 36.3681 51.2817C39.8345 50.1126 43.3603 48.8736 45.4204 47.9343C47.4804 46.995 46.1929 45.1363 47.9756 44.8066C49.7583 44.4768 49.4315 47.8044 50.9468 48.2041C52.0264 48.5138 56.81 50.3225 59.9694 51.5316C61.6675 47.1484 63.0478 42.6466 64.0994 38.0616Z" fill="#DB826A"/>
<path d="M25.751 48.2442C25.751 48.2442 31.119 41.9789 46.8169 42.1188C62.5148 42.2587 70.1607 48.554 70.1607 48.554C70.1607 48.554 56.3644 43.2679 45.7869 43.6576C36.7841 43.9774 25.751 48.2442 25.751 48.2442Z" fill="#90CED6"/>
<path d="M23.572 49.2833C23.1956 49.1833 30.2869 25.3012 39.6561 18.7361C45.0241 14.9589 55.0074 15.0489 59.8802 19.2057C66.2782 24.6517 73.32 49.0634 73.003 49.8329C72.6861 50.6023 64.6044 43.4776 48.025 43.0479C31.1188 42.6182 24.7604 49.613 23.572 49.2833Z" fill="#353535"/>
<path d="M23.572 49.2831C23.572 49.2831 24.3742 47.6544 25.2656 48.0241C31.525 50.6521 45.2024 63.4426 47.2922 70.3774C50.0059 79.3707 48.8273 84.6068 48.8273 84.6068C48.8273 84.6068 44.5983 73.0154 38.3092 64.9215C33.2978 58.4663 23.572 49.2831 23.572 49.2831Z" fill="#353535"/>
<path d="M73.0028 49.8331C73.0028 49.8331 71.8539 47.5848 71.1606 47.9745C65.3173 51.1621 51.4912 63.5129 49.3718 70.4377C46.658 79.431 48.7973 84.6071 48.7973 84.6071C48.7973 84.6071 51.9567 73.4354 58.2458 65.3415C63.2968 58.8863 73.0028 49.8331 73.0028 49.8331Z" fill="#353535"/>
<path d="M45.7967 50.4026C46.461 49.9918 47.1685 49.6566 47.9062 49.4034C48.4113 49.2735 50.511 50.6525 50.2337 50.8223C49.9564 50.9922 45.5788 50.7824 45.7967 50.4026Z" fill="#DB826A"/>
<path d="M44.133 55.4994C44.0141 55.1994 46.1138 54.5794 48.4512 54.4994C50.7885 54.4194 52.2939 54.6794 51.9176 54.8894C51.5412 55.0994 49.8476 54.8894 48.4908 55.0094C47.1339 55.1294 44.4697 56.3494 44.133 55.4994Z" fill="#7C4639"/>
<path d="M43.8354 54.3397C44.3306 54.6295 42.9243 55.4389 43.5086 56.1483C44.2415 57.0177 45.0338 56.5281 45.0338 56.7479C45.0338 56.9677 43.9246 57.4773 42.9738 56.1483C42.3993 55.3589 43.1917 53.97 43.8354 54.3397Z" fill="#DB826A"/>
<path d="M49.3719 18.2563C43.5087 18.2563 38.4279 37.5419 37.2097 43.8872C40.7736 43.2101 44.4003 42.9287 48.0249 43.0478C51.9169 43.1384 55.7882 43.6475 59.573 44.5667C58.5529 37.8017 57.2357 18.2563 49.3719 18.2563Z" fill="#444444"/>
<path d="M48.3716 83.4277C47.5657 76.1608 44.497 69.3388 39.6065 63.9422C36.7402 60.6674 33.4409 57.8061 29.8015 55.4386C32.7962 58.4507 35.6358 61.6159 38.3091 64.9215C43.3899 71.4666 47.1237 80.28 48.3716 83.4277Z" fill="#90CED6"/>
<path d="M17.3225 61.594C9.98362 67.4297 1.34729 89.753 0.0498631 96.9676C-1.24757 104.182 23.1659 106.78 27.6029 104.372C32.0399 101.964 25.0873 71.8164 22.4825 68.319C19.8778 64.8216 18.8378 60.3849 17.3225 61.594Z" fill="#353535"/>
<path d="M58.2757 65.3411C60.7174 62.3073 63.3158 59.4054 66.0603 56.6476C63.1457 58.788 60.4633 61.2331 58.0578 63.9421C53.2822 69.2106 50.244 75.8441 49.3621 82.9279C50.501 79.5005 53.4722 71.5265 58.2757 65.3411Z" fill="#474747"/>
<path d="M19.4521 74.5444C19.4521 74.5444 16.7383 82.3186 15.0051 83.9574C13.2719 85.5962 10.1225 84.3971 8.17135 85.816C6.22026 87.235 5.90332 91.5018 5.90332 91.5018C5.90332 91.5018 10.2512 88.2242 14.5198 89.863C15.7762 90.3203 17.1332 90.4195 18.4418 90.1498C19.7503 89.8801 20.96 89.2519 21.938 88.3341L19.4521 74.5444Z" fill="#232323"/>
<path d="M19.8875 91.8116C19.8875 91.8116 13.6975 90.1928 11.1522 92.4911C10.6284 92.9372 10.2022 93.4882 9.90046 94.1092C9.59871 94.7301 9.42802 95.4075 9.39917 96.0984C10.3248 95.0402 11.4808 94.2125 12.7764 93.6802C15.5892 92.681 21.8783 96.608 19.3428 93.3605L19.8875 91.8116Z" fill="#2B2B2B"/>
<path d="M76.6774 61.594C84.0163 67.4297 92.6526 89.753 93.95 96.9676C95.2475 104.182 70.834 106.78 66.397 104.372C61.96 101.964 68.9126 71.8164 71.5174 68.319C74.1221 64.8216 75.172 60.3849 76.6774 61.594Z" fill="#353535"/>
<path d="M74.5578 74.5444C74.5578 74.5444 77.2715 82.3186 79.0048 83.9574C80.738 85.5962 83.8775 84.3971 85.8286 85.816C87.7797 87.235 88.1066 91.5018 88.1066 91.5018C88.1066 91.5018 83.7587 88.2242 79.4801 89.863C78.2236 90.3192 76.8669 90.4178 75.5586 90.1482C74.2502 89.8785 73.0406 89.2509 72.062 88.3341L74.5578 74.5444Z" fill="#232323"/>
<path d="M74.1221 91.8116C74.1221 91.8116 80.3122 90.1928 82.8476 92.4911C83.3732 92.9363 83.8012 93.4869 84.1047 94.1079C84.4082 94.7289 84.5804 95.4067 84.6105 96.0984C83.6849 95.0402 82.5289 94.2125 81.2332 93.6802C78.4205 92.681 72.1215 96.608 74.6669 93.3605L74.1221 91.8116Z" fill="#2B2B2B"/>
<path d="M85.0959 83.4277C85.0959 83.4277 84.1055 80.6198 82.1247 79.8504C80.4565 79.0804 78.8675 78.1466 77.3806 77.0625C77.3806 77.0625 78.371 82.1587 79.4803 82.5384C81.3007 83.1029 83.1916 83.4023 85.0959 83.4277Z" fill="#2B2B2B"/>
<path d="M79.936 69.5181H18.7983V105.281H79.936V69.5181Z" fill="#AAAAAA"/>
<path d="M79.936 105.241H18.7983V107H79.936V105.241Z" fill="#8C8C8C"/>
<path d="M36.2789 104.762H29.772V105.372H36.2789V104.762Z" fill="#CECECE"/>
<path d="M68.972 104.762H62.4651V105.372H68.972V104.762Z" fill="#CECECE"/>
<path d="M79.936 69.5981H18.7983V70.4281H79.936V69.5981Z" fill="#CECECE"/>
<path d="M8.91406 83.4277C8.91406 83.4277 9.90447 80.6198 11.8853 79.8504C13.5534 79.0804 15.1424 78.1466 16.6293 77.0625C16.6293 77.0625 15.6389 82.1587 14.5198 82.5384C12.7027 83.1026 10.8151 83.4021 8.91406 83.4277Z" fill="#2B2B2B"/>
<path d="M48.1932 82.5884H45.5488V85.1265H46.3312V83.2879H48.1932V82.5884Z" fill="#474747"/>
<path d="M50.5605 82.5884H53.195V85.1265H52.4225V83.2879H50.5605V82.5884Z" fill="#474747"/>
<path d="M50.5605 89.823H53.195V87.2849H52.4225V89.1235H50.5605V89.823Z" fill="#474747"/>
<path d="M48.1932 89.823H45.5488V87.2849H46.3312V89.1235H48.1932V89.823Z" fill="#474747"/>
</svg>
