<svg width="24" height="25" viewBox="0 0 24 25" fill="none" xmlns="http://www.w3.org/2000/svg">
<path d="M12 1.1748C10.6234 1.17653 9.27794 1.58409 8.13179 2.34652C6.98564 3.10894 6.08973 4.19238 5.55612 5.46131C5.0225 6.73025 4.87487 8.12835 5.13169 9.48075C5.38851 10.8332 6.03838 12.0798 7.00002 13.0648V22.1748C7.00053 22.3453 7.04461 22.5128 7.12808 22.6614C7.21154 22.81 7.33162 22.9349 7.4769 23.024C7.62218 23.1132 7.78784 23.1638 7.95816 23.1709C8.12847 23.178 8.29779 23.1415 8.45002 23.0648L12 21.2948L15.55 23.0648C15.6893 23.1362 15.8435 23.1739 16 23.1748C16.1872 23.1754 16.3709 23.1234 16.53 23.0248C16.6741 22.9347 16.7929 22.8094 16.8751 22.6607C16.9574 22.512 17.0004 22.3447 17 22.1748V13.0648C17.9616 12.0798 18.6115 10.8332 18.8683 9.48075C19.1252 8.12835 18.9775 6.73025 18.4439 5.46131C17.9103 4.19238 17.0144 3.10894 15.8682 2.34652C14.7221 1.58409 13.3766 1.17653 12 1.1748ZM15 20.5548L12.45 19.2848C12.3104 19.2145 12.1563 19.1778 12 19.1778C11.8437 19.1778 11.6896 19.2145 11.55 19.2848L9.00002 20.5548V14.4948C9.63294 14.7937 10.3071 14.9959 11 15.0948V16.1748C11 16.44 11.1054 16.6944 11.2929 16.8819C11.4804 17.0694 11.7348 17.1748 12 17.1748C12.2652 17.1748 12.5196 17.0694 12.7071 16.8819C12.8947 16.6944 13 16.44 13 16.1748V15.0948C13.6929 14.9959 14.3671 14.7937 15 14.4948V20.5548ZM12 13.1748C11.0111 13.1748 10.0444 12.8816 9.22216 12.3322C8.39992 11.7827 7.75906 11.0019 7.38062 10.0882C7.00218 9.17459 6.90316 8.16926 7.09609 7.19935C7.28902 6.22945 7.76522 5.33853 8.46448 4.63927C9.16374 3.94001 10.0547 3.4638 11.0246 3.27088C11.9945 3.07795 12.9998 3.17697 13.9134 3.55541C14.8271 3.93385 15.608 4.57471 16.1574 5.39695C16.7068 6.2192 17 7.1859 17 8.1748C17 9.50089 16.4732 10.7727 15.5355 11.7103C14.5979 12.648 13.3261 13.1748 12 13.1748Z" fill="#4D6CD9"/>
</svg>
