<svg width="24" height="24" viewBox="0 0 24 24" fill="none" xmlns="http://www.w3.org/2000/svg">
<path d="M11.5 3C6.80559 3 3 6.80559 3 11.5C3 16.1944 6.80559 20 11.5 20C16.1944 20 20 16.1944 20 11.5C20 6.80559 16.1944 3 11.5 3ZM13.8555 8.42858H15.4002C15.6695 8.42858 15.8878 8.64682 15.8878 8.9161C15.8878 9.18538 15.6695 9.40363 15.4002 9.40363H14.138C14.1559 9.54316 14.1652 9.68542 14.1652 9.82975C14.1652 11.4202 13.0434 12.7536 11.5494 13.0802L13.4086 15.7296C13.5633 15.95 13.51 16.2541 13.2896 16.4088C13.2044 16.4686 13.1067 16.4973 13.01 16.4973C12.8564 16.4973 12.7053 16.425 12.6105 16.2898L10.412 13.1568H7.66477C7.39552 13.1568 7.17724 12.9385 7.17724 12.6693C7.17724 12.4 7.39552 12.1817 7.66477 12.1817H10.8382C12.1351 12.1817 13.1901 11.1267 13.1901 9.82982C13.1901 9.68437 13.1768 9.54194 13.1514 9.4037H7.59976C7.33051 9.4037 7.11223 9.18542 7.11223 8.91617C7.11223 8.64692 7.33051 8.42864 7.59976 8.42864H12.726C12.297 7.85211 11.6105 7.47797 10.8383 7.47797H7.6648C7.39555 7.47797 7.17727 7.25972 7.17727 6.99044C7.17727 6.72116 7.39555 6.50292 7.6648 6.50292H15.4003C15.6696 6.50292 15.8878 6.7212 15.8878 6.99044C15.8878 7.25969 15.6696 7.47797 15.4003 7.47797H13.1891C13.4632 7.75184 13.6898 8.07324 13.8555 8.42858Z" fill="#4D6CD9"/>
</svg>
