<svg width="24" height="24" viewBox="0 0 24 24" fill="none" xmlns="http://www.w3.org/2000/svg">
<path d="M21.38 5.75992C21.3458 5.63223 21.2867 5.51257 21.206 5.40786C21.1254 5.30316 21.0247 5.21549 20.91 5.14992L15.71 2.14992C15.5964 2.08339 15.4709 2.03992 15.3405 2.022C15.2101 2.00409 15.0775 2.01209 14.9502 2.04553C14.823 2.07897 14.7035 2.13721 14.5988 2.2169C14.4941 2.29659 14.4061 2.39616 14.34 2.50992L12 6.56992L9.65997 2.50992C9.59381 2.39616 9.50584 2.29659 9.40112 2.2169C9.2964 2.13721 9.17698 2.07897 9.0497 2.04553C8.92243 2.01209 8.7898 2.00409 8.65943 2.022C8.52906 2.03992 8.40351 2.08339 8.28997 2.14992L3.08997 5.14992C2.9752 5.21549 2.87457 5.30316 2.7939 5.40786C2.71323 5.51257 2.65411 5.63223 2.61997 5.75992C2.55379 6.01337 2.58969 6.28266 2.71997 6.50992L6.71997 13.3399C6.27372 14.1575 6.02701 15.0689 5.99997 15.9999C5.99759 16.9082 6.20145 17.8052 6.59619 18.6232C6.99093 19.4412 7.56623 20.159 8.27873 20.7223C8.99122 21.2856 9.82232 21.6798 10.7093 21.8752C11.5964 22.0706 12.5162 22.062 13.3994 21.8502C14.2826 21.6383 15.1063 21.2287 15.8081 20.6522C16.51 20.0757 17.0719 19.3474 17.4513 18.5222C17.8308 17.6969 18.0179 16.7963 17.9986 15.8882C17.9793 14.9801 17.7541 14.0883 17.34 13.2799L21.24 6.51992C21.3126 6.40886 21.3623 6.28447 21.3864 6.15399C21.4104 6.02351 21.4082 5.88955 21.38 5.75992ZM4.99997 6.37992L8.45997 4.37992L11.68 9.99992C10.3074 10.0847 9.00676 10.6431 7.99997 11.5799L4.99997 6.37992ZM12 19.9999C10.9391 19.9999 9.92169 19.5785 9.17154 18.8283C8.4214 18.0782 7.99997 17.0608 7.99997 15.9999C7.99997 14.9391 8.4214 13.9216 9.17154 13.1715C9.92169 12.4213 10.9391 11.9999 12 11.9999C13.0608 11.9999 14.0783 12.4213 14.8284 13.1715C15.5785 13.9216 16 14.9391 16 15.9999C16 17.0608 15.5785 18.0782 14.8284 18.8283C14.0783 19.5785 13.0608 19.9999 12 19.9999ZM16 11.5499C15.457 11.054 14.8262 10.664 14.14 10.3999L13.16 8.56992L15.58 4.37992L19.04 6.37992L16 11.5499Z" fill="#4D6CD9"/>
</svg>
