<svg width="369" height="436" viewBox="0 0 369 436" fill="none" xmlns="http://www.w3.org/2000/svg">
<path d="M225 1H9C4.58172 1 1 4.58172 1 9V38C1 42.4183 4.58172 46 9 46H225" stroke="#CD433E" stroke-width="2" stroke-linecap="round"/>
<path d="M225 66H9C4.58172 66 1 69.5817 1 74V103C1 107.418 4.58172 111 9 111H225" stroke="#F2B241" stroke-width="2" stroke-linecap="round"/>
<path d="M238 130H9.00001C4.58173 130 1 133.582 1 138V167C1 171.418 4.58172 175 9 175H276" stroke="#EDD85F" stroke-width="2" stroke-linecap="round"/>
<path d="M299 195H9C4.58172 195 1 198.582 1 203V233C1 237.418 4.58172 241 9 241H340" stroke="#8FC38B" stroke-width="2" stroke-linecap="round"/>
<path d="M365.5 260H9C4.58172 260 1 263.582 1 268V297C1 301.418 4.58172 305 9 305H365.5" stroke="#5DACC8" stroke-width="2" stroke-linecap="round"/>
<path d="M367.5 325H9C4.58173 325 1 328.582 1 333V362C1 366.418 4.58172 370 9 370H367.5" stroke="#9167B3" stroke-width="2" stroke-linecap="round"/>
<path d="M367 390H9C4.58172 390 1 393.582 1 398V427C1 431.418 4.58172 435 9 435H367" stroke="#4A779F" stroke-width="2" stroke-linecap="round"/>
</svg>
