<svg width="80" height="81" viewBox="0 0 80 81" fill="none" xmlns="http://www.w3.org/2000/svg">
<path d="M15.5556 42.5601L13.3346 45.6101H5.36897C4.18449 45.6101 3 46.6169 3 47.831C3 49.1932 4.00681 50.2 5.36897 50.2H14.6968C15.5556 50.2 16.2366 49.8743 16.74 49.0155L18.9313 45.7878C18.7833 45.7582 15.7332 43.7445 15.5556 42.5601Z" fill="white"/>
<path d="M30.9831 28.1385C33.3224 28.1385 35.2176 26.2433 35.2176 23.904C35.2176 21.5646 33.3224 19.6694 30.9831 19.6694C28.6437 19.6694 26.7485 21.5646 26.7485 23.904C26.7485 26.2433 28.6437 28.1385 30.9831 28.1385Z" fill="white"/>
<path d="M29.2975 38.6508C29.4752 39.3319 29.9786 39.8353 30.6596 40.013L37.9442 41.8785H38.1219C39.1287 42.0562 39.9875 41.3751 40.1651 40.3683C40.4909 39.1838 39.8394 38.1474 38.803 37.9993L32.5252 36.4595L30.6596 30.6851C30.63 30.5667 30.5412 30.4779 30.482 30.3594C30.3931 30.0633 30.1859 29.7672 29.8009 29.5007L27.0173 27.6351C26.8101 27.4278 26.5732 27.2205 26.2474 27.1317L19.792 24.9404C19.2886 24.7627 18.6075 24.7627 18.2521 24.9404L10.9676 28.8196C9.96074 29.323 9.60539 30.5075 10.1088 31.3662C10.4345 32.0473 10.9676 32.373 11.6486 32.373C11.9744 32.373 12.3297 32.373 12.6554 32.1954L19.259 28.79L23.1678 30.1817L18.0745 37.9697C17.1269 39.628 16.6235 41.2567 17.6303 42.53C17.808 42.8557 18.0449 43.1815 18.4298 43.3888L24.8853 48.1267L20.9765 56.7735C20.4731 57.9579 20.9765 59.3201 22.161 59.8235C22.4867 60.0012 22.842 60.0012 23.1678 60.0012C24.0265 60.0012 24.8557 59.4978 25.211 58.639L29.8009 48.1267C30.3043 47.268 29.9786 46.0835 29.1198 45.4024L24.0857 41.7305L28.1722 35.1566L29.2975 38.6508Z" fill="white"/>
<path d="M77.3264 33.172C76.438 31.573 74.6613 31.1584 72.8253 32.106C71.2855 32.9351 69.7457 33.7939 68.117 34.6823C67.1694 33.2016 66.2514 31.7803 65.2742 30.4181C65.0373 30.0924 64.5931 29.7666 64.2082 29.737C61.247 29.5001 59.0557 28.0787 57.4862 25.5913C57.2789 25.2656 56.7163 24.9398 56.3314 24.9398C53.2517 24.8806 50.2016 24.9102 47.122 24.9102C45.7302 24.9102 44.7234 25.5025 44.0423 26.7166C42.8282 28.9375 41.5845 31.1288 40.4 33.3497C39.3932 35.2153 39.8374 37.0512 41.466 37.9396C43.0947 38.828 44.8418 38.2061 45.9079 36.3405C46.737 34.8599 47.5365 33.3497 48.3657 31.8987C48.5137 31.6026 48.8395 31.2176 49.0764 31.188C50.8531 31.1288 52.6298 31.1584 54.5546 31.1584C54.377 31.5434 54.3177 31.7506 54.1993 31.9283C51.475 36.6959 48.7803 41.4634 45.9967 46.2014C45.7894 46.5271 45.2268 46.8232 44.8122 46.8232C41.5549 46.8825 38.3272 46.8232 35.0698 46.8529C32.9674 46.8825 31.5756 48.215 31.6052 50.051C31.6348 51.8573 33.0562 53.101 35.0698 53.101C39.0082 53.101 42.9467 53.0714 46.8851 53.1306C48.5137 53.1602 49.639 52.5088 50.4089 51.117C51.0012 50.0214 51.6822 48.9553 52.3633 47.8004C54.1697 49.2218 55.8872 50.5248 57.5158 51.9165C57.7231 52.0942 57.7823 52.6865 57.6639 53.0122C56.7163 55.4996 55.6799 57.9574 54.7027 60.4448C53.992 62.2512 54.6435 63.9983 56.2721 64.709C57.96 65.4197 59.7071 64.6498 60.4771 62.8138C61.8392 59.4676 63.2014 56.1215 64.5043 52.7753C65.2446 50.9097 64.8893 49.7252 63.3198 48.4815C61.3654 46.9417 59.411 45.4019 57.427 43.8324C58.8484 41.4042 60.2402 39.0352 61.7504 36.459C62.6387 37.8211 63.4087 39.0056 64.1786 40.1901C65.4223 42.0853 66.9325 42.4703 68.9165 41.4042C71.2263 40.1605 73.536 38.8576 75.8162 37.5546C77.6521 36.5478 78.2147 34.7711 77.3264 33.172Z" fill="white"/>
<path d="M64.5055 26.8942C67.4075 26.9238 69.7764 24.614 69.7764 21.712C69.7764 18.8693 67.4667 16.5299 64.6239 16.5003C61.7219 16.4707 59.3826 18.7508 59.3826 21.6824C59.3826 24.5548 61.6331 26.8349 64.5055 26.8942Z" fill="white"/>
</svg>
