<svg width="80" height="80" viewBox="0 0 80 80" fill="none" xmlns="http://www.w3.org/2000/svg">
<rect x="0.5" y="0.5" width="79" height="79" rx="15.5" fill="white" stroke="#DFE5FF"/>
<path fill-rule="evenodd" clip-rule="evenodd" d="M13.8462 34.7882C14.1143 35.0666 14.3402 35.4264 14.496 35.8705L17.6663 44.9075C18.4551 44.3463 19.603 44.4537 20.3152 45.2136L23.5377 48.6332C24.4033 49.4984 25.2672 49.9453 26.263 50.4944C27.2596 51.0439 28.3751 51.6938 29.6161 52.9348C30.7248 54.0435 31.9738 56.0882 32.7149 57.7145L33.8761 56.5532L33.8764 56.5535C34.0468 56.3831 34.323 56.3831 34.4932 56.5533L37.8373 59.8973C38.0075 60.0675 38.0075 60.3438 37.8371 60.5142L28.6599 69.6914C28.4897 69.8616 28.2134 69.8616 28.0432 69.6914L24.6991 66.3473C24.529 66.1771 24.5289 65.9009 24.6991 65.7307L25.7425 64.6874C22.2869 59.5643 18.5029 58.3558 14.8463 54.6932L14.8461 54.6929C14.2199 54.0668 13.7648 52.9271 13.2943 51.4422C12.8237 49.9574 12.3814 48.1401 11.976 46.257C11.1655 42.491 10.5035 38.4573 10.1058 36.3904C9.9928 35.8032 10.1511 35.2485 10.4707 34.845C10.7898 34.4416 11.2552 34.1789 11.7636 34.084C12.4627 33.9538 13.2569 34.1752 13.8469 34.788L13.8462 34.7882Z" fill="#4D6CD9"/>
<path fill-rule="evenodd" clip-rule="evenodd" d="M67.1531 34.7882C66.885 35.0666 66.6591 35.4264 66.5033 35.8705L63.333 44.9075C62.5442 44.3463 61.3963 44.4537 60.6841 45.2136L57.4616 48.6332C56.596 49.4984 55.7321 49.9453 54.7363 50.4944C53.7397 51.0439 52.6242 51.6938 51.3832 52.9348C50.2744 54.0435 49.0254 56.0882 48.2844 57.7145L47.1231 56.5532L47.1229 56.5535C46.9525 56.3831 46.6762 56.3831 46.506 56.5533L43.1619 59.8973C42.9918 60.0675 42.9917 60.3438 43.1622 60.5142L52.3394 69.6914C52.5096 69.8616 52.7858 69.8616 52.956 69.6914L56.3001 66.3473C56.4703 66.1771 56.4703 65.9009 56.3001 65.7307L55.2568 64.6874C58.7123 59.5643 62.4964 58.3558 66.153 54.6932L66.1532 54.6929C66.7793 54.0668 67.2344 52.9271 67.705 51.4422C68.1755 49.9574 68.6179 48.1401 69.0232 46.257C69.8338 42.491 70.4958 38.4573 70.8935 36.3904C71.0065 35.8032 70.8481 35.2485 70.5286 34.845C70.2095 34.4416 69.7441 34.1789 69.2356 34.084C68.5366 33.9538 67.7424 34.1752 67.1524 34.788L67.1531 34.7882Z" fill="#4D6CD9"/>
<path fill-rule="evenodd" clip-rule="evenodd" d="M40.3754 26.4717C46.1583 26.4717 50.8452 31.1592 50.8452 36.9415C50.8452 42.7245 46.1583 47.4114 40.3754 47.4114C34.5924 47.4114 29.9055 42.7245 29.9055 36.9415C29.9055 31.1592 34.5924 26.4717 40.3754 26.4717ZM40.3754 28.4407C42.7213 28.4407 44.8477 29.3939 46.3851 30.9318L46.3857 30.9312C47.9237 32.4692 48.8762 34.5956 48.8762 36.9415C48.8762 39.2874 47.923 41.4145 46.3857 42.9512H46.3851V42.9518C44.8483 44.4892 42.7213 45.4424 40.3754 45.4424C38.0295 45.4424 35.9024 44.4892 34.3657 42.9518V42.9512H34.3651C32.8277 41.4145 31.8745 39.2874 31.8745 36.9415C31.8745 34.5956 32.8271 32.4692 34.3651 30.9312L34.3657 30.9318C35.9031 29.3939 38.0295 28.4407 40.3754 28.4407ZM46.0221 31.2941C44.579 29.8504 42.5814 28.9562 40.3754 28.9562C38.1693 28.9562 36.1717 29.8504 34.7286 31.2941V31.2948C33.2842 32.7391 32.39 34.7361 32.39 36.9415C32.39 39.1476 33.2842 41.1452 34.728 42.5883L34.7286 42.5889C36.1717 44.0327 38.1693 44.9269 40.3754 44.9269C42.5814 44.9269 44.579 44.0327 46.0221 42.5889L46.0228 42.5883C47.4665 41.1452 48.3607 39.1476 48.3607 36.9415C48.3607 34.7361 47.4665 32.7391 46.0221 31.2948V31.2941Z" fill="#4D6CD9"/>
<path fill-rule="evenodd" clip-rule="evenodd" d="M26.8367 9C31.6415 9 36.4469 9 41.2518 9C38.8658 13.1331 36.4804 17.265 34.0944 21.3981C31.6749 17.265 29.2561 13.1331 26.8367 9Z" fill="#4D6CD9"/>
<path fill-rule="evenodd" clip-rule="evenodd" d="M42.4063 9C46.2415 9 50.0774 9 53.9126 9C51.5722 13.1331 49.2324 17.265 46.8914 21.3981C43.0106 21.3981 39.1297 21.3981 35.2483 21.3981C37.6343 17.265 40.0197 13.1331 42.4063 9Z" fill="#4D6CD9"/>
<path d="M45.4017 23.2456H35.3435V24.922H45.4017V23.2456Z" fill="#4D6CD9"/>
</svg>
