<svg width="406" height="204" viewBox="0 0 406 204" fill="none" xmlns="http://www.w3.org/2000/svg">
<rect width="406" height="204" rx="13.1429" fill="#4D6CD9"/>
<mask id="mask0_5250_272544" style="mask-type:alpha" maskUnits="userSpaceOnUse" x="0" y="0" width="406" height="204">
<rect width="406" height="204" rx="13.1429" fill="#4D6CD9"/>
</mask>
<g mask="url(#mask0_5250_272544)">
<path fill-rule="evenodd" clip-rule="evenodd" d="M292.538 258.237C338.902 258.237 376.487 220.651 376.487 174.288C376.487 127.924 338.902 90.3386 292.538 90.3386C246.174 90.3386 208.589 127.924 208.589 174.288C208.589 220.651 246.174 258.237 292.538 258.237ZM292.538 219.752C317.647 219.752 338.001 199.397 338.001 174.288C338.001 149.179 317.647 128.824 292.538 128.824C267.429 128.824 247.074 149.179 247.074 174.288C247.074 199.397 267.429 219.752 292.538 219.752Z" fill="url(#paint0_linear_5250_272544)"/>
<ellipse cx="254.437" cy="-0.584503" rx="1.51997" ry="1.51999" fill="#1749C7"/>
<ellipse cx="254.437" cy="8.53537" rx="1.51997" ry="1.51999" fill="#1749C7"/>
<ellipse cx="254.437" cy="17.6555" rx="1.51997" ry="1.51999" fill="#1749C7"/>
<ellipse cx="254.437" cy="26.7754" rx="1.51997" ry="1.51999" fill="#1749C7"/>
<ellipse cx="263.556" cy="-0.584503" rx="1.52002" ry="1.51999" fill="#1749C7"/>
<ellipse cx="263.556" cy="8.53537" rx="1.52002" ry="1.51999" fill="#1749C7"/>
<ellipse cx="263.556" cy="17.6555" rx="1.52002" ry="1.51999" fill="#1749C7"/>
<ellipse cx="263.556" cy="26.7754" rx="1.52002" ry="1.51999" fill="#1749C7"/>
<ellipse cx="272.675" cy="-0.584503" rx="1.51997" ry="1.51999" fill="#1749C7"/>
<ellipse cx="272.675" cy="8.53537" rx="1.51997" ry="1.51999" fill="#1749C7"/>
<ellipse cx="272.675" cy="17.6555" rx="1.51997" ry="1.51999" fill="#1749C7"/>
<ellipse cx="272.675" cy="26.7754" rx="1.51997" ry="1.51999" fill="#1749C7"/>
<ellipse cx="281.801" cy="-0.584503" rx="1.51996" ry="1.51999" fill="#1749C7"/>
<ellipse cx="281.801" cy="8.53561" rx="1.51996" ry="1.51999" fill="#1749C7"/>
<ellipse cx="281.801" cy="17.6552" rx="1.51996" ry="1.51999" fill="#1749C7"/>
<ellipse cx="281.801" cy="26.7754" rx="1.51996" ry="1.51999" fill="#1749C7"/>
<ellipse cx="290.92" cy="-0.584503" rx="1.52" ry="1.51999" fill="#1749C7"/>
<ellipse cx="290.92" cy="8.53561" rx="1.52" ry="1.51999" fill="#1749C7"/>
<ellipse cx="290.92" cy="17.6552" rx="1.52" ry="1.51999" fill="#1749C7"/>
<ellipse cx="290.92" cy="26.7754" rx="1.52" ry="1.51999" fill="#1749C7"/>
<ellipse cx="300.039" cy="-0.584503" rx="1.51997" ry="1.51999" fill="#1749C7"/>
<ellipse cx="300.039" cy="8.53561" rx="1.51997" ry="1.51999" fill="#1749C7"/>
<ellipse cx="300.039" cy="17.6552" rx="1.51997" ry="1.51999" fill="#1749C7"/>
<ellipse cx="300.039" cy="26.7754" rx="1.51997" ry="1.51999" fill="#1749C7"/>
<ellipse cx="309.152" cy="-0.584503" rx="1.51997" ry="1.51999" fill="#1749C7"/>
<ellipse cx="309.152" cy="8.53537" rx="1.51997" ry="1.51999" fill="#1749C7"/>
<ellipse cx="309.152" cy="17.6555" rx="1.51997" ry="1.51999" fill="#1749C7"/>
<ellipse cx="309.152" cy="26.7754" rx="1.51997" ry="1.51999" fill="#1749C7"/>
<ellipse cx="318.271" cy="-0.584503" rx="1.52002" ry="1.51999" fill="#1749C7"/>
<ellipse cx="318.271" cy="8.53537" rx="1.52002" ry="1.51999" fill="#1749C7"/>
<ellipse cx="318.271" cy="17.6555" rx="1.52002" ry="1.51999" fill="#1749C7"/>
<ellipse cx="318.271" cy="26.7754" rx="1.52002" ry="1.51999" fill="#1749C7"/>
<ellipse cx="327.397" cy="-0.584503" rx="1.52002" ry="1.51999" fill="#1749C7"/>
<ellipse cx="327.397" cy="8.53561" rx="1.52002" ry="1.51999" fill="#1749C7"/>
<ellipse cx="327.397" cy="17.6552" rx="1.52002" ry="1.51999" fill="#1749C7"/>
<ellipse cx="327.397" cy="26.7754" rx="1.52002" ry="1.51999" fill="#1749C7"/>
<ellipse cx="336.516" cy="-0.584503" rx="1.51996" ry="1.51999" fill="#1749C7"/>
<ellipse cx="336.516" cy="8.53561" rx="1.51996" ry="1.51999" fill="#1749C7"/>
<ellipse cx="336.516" cy="17.6552" rx="1.51996" ry="1.51999" fill="#1749C7"/>
<ellipse cx="336.516" cy="26.7754" rx="1.51996" ry="1.51999" fill="#1749C7"/>
<ellipse cx="54.7641" cy="125.138" rx="1.51997" ry="1.51998" fill="#1749C7"/>
<ellipse cx="54.7641" cy="134.258" rx="1.51997" ry="1.51998" fill="#1749C7"/>
<ellipse cx="54.7641" cy="143.378" rx="1.51997" ry="1.52" fill="#1749C7"/>
<ellipse cx="54.7641" cy="152.498" rx="1.51997" ry="1.51999" fill="#1749C7"/>
<ellipse cx="54.7641" cy="161.617" rx="1.51997" ry="1.51999" fill="#1749C7"/>
<ellipse cx="54.7641" cy="170.738" rx="1.51997" ry="1.52" fill="#1749C7"/>
<ellipse cx="54.7641" cy="179.857" rx="1.51997" ry="1.51998" fill="#1749C7"/>
<ellipse cx="63.8833" cy="125.138" rx="1.52" ry="1.51998" fill="#1749C7"/>
<ellipse cx="63.8833" cy="134.258" rx="1.52" ry="1.51998" fill="#1749C7"/>
<ellipse cx="63.8833" cy="143.378" rx="1.52" ry="1.52" fill="#1749C7"/>
<ellipse cx="63.8833" cy="152.498" rx="1.52" ry="1.51999" fill="#1749C7"/>
<ellipse cx="63.8833" cy="161.617" rx="1.52" ry="1.51999" fill="#1749C7"/>
<ellipse cx="63.8833" cy="170.738" rx="1.52" ry="1.52" fill="#1749C7"/>
<ellipse cx="63.8833" cy="179.857" rx="1.52" ry="1.51998" fill="#1749C7"/>
<ellipse cx="73.0024" cy="125.138" rx="1.51997" ry="1.51998" fill="#1749C7"/>
<ellipse cx="73.0024" cy="134.258" rx="1.51997" ry="1.51998" fill="#1749C7"/>
<ellipse cx="73.0024" cy="143.378" rx="1.51997" ry="1.52" fill="#1749C7"/>
<ellipse cx="73.0024" cy="152.498" rx="1.51997" ry="1.51999" fill="#1749C7"/>
<ellipse cx="73.0024" cy="161.617" rx="1.51997" ry="1.51999" fill="#1749C7"/>
<ellipse cx="73.0024" cy="170.738" rx="1.51997" ry="1.52" fill="#1749C7"/>
<ellipse cx="73.0024" cy="179.857" rx="1.51997" ry="1.51998" fill="#1749C7"/>
<ellipse cx="82.1284" cy="125.138" rx="1.51997" ry="1.51998" fill="#1749C7"/>
<ellipse cx="82.1284" cy="134.258" rx="1.51997" ry="1.51998" fill="#1749C7"/>
<ellipse cx="82.1284" cy="143.377" rx="1.51997" ry="1.52" fill="#1749C7"/>
<ellipse cx="82.1284" cy="152.498" rx="1.51997" ry="1.51999" fill="#1749C7"/>
<ellipse cx="82.1284" cy="161.618" rx="1.51997" ry="1.51999" fill="#1749C7"/>
<ellipse cx="82.1284" cy="170.737" rx="1.51997" ry="1.52" fill="#1749C7"/>
<ellipse cx="82.1284" cy="179.857" rx="1.51997" ry="1.51998" fill="#1749C7"/>
<ellipse cx="91.2475" cy="125.138" rx="1.52" ry="1.51998" fill="#1749C7"/>
<ellipse cx="91.2475" cy="134.258" rx="1.52" ry="1.51998" fill="#1749C7"/>
<ellipse cx="91.2475" cy="143.377" rx="1.52" ry="1.52" fill="#1749C7"/>
<ellipse cx="91.2475" cy="152.498" rx="1.52" ry="1.51999" fill="#1749C7"/>
<ellipse cx="91.2475" cy="161.618" rx="1.52" ry="1.51999" fill="#1749C7"/>
<ellipse cx="91.2475" cy="170.737" rx="1.52" ry="1.52" fill="#1749C7"/>
<ellipse cx="91.2475" cy="179.857" rx="1.52" ry="1.51998" fill="#1749C7"/>
<ellipse cx="100.367" cy="125.138" rx="1.51997" ry="1.51998" fill="#1749C7"/>
<ellipse cx="100.367" cy="134.258" rx="1.51997" ry="1.51998" fill="#1749C7"/>
<ellipse cx="100.367" cy="143.377" rx="1.51997" ry="1.52" fill="#1749C7"/>
<ellipse cx="100.367" cy="152.498" rx="1.51997" ry="1.51999" fill="#1749C7"/>
<ellipse cx="100.367" cy="161.618" rx="1.51997" ry="1.51999" fill="#1749C7"/>
<ellipse cx="100.367" cy="170.737" rx="1.51997" ry="1.52" fill="#1749C7"/>
<ellipse cx="100.367" cy="179.857" rx="1.51997" ry="1.51998" fill="#1749C7"/>
<ellipse cx="109.479" cy="125.138" rx="1.51997" ry="1.51998" fill="#1749C7"/>
<ellipse cx="109.479" cy="134.258" rx="1.51997" ry="1.51998" fill="#1749C7"/>
<ellipse cx="109.479" cy="143.378" rx="1.51997" ry="1.52" fill="#1749C7"/>
<ellipse cx="109.479" cy="152.498" rx="1.51997" ry="1.51999" fill="#1749C7"/>
<ellipse cx="109.479" cy="161.617" rx="1.51997" ry="1.51999" fill="#1749C7"/>
<ellipse cx="109.479" cy="170.738" rx="1.51997" ry="1.52" fill="#1749C7"/>
<ellipse cx="109.479" cy="179.857" rx="1.51997" ry="1.51998" fill="#1749C7"/>
<ellipse cx="118.598" cy="125.138" rx="1.52002" ry="1.51998" fill="#1749C7"/>
<ellipse cx="118.598" cy="134.258" rx="1.52002" ry="1.51998" fill="#1749C7"/>
<ellipse cx="118.598" cy="143.378" rx="1.52002" ry="1.52" fill="#1749C7"/>
<ellipse cx="118.598" cy="152.498" rx="1.52002" ry="1.51999" fill="#1749C7"/>
<ellipse cx="118.598" cy="161.617" rx="1.52002" ry="1.51999" fill="#1749C7"/>
<ellipse cx="118.598" cy="170.738" rx="1.52002" ry="1.52" fill="#1749C7"/>
<ellipse cx="118.598" cy="179.857" rx="1.52002" ry="1.51998" fill="#1749C7"/>
<ellipse cx="127.724" cy="125.138" rx="1.52002" ry="1.51998" fill="#1749C7"/>
<ellipse cx="127.724" cy="134.258" rx="1.52002" ry="1.51998" fill="#1749C7"/>
<ellipse cx="127.724" cy="143.377" rx="1.52002" ry="1.52" fill="#1749C7"/>
<ellipse cx="127.724" cy="152.498" rx="1.52002" ry="1.51999" fill="#1749C7"/>
<ellipse cx="127.724" cy="161.618" rx="1.52002" ry="1.51999" fill="#1749C7"/>
<ellipse cx="127.724" cy="170.737" rx="1.52002" ry="1.52" fill="#1749C7"/>
<ellipse cx="127.724" cy="179.857" rx="1.52002" ry="1.51998" fill="#1749C7"/>
<ellipse cx="136.843" cy="125.138" rx="1.51997" ry="1.51998" fill="#1749C7"/>
<ellipse cx="136.843" cy="134.258" rx="1.51997" ry="1.51998" fill="#1749C7"/>
<ellipse cx="136.843" cy="143.377" rx="1.51997" ry="1.52" fill="#1749C7"/>
<ellipse cx="136.843" cy="152.498" rx="1.51997" ry="1.51999" fill="#1749C7"/>
<ellipse cx="136.843" cy="161.618" rx="1.51997" ry="1.51999" fill="#1749C7"/>
<ellipse cx="136.843" cy="170.737" rx="1.51997" ry="1.52" fill="#1749C7"/>
<ellipse cx="136.843" cy="179.857" rx="1.51997" ry="1.51998" fill="#1749C7"/>
<path fill-rule="evenodd" clip-rule="evenodd" d="M116.474 75.0164C169.774 75.0164 212.982 31.8082 212.982 -21.4918C212.982 -74.7918 169.774 -118 116.474 -118C63.174 -118 19.9658 -74.7918 19.9658 -21.4918C19.9658 31.8082 63.174 75.0164 116.474 75.0164ZM116.475 38.2805C149.487 38.2805 176.248 11.5193 176.248 -21.4923C176.248 -54.5039 149.487 -81.2651 116.475 -81.2651C83.4634 -81.2651 56.7021 -54.5039 56.7021 -21.4923C56.7021 11.5193 83.4634 38.2805 116.475 38.2805Z" fill="url(#paint1_linear_5250_272544)"/>
</g>
<defs>
<linearGradient id="paint0_linear_5250_272544" x1="296.058" y1="120.939" x2="292.538" y2="258.237" gradientUnits="userSpaceOnUse">
<stop stop-color="#4D6CD9"/>
<stop offset="1" stop-color="#6A85E5"/>
</linearGradient>
<linearGradient id="paint1_linear_5250_272544" x1="120.521" y1="-82.8212" x2="116.474" y2="75.0164" gradientUnits="userSpaceOnUse">
<stop stop-color="#4D6CD9"/>
<stop offset="1" stop-color="#6A85E5"/>
</linearGradient>
</defs>
</svg>
