<svg width="23" height="22" viewBox="0 0 23 22" fill="none" xmlns="http://www.w3.org/2000/svg">
<path d="M13.7001 6.29974C13.5169 6.48666 13.4142 6.73798 13.4142 6.99974C13.4142 7.26149 13.5169 7.51281 13.7001 7.69974L15.3001 9.29974C15.487 9.48296 15.7383 9.58559 16.0001 9.58559C16.2619 9.58559 16.5132 9.48296 16.7001 9.29974L20.4701 5.52974C20.9729 6.64092 21.1252 7.87897 20.9066 9.07888C20.6879 10.2788 20.1088 11.3836 19.2464 12.246C18.3839 13.1084 17.2792 13.6876 16.0792 13.9062C14.8793 14.1248 13.6413 13.9726 12.5301 13.4697L5.6201 20.3797C5.22227 20.7776 4.68271 21.0011 4.1201 21.0011C3.55749 21.0011 3.01792 20.7776 2.6201 20.3797C2.22227 19.9819 1.99878 19.4423 1.99878 18.8797C1.99878 18.3171 2.22227 17.7776 2.6201 17.3797L9.5301 10.4697C9.02726 9.35855 8.87502 8.1205 9.09364 6.92059C9.31227 5.72068 9.89139 4.61589 10.7538 3.75346C11.6163 2.89102 12.721 2.3119 13.921 2.09328C15.1209 1.87465 16.3589 2.0269 17.4701 2.52974L13.7101 6.28974L13.7001 6.29974Z" stroke="#4D6CD9" stroke-width="2" stroke-linecap="round" stroke-linejoin="round"/>
</svg>
