<svg width="80" height="81" viewBox="0 0 80 81" fill="none" xmlns="http://www.w3.org/2000/svg">
<path d="M62.4439 50.9512C61.3469 49.9876 51.5207 46.443 47.0038 44.8442C48.8294 42.6118 50.0582 39.9838 50.546 38.088C51.2463 37.3982 51.7585 36.1179 51.8032 34.8764C51.8415 33.8304 51.5398 32.9208 50.9481 32.2704C50.9835 31.9322 53.4931 26.8573 51.5439 22.1582C50.2711 19.0899 48.2975 17.1012 44.4959 16.5588C41.829 16.1788 39.9894 17.7649 39.9894 17.7649C39.9894 17.7649 31.8421 14.1652 28.3886 21.2364C25.3673 27.4223 28.3207 32.4659 28.3329 32.4996C27.7835 33.082 27.4882 33.8629 27.4911 34.7546C27.4946 35.9885 28.0875 37.386 28.8846 38.1234C29.2135 39.3799 30.6772 42.2597 32.6659 44.8436C23.3566 48.427 17.8755 50.5695 17.4178 51.015C16.3677 52.0378 14.8345 59.7314 14.0142 64.2269C13.9677 64.481 14.0368 64.7426 14.2015 64.941C14.3669 65.1394 14.6117 65.2537 14.8704 65.2537H64.7876C64.7923 65.2543 64.7992 65.2537 64.7992 65.2537C65.2802 65.2537 65.67 64.8638 65.67 64.3829C65.6694 64.2884 63.5931 51.9612 62.4439 50.9512ZM30.5043 37.429C30.4539 37.2189 30.3274 37.0356 30.1499 36.9144C29.7855 36.6649 29.2309 35.6746 29.2309 34.7505C29.2309 33.0965 30.5327 32.6667 30.5844 32.463L32.6583 26.1408C33.1033 27.5929 40.3247 31.6242 46.7282 27.4815C48.0886 30.0207 48.5173 32.3992 48.522 32.463C48.54 32.7131 50.0622 32.9736 50.0622 34.8137C50.0622 35.7791 49.5714 36.6806 49.2599 36.9028C49.0853 37.0269 48.9629 37.2108 48.9159 37.4197C48.4877 39.3109 45.4508 47.221 39.8345 47.221C34.408 47.221 30.7544 38.4674 30.5043 37.429ZM41.6225 50.0462C41.6225 50.9367 40.8219 51.2383 39.8345 51.2383C38.8472 51.2383 38.0466 50.9373 38.0466 50.0462C38.0466 49.1551 38.8472 48.4334 39.8345 48.4334C40.8219 48.4334 41.6225 49.1557 41.6225 50.0462ZM33.2884 46.4401C33.59 46.3235 34.5942 45.9975 34.6424 45.9667C35.6141 46.8584 36.5139 47.4275 37.713 47.7674L34.6053 52.2217L33.2884 46.4401ZM35.9796 64.3539L38.6841 52.3847C38.8976 52.4247 40.7894 52.4317 41.0192 52.4021L43.6895 64.3533H35.9796V64.3539ZM45.0998 52.2217L41.894 47.8162C43.0258 47.4478 44.0863 46.823 45.0261 45.9667C45.0824 46.0027 45.93 46.3113 46.2937 46.4401L45.0998 52.2217Z" fill="white"/>
</svg>
