<svg width="33" height="51" viewBox="0 0 33 51" fill="none" xmlns="http://www.w3.org/2000/svg">
<path d="M30.0825 29.3856C29.3968 26.8011 27.2343 24.8495 24.5971 24.5331L22.2236 24.2166L21.5379 22.1595C23.4367 20.8409 24.9135 18.7839 25.441 16.3049C26.1267 15.9357 27.2343 15.039 27.2343 12.771C27.2343 11.1359 26.9706 10.1337 26.3904 9.60629C26.2322 9.5008 26.1267 9.44805 25.9684 9.34256C25.441 4.33181 21.4324 0.481445 16.4744 0.481445C11.5164 0.481445 7.50777 4.33181 6.98032 9.34256C6.82209 9.39531 6.7166 9.5008 6.61111 9.60629C6.03092 10.1865 5.76719 11.1359 5.76719 12.771C5.76719 15.039 6.87483 15.9357 7.50777 16.3049C8.08796 18.7839 9.51207 20.8409 11.4109 22.1595L10.7252 24.2166L8.40443 24.5331C5.71445 24.9023 3.55191 26.8011 2.91898 29.3856L2.76074 30.0713H30.2935L30.0825 29.3856ZM10.145 7.18003C10.1978 6.75807 10.567 6.49435 10.9362 6.59984C12.3075 6.91631 14.3118 7.12728 16.4744 7.12728C18.6369 7.12728 20.5885 6.91631 22.0126 6.59984C22.3818 6.49435 22.6983 6.75807 22.8037 7.18003C22.9092 7.91846 22.962 8.76237 23.0675 9.55354L18.215 9.9755C17.6348 10.0282 17.0546 10.081 16.5271 10.081C15.9469 10.081 15.3667 10.081 14.8393 9.9755L9.98677 9.55354C9.98677 8.76237 10.0923 7.86571 10.145 7.18003ZM12.0966 25.0078L12.7822 22.9507C13.9426 23.4782 15.1558 23.7946 16.4744 23.7946C17.7403 23.7946 19.0061 23.4782 20.1138 22.9507L20.7994 25.0078C18.215 26.9066 14.7338 26.9066 12.0966 25.0078ZM16.4744 22.2123C12.835 22.2123 9.72305 19.4168 8.98462 15.5664C8.93188 15.25 8.7209 15.039 8.40443 14.9335C8.29894 14.9335 7.34954 14.617 7.34954 12.771C7.34954 11.7688 7.45502 11.2941 7.56051 11.0304C7.71875 11.0304 7.82424 11.0304 7.82424 11.0304C7.82424 11.2941 7.98247 12.2963 8.2462 12.2963H9.35384C9.56481 12.2963 9.77579 12.0853 9.77579 11.8743C9.77579 11.8743 9.82854 11.4524 9.88128 10.8722L10.6725 11.1359C10.6725 12.138 10.7252 12.771 10.9362 13.1402C11.4109 14.0368 12.0966 14.5115 13.0987 14.5115C14.3646 14.5115 15.2085 14.0896 15.6832 13.2984C15.9469 12.8765 16.0524 12.2963 16.1052 11.3469C16.1052 11.1886 16.2107 11.0831 16.3689 11.0831H16.8436C16.9491 11.0831 17.0546 11.1886 17.1073 11.3469C17.1601 12.2963 17.3183 12.8765 17.5293 13.2984C17.9512 14.0896 18.7951 14.5115 20.061 14.5115C21.0632 14.5115 21.7489 14.0368 22.2236 13.1402C22.3818 12.771 22.4873 12.0853 22.4873 11.1359L23.2257 10.8722C23.2784 11.4524 23.3312 11.8743 23.3312 11.8743C23.3312 12.138 23.4894 12.2963 23.7532 12.2963H24.8608C25.0718 12.2963 25.2827 11.2941 25.2827 11.0304C25.2827 11.0304 25.441 11.0304 25.5465 11.0304C25.652 11.2941 25.7575 11.8216 25.7575 12.771C25.7575 14.617 24.7553 14.9335 24.7026 14.9335C24.4388 14.9863 24.1751 15.25 24.1224 15.5664C23.2784 19.4168 20.1138 22.2123 16.4744 22.2123Z" fill="#4D6CD9"/>
<path d="M18.4253 16.9901C17.6869 17.834 15.2606 17.834 14.5222 16.9901C14.3112 16.7791 13.9947 16.7264 13.731 16.9373C13.52 17.1483 13.4673 17.4648 13.6783 17.7285C14.2584 18.4142 15.3133 18.8362 16.4737 18.8362C17.6341 18.8362 18.689 18.4142 19.2692 17.7285C19.4802 17.5175 19.4274 17.1483 19.2165 16.9373C18.9527 16.7264 18.6363 16.7264 18.4253 16.9901Z" fill="#4D6CD9"/>
<path d="M30.9257 31.917H2.02158C0.808446 31.917 -0.14096 32.9719 0.0172745 34.185L1.96883 48.8481C2.12706 49.8502 2.97098 50.5886 3.97313 50.5886H29.0269C30.029 50.5886 30.873 49.8502 31.0312 48.8481L32.9827 34.185C33.141 32.9719 32.1916 31.917 30.9257 31.917ZM16.4736 43.3099C15.3133 43.3099 14.3638 42.3605 14.3638 41.2001C14.3638 40.0397 15.3133 39.0903 16.4736 39.0903C17.634 39.0903 18.5834 40.0397 18.5834 41.2001C18.5834 42.4132 17.634 43.3099 16.4736 43.3099Z" fill="#4D6CD9"/>
</svg>
