<svg width="80" height="80" viewBox="0 0 80 80" fill="none" xmlns="http://www.w3.org/2000/svg">
<rect x="1" y="1" width="78" height="78" rx="15" fill="white" stroke="#4D6CD9" stroke-width="2"/>
<path d="M53.0825 43.3856C52.3968 40.8011 50.2343 38.8495 47.5971 38.5331L45.2236 38.2166L44.5379 36.1595C46.4367 34.8409 47.9135 32.7839 48.441 30.3049C49.1267 29.9357 50.2343 29.039 50.2343 26.771C50.2343 25.1359 49.9706 24.1337 49.3904 23.6063C49.2322 23.5008 49.1267 23.4481 48.9684 23.3426C48.441 18.3318 44.4324 14.4814 39.4744 14.4814C34.5164 14.4814 30.5078 18.3318 29.9803 23.3426C29.8221 23.3953 29.7166 23.5008 29.6111 23.6063C29.0309 24.1865 28.7672 25.1359 28.7672 26.771C28.7672 29.039 29.8748 29.9357 30.5078 30.3049C31.088 32.7839 32.5121 34.8409 34.4109 36.1595L33.7252 38.2166L31.4044 38.5331C28.7144 38.9023 26.5519 40.8011 25.919 43.3856L25.7607 44.0713H53.2935L53.0825 43.3856ZM33.145 21.18C33.1978 20.7581 33.567 20.4943 33.9362 20.5998C35.3075 20.9163 37.3118 21.1273 39.4744 21.1273C41.6369 21.1273 43.5885 20.9163 45.0126 20.5998C45.3818 20.4943 45.6983 20.7581 45.8037 21.18C45.9092 21.9185 45.962 22.7624 46.0675 23.5535L41.215 23.9755C40.6348 24.0282 40.0546 24.081 39.5271 24.081C38.9469 24.081 38.3667 24.081 37.8393 23.9755L32.9868 23.5535C32.9868 22.7624 33.0923 21.8657 33.145 21.18ZM35.0966 39.0078L35.7822 36.9507C36.9426 37.4782 38.1558 37.7946 39.4744 37.7946C40.7403 37.7946 42.0061 37.4782 43.1138 36.9507L43.7994 39.0078C41.215 40.9066 37.7338 40.9066 35.0966 39.0078ZM39.4744 36.2123C35.835 36.2123 32.723 33.4168 31.9846 29.5664C31.9319 29.25 31.7209 29.039 31.4044 28.9335C31.2989 28.9335 30.3495 28.617 30.3495 26.771C30.3495 25.7688 30.455 25.2941 30.5605 25.0304C30.7187 25.0304 30.8242 25.0304 30.8242 25.0304C30.8242 25.2941 30.9825 26.2963 31.2462 26.2963H32.3538C32.5648 26.2963 32.7758 26.0853 32.7758 25.8743C32.7758 25.8743 32.8285 25.4524 32.8813 24.8722L33.6725 25.1359C33.6725 26.138 33.7252 26.771 33.9362 27.1402C34.4109 28.0368 35.0966 28.5115 36.0987 28.5115C37.3646 28.5115 38.2085 28.0896 38.6832 27.2984C38.9469 26.8765 39.0524 26.2963 39.1052 25.3469C39.1052 25.1886 39.2107 25.0831 39.3689 25.0831H39.8436C39.9491 25.0831 40.0546 25.1886 40.1073 25.3469C40.1601 26.2963 40.3183 26.8765 40.5293 27.2984C40.9512 28.0896 41.7951 28.5115 43.061 28.5115C44.0632 28.5115 44.7489 28.0368 45.2236 27.1402C45.3818 26.771 45.4873 26.0853 45.4873 25.1359L46.2257 24.8722C46.2784 25.4524 46.3312 25.8743 46.3312 25.8743C46.3312 26.138 46.4894 26.2963 46.7532 26.2963H47.8608C48.0718 26.2963 48.2827 25.2941 48.2827 25.0304C48.2827 25.0304 48.441 25.0304 48.5465 25.0304C48.652 25.2941 48.7575 25.8216 48.7575 26.771C48.7575 28.617 47.7553 28.9335 47.7026 28.9335C47.4388 28.9863 47.1751 29.25 47.1224 29.5664C46.2784 33.4168 43.1138 36.2123 39.4744 36.2123Z" fill="#4D6CD9"/>
<path d="M41.4253 30.9901C40.6869 31.834 38.2606 31.834 37.5222 30.9901C37.3112 30.7791 36.9947 30.7264 36.731 30.9373C36.52 31.1483 36.4673 31.4648 36.6783 31.7285C37.2584 32.4142 38.3133 32.8362 39.4737 32.8362C40.6341 32.8362 41.689 32.4142 42.2692 31.7285C42.4802 31.5175 42.4274 31.1483 42.2165 30.9373C41.9527 30.7264 41.6363 30.7264 41.4253 30.9901Z" fill="#4D6CD9"/>
<path d="M53.9257 45.917H25.0216C23.8084 45.917 22.859 46.9719 23.0173 48.185L24.9688 62.8481C25.1271 63.8502 25.971 64.5886 26.9731 64.5886H52.0269C53.029 64.5886 53.873 63.8502 54.0312 62.8481L55.9827 48.185C56.141 46.9719 55.1916 45.917 53.9257 45.917ZM39.4736 57.3099C38.3133 57.3099 37.3638 56.3605 37.3638 55.2001C37.3638 54.0397 38.3133 53.0903 39.4736 53.0903C40.634 53.0903 41.5834 54.0397 41.5834 55.2001C41.5834 56.4132 40.634 57.3099 39.4736 57.3099Z" fill="#4D6CD9"/>
</svg>
