<svg width="120" height="120" viewBox="0 0 120 120" fill="none" xmlns="http://www.w3.org/2000/svg">
<g filter="url(#filter0_d)">
<rect x="20" y="20" width="80" height="80" rx="16" fill="white"/>
</g>
<path d="M73.0825 63.3856C72.3968 60.8011 70.2343 58.8495 67.5971 58.5331L65.2236 58.2166L64.5379 56.1595C66.4367 54.8409 67.9135 52.7839 68.441 50.3049C69.1267 49.9357 70.2343 49.039 70.2343 46.771C70.2343 45.1359 69.9706 44.1337 69.3904 43.6063C69.2322 43.5008 69.1267 43.4481 68.9684 43.3426C68.441 38.3318 64.4324 34.4814 59.4744 34.4814C54.5164 34.4814 50.5078 38.3318 49.9803 43.3426C49.8221 43.3953 49.7166 43.5008 49.6111 43.6063C49.0309 44.1865 48.7672 45.1359 48.7672 46.771C48.7672 49.039 49.8748 49.9357 50.5078 50.3049C51.088 52.7839 52.5121 54.8409 54.4109 56.1595L53.7252 58.2166L51.4044 58.5331C48.7144 58.9023 46.5519 60.8011 45.919 63.3856L45.7607 64.0713H73.2935L73.0825 63.3856ZM53.145 41.18C53.1978 40.7581 53.567 40.4943 53.9362 40.5998C55.3075 40.9163 57.3118 41.1273 59.4744 41.1273C61.6369 41.1273 63.5885 40.9163 65.0126 40.5998C65.3818 40.4943 65.6983 40.7581 65.8037 41.18C65.9092 41.9185 65.962 42.7624 66.0675 43.5535L61.215 43.9755C60.6348 44.0282 60.0546 44.081 59.5271 44.081C58.9469 44.081 58.3667 44.081 57.8393 43.9755L52.9868 43.5535C52.9868 42.7624 53.0923 41.8657 53.145 41.18ZM55.0966 59.0078L55.7822 56.9507C56.9426 57.4782 58.1558 57.7946 59.4744 57.7946C60.7403 57.7946 62.0061 57.4782 63.1138 56.9507L63.7994 59.0078C61.215 60.9066 57.7338 60.9066 55.0966 59.0078ZM59.4744 56.2123C55.835 56.2123 52.723 53.4168 51.9846 49.5664C51.9319 49.25 51.7209 49.039 51.4044 48.9335C51.2989 48.9335 50.3495 48.617 50.3495 46.771C50.3495 45.7688 50.455 45.2941 50.5605 45.0304C50.7187 45.0304 50.8242 45.0304 50.8242 45.0304C50.8242 45.2941 50.9825 46.2963 51.2462 46.2963H52.3538C52.5648 46.2963 52.7758 46.0853 52.7758 45.8743C52.7758 45.8743 52.8285 45.4524 52.8813 44.8722L53.6725 45.1359C53.6725 46.138 53.7252 46.771 53.9362 47.1402C54.4109 48.0368 55.0966 48.5115 56.0987 48.5115C57.3646 48.5115 58.2085 48.0896 58.6832 47.2984C58.9469 46.8765 59.0524 46.2963 59.1052 45.3469C59.1052 45.1886 59.2107 45.0831 59.3689 45.0831H59.8436C59.9491 45.0831 60.0546 45.1886 60.1073 45.3469C60.1601 46.2963 60.3183 46.8765 60.5293 47.2984C60.9512 48.0896 61.7951 48.5115 63.061 48.5115C64.0632 48.5115 64.7489 48.0368 65.2236 47.1402C65.3818 46.771 65.4873 46.0853 65.4873 45.1359L66.2257 44.8722C66.2784 45.4524 66.3312 45.8743 66.3312 45.8743C66.3312 46.138 66.4894 46.2963 66.7532 46.2963H67.8608C68.0718 46.2963 68.2827 45.2941 68.2827 45.0304C68.2827 45.0304 68.441 45.0304 68.5465 45.0304C68.652 45.2941 68.7575 45.8216 68.7575 46.771C68.7575 48.617 67.7553 48.9335 67.7026 48.9335C67.4388 48.9863 67.1751 49.25 67.1224 49.5664C66.2784 53.4168 63.1138 56.2123 59.4744 56.2123Z" fill="#9BA9E8"/>
<path d="M61.4253 50.9901C60.6869 51.834 58.2606 51.834 57.5222 50.9901C57.3112 50.7791 56.9947 50.7264 56.731 50.9373C56.52 51.1483 56.4673 51.4648 56.6783 51.7285C57.2584 52.4142 58.3133 52.8362 59.4737 52.8362C60.6341 52.8362 61.689 52.4142 62.2692 51.7285C62.4802 51.5175 62.4274 51.1483 62.2165 50.9373C61.9527 50.7264 61.6363 50.7264 61.4253 50.9901Z" fill="#9BA9E8"/>
<path d="M73.9257 65.917H45.0216C43.8084 65.917 42.859 66.9719 43.0173 68.185L44.9688 82.8481C45.1271 83.8502 45.971 84.5886 46.9731 84.5886H72.0269C73.029 84.5886 73.873 83.8502 74.0312 82.8481L75.9827 68.185C76.141 66.9719 75.1916 65.917 73.9257 65.917ZM59.4736 77.3099C58.3133 77.3099 57.3638 76.3605 57.3638 75.2001C57.3638 74.0397 58.3133 73.0903 59.4736 73.0903C60.634 73.0903 61.5834 74.0397 61.5834 75.2001C61.5834 76.4132 60.634 77.3099 59.4736 77.3099Z" fill="#9BA9E8"/>
<defs>
<filter id="filter0_d" x="0" y="0" width="120" height="120" filterUnits="userSpaceOnUse" color-interpolation-filters="sRGB">
<feFlood flood-opacity="0" result="BackgroundImageFix"/>
<feColorMatrix in="SourceAlpha" type="matrix" values="0 0 0 0 0 0 0 0 0 0 0 0 0 0 0 0 0 0 127 0" result="hardAlpha"/>
<feOffset/>
<feGaussianBlur stdDeviation="10"/>
<feColorMatrix type="matrix" values="0 0 0 0 0.301961 0 0 0 0 0.423529 0 0 0 0 0.85098 0 0 0 0.16 0"/>
<feBlend mode="normal" in2="BackgroundImageFix" result="effect1_dropShadow"/>
<feBlend mode="normal" in="SourceGraphic" in2="effect1_dropShadow" result="shape"/>
</filter>
</defs>
</svg>
