<svg width="422" height="511" viewBox="0 0 422 511" fill="none" xmlns="http://www.w3.org/2000/svg">
<path d="M153 303.207L205.5 332.5L265 324.117L188.312 280L153 303.207Z" fill="#266E88"/>
<path d="M153 368.515L214 402L265 389.242L192.315 347L153 368.515Z" fill="#532E71"/>
<path d="M132 238.683L202.113 270L265 259.405L202.113 223L132 238.683Z" fill="#31712D"/>
<path d="M0 44.4982C14.0715 48.239 370.207 86.2329 372.24 86.982C374.273 87.731 421.973 64.8957 422 64.9638C422.027 65.0319 59.5515 21 59.5515 21L0 44.4982Z" fill="#7A130F"/>
<path d="M0 108.731C14.0668 112.495 358.504 158.225 360.536 158.983C362.569 159.742 395.572 134.387 401 129.745C401.059 129.695 47.7381 90 47.7381 90L0 108.731Z" fill="#D16A02"/>
<path d="M66 173.242C80.0827 176.996 288.36 221.226 290.394 221.982C292.429 222.739 329.565 198.824 335 194.196C335.059 194.146 89.6684 145 89.6684 145L66 173.242Z" fill="#968523"/>
<path d="M265 389H153V477L265 411.335V389Z" fill="#4A779F"/>
<path d="M153.548 259.54V303H265V262.588L264.995 259H153L153.548 259.54Z" fill="#5DACC8"/>
<path d="M265 324H153V368H265V324Z" fill="#9167B3"/>
<path d="M65.7939 174H356.042L401 130H21L65.7939 174Z" fill="#EDD85F"/>
<path d="M0 109H422V65H0.0181908L0 109Z" fill="#F2B241"/>
<path d="M422 0H0.018192L0 44H422V0Z" fill="#CD433E"/>
<path d="M131.785 238H290.056L335 194H87L131.785 238Z" fill="#8FC38B"/>
<path d="M142.73 26.4163C142.421 26.4163 142.17 26.3256 141.978 26.1443C141.797 25.9523 141.706 25.6963 141.706 25.3763V16.0163C141.706 15.707 141.791 15.467 141.962 15.2963C142.143 15.1256 142.389 15.0403 142.698 15.0403H146.634C147.839 15.0403 148.778 15.3443 149.45 15.9523C150.122 16.5496 150.458 17.3923 150.458 18.4803C150.458 19.5683 150.122 20.4163 149.45 21.0243C148.778 21.6323 147.839 21.9363 146.634 21.9363H143.77V25.3763C143.77 25.6963 143.674 25.9523 143.482 26.1443C143.301 26.3256 143.05 26.4163 142.73 26.4163ZM146.378 20.3523C147.797 20.3523 148.506 19.7336 148.506 18.4963C148.506 17.259 147.797 16.6403 146.378 16.6403H143.77V20.3523H146.378ZM156.304 18.3363C156.582 18.315 156.8 18.3736 156.96 18.5123C157.12 18.651 157.2 18.859 157.2 19.1363C157.2 19.4243 157.131 19.6376 156.992 19.7763C156.854 19.915 156.603 20.0056 156.24 20.0483L155.76 20.0963C155.131 20.1603 154.667 20.3736 154.368 20.7363C154.08 21.099 153.936 21.5523 153.936 22.0963V25.4563C153.936 25.7656 153.84 26.0056 153.648 26.1763C153.456 26.3363 153.216 26.4163 152.928 26.4163C152.64 26.4163 152.4 26.3363 152.208 26.1763C152.027 26.0056 151.936 25.7656 151.936 25.4563V19.2643C151.936 18.9656 152.027 18.7363 152.208 18.5763C152.4 18.4163 152.635 18.3363 152.912 18.3363C153.19 18.3363 153.414 18.4163 153.584 18.5763C153.755 18.7256 153.84 18.9443 153.84 19.2323V19.8723C154.043 19.403 154.342 19.0403 154.736 18.7843C155.142 18.5283 155.59 18.3843 156.08 18.3523L156.304 18.3363ZM161.473 26.4483C160.673 26.4483 159.969 26.283 159.361 25.9523C158.764 25.6216 158.3 25.147 157.969 24.5283C157.638 23.9096 157.473 23.1896 157.473 22.3683C157.473 21.547 157.638 20.8323 157.969 20.2243C158.3 19.6056 158.764 19.131 159.361 18.8003C159.969 18.4696 160.673 18.3043 161.473 18.3043C162.273 18.3043 162.972 18.4696 163.569 18.8003C164.177 19.131 164.641 19.6056 164.961 20.2243C165.292 20.8323 165.457 21.547 165.457 22.3683C165.457 23.1896 165.292 23.9096 164.961 24.5283C164.641 25.147 164.177 25.6216 163.569 25.9523C162.972 26.283 162.273 26.4483 161.473 26.4483ZM161.457 24.8963C162.108 24.8963 162.604 24.683 162.945 24.2563C163.286 23.8296 163.457 23.2003 163.457 22.3683C163.457 21.547 163.286 20.923 162.945 20.4963C162.604 20.059 162.113 19.8403 161.473 19.8403C160.833 19.8403 160.337 20.059 159.985 20.4963C159.644 20.923 159.473 21.547 159.473 22.3683C159.473 23.2003 159.644 23.8296 159.985 24.2563C160.326 24.683 160.817 24.8963 161.457 24.8963ZM173.781 16.9123C173.419 16.9123 173.131 16.8163 172.917 16.6243C172.704 16.4216 172.597 16.1603 172.597 15.8403C172.597 15.5203 172.704 15.2643 172.917 15.0723C173.131 14.8803 173.419 14.7843 173.781 14.7843C174.133 14.7843 174.416 14.8803 174.629 15.0723C174.853 15.2643 174.965 15.5203 174.965 15.8403C174.965 16.1603 174.853 16.4216 174.629 16.6243C174.416 16.8163 174.133 16.9123 173.781 16.9123ZM173.877 18.4963C174.475 18.4963 174.773 18.747 174.773 19.2483V25.4563C174.773 25.7656 174.677 26.0056 174.485 26.1763C174.304 26.3363 174.069 26.4163 173.781 26.4163C173.493 26.4163 173.253 26.3363 173.061 26.1763C172.869 26.0056 172.773 25.7656 172.773 25.4563V20.0003H169.605V25.4563C169.605 25.7656 169.509 26.0003 169.317 26.1603C169.136 26.3203 168.901 26.4003 168.613 26.4003C168.325 26.4003 168.085 26.3203 167.893 26.1603C167.701 26.0003 167.605 25.7656 167.605 25.4563V20.0003H166.805C166.208 20.0003 165.909 19.7496 165.909 19.2483C165.909 18.747 166.208 18.4963 166.805 18.4963H167.605V18.4163C167.605 17.4243 167.867 16.6403 168.389 16.0643C168.923 15.4776 169.669 15.1416 170.629 15.0563L170.997 15.0243C171.051 15.0136 171.131 15.0083 171.237 15.0083C171.803 15.0083 172.085 15.2483 172.085 15.7283C172.085 15.963 172.021 16.1443 171.893 16.2723C171.765 16.4003 171.589 16.475 171.365 16.4963L171.013 16.5283C170.523 16.571 170.165 16.7256 169.941 16.9923C169.717 17.2483 169.605 17.627 169.605 18.1283V18.4963H173.877ZM177.85 26.4163C177.562 26.4163 177.322 26.3363 177.13 26.1763C176.949 26.0056 176.858 25.7656 176.858 25.4563V15.9043C176.858 15.595 176.949 15.3603 177.13 15.2003C177.322 15.0403 177.562 14.9603 177.85 14.9603C178.138 14.9603 178.378 15.0403 178.57 15.2003C178.762 15.3603 178.858 15.595 178.858 15.9043V25.4563C178.858 25.7656 178.762 26.0056 178.57 26.1763C178.378 26.3363 178.138 26.4163 177.85 26.4163ZM187.113 24.1763C187.294 24.1763 187.438 24.2456 187.545 24.3843C187.662 24.523 187.721 24.7096 187.721 24.9443C187.721 25.275 187.523 25.5523 187.129 25.7763C186.766 25.979 186.355 26.1443 185.897 26.2723C185.438 26.3896 185.001 26.4483 184.585 26.4483C183.326 26.4483 182.329 26.0856 181.593 25.3603C180.857 24.635 180.489 23.643 180.489 22.3843C180.489 21.5843 180.649 20.875 180.969 20.2563C181.289 19.6376 181.737 19.1576 182.313 18.8163C182.899 18.475 183.561 18.3043 184.297 18.3043C185.001 18.3043 185.614 18.459 186.137 18.7683C186.659 19.0776 187.065 19.515 187.353 20.0803C187.641 20.6456 187.785 21.3123 187.785 22.0803C187.785 22.539 187.582 22.7683 187.177 22.7683H182.457C182.521 23.5043 182.729 24.0483 183.081 24.4003C183.433 24.7416 183.945 24.9123 184.617 24.9123C184.958 24.9123 185.257 24.8696 185.513 24.7843C185.779 24.699 186.078 24.5816 186.409 24.4323C186.729 24.2616 186.963 24.1763 187.113 24.1763ZM184.345 19.7123C183.801 19.7123 183.363 19.883 183.033 20.2243C182.713 20.5656 182.521 21.0563 182.457 21.6963H186.073C186.051 21.0456 185.891 20.555 185.593 20.2243C185.294 19.883 184.878 19.7123 184.345 19.7123ZM192.253 26.4483C191.09 26.4483 190.151 26.219 189.437 25.7603C189.095 25.5576 188.925 25.2696 188.925 24.8963C188.925 24.683 188.983 24.5123 189.101 24.3843C189.218 24.2456 189.362 24.1763 189.533 24.1763C189.714 24.1763 189.965 24.2616 190.285 24.4323C190.626 24.5923 190.935 24.715 191.213 24.8003C191.501 24.8856 191.863 24.9283 192.301 24.9283C192.749 24.9283 193.095 24.8536 193.341 24.7043C193.597 24.555 193.725 24.347 193.725 24.0803C193.725 23.899 193.671 23.755 193.565 23.6483C193.469 23.5416 193.287 23.4456 193.021 23.3603C192.765 23.2643 192.37 23.1576 191.837 23.0403C190.887 22.8483 190.205 22.5763 189.789 22.2243C189.383 21.8723 189.181 21.387 189.181 20.7683C189.181 20.299 189.319 19.8776 189.597 19.5043C189.874 19.1203 190.253 18.827 190.733 18.6243C191.223 18.411 191.778 18.3043 192.397 18.3043C192.845 18.3043 193.277 18.363 193.693 18.4803C194.109 18.587 194.482 18.747 194.813 18.9603C195.154 19.1736 195.325 19.4563 195.325 19.8083C195.325 20.0216 195.266 20.203 195.149 20.3523C195.031 20.491 194.887 20.5603 194.717 20.5603C194.599 20.5603 194.482 20.539 194.365 20.4963C194.258 20.443 194.119 20.3683 193.949 20.2723C193.639 20.1123 193.373 19.995 193.149 19.9203C192.925 19.835 192.647 19.7923 192.317 19.7923C191.922 19.7923 191.607 19.8723 191.373 20.0323C191.149 20.1923 191.037 20.411 191.037 20.6883C191.037 20.955 191.154 21.1576 191.389 21.2963C191.623 21.435 192.077 21.5736 192.749 21.7123C193.463 21.8616 194.023 22.0323 194.429 22.2243C194.834 22.4163 195.122 22.6563 195.293 22.9443C195.474 23.2323 195.565 23.6003 195.565 24.0483C195.565 24.7736 195.261 25.355 194.653 25.7923C194.055 26.2296 193.255 26.4483 192.253 26.4483ZM205.61 26.4643C204.789 26.4643 204.01 26.3576 203.274 26.1443C202.549 25.9203 201.957 25.6216 201.498 25.2483C201.253 25.067 201.13 24.811 201.13 24.4803C201.13 24.2563 201.194 24.0643 201.322 23.9043C201.461 23.7336 201.621 23.6483 201.802 23.6483C201.994 23.6483 202.213 23.723 202.458 23.8723C202.917 24.203 203.397 24.443 203.898 24.5923C204.399 24.7416 204.954 24.8163 205.562 24.8163C206.341 24.8163 206.938 24.683 207.354 24.4163C207.77 24.139 207.978 23.739 207.978 23.2163C207.978 22.811 207.781 22.5016 207.386 22.2883C207.002 22.0643 206.357 21.851 205.45 21.6483C204.511 21.4456 203.749 21.211 203.162 20.9443C202.575 20.6776 202.133 20.3363 201.834 19.9203C201.535 19.5043 201.386 18.9763 201.386 18.3363C201.386 17.675 201.573 17.083 201.946 16.5603C202.319 16.0376 202.837 15.6323 203.498 15.3443C204.17 15.0456 204.922 14.8963 205.754 14.8963C207.279 14.8963 208.522 15.3016 209.482 16.1123C209.621 16.2296 209.717 16.347 209.77 16.4643C209.834 16.571 209.866 16.7096 209.866 16.8803C209.866 17.1043 209.797 17.3016 209.658 17.4723C209.53 17.6323 209.375 17.7123 209.194 17.7123C209.087 17.7123 208.986 17.6963 208.89 17.6643C208.805 17.6323 208.687 17.5736 208.538 17.4883C208.101 17.1683 207.674 16.9336 207.258 16.7843C206.853 16.6243 206.351 16.5443 205.754 16.5443C205.029 16.5443 204.453 16.6936 204.026 16.9923C203.61 17.2803 203.402 17.6856 203.402 18.2083C203.402 18.6456 203.589 18.9816 203.962 19.2163C204.335 19.451 204.97 19.6696 205.866 19.8723C206.815 20.0856 207.583 20.3256 208.17 20.5923C208.767 20.8483 209.221 21.179 209.53 21.5843C209.85 21.9896 210.01 22.4963 210.01 23.1043C210.01 23.7656 209.823 24.3523 209.45 24.8643C209.087 25.3656 208.57 25.7603 207.898 26.0483C207.237 26.3256 206.474 26.4643 205.61 26.4643ZM217.909 18.3363C218.218 18.3363 218.464 18.4216 218.645 18.5923C218.826 18.763 218.917 18.9923 218.917 19.2803V25.4883C218.917 25.7656 218.821 25.9896 218.629 26.1603C218.448 26.331 218.208 26.4163 217.909 26.4163C217.621 26.4163 217.392 26.3363 217.221 26.1763C217.05 26.0163 216.965 25.7976 216.965 25.5203V25.1203C216.72 25.547 216.389 25.8776 215.973 26.1123C215.557 26.3363 215.088 26.4483 214.565 26.4483C212.645 26.4483 211.685 25.371 211.685 23.2163V19.2803C211.685 18.9923 211.776 18.763 211.957 18.5923C212.138 18.4216 212.378 18.3363 212.677 18.3363C212.986 18.3363 213.232 18.4216 213.413 18.5923C213.594 18.763 213.685 18.9923 213.685 19.2803V23.2323C213.685 23.787 213.797 24.1976 214.021 24.4643C214.245 24.731 214.597 24.8643 215.077 24.8643C215.632 24.8643 216.074 24.683 216.405 24.3203C216.746 23.947 216.917 23.4563 216.917 22.8483V19.2803C216.917 18.9923 217.008 18.763 217.189 18.5923C217.37 18.4216 217.61 18.3363 217.909 18.3363ZM225.495 18.3043C226.177 18.3043 226.78 18.4696 227.303 18.8003C227.825 19.131 228.231 19.6003 228.519 20.2083C228.817 20.8163 228.967 21.5256 228.967 22.3363C228.967 23.147 228.817 23.867 228.519 24.4963C228.231 25.115 227.82 25.595 227.287 25.9363C226.764 26.2776 226.167 26.4483 225.495 26.4483C224.929 26.4483 224.423 26.3256 223.975 26.0803C223.537 25.835 223.201 25.4936 222.967 25.0563V25.4563C222.967 25.7443 222.876 25.9736 222.695 26.1443C222.513 26.315 222.273 26.4003 221.975 26.4003C221.676 26.4003 221.436 26.315 221.255 26.1443C221.084 25.9736 220.999 25.7443 220.999 25.4563V15.8883C220.999 15.611 221.089 15.387 221.271 15.2163C221.463 15.0456 221.708 14.9603 222.007 14.9603C222.305 14.9603 222.545 15.0403 222.727 15.2003C222.908 15.3603 222.999 15.579 222.999 15.8563V19.6323C223.233 19.2056 223.569 18.8803 224.007 18.6563C224.444 18.4216 224.94 18.3043 225.495 18.3043ZM224.967 24.8963C225.596 24.8963 226.087 24.6723 226.439 24.2243C226.791 23.7763 226.967 23.147 226.967 22.3363C226.967 21.5363 226.791 20.923 226.439 20.4963C226.097 20.0696 225.607 19.8563 224.967 19.8563C224.327 19.8563 223.831 20.075 223.479 20.5123C223.137 20.939 222.967 21.5576 222.967 22.3683C222.967 23.179 223.137 23.803 223.479 24.2403C223.831 24.6776 224.327 24.8963 224.967 24.8963ZM239.904 18.3043C240.757 18.3043 241.408 18.5603 241.856 19.0723C242.315 19.5736 242.544 20.3896 242.544 21.5203V25.4563C242.544 25.7656 242.448 26.0056 242.256 26.1763C242.075 26.3363 241.835 26.4163 241.536 26.4163C241.248 26.4163 241.008 26.3363 240.816 26.1763C240.635 26.0056 240.544 25.7656 240.544 25.4563V21.5203C240.544 20.9336 240.437 20.5176 240.224 20.2723C240.021 20.0163 239.707 19.8883 239.28 19.8883C238.757 19.8883 238.341 20.0696 238.032 20.4323C237.723 20.7843 237.568 21.2696 237.568 21.8883V25.4563C237.568 25.7656 237.472 26.0056 237.28 26.1763C237.099 26.3363 236.864 26.4163 236.576 26.4163C236.288 26.4163 236.048 26.3363 235.856 26.1763C235.664 26.0056 235.568 25.7656 235.568 25.4563V21.5203C235.568 20.9336 235.461 20.5176 235.248 20.2723C235.045 20.0163 234.731 19.8883 234.304 19.8883C233.781 19.8883 233.365 20.0696 233.056 20.4323C232.757 20.7843 232.608 21.2696 232.608 21.8883V25.4563C232.608 25.7656 232.512 26.0056 232.32 26.1763C232.128 26.3363 231.888 26.4163 231.6 26.4163C231.312 26.4163 231.072 26.3363 230.88 26.1763C230.699 26.0056 230.608 25.7656 230.608 25.4563V19.2643C230.608 18.9656 230.704 18.7363 230.896 18.5763C231.088 18.4163 231.328 18.3363 231.616 18.3363C231.893 18.3363 232.117 18.4163 232.288 18.5763C232.469 18.7256 232.56 18.9443 232.56 19.2323V19.6163C232.805 19.1896 233.131 18.8643 233.536 18.6403C233.952 18.4163 234.427 18.3043 234.96 18.3043C236.133 18.3043 236.917 18.795 237.312 19.7763C237.547 19.3283 237.893 18.971 238.352 18.7043C238.811 18.4376 239.328 18.3043 239.904 18.3043ZM245.569 26.4163C245.281 26.4163 245.041 26.3363 244.849 26.1763C244.667 26.0056 244.577 25.7656 244.577 25.4563V19.2803C244.577 18.971 244.667 18.7363 244.849 18.5763C245.041 18.4163 245.281 18.3363 245.569 18.3363C245.857 18.3363 246.097 18.4163 246.289 18.5763C246.481 18.7363 246.577 18.971 246.577 19.2803V25.4563C246.577 25.7656 246.481 26.0056 246.289 26.1763C246.097 26.3363 245.857 26.4163 245.569 26.4163ZM245.569 16.9123C245.206 16.9123 244.918 16.8163 244.705 16.6243C244.491 16.4216 244.385 16.1603 244.385 15.8403C244.385 15.5203 244.491 15.2643 244.705 15.0723C244.918 14.8803 245.206 14.7843 245.569 14.7843C245.921 14.7843 246.203 14.8803 246.417 15.0723C246.641 15.2643 246.753 15.5203 246.753 15.8403C246.753 16.1603 246.646 16.4216 246.433 16.6243C246.219 16.8163 245.931 16.9123 245.569 16.9123ZM253.047 24.9283C253.58 24.9603 253.847 25.2003 253.847 25.6483C253.847 25.9043 253.74 26.1016 253.527 26.2403C253.324 26.3683 253.031 26.4216 252.647 26.4003L252.215 26.3683C250.423 26.2403 249.527 25.2803 249.527 23.4883V20.0003H248.727C248.439 20.0003 248.215 19.9363 248.055 19.8083C247.906 19.6803 247.831 19.4936 247.831 19.2483C247.831 19.003 247.906 18.8163 248.055 18.6883C248.215 18.5603 248.439 18.4963 248.727 18.4963H249.527V17.0243C249.527 16.7363 249.618 16.507 249.799 16.3363C249.98 16.1656 250.226 16.0803 250.535 16.0803C250.834 16.0803 251.074 16.1656 251.255 16.3363C251.436 16.507 251.527 16.7363 251.527 17.0243V18.4963H252.887C253.175 18.4963 253.394 18.5603 253.543 18.6883C253.703 18.8163 253.783 19.003 253.783 19.2483C253.783 19.4936 253.703 19.6803 253.543 19.8083C253.394 19.9363 253.175 20.0003 252.887 20.0003H251.527V23.6323C251.527 24.4216 251.89 24.843 252.615 24.8963L253.047 24.9283ZM258.844 24.9283C259.377 24.9603 259.644 25.2003 259.644 25.6483C259.644 25.9043 259.537 26.1016 259.324 26.2403C259.121 26.3683 258.828 26.4216 258.444 26.4003L258.012 26.3683C256.22 26.2403 255.324 25.2803 255.324 23.4883V20.0003H254.524C254.236 20.0003 254.012 19.9363 253.852 19.8083C253.703 19.6803 253.628 19.4936 253.628 19.2483C253.628 19.003 253.703 18.8163 253.852 18.6883C254.012 18.5603 254.236 18.4963 254.524 18.4963H255.324V17.0243C255.324 16.7363 255.415 16.507 255.596 16.3363C255.777 16.1656 256.023 16.0803 256.332 16.0803C256.631 16.0803 256.871 16.1656 257.052 16.3363C257.233 16.507 257.324 16.7363 257.324 17.0243V18.4963H258.684C258.972 18.4963 259.191 18.5603 259.34 18.6883C259.5 18.8163 259.58 19.003 259.58 19.2483C259.58 19.4936 259.5 19.6803 259.34 19.8083C259.191 19.9363 258.972 20.0003 258.684 20.0003H257.324V23.6323C257.324 24.4216 257.687 24.843 258.412 24.8963L258.844 24.9283ZM266.878 24.1763C267.06 24.1763 267.204 24.2456 267.31 24.3843C267.428 24.523 267.486 24.7096 267.486 24.9443C267.486 25.275 267.289 25.5523 266.894 25.7763C266.532 25.979 266.121 26.1443 265.662 26.2723C265.204 26.3896 264.766 26.4483 264.35 26.4483C263.092 26.4483 262.094 26.0856 261.358 25.3603C260.622 24.635 260.254 23.643 260.254 22.3843C260.254 21.5843 260.414 20.875 260.734 20.2563C261.054 19.6376 261.502 19.1576 262.078 18.8163C262.665 18.475 263.326 18.3043 264.062 18.3043C264.766 18.3043 265.38 18.459 265.902 18.7683C266.425 19.0776 266.83 19.515 267.118 20.0803C267.406 20.6456 267.55 21.3123 267.55 22.0803C267.55 22.539 267.348 22.7683 266.942 22.7683H262.222C262.286 23.5043 262.494 24.0483 262.846 24.4003C263.198 24.7416 263.71 24.9123 264.382 24.9123C264.724 24.9123 265.022 24.8696 265.278 24.7843C265.545 24.699 265.844 24.5816 266.174 24.4323C266.494 24.2616 266.729 24.1763 266.878 24.1763ZM264.11 19.7123C263.566 19.7123 263.129 19.883 262.798 20.2243C262.478 20.5656 262.286 21.0563 262.222 21.6963H265.838C265.817 21.0456 265.657 20.555 265.358 20.2243C265.06 19.883 264.644 19.7123 264.11 19.7123ZM275.714 14.9603C276.013 14.9603 276.258 15.0456 276.45 15.2163C276.642 15.387 276.738 15.611 276.738 15.8883V25.4563C276.738 25.7443 276.648 25.9736 276.466 26.1443C276.285 26.315 276.045 26.4003 275.746 26.4003C275.448 26.4003 275.208 26.315 275.026 26.1443C274.845 25.9736 274.754 25.7443 274.754 25.4563V25.0563C274.52 25.4936 274.178 25.835 273.73 26.0803C273.293 26.3256 272.792 26.4483 272.226 26.4483C271.554 26.4483 270.952 26.2776 270.418 25.9363C269.896 25.595 269.485 25.115 269.186 24.4963C268.898 23.867 268.754 23.147 268.754 22.3363C268.754 21.5256 268.898 20.8163 269.186 20.2083C269.485 19.6003 269.896 19.131 270.418 18.8003C270.941 18.4696 271.544 18.3043 272.226 18.3043C272.792 18.3043 273.293 18.4216 273.73 18.6563C274.168 18.891 274.504 19.2216 274.738 19.6483V15.8563C274.738 15.5896 274.824 15.3763 274.994 15.2163C275.176 15.0456 275.416 14.9603 275.714 14.9603ZM272.754 24.8963C273.394 24.8963 273.885 24.6776 274.226 24.2403C274.578 23.803 274.754 23.179 274.754 22.3683C274.754 21.5576 274.578 20.939 274.226 20.5123C273.885 20.075 273.4 19.8563 272.77 19.8563C272.13 19.8563 271.634 20.0696 271.282 20.4963C270.93 20.923 270.754 21.5363 270.754 22.3363C270.754 23.147 270.93 23.7763 271.282 24.2243C271.634 24.6723 272.125 24.8963 272.754 24.8963Z" fill="#FFDCDC"/>
<path d="M144.443 92.0921C144.133 92.0921 143.883 92.0014 143.691 91.8201C143.509 91.6281 143.419 91.3721 143.419 91.0521V81.6921C143.419 81.3828 143.504 81.1428 143.675 80.9721C143.856 80.8014 144.101 80.7161 144.411 80.7161H148.347C149.552 80.7161 150.491 81.0201 151.163 81.6281C151.835 82.2254 152.171 83.0681 152.171 84.1561C152.171 85.2441 151.835 86.0921 151.163 86.7001C150.491 87.3081 149.552 87.6121 148.347 87.6121H145.483V91.0521C145.483 91.3721 145.387 91.6281 145.195 91.8201C145.013 92.0014 144.763 92.0921 144.443 92.0921ZM148.091 86.0281C149.509 86.0281 150.219 85.4094 150.219 84.1721C150.219 82.9348 149.509 82.3161 148.091 82.3161H145.483V86.0281H148.091ZM158.017 84.0121C158.294 83.9908 158.513 84.0494 158.673 84.1881C158.833 84.3268 158.913 84.5348 158.913 84.8121C158.913 85.1001 158.843 85.3134 158.705 85.4521C158.566 85.5908 158.315 85.6814 157.953 85.7241L157.473 85.7721C156.843 85.8361 156.379 86.0494 156.081 86.4121C155.793 86.7748 155.649 87.2281 155.649 87.7721V91.1321C155.649 91.4414 155.553 91.6814 155.361 91.8521C155.169 92.0121 154.929 92.0921 154.641 92.0921C154.353 92.0921 154.113 92.0121 153.921 91.8521C153.739 91.6814 153.649 91.4414 153.649 91.1321V84.9401C153.649 84.6414 153.739 84.4121 153.921 84.2521C154.113 84.0921 154.347 84.0121 154.625 84.0121C154.902 84.0121 155.126 84.0921 155.297 84.2521C155.467 84.4014 155.553 84.6201 155.553 84.9081V85.5481C155.755 85.0788 156.054 84.7161 156.449 84.4601C156.854 84.2041 157.302 84.0601 157.793 84.0281L158.017 84.0121ZM163.186 92.1241C162.386 92.1241 161.682 91.9588 161.074 91.6281C160.476 91.2974 160.012 90.8228 159.682 90.2041C159.351 89.5854 159.186 88.8654 159.186 88.0441C159.186 87.2228 159.351 86.5081 159.682 85.9001C160.012 85.2814 160.476 84.8068 161.074 84.4761C161.682 84.1454 162.386 83.9801 163.186 83.9801C163.986 83.9801 164.684 84.1454 165.282 84.4761C165.89 84.8068 166.354 85.2814 166.674 85.9001C167.004 86.5081 167.17 87.2228 167.17 88.0441C167.17 88.8654 167.004 89.5854 166.674 90.2041C166.354 90.8228 165.89 91.2974 165.282 91.6281C164.684 91.9588 163.986 92.1241 163.186 92.1241ZM163.17 90.5721C163.82 90.5721 164.316 90.3588 164.658 89.9321C164.999 89.5054 165.17 88.8761 165.17 88.0441C165.17 87.2228 164.999 86.5988 164.658 86.1721C164.316 85.7348 163.826 85.5161 163.186 85.5161C162.546 85.5161 162.05 85.7348 161.698 86.1721C161.356 86.5988 161.186 87.2228 161.186 88.0441C161.186 88.8761 161.356 89.5054 161.698 89.9321C162.039 90.3588 162.53 90.5721 163.17 90.5721ZM175.494 82.5881C175.131 82.5881 174.843 82.4921 174.63 82.3001C174.416 82.0974 174.31 81.8361 174.31 81.5161C174.31 81.1961 174.416 80.9401 174.63 80.7481C174.843 80.5561 175.131 80.4601 175.494 80.4601C175.846 80.4601 176.128 80.5561 176.342 80.7481C176.566 80.9401 176.678 81.1961 176.678 81.5161C176.678 81.8361 176.566 82.0974 176.342 82.3001C176.128 82.4921 175.846 82.5881 175.494 82.5881ZM175.59 84.1721C176.187 84.1721 176.486 84.4228 176.486 84.9241V91.1321C176.486 91.4414 176.39 91.6814 176.198 91.8521C176.016 92.0121 175.782 92.0921 175.494 92.0921C175.206 92.0921 174.966 92.0121 174.774 91.8521C174.582 91.6814 174.486 91.4414 174.486 91.1321V85.6761H171.318V91.1321C171.318 91.4414 171.222 91.6761 171.03 91.8361C170.848 91.9961 170.614 92.0761 170.326 92.0761C170.038 92.0761 169.798 91.9961 169.606 91.8361C169.414 91.6761 169.318 91.4414 169.318 91.1321V85.6761H168.518C167.92 85.6761 167.622 85.4254 167.622 84.9241C167.622 84.4228 167.92 84.1721 168.518 84.1721H169.318V84.0921C169.318 83.1001 169.579 82.3161 170.102 81.7401C170.635 81.1534 171.382 80.8174 172.342 80.7321L172.71 80.7001C172.763 80.6894 172.843 80.6841 172.95 80.6841C173.515 80.6841 173.798 80.9241 173.798 81.4041C173.798 81.6388 173.734 81.8201 173.606 81.9481C173.478 82.0761 173.302 82.1508 173.078 82.1721L172.726 82.2041C172.235 82.2468 171.878 82.4014 171.654 82.6681C171.43 82.9241 171.318 83.3028 171.318 83.8041V84.1721H175.59ZM179.563 92.0921C179.275 92.0921 179.035 92.0121 178.843 91.8521C178.661 91.6814 178.571 91.4414 178.571 91.1321V81.5801C178.571 81.2708 178.661 81.0361 178.843 80.8761C179.035 80.7161 179.275 80.6361 179.563 80.6361C179.851 80.6361 180.091 80.7161 180.283 80.8761C180.475 81.0361 180.571 81.2708 180.571 81.5801V91.1321C180.571 91.4414 180.475 91.6814 180.283 91.8521C180.091 92.0121 179.851 92.0921 179.563 92.0921ZM188.825 89.8521C189.006 89.8521 189.15 89.9214 189.257 90.0601C189.374 90.1988 189.433 90.3854 189.433 90.6201C189.433 90.9508 189.236 91.2281 188.841 91.4521C188.478 91.6548 188.068 91.8201 187.609 91.9481C187.15 92.0654 186.713 92.1241 186.297 92.1241C185.038 92.1241 184.041 91.7614 183.305 91.0361C182.569 90.3108 182.201 89.3188 182.201 88.0601C182.201 87.2601 182.361 86.5508 182.681 85.9321C183.001 85.3134 183.449 84.8334 184.025 84.4921C184.612 84.1508 185.273 83.9801 186.009 83.9801C186.713 83.9801 187.326 84.1348 187.849 84.4441C188.372 84.7534 188.777 85.1908 189.065 85.7561C189.353 86.3214 189.497 86.9881 189.497 87.7561C189.497 88.2148 189.294 88.4441 188.889 88.4441H184.169C184.233 89.1801 184.441 89.7241 184.793 90.0761C185.145 90.4174 185.657 90.5881 186.329 90.5881C186.67 90.5881 186.969 90.5454 187.225 90.4601C187.492 90.3748 187.79 90.2574 188.121 90.1081C188.441 89.9374 188.676 89.8521 188.825 89.8521ZM186.057 85.3881C185.513 85.3881 185.076 85.5588 184.745 85.9001C184.425 86.2414 184.233 86.7321 184.169 87.3721H187.785C187.764 86.7214 187.604 86.2308 187.305 85.9001C187.006 85.5588 186.59 85.3881 186.057 85.3881ZM193.965 92.1241C192.802 92.1241 191.864 91.8948 191.149 91.4361C190.808 91.2334 190.637 90.9454 190.637 90.5721C190.637 90.3588 190.696 90.1881 190.813 90.0601C190.93 89.9214 191.074 89.8521 191.245 89.8521C191.426 89.8521 191.677 89.9374 191.997 90.1081C192.338 90.2681 192.648 90.3908 192.925 90.4761C193.213 90.5614 193.576 90.6041 194.013 90.6041C194.461 90.6041 194.808 90.5294 195.053 90.3801C195.309 90.2308 195.437 90.0228 195.437 89.7561C195.437 89.5748 195.384 89.4308 195.277 89.3241C195.181 89.2174 195 89.1214 194.733 89.0361C194.477 88.9401 194.082 88.8334 193.549 88.7161C192.6 88.5241 191.917 88.2521 191.501 87.9001C191.096 87.5481 190.893 87.0628 190.893 86.4441C190.893 85.9748 191.032 85.5534 191.309 85.1801C191.586 84.7961 191.965 84.5028 192.445 84.3001C192.936 84.0868 193.49 83.9801 194.109 83.9801C194.557 83.9801 194.989 84.0388 195.405 84.1561C195.821 84.2628 196.194 84.4228 196.525 84.6361C196.866 84.8494 197.037 85.1321 197.037 85.4841C197.037 85.6974 196.978 85.8788 196.861 86.0281C196.744 86.1668 196.6 86.2361 196.429 86.2361C196.312 86.2361 196.194 86.2148 196.077 86.1721C195.97 86.1188 195.832 86.0441 195.661 85.9481C195.352 85.7881 195.085 85.6708 194.861 85.5961C194.637 85.5108 194.36 85.4681 194.029 85.4681C193.634 85.4681 193.32 85.5481 193.085 85.7081C192.861 85.8681 192.749 86.0868 192.749 86.3641C192.749 86.6308 192.866 86.8334 193.101 86.9721C193.336 87.1108 193.789 87.2494 194.461 87.3881C195.176 87.5374 195.736 87.7081 196.141 87.9001C196.546 88.0921 196.834 88.3321 197.005 88.6201C197.186 88.9081 197.277 89.2761 197.277 89.7241C197.277 90.4494 196.973 91.0308 196.365 91.4681C195.768 91.9054 194.968 92.1241 193.965 92.1241ZM207.323 92.1401C206.501 92.1401 205.723 92.0334 204.987 91.8201C204.261 91.5961 203.669 91.2974 203.211 90.9241C202.965 90.7428 202.843 90.4868 202.843 90.1561C202.843 89.9321 202.907 89.7401 203.035 89.5801C203.173 89.4094 203.333 89.3241 203.515 89.3241C203.707 89.3241 203.925 89.3988 204.171 89.5481C204.629 89.8788 205.109 90.1188 205.611 90.2681C206.112 90.4174 206.667 90.4921 207.275 90.4921C208.053 90.4921 208.651 90.3588 209.067 90.0921C209.483 89.8148 209.691 89.4148 209.691 88.8921C209.691 88.4868 209.493 88.1774 209.099 87.9641C208.715 87.7401 208.069 87.5268 207.163 87.3241C206.224 87.1214 205.461 86.8868 204.875 86.6201C204.288 86.3534 203.845 86.0121 203.547 85.5961C203.248 85.1801 203.099 84.6521 203.099 84.0121C203.099 83.3508 203.285 82.7588 203.659 82.2361C204.032 81.7134 204.549 81.3081 205.211 81.0201C205.883 80.7214 206.635 80.5721 207.467 80.5721C208.992 80.5721 210.235 80.9774 211.195 81.7881C211.333 81.9054 211.429 82.0228 211.483 82.1401C211.547 82.2468 211.579 82.3854 211.579 82.5561C211.579 82.7801 211.509 82.9774 211.371 83.1481C211.243 83.3081 211.088 83.3881 210.907 83.3881C210.8 83.3881 210.699 83.3721 210.603 83.3401C210.517 83.3081 210.4 83.2494 210.251 83.1641C209.813 82.8441 209.387 82.6094 208.971 82.4601C208.565 82.3001 208.064 82.2201 207.467 82.2201C206.741 82.2201 206.165 82.3694 205.739 82.6681C205.323 82.9561 205.115 83.3614 205.115 83.8841C205.115 84.3214 205.301 84.6574 205.675 84.8921C206.048 85.1268 206.683 85.3454 207.579 85.5481C208.528 85.7614 209.296 86.0014 209.883 86.2681C210.48 86.5241 210.933 86.8548 211.243 87.2601C211.563 87.6654 211.723 88.1721 211.723 88.7801C211.723 89.4414 211.536 90.0281 211.163 90.5401C210.8 91.0414 210.283 91.4361 209.611 91.7241C208.949 92.0014 208.187 92.1401 207.323 92.1401ZM218.022 83.9801C219.856 83.9801 220.774 85.0521 220.774 87.1961V91.1321C220.774 91.4308 220.683 91.6654 220.502 91.8361C220.331 92.0068 220.091 92.0921 219.782 92.0921C219.472 92.0921 219.227 92.0068 219.046 91.8361C218.864 91.6654 218.774 91.4308 218.774 91.1321V87.1961C218.774 86.6308 218.656 86.2201 218.422 85.9641C218.198 85.6974 217.84 85.5641 217.35 85.5641C216.774 85.5641 216.31 85.7454 215.958 86.1081C215.616 86.4708 215.446 86.9561 215.446 87.5641V91.1321C215.446 91.4308 215.355 91.6654 215.174 91.8361C214.992 92.0068 214.747 92.0921 214.438 92.0921C214.128 92.0921 213.883 92.0068 213.702 91.8361C213.531 91.6654 213.446 91.4308 213.446 91.1321V81.5641C213.446 81.2868 213.536 81.0628 213.718 80.8921C213.91 80.7214 214.155 80.6361 214.454 80.6361C214.752 80.6361 214.992 80.7161 215.174 80.8761C215.355 81.0361 215.446 81.2548 215.446 81.5321V85.2601C215.712 84.8441 216.064 84.5294 216.502 84.3161C216.95 84.0921 217.456 83.9801 218.022 83.9801ZM226.373 92.1241C225.573 92.1241 224.869 91.9588 224.261 91.6281C223.664 91.2974 223.2 90.8228 222.869 90.2041C222.538 89.5854 222.373 88.8654 222.373 88.0441C222.373 87.2228 222.538 86.5081 222.869 85.9001C223.2 85.2814 223.664 84.8068 224.261 84.4761C224.869 84.1454 225.573 83.9801 226.373 83.9801C227.173 83.9801 227.872 84.1454 228.469 84.4761C229.077 84.8068 229.541 85.2814 229.861 85.9001C230.192 86.5081 230.357 87.2228 230.357 88.0441C230.357 88.8654 230.192 89.5854 229.861 90.2041C229.541 90.8228 229.077 91.2974 228.469 91.6281C227.872 91.9588 227.173 92.1241 226.373 92.1241ZM226.357 90.5721C227.008 90.5721 227.504 90.3588 227.845 89.9321C228.186 89.5054 228.357 88.8761 228.357 88.0441C228.357 87.2228 228.186 86.5988 227.845 86.1721C227.504 85.7348 227.013 85.5161 226.373 85.5161C225.733 85.5161 225.237 85.7348 224.885 86.1721C224.544 86.5988 224.373 87.2228 224.373 88.0441C224.373 88.8761 224.544 89.5054 224.885 89.9321C225.226 90.3588 225.717 90.5721 226.357 90.5721ZM236.376 84.0121C236.653 83.9908 236.872 84.0494 237.032 84.1881C237.192 84.3268 237.272 84.5348 237.272 84.8121C237.272 85.1001 237.203 85.3134 237.064 85.4521C236.925 85.5908 236.675 85.6814 236.312 85.7241L235.832 85.7721C235.203 85.8361 234.739 86.0494 234.44 86.4121C234.152 86.7748 234.008 87.2281 234.008 87.7721V91.1321C234.008 91.4414 233.912 91.6814 233.72 91.8521C233.528 92.0121 233.288 92.0921 233 92.0921C232.712 92.0921 232.472 92.0121 232.28 91.8521C232.099 91.6814 232.008 91.4414 232.008 91.1321V84.9401C232.008 84.6414 232.099 84.4121 232.28 84.2521C232.472 84.0921 232.707 84.0121 232.984 84.0121C233.261 84.0121 233.485 84.0921 233.656 84.2521C233.827 84.4014 233.912 84.6201 233.912 84.9081V85.5481C234.115 85.0788 234.413 84.7161 234.808 84.4601C235.213 84.2041 235.661 84.0601 236.152 84.0281L236.376 84.0121ZM239.125 92.0921C238.837 92.0921 238.597 92.0121 238.405 91.8521C238.224 91.6814 238.133 91.4414 238.133 91.1321V81.5801C238.133 81.2708 238.224 81.0361 238.405 80.8761C238.597 80.7161 238.837 80.6361 239.125 80.6361C239.413 80.6361 239.653 80.7161 239.845 80.8761C240.037 81.0361 240.133 81.2708 240.133 81.5801V91.1321C240.133 91.4414 240.037 91.6814 239.845 91.8521C239.653 92.0121 239.413 92.0921 239.125 92.0921ZM243.188 92.0921C242.9 92.0921 242.66 92.0121 242.468 91.8521C242.286 91.6814 242.196 91.4414 242.196 91.1321V84.9561C242.196 84.6468 242.286 84.4121 242.468 84.2521C242.66 84.0921 242.9 84.0121 243.188 84.0121C243.476 84.0121 243.716 84.0921 243.908 84.2521C244.1 84.4121 244.196 84.6468 244.196 84.9561V91.1321C244.196 91.4414 244.1 91.6814 243.908 91.8521C243.716 92.0121 243.476 92.0921 243.188 92.0921ZM243.188 82.5881C242.825 82.5881 242.537 82.4921 242.324 82.3001C242.11 82.0974 242.004 81.8361 242.004 81.5161C242.004 81.1961 242.11 80.9401 242.324 80.7481C242.537 80.5561 242.825 80.4601 243.188 80.4601C243.54 80.4601 243.822 80.5561 244.036 80.7481C244.26 80.9401 244.372 81.1961 244.372 81.5161C244.372 81.8361 244.265 82.0974 244.052 82.3001C243.838 82.4921 243.55 82.5881 243.188 82.5881ZM249.09 92.1241C247.927 92.1241 246.989 91.8948 246.274 91.4361C245.933 91.2334 245.762 90.9454 245.762 90.5721C245.762 90.3588 245.821 90.1881 245.938 90.0601C246.055 89.9214 246.199 89.8521 246.37 89.8521C246.551 89.8521 246.802 89.9374 247.122 90.1081C247.463 90.2681 247.773 90.3908 248.05 90.4761C248.338 90.5614 248.701 90.6041 249.138 90.6041C249.586 90.6041 249.933 90.5294 250.178 90.3801C250.434 90.2308 250.562 90.0228 250.562 89.7561C250.562 89.5748 250.509 89.4308 250.402 89.3241C250.306 89.2174 250.125 89.1214 249.858 89.0361C249.602 88.9401 249.207 88.8334 248.674 88.7161C247.725 88.5241 247.042 88.2521 246.626 87.9001C246.221 87.5481 246.018 87.0628 246.018 86.4441C246.018 85.9748 246.157 85.5534 246.434 85.1801C246.711 84.7961 247.09 84.5028 247.57 84.3001C248.061 84.0868 248.615 83.9801 249.234 83.9801C249.682 83.9801 250.114 84.0388 250.53 84.1561C250.946 84.2628 251.319 84.4228 251.65 84.6361C251.991 84.8494 252.162 85.1321 252.162 85.4841C252.162 85.6974 252.103 85.8788 251.986 86.0281C251.869 86.1668 251.725 86.2361 251.554 86.2361C251.437 86.2361 251.319 86.2148 251.202 86.1721C251.095 86.1188 250.957 86.0441 250.786 85.9481C250.477 85.7881 250.21 85.6708 249.986 85.5961C249.762 85.5108 249.485 85.4681 249.154 85.4681C248.759 85.4681 248.445 85.5481 248.21 85.7081C247.986 85.8681 247.874 86.0868 247.874 86.3641C247.874 86.6308 247.991 86.8334 248.226 86.9721C248.461 87.1108 248.914 87.2494 249.586 87.3881C250.301 87.5374 250.861 87.7081 251.266 87.9001C251.671 88.0921 251.959 88.3321 252.13 88.6201C252.311 88.9081 252.402 89.2761 252.402 89.7241C252.402 90.4494 252.098 91.0308 251.49 91.4681C250.893 91.9054 250.093 92.1241 249.09 92.1241ZM258.01 90.6041C258.543 90.6361 258.81 90.8761 258.81 91.3241C258.81 91.5801 258.703 91.7774 258.49 91.9161C258.287 92.0441 257.994 92.0974 257.61 92.0761L257.178 92.0441C255.386 91.9161 254.49 90.9561 254.49 89.1641V85.6761H253.69C253.402 85.6761 253.178 85.6121 253.018 85.4841C252.868 85.3561 252.794 85.1694 252.794 84.9241C252.794 84.6788 252.868 84.4921 253.018 84.3641C253.178 84.2361 253.402 84.1721 253.69 84.1721H254.49V82.7001C254.49 82.4121 254.58 82.1828 254.762 82.0121C254.943 81.8414 255.188 81.7561 255.498 81.7561C255.796 81.7561 256.036 81.8414 256.218 82.0121C256.399 82.1828 256.49 82.4121 256.49 82.7001V84.1721H257.85C258.138 84.1721 258.356 84.2361 258.506 84.3641C258.666 84.4921 258.746 84.6788 258.746 84.9241C258.746 85.1694 258.666 85.3561 258.506 85.4841C258.356 85.6121 258.138 85.6761 257.85 85.6761H256.49V89.3081C256.49 90.0974 256.852 90.5188 257.578 90.5721L258.01 90.6041ZM266.044 89.8521C266.225 89.8521 266.369 89.9214 266.476 90.0601C266.593 90.1988 266.652 90.3854 266.652 90.6201C266.652 90.9508 266.455 91.2281 266.06 91.4521C265.697 91.6548 265.287 91.8201 264.828 91.9481C264.369 92.0654 263.932 92.1241 263.516 92.1241C262.257 92.1241 261.26 91.7614 260.524 91.0361C259.788 90.3108 259.42 89.3188 259.42 88.0601C259.42 87.2601 259.58 86.5508 259.9 85.9321C260.22 85.3134 260.668 84.8334 261.244 84.4921C261.831 84.1508 262.492 83.9801 263.228 83.9801C263.932 83.9801 264.545 84.1348 265.068 84.4441C265.591 84.7534 265.996 85.1908 266.284 85.7561C266.572 86.3214 266.716 86.9881 266.716 87.7561C266.716 88.2148 266.513 88.4441 266.108 88.4441H261.388C261.452 89.1801 261.66 89.7241 262.012 90.0761C262.364 90.4174 262.876 90.5881 263.548 90.5881C263.889 90.5881 264.188 90.5454 264.444 90.4601C264.711 90.3748 265.009 90.2574 265.34 90.1081C265.66 89.9374 265.895 89.8521 266.044 89.8521ZM263.276 85.3881C262.732 85.3881 262.295 85.5588 261.964 85.9001C261.644 86.2414 261.452 86.7321 261.388 87.3721H265.004C264.983 86.7214 264.823 86.2308 264.524 85.9001C264.225 85.5588 263.809 85.3881 263.276 85.3881ZM274.88 80.6361C275.179 80.6361 275.424 80.7214 275.616 80.8921C275.808 81.0628 275.904 81.2868 275.904 81.5641V91.1321C275.904 91.4201 275.813 91.6494 275.632 91.8201C275.451 91.9908 275.211 92.0761 274.912 92.0761C274.613 92.0761 274.373 91.9908 274.192 91.8201C274.011 91.6494 273.92 91.4201 273.92 91.1321V90.7321C273.685 91.1694 273.344 91.5108 272.896 91.7561C272.459 92.0014 271.957 92.1241 271.392 92.1241C270.72 92.1241 270.117 91.9534 269.584 91.6121C269.061 91.2708 268.651 90.7908 268.352 90.1721C268.064 89.5428 267.92 88.8228 267.92 88.0121C267.92 87.2014 268.064 86.4921 268.352 85.8841C268.651 85.2761 269.061 84.8068 269.584 84.4761C270.107 84.1454 270.709 83.9801 271.392 83.9801C271.957 83.9801 272.459 84.0974 272.896 84.3321C273.333 84.5668 273.669 84.8974 273.904 85.3241V81.5321C273.904 81.2654 273.989 81.0521 274.16 80.8921C274.341 80.7214 274.581 80.6361 274.88 80.6361ZM271.92 90.5721C272.56 90.5721 273.051 90.3534 273.392 89.9161C273.744 89.4788 273.92 88.8548 273.92 88.0441C273.92 87.2334 273.744 86.6148 273.392 86.1881C273.051 85.7508 272.565 85.5321 271.936 85.5321C271.296 85.5321 270.8 85.7454 270.448 86.1721C270.096 86.5988 269.92 87.2121 269.92 88.0121C269.92 88.8228 270.096 89.4521 270.448 89.9001C270.8 90.3481 271.291 90.5721 271.92 90.5721Z" fill="#956209"/>
<path d="M179.995 156.914C179.686 156.914 179.446 156.829 179.275 156.658C179.105 156.487 179.019 156.253 179.019 155.954V146.578C179.019 146.269 179.11 146.023 179.291 145.842C179.483 145.65 179.734 145.554 180.043 145.554C180.363 145.554 180.614 145.65 180.795 145.842C180.987 146.023 181.083 146.269 181.083 146.578V155.218H185.579C186.219 155.218 186.539 155.501 186.539 156.066C186.539 156.631 186.219 156.914 185.579 156.914H179.995ZM194.694 155.25C195.334 155.25 195.654 155.522 195.654 156.066C195.654 156.631 195.334 156.914 194.694 156.914H189.286C188.636 156.914 188.31 156.631 188.31 156.066C188.31 155.522 188.636 155.25 189.286 155.25H190.95V147.954L189.414 148.898C189.265 148.983 189.132 149.026 189.014 149.026C188.79 149.026 188.598 148.93 188.438 148.738C188.289 148.546 188.214 148.333 188.214 148.098C188.214 147.789 188.353 147.549 188.63 147.378L191.11 145.842C191.43 145.65 191.734 145.554 192.022 145.554C192.321 145.554 192.561 145.645 192.742 145.826C192.924 146.007 193.014 146.258 193.014 146.578V155.25H194.694ZM202.824 156.914C202.515 156.914 202.269 156.829 202.088 156.658C201.917 156.487 201.832 156.247 201.832 155.938V146.61C201.832 146.301 201.917 146.061 202.088 145.89C202.269 145.719 202.515 145.634 202.824 145.634H205.992C207.837 145.634 209.267 146.13 210.28 147.122C211.304 148.103 211.816 149.485 211.816 151.266C211.816 153.058 211.304 154.45 210.28 155.442C209.267 156.423 207.837 156.914 205.992 156.914H202.824ZM205.864 155.234C208.456 155.234 209.752 153.911 209.752 151.266C209.752 148.631 208.456 147.314 205.864 147.314H203.896V155.234H205.864ZM217.286 157.042C216.486 157.042 215.782 156.877 215.174 156.546C214.577 156.215 214.113 155.741 213.782 155.122C213.452 154.503 213.286 153.783 213.286 152.962C213.286 152.141 213.452 151.426 213.782 150.818C214.113 150.199 214.577 149.725 215.174 149.394C215.782 149.063 216.486 148.898 217.286 148.898C218.086 148.898 218.785 149.063 219.382 149.394C219.99 149.725 220.454 150.199 220.774 150.818C221.105 151.426 221.27 152.141 221.27 152.962C221.27 153.783 221.105 154.503 220.774 155.122C220.454 155.741 219.99 156.215 219.382 156.546C218.785 156.877 218.086 157.042 217.286 157.042ZM217.27 155.49C217.921 155.49 218.417 155.277 218.758 154.85C219.1 154.423 219.27 153.794 219.27 152.962C219.27 152.141 219.1 151.517 218.758 151.09C218.417 150.653 217.926 150.434 217.286 150.434C216.646 150.434 216.15 150.653 215.798 151.09C215.457 151.517 215.286 152.141 215.286 152.962C215.286 153.794 215.457 154.423 215.798 154.85C216.14 155.277 216.63 155.49 217.27 155.49ZM227.465 148.898C228.404 148.898 229.103 149.165 229.561 149.698C230.02 150.231 230.249 151.037 230.249 152.114V156.05C230.249 156.349 230.159 156.583 229.977 156.754C229.807 156.925 229.567 157.01 229.257 157.01C228.948 157.01 228.703 156.925 228.521 156.754C228.34 156.583 228.249 156.349 228.249 156.05V152.226C228.249 151.618 228.132 151.175 227.897 150.898C227.673 150.621 227.316 150.482 226.825 150.482C226.249 150.482 225.785 150.663 225.433 151.026C225.092 151.389 224.921 151.874 224.921 152.482V156.05C224.921 156.349 224.831 156.583 224.649 156.754C224.468 156.925 224.223 157.01 223.913 157.01C223.604 157.01 223.359 156.925 223.177 156.754C223.007 156.583 222.921 156.349 222.921 156.05V149.858C222.921 149.581 223.012 149.357 223.193 149.186C223.375 149.015 223.62 148.93 223.929 148.93C224.207 148.93 224.431 149.015 224.601 149.186C224.783 149.346 224.873 149.559 224.873 149.826V150.258C225.14 149.821 225.497 149.485 225.945 149.25C226.393 149.015 226.9 148.898 227.465 148.898ZM238.473 154.77C238.654 154.77 238.798 154.839 238.905 154.978C239.022 155.117 239.081 155.303 239.081 155.538C239.081 155.869 238.884 156.146 238.489 156.37C238.126 156.573 237.716 156.738 237.257 156.866C236.798 156.983 236.361 157.042 235.945 157.042C234.686 157.042 233.689 156.679 232.953 155.954C232.217 155.229 231.849 154.237 231.849 152.978C231.849 152.178 232.009 151.469 232.329 150.85C232.649 150.231 233.097 149.751 233.673 149.41C234.26 149.069 234.921 148.898 235.657 148.898C236.361 148.898 236.974 149.053 237.497 149.362C238.02 149.671 238.425 150.109 238.713 150.674C239.001 151.239 239.145 151.906 239.145 152.674C239.145 153.133 238.942 153.362 238.537 153.362H233.817C233.881 154.098 234.089 154.642 234.441 154.994C234.793 155.335 235.305 155.506 235.977 155.506C236.318 155.506 236.617 155.463 236.873 155.378C237.14 155.293 237.438 155.175 237.769 155.026C238.089 154.855 238.324 154.77 238.473 154.77ZM235.705 150.306C235.161 150.306 234.724 150.477 234.393 150.818C234.073 151.159 233.881 151.65 233.817 152.29H237.433C237.412 151.639 237.252 151.149 236.953 150.818C236.654 150.477 236.238 150.306 235.705 150.306Z" fill="#978414"/>
<path d="M179.988 220.833C179.678 220.833 179.438 220.748 179.268 220.577C179.097 220.406 179.012 220.172 179.012 219.873V210.497C179.012 210.188 179.102 209.942 179.284 209.761C179.476 209.569 179.726 209.473 180.036 209.473C180.356 209.473 180.606 209.569 180.788 209.761C180.98 209.942 181.076 210.188 181.076 210.497V219.137H185.572C186.212 219.137 186.532 219.42 186.532 219.985C186.532 220.55 186.212 220.833 185.572 220.833H179.988ZM194.639 219.169C195.279 219.169 195.599 219.441 195.599 219.985C195.599 220.55 195.279 220.833 194.639 220.833H188.559C188.281 220.833 188.063 220.753 187.903 220.593C187.743 220.422 187.663 220.214 187.663 219.969C187.663 219.649 187.785 219.361 188.031 219.105L191.679 215.185C192.127 214.694 192.452 214.246 192.655 213.841C192.868 213.425 192.975 213.014 192.975 212.609C192.975 212.108 192.831 211.724 192.543 211.457C192.255 211.19 191.844 211.057 191.311 211.057C190.873 211.057 190.447 211.142 190.031 211.313C189.625 211.473 189.215 211.697 188.799 211.985C188.692 212.06 188.585 212.124 188.479 212.177C188.372 212.22 188.265 212.241 188.159 212.241C187.977 212.241 187.817 212.156 187.679 211.985C187.551 211.814 187.487 211.612 187.487 211.377C187.487 211.217 187.513 211.078 187.567 210.961C187.631 210.844 187.727 210.732 187.855 210.625C188.324 210.252 188.873 209.958 189.503 209.745C190.132 209.521 190.761 209.409 191.391 209.409C192.489 209.409 193.364 209.686 194.015 210.241C194.676 210.796 195.007 211.542 195.007 212.481C195.007 213.132 194.868 213.745 194.591 214.321C194.313 214.886 193.844 215.521 193.183 216.225L190.415 219.169H194.639ZM202.832 220.833C202.522 220.833 202.277 220.748 202.096 220.577C201.925 220.406 201.84 220.166 201.84 219.857V210.529C201.84 210.22 201.925 209.98 202.096 209.809C202.277 209.638 202.522 209.553 202.832 209.553H206C207.845 209.553 209.274 210.049 210.288 211.041C211.312 212.022 211.824 213.404 211.824 215.185C211.824 216.977 211.312 218.369 210.288 219.361C209.274 220.342 207.845 220.833 206 220.833H202.832ZM205.872 219.153C208.464 219.153 209.76 217.83 209.76 215.185C209.76 212.55 208.464 211.233 205.872 211.233H203.904V219.153H205.872ZM217.294 220.961C216.494 220.961 215.79 220.796 215.182 220.465C214.585 220.134 214.121 219.66 213.79 219.041C213.46 218.422 213.294 217.702 213.294 216.881C213.294 216.06 213.46 215.345 213.79 214.737C214.121 214.118 214.585 213.644 215.182 213.313C215.79 212.982 216.494 212.817 217.294 212.817C218.094 212.817 218.793 212.982 219.39 213.313C219.998 213.644 220.462 214.118 220.782 214.737C221.113 215.345 221.278 216.06 221.278 216.881C221.278 217.702 221.113 218.422 220.782 219.041C220.462 219.66 219.998 220.134 219.39 220.465C218.793 220.796 218.094 220.961 217.294 220.961ZM217.278 219.409C217.929 219.409 218.425 219.196 218.766 218.769C219.108 218.342 219.278 217.713 219.278 216.881C219.278 216.06 219.108 215.436 218.766 215.009C218.425 214.572 217.934 214.353 217.294 214.353C216.654 214.353 216.158 214.572 215.806 215.009C215.465 215.436 215.294 216.06 215.294 216.881C215.294 217.713 215.465 218.342 215.806 218.769C216.148 219.196 216.638 219.409 217.278 219.409ZM227.473 212.817C228.412 212.817 229.111 213.084 229.569 213.617C230.028 214.15 230.257 214.956 230.257 216.033V219.969C230.257 220.268 230.167 220.502 229.985 220.673C229.815 220.844 229.575 220.929 229.265 220.929C228.956 220.929 228.711 220.844 228.529 220.673C228.348 220.502 228.257 220.268 228.257 219.969V216.145C228.257 215.537 228.14 215.094 227.905 214.817C227.681 214.54 227.324 214.401 226.833 214.401C226.257 214.401 225.793 214.582 225.441 214.945C225.1 215.308 224.929 215.793 224.929 216.401V219.969C224.929 220.268 224.839 220.502 224.657 220.673C224.476 220.844 224.231 220.929 223.921 220.929C223.612 220.929 223.367 220.844 223.185 220.673C223.015 220.502 222.929 220.268 222.929 219.969V213.777C222.929 213.5 223.02 213.276 223.201 213.105C223.383 212.934 223.628 212.849 223.937 212.849C224.215 212.849 224.439 212.934 224.609 213.105C224.791 213.265 224.881 213.478 224.881 213.745V214.177C225.148 213.74 225.505 213.404 225.953 213.169C226.401 212.934 226.908 212.817 227.473 212.817ZM238.481 218.689C238.662 218.689 238.806 218.758 238.913 218.897C239.03 219.036 239.089 219.222 239.089 219.457C239.089 219.788 238.891 220.065 238.497 220.289C238.134 220.492 237.723 220.657 237.265 220.785C236.806 220.902 236.369 220.961 235.953 220.961C234.694 220.961 233.697 220.598 232.961 219.873C232.225 219.148 231.857 218.156 231.857 216.897C231.857 216.097 232.017 215.388 232.337 214.769C232.657 214.15 233.105 213.67 233.681 213.329C234.267 212.988 234.929 212.817 235.665 212.817C236.369 212.817 236.982 212.972 237.505 213.281C238.027 213.59 238.433 214.028 238.721 214.593C239.009 215.158 239.153 215.825 239.153 216.593C239.153 217.052 238.95 217.281 238.545 217.281H233.825C233.889 218.017 234.097 218.561 234.449 218.913C234.801 219.254 235.313 219.425 235.985 219.425C236.326 219.425 236.625 219.382 236.881 219.297C237.147 219.212 237.446 219.094 237.777 218.945C238.097 218.774 238.331 218.689 238.481 218.689ZM235.713 214.225C235.169 214.225 234.731 214.396 234.401 214.737C234.081 215.078 233.889 215.569 233.825 216.209H237.441C237.419 215.558 237.259 215.068 236.961 214.737C236.662 214.396 236.246 214.225 235.713 214.225Z" fill="#0D6306"/>
<path d="M186.183 276.389C186.493 276.389 186.738 276.485 186.919 276.677C187.101 276.858 187.191 277.104 187.191 277.413V286.805C187.191 287.114 187.095 287.365 186.903 287.557C186.722 287.749 186.482 287.845 186.183 287.845C185.874 287.845 185.629 287.749 185.447 287.557C185.266 287.365 185.175 287.114 185.175 286.805V282.853H179.399V286.805C179.399 287.114 179.303 287.365 179.111 287.557C178.93 287.749 178.685 287.845 178.375 287.845C178.077 287.845 177.831 287.749 177.639 287.557C177.458 287.365 177.367 287.114 177.367 286.805V277.413C177.367 277.104 177.458 276.858 177.639 276.677C177.821 276.485 178.066 276.389 178.375 276.389C178.685 276.389 178.93 276.485 179.111 276.677C179.303 276.858 179.399 277.104 179.399 277.413V281.189H185.175V277.413C185.175 277.104 185.266 276.858 185.447 276.677C185.629 276.485 185.874 276.389 186.183 276.389ZM198.641 286.453C198.769 286.645 198.833 286.832 198.833 287.013C198.833 287.258 198.732 287.461 198.529 287.621C198.337 287.781 198.108 287.861 197.841 287.861C197.671 287.861 197.505 287.824 197.345 287.749C197.196 287.664 197.068 287.541 196.961 287.381L194.833 284.149C194.62 283.808 194.391 283.568 194.145 283.429C193.911 283.29 193.601 283.221 193.217 283.221H191.649V286.805C191.649 287.125 191.559 287.381 191.377 287.573C191.196 287.754 190.951 287.845 190.641 287.845C190.332 287.845 190.081 287.754 189.889 287.573C189.708 287.381 189.617 287.125 189.617 286.805V277.445C189.617 277.136 189.703 276.896 189.873 276.725C190.055 276.554 190.3 276.469 190.609 276.469H194.609C195.889 276.469 196.86 276.757 197.521 277.333C198.193 277.898 198.529 278.72 198.529 279.797C198.529 280.672 198.279 281.392 197.777 281.957C197.287 282.512 196.588 282.869 195.681 283.029C195.991 283.104 196.263 283.237 196.497 283.429C196.732 283.621 196.961 283.888 197.185 284.229L198.641 286.453ZM194.321 281.637C195.1 281.637 195.671 281.493 196.033 281.205C196.396 280.906 196.577 280.453 196.577 279.845C196.577 279.226 196.396 278.778 196.033 278.501C195.671 278.213 195.1 278.069 194.321 278.069H191.633V281.637H194.321ZM206.078 287.749C205.769 287.749 205.523 287.664 205.342 287.493C205.171 287.322 205.086 287.082 205.086 286.773V277.445C205.086 277.136 205.171 276.896 205.342 276.725C205.523 276.554 205.769 276.469 206.078 276.469H209.246C211.091 276.469 212.521 276.965 213.534 277.957C214.558 278.938 215.07 280.32 215.07 282.101C215.07 283.893 214.558 285.285 213.534 286.277C212.521 287.258 211.091 287.749 209.246 287.749H206.078ZM209.118 286.069C211.71 286.069 213.006 284.746 213.006 282.101C213.006 279.466 211.71 278.149 209.118 278.149H207.15V286.069H209.118ZM220.541 287.877C219.741 287.877 219.037 287.712 218.429 287.381C217.831 287.05 217.367 286.576 217.037 285.957C216.706 285.338 216.541 284.618 216.541 283.797C216.541 282.976 216.706 282.261 217.037 281.653C217.367 281.034 217.831 280.56 218.429 280.229C219.037 279.898 219.741 279.733 220.541 279.733C221.341 279.733 222.039 279.898 222.637 280.229C223.245 280.56 223.709 281.034 224.029 281.653C224.359 282.261 224.525 282.976 224.525 283.797C224.525 284.618 224.359 285.338 224.029 285.957C223.709 286.576 223.245 287.05 222.637 287.381C222.039 287.712 221.341 287.877 220.541 287.877ZM220.525 286.325C221.175 286.325 221.671 286.112 222.013 285.685C222.354 285.258 222.525 284.629 222.525 283.797C222.525 282.976 222.354 282.352 222.013 281.925C221.671 281.488 221.181 281.269 220.541 281.269C219.901 281.269 219.405 281.488 219.053 281.925C218.711 282.352 218.541 282.976 218.541 283.797C218.541 284.629 218.711 285.258 219.053 285.685C219.394 286.112 219.885 286.325 220.525 286.325ZM230.72 279.733C231.658 279.733 232.357 280 232.816 280.533C233.274 281.066 233.504 281.872 233.504 282.949V286.885C233.504 287.184 233.413 287.418 233.232 287.589C233.061 287.76 232.821 287.845 232.512 287.845C232.202 287.845 231.957 287.76 231.776 287.589C231.594 287.418 231.504 287.184 231.504 286.885V283.061C231.504 282.453 231.386 282.01 231.152 281.733C230.928 281.456 230.57 281.317 230.08 281.317C229.504 281.317 229.04 281.498 228.688 281.861C228.346 282.224 228.176 282.709 228.176 283.317V286.885C228.176 287.184 228.085 287.418 227.904 287.589C227.722 287.76 227.477 287.845 227.168 287.845C226.858 287.845 226.613 287.76 226.432 287.589C226.261 287.418 226.176 287.184 226.176 286.885V280.693C226.176 280.416 226.266 280.192 226.448 280.021C226.629 279.85 226.874 279.765 227.184 279.765C227.461 279.765 227.685 279.85 227.856 280.021C228.037 280.181 228.128 280.394 228.128 280.661V281.093C228.394 280.656 228.752 280.32 229.2 280.085C229.648 279.85 230.154 279.733 230.72 279.733ZM241.727 285.605C241.908 285.605 242.052 285.674 242.159 285.813C242.276 285.952 242.335 286.138 242.335 286.373C242.335 286.704 242.138 286.981 241.743 287.205C241.38 287.408 240.97 287.573 240.511 287.701C240.052 287.818 239.615 287.877 239.199 287.877C237.94 287.877 236.943 287.514 236.207 286.789C235.471 286.064 235.103 285.072 235.103 283.813C235.103 283.013 235.263 282.304 235.583 281.685C235.903 281.066 236.351 280.586 236.927 280.245C237.514 279.904 238.175 279.733 238.911 279.733C239.615 279.733 240.228 279.888 240.751 280.197C241.274 280.506 241.679 280.944 241.967 281.509C242.255 282.074 242.399 282.741 242.399 283.509C242.399 283.968 242.196 284.197 241.791 284.197H237.071C237.135 284.933 237.343 285.477 237.695 285.829C238.047 286.17 238.559 286.341 239.231 286.341C239.572 286.341 239.871 286.298 240.127 286.213C240.394 286.128 240.692 286.01 241.023 285.861C241.343 285.69 241.578 285.605 241.727 285.605ZM238.959 281.141C238.415 281.141 237.978 281.312 237.647 281.653C237.327 281.994 237.135 282.485 237.071 283.125H240.687C240.666 282.474 240.506 281.984 240.207 281.653C239.908 281.312 239.492 281.141 238.959 281.141Z" fill="#EDFAFF"/>
<path d="M164.822 341.802C163.724 341.802 162.769 341.568 161.958 341.098C161.158 340.629 160.54 339.957 160.102 339.082C159.665 338.208 159.446 337.184 159.446 336.01C159.446 334.837 159.66 333.818 160.086 332.954C160.524 332.08 161.148 331.408 161.958 330.938C162.769 330.469 163.724 330.234 164.822 330.234C165.921 330.234 166.87 330.469 167.67 330.938C168.481 331.408 169.1 332.08 169.526 332.954C169.964 333.818 170.182 334.837 170.182 336.01C170.182 337.184 169.964 338.208 169.526 339.082C169.089 339.957 168.465 340.629 167.654 341.098C166.854 341.568 165.91 341.802 164.822 341.802ZM164.822 340.154C165.857 340.154 166.662 339.797 167.238 339.082C167.825 338.368 168.118 337.344 168.118 336.01C168.118 334.677 167.825 333.658 167.238 332.954C166.662 332.24 165.857 331.882 164.822 331.882C163.777 331.882 162.961 332.24 162.374 332.954C161.798 333.658 161.51 334.677 161.51 336.01C161.51 337.344 161.798 338.368 162.374 339.082C162.961 339.797 163.777 340.154 164.822 340.154ZM176.043 331.866C175.552 331.898 175.195 332.048 174.971 332.314C174.747 332.581 174.635 332.965 174.635 333.466V333.834H175.995C176.592 333.834 176.891 334.085 176.891 334.586C176.891 335.088 176.592 335.338 175.995 335.338H174.635V340.794C174.635 341.104 174.539 341.338 174.347 341.498C174.166 341.658 173.931 341.738 173.643 341.738C173.355 341.738 173.115 341.658 172.923 341.498C172.731 341.338 172.635 341.104 172.635 340.794V335.338H171.835C171.238 335.338 170.939 335.088 170.939 334.586C170.939 334.085 171.238 333.834 171.835 333.834H172.635V333.722C172.635 332.72 172.896 331.936 173.419 331.37C173.952 330.794 174.699 330.469 175.659 330.394L176.075 330.362C176.502 330.33 176.8 330.378 176.971 330.506C177.152 330.624 177.243 330.81 177.243 331.066C177.243 331.525 176.982 331.781 176.459 331.834L176.043 331.866ZM181.637 331.866C181.146 331.898 180.789 332.048 180.565 332.314C180.341 332.581 180.229 332.965 180.229 333.466V333.834H181.589C182.186 333.834 182.485 334.085 182.485 334.586C182.485 335.088 182.186 335.338 181.589 335.338H180.229V340.794C180.229 341.104 180.133 341.338 179.941 341.498C179.76 341.658 179.525 341.738 179.237 341.738C178.949 341.738 178.709 341.658 178.517 341.498C178.325 341.338 178.229 341.104 178.229 340.794V335.338H177.429C176.832 335.338 176.533 335.088 176.533 334.586C176.533 334.085 176.832 333.834 177.429 333.834H178.229V333.722C178.229 332.72 178.49 331.936 179.013 331.37C179.546 330.794 180.293 330.469 181.253 330.394L181.669 330.362C182.096 330.33 182.394 330.378 182.565 330.506C182.746 330.624 182.837 330.81 182.837 331.066C182.837 331.525 182.576 331.781 182.053 331.834L181.637 331.866ZM189.533 339.514C189.714 339.514 189.858 339.584 189.965 339.722C190.082 339.861 190.141 340.048 190.141 340.282C190.141 340.613 189.944 340.89 189.549 341.114C189.186 341.317 188.776 341.482 188.317 341.61C187.858 341.728 187.421 341.786 187.005 341.786C185.746 341.786 184.749 341.424 184.013 340.698C183.277 339.973 182.909 338.981 182.909 337.722C182.909 336.922 183.069 336.213 183.389 335.594C183.709 334.976 184.157 334.496 184.733 334.154C185.32 333.813 185.981 333.642 186.717 333.642C187.421 333.642 188.034 333.797 188.557 334.106C189.08 334.416 189.485 334.853 189.773 335.418C190.061 335.984 190.205 336.65 190.205 337.418C190.205 337.877 190.002 338.106 189.597 338.106H184.877C184.941 338.842 185.149 339.386 185.501 339.738C185.853 340.08 186.365 340.25 187.037 340.25C187.378 340.25 187.677 340.208 187.933 340.122C188.2 340.037 188.498 339.92 188.829 339.77C189.149 339.6 189.384 339.514 189.533 339.514ZM186.765 335.05C186.221 335.05 185.784 335.221 185.453 335.562C185.133 335.904 184.941 336.394 184.877 337.034H188.493C188.472 336.384 188.312 335.893 188.013 335.562C187.714 335.221 187.298 335.05 186.765 335.05ZM196.209 333.674C196.486 333.653 196.705 333.712 196.865 333.85C197.025 333.989 197.105 334.197 197.105 334.474C197.105 334.762 197.036 334.976 196.897 335.114C196.758 335.253 196.508 335.344 196.145 335.386L195.665 335.434C195.036 335.498 194.572 335.712 194.273 336.074C193.985 336.437 193.841 336.89 193.841 337.434V340.794C193.841 341.104 193.745 341.344 193.553 341.514C193.361 341.674 193.121 341.754 192.833 341.754C192.545 341.754 192.305 341.674 192.113 341.514C191.932 341.344 191.841 341.104 191.841 340.794V334.602C191.841 334.304 191.932 334.074 192.113 333.914C192.305 333.754 192.54 333.674 192.817 333.674C193.094 333.674 193.318 333.754 193.489 333.914C193.66 334.064 193.745 334.282 193.745 334.57V335.21C193.948 334.741 194.246 334.378 194.641 334.122C195.046 333.866 195.494 333.722 195.985 333.69L196.209 333.674ZM200.72 341.786C199.557 341.786 198.619 341.557 197.904 341.098C197.563 340.896 197.392 340.608 197.392 340.234C197.392 340.021 197.451 339.85 197.568 339.722C197.685 339.584 197.829 339.514 198 339.514C198.181 339.514 198.432 339.6 198.752 339.77C199.093 339.93 199.403 340.053 199.68 340.138C199.968 340.224 200.331 340.266 200.768 340.266C201.216 340.266 201.563 340.192 201.808 340.042C202.064 339.893 202.192 339.685 202.192 339.418C202.192 339.237 202.139 339.093 202.032 338.986C201.936 338.88 201.755 338.784 201.488 338.698C201.232 338.602 200.837 338.496 200.304 338.378C199.355 338.186 198.672 337.914 198.256 337.562C197.851 337.21 197.648 336.725 197.648 336.106C197.648 335.637 197.787 335.216 198.064 334.842C198.341 334.458 198.72 334.165 199.2 333.962C199.691 333.749 200.245 333.642 200.864 333.642C201.312 333.642 201.744 333.701 202.16 333.818C202.576 333.925 202.949 334.085 203.28 334.298C203.621 334.512 203.792 334.794 203.792 335.146C203.792 335.36 203.733 335.541 203.616 335.69C203.499 335.829 203.355 335.898 203.184 335.898C203.067 335.898 202.949 335.877 202.832 335.834C202.725 335.781 202.587 335.706 202.416 335.61C202.107 335.45 201.84 335.333 201.616 335.258C201.392 335.173 201.115 335.13 200.784 335.13C200.389 335.13 200.075 335.21 199.84 335.37C199.616 335.53 199.504 335.749 199.504 336.026C199.504 336.293 199.621 336.496 199.856 336.634C200.091 336.773 200.544 336.912 201.216 337.05C201.931 337.2 202.491 337.37 202.896 337.562C203.301 337.754 203.589 337.994 203.76 338.282C203.941 338.57 204.032 338.938 204.032 339.386C204.032 340.112 203.728 340.693 203.12 341.13C202.523 341.568 201.723 341.786 200.72 341.786ZM219.197 340.362C219.325 340.554 219.389 340.741 219.389 340.922C219.389 341.168 219.288 341.37 219.085 341.53C218.893 341.69 218.664 341.77 218.397 341.77C218.227 341.77 218.061 341.733 217.901 341.658C217.752 341.573 217.624 341.45 217.517 341.29L215.389 338.058C215.176 337.717 214.947 337.477 214.701 337.338C214.467 337.2 214.157 337.13 213.773 337.13H212.205V340.714C212.205 341.034 212.115 341.29 211.933 341.482C211.752 341.664 211.507 341.754 211.197 341.754C210.888 341.754 210.637 341.664 210.445 341.482C210.264 341.29 210.173 341.034 210.173 340.714V331.354C210.173 331.045 210.259 330.805 210.429 330.634C210.611 330.464 210.856 330.378 211.165 330.378H215.165C216.445 330.378 217.416 330.666 218.077 331.242C218.749 331.808 219.085 332.629 219.085 333.706C219.085 334.581 218.835 335.301 218.333 335.866C217.843 336.421 217.144 336.778 216.237 336.938C216.547 337.013 216.819 337.146 217.053 337.338C217.288 337.53 217.517 337.797 217.741 338.138L219.197 340.362ZM214.877 335.546C215.656 335.546 216.227 335.402 216.589 335.114C216.952 334.816 217.133 334.362 217.133 333.754C217.133 333.136 216.952 332.688 216.589 332.41C216.227 332.122 215.656 331.978 214.877 331.978H212.189V335.546H214.877ZM224.69 341.786C223.89 341.786 223.186 341.621 222.578 341.29C221.981 340.96 221.517 340.485 221.186 339.866C220.856 339.248 220.69 338.528 220.69 337.706C220.69 336.885 220.856 336.17 221.186 335.562C221.517 334.944 221.981 334.469 222.578 334.138C223.186 333.808 223.89 333.642 224.69 333.642C225.49 333.642 226.189 333.808 226.786 334.138C227.394 334.469 227.858 334.944 228.178 335.562C228.509 336.17 228.674 336.885 228.674 337.706C228.674 338.528 228.509 339.248 228.178 339.866C227.858 340.485 227.394 340.96 226.786 341.29C226.189 341.621 225.49 341.786 224.69 341.786ZM224.674 340.234C225.325 340.234 225.821 340.021 226.162 339.594C226.504 339.168 226.674 338.538 226.674 337.706C226.674 336.885 226.504 336.261 226.162 335.834C225.821 335.397 225.33 335.178 224.69 335.178C224.05 335.178 223.554 335.397 223.202 335.834C222.861 336.261 222.69 336.885 222.69 337.706C222.69 338.538 222.861 339.168 223.202 339.594C223.544 340.021 224.034 340.234 224.674 340.234ZM231.318 341.754C231.03 341.754 230.79 341.674 230.598 341.514C230.416 341.344 230.326 341.104 230.326 340.794V331.242C230.326 330.933 230.416 330.698 230.598 330.538C230.79 330.378 231.03 330.298 231.318 330.298C231.606 330.298 231.846 330.378 232.038 330.538C232.23 330.698 232.326 330.933 232.326 331.242V340.794C232.326 341.104 232.23 341.344 232.038 341.514C231.846 341.674 231.606 341.754 231.318 341.754ZM235.38 341.754C235.092 341.754 234.852 341.674 234.66 341.514C234.479 341.344 234.388 341.104 234.388 340.794V331.242C234.388 330.933 234.479 330.698 234.66 330.538C234.852 330.378 235.092 330.298 235.38 330.298C235.668 330.298 235.908 330.378 236.1 330.538C236.292 330.698 236.388 330.933 236.388 331.242V340.794C236.388 341.104 236.292 341.344 236.1 341.514C235.908 341.674 235.668 341.754 235.38 341.754ZM244.643 339.514C244.824 339.514 244.968 339.584 245.075 339.722C245.192 339.861 245.251 340.048 245.251 340.282C245.251 340.613 245.053 340.89 244.659 341.114C244.296 341.317 243.885 341.482 243.427 341.61C242.968 341.728 242.531 341.786 242.115 341.786C240.856 341.786 239.859 341.424 239.123 340.698C238.387 339.973 238.019 338.981 238.019 337.722C238.019 336.922 238.179 336.213 238.499 335.594C238.819 334.976 239.267 334.496 239.843 334.154C240.429 333.813 241.091 333.642 241.827 333.642C242.531 333.642 243.144 333.797 243.667 334.106C244.189 334.416 244.595 334.853 244.883 335.418C245.171 335.984 245.315 336.65 245.315 337.418C245.315 337.877 245.112 338.106 244.707 338.106H239.987C240.051 338.842 240.259 339.386 240.611 339.738C240.963 340.08 241.475 340.25 242.147 340.25C242.488 340.25 242.787 340.208 243.043 340.122C243.309 340.037 243.608 339.92 243.939 339.77C244.259 339.6 244.493 339.514 244.643 339.514ZM241.875 335.05C241.331 335.05 240.893 335.221 240.563 335.562C240.243 335.904 240.051 336.394 239.987 337.034H243.603C243.581 336.384 243.421 335.893 243.123 335.562C242.824 335.221 242.408 335.05 241.875 335.05ZM253.479 330.298C253.777 330.298 254.023 330.384 254.215 330.554C254.407 330.725 254.503 330.949 254.503 331.226V340.794C254.503 341.082 254.412 341.312 254.231 341.482C254.049 341.653 253.809 341.738 253.511 341.738C253.212 341.738 252.972 341.653 252.791 341.482C252.609 341.312 252.519 341.082 252.519 340.794V340.394C252.284 340.832 251.943 341.173 251.495 341.418C251.057 341.664 250.556 341.786 249.991 341.786C249.319 341.786 248.716 341.616 248.183 341.274C247.66 340.933 247.249 340.453 246.951 339.834C246.663 339.205 246.519 338.485 246.519 337.674C246.519 336.864 246.663 336.154 246.951 335.546C247.249 334.938 247.66 334.469 248.183 334.138C248.705 333.808 249.308 333.642 249.991 333.642C250.556 333.642 251.057 333.76 251.495 333.994C251.932 334.229 252.268 334.56 252.503 334.986V331.194C252.503 330.928 252.588 330.714 252.759 330.554C252.94 330.384 253.18 330.298 253.479 330.298ZM250.519 340.234C251.159 340.234 251.649 340.016 251.991 339.578C252.343 339.141 252.519 338.517 252.519 337.706C252.519 336.896 252.343 336.277 251.991 335.85C251.649 335.413 251.164 335.194 250.535 335.194C249.895 335.194 249.399 335.408 249.047 335.834C248.695 336.261 248.519 336.874 248.519 337.674C248.519 338.485 248.695 339.114 249.047 339.562C249.399 340.01 249.889 340.234 250.519 340.234ZM201.643 363.802C200.544 363.802 199.589 363.568 198.779 363.098C197.979 362.629 197.36 361.957 196.923 361.082C196.485 360.208 196.267 359.184 196.267 358.01C196.267 356.837 196.48 355.818 196.907 354.954C197.344 354.08 197.968 353.408 198.779 352.938C199.589 352.469 200.544 352.234 201.643 352.234C202.741 352.234 203.691 352.469 204.491 352.938C205.301 353.408 205.92 354.08 206.347 354.954C206.784 355.818 207.003 356.837 207.003 358.01C207.003 359.184 206.784 360.208 206.347 361.082C205.909 361.957 205.285 362.629 204.475 363.098C203.675 363.568 202.731 363.802 201.643 363.802ZM201.643 362.154C202.677 362.154 203.483 361.797 204.059 361.082C204.645 360.368 204.939 359.344 204.939 358.01C204.939 356.677 204.645 355.658 204.059 354.954C203.483 354.24 202.677 353.882 201.643 353.882C200.597 353.882 199.781 354.24 199.195 354.954C198.619 355.658 198.331 356.677 198.331 358.01C198.331 359.344 198.619 360.368 199.195 361.082C199.781 361.797 200.597 362.154 201.643 362.154ZM215.087 355.674C215.397 355.674 215.642 355.76 215.823 355.93C216.005 356.101 216.095 356.33 216.095 356.618V362.826C216.095 363.104 215.999 363.328 215.807 363.498C215.626 363.669 215.386 363.754 215.087 363.754C214.799 363.754 214.57 363.674 214.399 363.514C214.229 363.354 214.143 363.136 214.143 362.858V362.458C213.898 362.885 213.567 363.216 213.151 363.45C212.735 363.674 212.266 363.786 211.743 363.786C209.823 363.786 208.863 362.709 208.863 360.554V356.618C208.863 356.33 208.954 356.101 209.135 355.93C209.317 355.76 209.557 355.674 209.855 355.674C210.165 355.674 210.41 355.76 210.591 355.93C210.773 356.101 210.863 356.33 210.863 356.618V360.57C210.863 361.125 210.975 361.536 211.199 361.802C211.423 362.069 211.775 362.202 212.255 362.202C212.81 362.202 213.253 362.021 213.583 361.658C213.925 361.285 214.095 360.794 214.095 360.186V356.618C214.095 356.33 214.186 356.101 214.367 355.93C214.549 355.76 214.789 355.674 215.087 355.674ZM222.241 362.266C222.774 362.298 223.041 362.538 223.041 362.986C223.041 363.242 222.934 363.44 222.721 363.578C222.518 363.706 222.225 363.76 221.841 363.738L221.409 363.706C219.617 363.578 218.721 362.618 218.721 360.826V357.338H217.921C217.633 357.338 217.409 357.274 217.249 357.146C217.1 357.018 217.025 356.832 217.025 356.586C217.025 356.341 217.1 356.154 217.249 356.026C217.409 355.898 217.633 355.834 217.921 355.834H218.721V354.362C218.721 354.074 218.812 353.845 218.993 353.674C219.174 353.504 219.42 353.418 219.729 353.418C220.028 353.418 220.268 353.504 220.449 353.674C220.63 353.845 220.721 354.074 220.721 354.362V355.834H222.081C222.369 355.834 222.588 355.898 222.737 356.026C222.897 356.154 222.977 356.341 222.977 356.586C222.977 356.832 222.897 357.018 222.737 357.146C222.588 357.274 222.369 357.338 222.081 357.338H220.721V360.97C220.721 361.76 221.084 362.181 221.809 362.234L222.241 362.266Z" fill="#F9F1FF"/>
<path d="M170.348 415.7C170.031 415.711 169.782 415.626 169.6 415.445C169.419 415.264 169.328 415.031 169.328 414.748C169.328 414.533 169.396 414.346 169.532 414.187C169.657 414.017 169.844 413.926 170.093 413.915L170.603 413.881C171.612 413.813 172.116 413.258 172.116 412.215V404.565C172.116 403.828 172.479 403.46 173.204 403.46C173.93 403.46 174.292 403.828 174.292 404.565V412.198C174.292 413.263 174.009 414.091 173.442 414.68C172.876 415.269 172.037 415.598 170.926 415.666L170.348 415.7ZM180.472 415.751C179.611 415.751 178.863 415.575 178.228 415.224C177.594 414.873 177.101 414.374 176.749 413.728C176.398 413.071 176.222 412.3 176.222 411.416C176.222 410.532 176.398 409.767 176.749 409.121C177.101 408.475 177.594 407.976 178.228 407.625C178.863 407.274 179.611 407.098 180.472 407.098C181.334 407.098 182.082 407.274 182.716 407.625C183.351 407.976 183.844 408.475 184.195 409.121C184.547 409.767 184.722 410.532 184.722 411.416C184.722 412.3 184.547 413.071 184.195 413.728C183.844 414.374 183.351 414.873 182.716 415.224C182.082 415.575 181.334 415.751 180.472 415.751ZM180.472 414.136C181.107 414.136 181.617 413.909 182.002 413.456C182.388 412.991 182.58 412.311 182.58 411.416C182.58 410.509 182.388 409.835 182.002 409.393C181.617 408.94 181.107 408.713 180.472 408.713C179.838 408.713 179.328 408.94 178.942 409.393C178.557 409.835 178.364 410.509 178.364 411.416C178.364 412.311 178.557 412.991 178.942 413.456C179.328 413.909 179.838 414.136 180.472 414.136ZM191.27 415.751C190.658 415.751 190.114 415.621 189.638 415.36C189.162 415.088 188.805 414.725 188.567 414.272V414.629C188.567 415.354 188.221 415.717 187.53 415.717C186.827 415.717 186.476 415.354 186.476 414.629V404.531C186.476 403.817 186.827 403.46 187.53 403.46C188.244 403.46 188.601 403.817 188.601 404.531V408.492C188.85 408.073 189.207 407.738 189.672 407.489C190.148 407.228 190.681 407.098 191.27 407.098C192.007 407.098 192.647 407.274 193.191 407.625C193.735 407.976 194.16 408.475 194.466 409.121C194.772 409.756 194.925 410.521 194.925 411.416C194.925 412.3 194.772 413.071 194.466 413.728C194.16 414.374 193.729 414.873 193.174 415.224C192.63 415.575 191.995 415.751 191.27 415.751ZM190.675 414.136C191.31 414.136 191.82 413.909 192.205 413.456C192.59 412.991 192.783 412.311 192.783 411.416C192.783 410.509 192.59 409.835 192.205 409.393C191.82 408.94 191.31 408.713 190.675 408.713C190.04 408.713 189.53 408.94 189.145 409.393C188.76 409.835 188.567 410.509 188.567 411.416C188.567 412.311 188.76 412.991 189.145 413.456C189.53 413.909 190.04 414.136 190.675 414.136ZM200.962 415.7C200.644 415.711 200.395 415.626 200.214 415.445C200.032 415.264 199.942 415.031 199.942 414.748C199.942 414.533 200.01 414.346 200.146 414.187C200.27 414.017 200.457 413.926 200.707 413.915L201.217 413.881C202.225 413.813 202.73 413.258 202.73 412.215V404.565C202.73 403.828 203.092 403.46 203.818 403.46C204.543 403.46 204.906 403.828 204.906 404.565V412.198C204.906 413.263 204.622 414.091 204.056 414.68C203.489 415.269 202.65 415.598 201.54 415.666L200.962 415.7ZM211.085 415.751C210.224 415.751 209.476 415.575 208.841 415.224C208.207 414.873 207.714 414.374 207.362 413.728C207.011 413.071 206.835 412.3 206.835 411.416C206.835 410.532 207.011 409.767 207.362 409.121C207.714 408.475 208.207 407.976 208.841 407.625C209.476 407.274 210.224 407.098 211.085 407.098C211.947 407.098 212.695 407.274 213.329 407.625C213.964 407.976 214.457 408.475 214.808 409.121C215.16 409.767 215.335 410.532 215.335 411.416C215.335 412.3 215.16 413.071 214.808 413.728C214.457 414.374 213.964 414.873 213.329 415.224C212.695 415.575 211.947 415.751 211.085 415.751ZM211.085 414.136C211.72 414.136 212.23 413.909 212.615 413.456C213.001 412.991 213.193 412.311 213.193 411.416C213.193 410.509 213.001 409.835 212.615 409.393C212.23 408.94 211.72 408.713 211.085 408.713C210.451 408.713 209.941 408.94 209.555 409.393C209.17 409.835 208.977 410.509 208.977 411.416C208.977 412.311 209.17 412.991 209.555 413.456C209.941 413.909 210.451 414.136 211.085 414.136ZM218.143 405.568C217.747 405.568 217.435 405.472 217.208 405.279C216.993 405.075 216.885 404.797 216.885 404.446C216.885 404.083 216.993 403.806 217.208 403.613C217.435 403.42 217.747 403.324 218.143 403.324C218.982 403.324 219.401 403.698 219.401 404.446C219.401 405.194 218.982 405.568 218.143 405.568ZM218.143 415.7C217.803 415.7 217.543 415.598 217.361 415.394C217.18 415.19 217.089 414.907 217.089 414.544V408.305C217.089 407.534 217.441 407.149 218.143 407.149C218.857 407.149 219.214 407.534 219.214 408.305V414.544C219.214 414.907 219.124 415.19 218.942 415.394C218.761 415.598 218.495 415.7 218.143 415.7ZM222.476 415.717C221.774 415.717 221.422 415.354 221.422 414.629V408.203C221.422 407.489 221.768 407.132 222.459 407.132C223.151 407.132 223.496 407.489 223.496 408.203V408.56C223.78 408.084 224.159 407.721 224.635 407.472C225.123 407.223 225.667 407.098 226.267 407.098C228.228 407.098 229.208 408.237 229.208 410.515V414.629C229.208 415.354 228.857 415.717 228.154 415.717C227.44 415.717 227.083 415.354 227.083 414.629V410.617C227.083 409.971 226.959 409.501 226.709 409.206C226.471 408.911 226.097 408.764 225.587 408.764C224.964 408.764 224.465 408.962 224.091 409.359C223.729 409.744 223.547 410.26 223.547 410.906V414.629C223.547 415.354 223.19 415.717 222.476 415.717ZM235.464 415.751C234.523 415.751 233.713 415.575 233.033 415.224C232.353 414.873 231.826 414.374 231.452 413.728C231.089 413.082 230.908 412.317 230.908 411.433C230.908 410.572 231.083 409.818 231.435 409.172C231.797 408.526 232.29 408.022 232.914 407.659C233.548 407.285 234.268 407.098 235.073 407.098C236.251 407.098 237.181 407.472 237.861 408.22C238.552 408.968 238.898 409.988 238.898 411.28C238.898 411.699 238.626 411.909 238.082 411.909H232.948C233.106 413.394 233.956 414.136 235.498 414.136C235.792 414.136 236.121 414.102 236.484 414.034C236.858 413.955 237.209 413.824 237.538 413.643C237.832 413.473 238.082 413.422 238.286 413.49C238.49 413.547 238.631 413.666 238.711 413.847C238.801 414.028 238.813 414.232 238.745 414.459C238.688 414.674 238.529 414.861 238.269 415.02C237.872 415.269 237.413 415.456 236.892 415.581C236.382 415.694 235.906 415.751 235.464 415.751ZM235.158 408.543C234.534 408.543 234.03 408.736 233.645 409.121C233.259 409.506 233.027 410.028 232.948 410.685H237.13C237.084 409.994 236.892 409.467 236.552 409.104C236.223 408.73 235.758 408.543 235.158 408.543ZM243.777 415.751C243.051 415.751 242.411 415.575 241.856 415.224C241.312 414.873 240.887 414.374 240.581 413.728C240.275 413.071 240.122 412.3 240.122 411.416C240.122 410.521 240.275 409.756 240.581 409.121C240.887 408.475 241.312 407.976 241.856 407.625C242.411 407.274 243.051 407.098 243.777 407.098C244.366 407.098 244.899 407.228 245.375 407.489C245.851 407.75 246.208 408.095 246.446 408.526V404.531C246.446 403.817 246.797 403.46 247.5 403.46C248.214 403.46 248.571 403.817 248.571 404.531V414.629C248.571 415.354 248.219 415.717 247.517 415.717C246.814 415.717 246.463 415.354 246.463 414.629V414.272C246.225 414.725 245.868 415.088 245.392 415.36C244.916 415.621 244.377 415.751 243.777 415.751ZM244.372 414.136C245.006 414.136 245.516 413.909 245.902 413.456C246.287 412.991 246.48 412.311 246.48 411.416C246.48 410.509 246.287 409.835 245.902 409.393C245.516 408.94 245.006 408.713 244.372 408.713C243.737 408.713 243.227 408.94 242.842 409.393C242.456 409.835 242.264 410.509 242.264 411.416C242.264 412.311 242.456 412.991 242.842 413.456C243.227 413.909 243.737 414.136 244.372 414.136Z" fill="#EFF7FF"/>
<path d="M209 61L211.887 56L206.113 56L209 61ZM208.5 48L208.5 56.5L209.5 56.5L209.5 48L208.5 48Z" fill="white"/>
<path d="M209 126L211.887 121L206.113 121L209 126ZM208.5 113L208.5 121.5L209.5 121.5L209.5 113L208.5 113Z" fill="white"/>
<path d="M209 191L211.887 186L206.113 186L209 191ZM208.5 178L208.5 186.5L209.5 186.5L209.5 178L208.5 178Z" fill="white"/>
<path d="M209 256L211.887 251L206.113 251L209 256ZM208.5 243L208.5 251.5L209.5 251.5L209.5 243L208.5 243Z" fill="white"/>
<path d="M209 321L211.887 316L206.113 316L209 321ZM208.5 308L208.5 316.5L209.5 316.5L209.5 308L208.5 308Z" fill="white"/>
<path d="M209 386L211.887 381L206.113 381L209 386ZM208.5 373L208.5 381.5L209.5 381.5L209.5 373L208.5 373Z" fill="white"/>
</svg>
