<svg width="120" height="120" viewBox="0 0 120 120" fill="none" xmlns="http://www.w3.org/2000/svg">
<g filter="url(#filter0_d_4143_238917)">
<rect x="20" y="20" width="80" height="80" rx="16" fill="white"/>
</g>
<path d="M66.052 78.5938H53.9605C52.3574 78.5938 51.0586 79.8925 51.0586 81.4957V83.4303H68.954V81.4957C68.954 79.8925 67.6539 78.5938 66.052 78.5938Z" fill="#4D6CD9"/>
<path d="M84.2893 42.9909C83.669 42.0907 82.7055 41.5954 81.577 41.5954H74.0796C74.0796 39.0352 74.0796 37 74.0796 37H59.9981H45.9152C45.9152 37 45.9152 39.0352 45.9152 41.5954H38.4191C37.2906 41.5954 36.3272 42.0907 35.7068 42.9909C35.2386 43.6706 35 44.5373 35 45.5666C35 50.3051 40.3602 59.0071 49.1164 59.0071V58.7105C50.4319 60.4749 52.2389 62.011 54.6791 62.9319V68.4391C54.6791 69.507 55.5445 70.3737 56.6137 70.3737H57.8235V76.6613H62.1765V70.3737H63.3863C64.4555 70.3737 65.3209 69.507 65.3209 68.4391V62.9319C67.7611 62.0097 69.5681 60.4736 70.8836 58.7092V59.0071C79.6398 59.0071 85 50.3038 85 45.5666C84.9961 44.5373 84.7588 43.6706 84.2893 42.9909ZM40.5846 50.1001C39.2072 48.0197 38.837 46.2372 38.8654 45.4634H45.9152C45.9152 46.7673 45.9152 48.0274 45.9152 49.0786C45.9152 50.527 46.217 52.677 47.0541 54.8902C43.5885 54.0751 41.4307 51.3769 40.5846 50.1001ZM63.9705 50.3954L64.9082 55.8627L59.9981 53.2819L55.088 55.8627L56.0269 50.3954L52.0545 46.5236L57.5437 45.7265L59.9981 40.7506L62.4538 45.7252L67.943 46.5223L63.9705 50.3954ZM79.4115 50.1001C78.5654 51.3769 76.4064 54.0751 72.9408 54.8915C73.7765 52.677 74.0796 50.527 74.0796 49.0786C74.0796 48.0287 74.0796 46.7673 74.0796 45.4634H81.1307C81.1604 46.2372 80.7902 48.0197 79.4115 50.1001Z" fill="#4D6CD9"/>
<defs>
<filter id="filter0_d_4143_238917" x="0" y="0" width="120" height="120" filterUnits="userSpaceOnUse" color-interpolation-filters="sRGB">
<feFlood flood-opacity="0" result="BackgroundImageFix"/>
<feColorMatrix in="SourceAlpha" type="matrix" values="0 0 0 0 0 0 0 0 0 0 0 0 0 0 0 0 0 0 127 0" result="hardAlpha"/>
<feOffset/>
<feGaussianBlur stdDeviation="10"/>
<feColorMatrix type="matrix" values="0 0 0 0 0.301961 0 0 0 0 0.423529 0 0 0 0 0.85098 0 0 0 0.16 0"/>
<feBlend mode="normal" in2="BackgroundImageFix" result="effect1_dropShadow_4143_238917"/>
<feBlend mode="normal" in="SourceGraphic" in2="effect1_dropShadow_4143_238917" result="shape"/>
</filter>
</defs>
</svg>
