<svg width="200" height="200" viewBox="0 0 200 200" fill="none" xmlns="http://www.w3.org/2000/svg">
<rect width="200" height="200" rx="16" fill="white"/>
<path fill-rule="evenodd" clip-rule="evenodd" d="M100.296 62.5C115.448 62.5 128.705 68.1818 139.312 76.8939L123.781 87.8788C117.342 83.3333 109.009 80.303 100.296 80.303C70.3722 80.303 50.2964 110.227 60.9025 137.5H41.9631C32.1146 100 60.5237 62.5 100.296 62.5ZM111.66 125.758C111.281 128.03 110.145 130.303 108.251 132.197C103.327 137.121 95.7509 137.121 90.8267 132.197C85.9025 127.273 85.9025 119.697 90.8267 114.773C92.7206 112.879 94.9934 111.742 97.2661 111.364L145.751 76.8939L111.66 125.758ZM103.705 119.318C105.978 121.591 105.978 125.379 103.705 127.652C101.433 129.924 97.6449 129.924 95.3722 127.652C93.0994 125.379 93.0994 121.591 95.3722 119.318C97.6449 117.045 101.433 117.045 103.705 119.318ZM100.675 121.97C99.9176 121.212 98.7813 121.212 98.0237 121.97C97.2661 122.727 97.2661 124.242 98.0237 125C98.7813 125.758 99.9176 125.758 100.675 125C101.433 124.242 101.433 122.727 100.675 121.97ZM146.13 83.7121C157.872 98.1061 163.554 117.803 158.251 137.5H139.312C144.615 124.242 142.342 110.227 135.145 99.2424L146.13 83.7121Z" fill="#4D6CD9"/>
</svg>
