<svg width="81" height="80" viewBox="0 0 81 80" fill="none" xmlns="http://www.w3.org/2000/svg">
<rect x="0.5" width="80" height="80" rx="16" fill="white"/>
<path fill-rule="evenodd" clip-rule="evenodd" d="M40.6186 25C46.6792 25 51.9822 27.2727 56.2246 30.7576L50.0125 35.1515C47.4367 33.3333 44.1034 32.1212 40.6186 32.1212C28.6489 32.1212 20.6186 44.0909 24.861 55H17.2852C13.3458 40 24.7095 25 40.6186 25ZM45.164 50.303C45.0125 51.2121 44.558 52.1212 43.8004 52.8788C41.8307 54.8485 38.8004 54.8485 36.8307 52.8788C34.861 50.9091 34.861 47.8788 36.8307 45.9091C37.5883 45.1515 38.4973 44.697 39.4064 44.5455L58.8004 30.7576L45.164 50.303ZM41.9822 47.7273C42.8913 48.6364 42.8913 50.1515 41.9822 51.0606C41.0731 51.9697 39.558 51.9697 38.6489 51.0606C37.7398 50.1515 37.7398 48.6364 38.6489 47.7273C39.558 46.8182 41.0731 46.8182 41.9822 47.7273ZM40.7701 48.7879C40.467 48.4848 40.0125 48.4848 39.7095 48.7879C39.4064 49.0909 39.4064 49.697 39.7095 50C40.0125 50.303 40.467 50.303 40.7701 50C41.0731 49.697 41.0731 49.0909 40.7701 48.7879ZM58.9519 33.4848C63.6489 39.2424 65.9216 47.1212 63.8004 55H56.2246C58.3458 49.697 57.4367 44.0909 54.5579 39.697L58.9519 33.4848Z" fill="#4D6CD9"/>
</svg>
