<svg width="81" height="80" viewBox="0 0 81 80" fill="none" xmlns="http://www.w3.org/2000/svg">
<rect x="0.5" width="80" height="80" rx="16" fill="white"/>
<path d="M57.2144 26.317L58.5836 24.9477C58.9259 24.6054 58.9259 24.0492 58.5836 23.7068L56.9576 22.0381C56.6153 21.6957 56.059 21.6957 55.7167 22.0381L54.3475 23.4073C53.1922 22.6371 51.8657 22.0808 50.5392 21.8241V19.8558C50.5392 19.3851 50.1541 19 49.6834 19H47.33C46.8593 19 46.4742 19.3851 46.4742 19.8558V21.8241C45.1477 22.0808 43.8641 22.5943 42.6659 23.4073L41.2539 22.0381C40.9116 21.6957 40.3553 21.6957 40.013 22.0381L38.3442 23.7068C38.0019 24.0492 38.0019 24.6054 38.3442 24.9477L39.7135 26.317C38.9433 27.4723 38.387 28.7988 38.1303 30.1253H36.162C35.6913 30.1253 35.3062 30.5104 35.3062 30.981V33.3345C35.3062 33.8051 35.6913 34.1903 36.162 34.1903H38.1303C38.387 35.5167 38.9005 36.8004 39.7135 37.9985L38.3442 39.3678C38.0019 39.7101 38.0019 40.2664 38.3442 40.6087L40.013 42.2775C40.3553 42.6198 40.9116 42.6198 41.2539 42.2775L42.6232 40.9082C43.7785 41.6784 45.1049 42.2347 46.4314 42.4914V44.4597C46.4314 44.9304 46.8165 45.3155 47.2872 45.3155H49.6406C50.1113 45.3155 50.4964 44.9304 50.4964 44.4597V42.4914C51.8229 42.2347 53.1066 41.7212 54.3047 40.9082L55.6739 42.2775C56.0163 42.6198 56.5725 42.6198 56.9148 42.2775L58.5836 40.6087C58.9259 40.2664 58.9259 39.7101 58.5836 39.3678L57.2144 37.9985C57.9846 36.8432 58.5408 35.5167 58.7976 34.1903H60.7659C61.2366 34.1903 61.6217 33.8051 61.6217 33.3345V30.981C61.6217 30.5104 61.2366 30.1253 60.7659 30.1253H58.7976C58.5408 28.756 58.0274 27.4723 57.2144 26.317ZM53.6628 29.4834L48.956 34.1903L50.2825 35.5167C50.4108 35.6451 50.3253 35.9018 50.1541 35.9018L44.5487 36.4581C44.3775 36.4581 44.2064 36.3297 44.2492 36.1586L44.8054 30.5532C44.8054 30.3392 45.0622 30.2536 45.1905 30.4248L46.517 31.7513L51.2238 27.0444C51.3522 26.916 51.6089 26.916 51.7801 27.0444L53.7056 28.9699C53.834 29.0555 53.834 29.3123 53.6628 29.4834ZM25.1223 60.1634L27.005 60.9337C27.3901 61.1048 27.818 60.8909 27.9892 60.5485L28.631 59.0081C29.8291 59.2649 31.0272 59.2221 32.1397 59.0081L32.7816 60.5485C32.9527 60.9337 33.3806 61.1048 33.7657 60.9337L35.6485 60.1634C36.0336 59.9923 36.2047 59.5644 36.0336 59.1793L35.3917 57.6389C36.3759 56.997 37.2317 56.1412 37.8735 55.1571L39.4139 55.7989C39.7991 55.9701 40.2269 55.7561 40.3981 55.4138L41.1683 53.5311C41.3395 53.146 41.1255 52.7181 40.7832 52.5469L39.2428 51.9051C39.4995 50.707 39.4567 49.5089 39.2428 48.3963L40.7832 47.7545C41.1683 47.5833 41.3395 47.1555 41.1683 46.7703L40.3981 44.8876C40.2269 44.5025 39.7991 44.3314 39.4139 44.5025L37.8735 45.1444C37.2317 44.1602 36.3759 43.3044 35.3917 42.6626L36.0336 41.1221C36.2047 40.737 35.9908 40.3091 35.6485 40.138L33.7657 39.3678C33.3806 39.1966 32.9527 39.4106 32.7816 39.7529L32.1397 41.2933C30.9416 41.0366 29.7435 41.0794 28.631 41.2933L27.9892 39.7529C27.818 39.3678 27.3901 39.1966 27.005 39.3678L25.1223 40.138C24.7372 40.3091 24.566 40.737 24.7372 41.1221L25.379 42.6626C24.3949 43.3044 23.5391 44.1602 22.8972 45.1444L21.314 44.4597C20.9289 44.2886 20.501 44.5025 20.3299 44.8448L19.5596 46.7276C19.3885 47.1127 19.6024 47.5406 19.9875 47.7117L21.528 48.3536C21.2712 49.5517 21.314 50.7498 21.528 51.8623L19.9875 52.5041C19.6024 52.6753 19.4313 53.1032 19.6024 53.4883L20.3726 55.371C20.5438 55.7561 20.9717 55.9273 21.3568 55.7561L22.8972 55.1143C23.5391 56.0984 24.3949 56.9542 25.379 57.5961L24.7372 59.1365C24.566 59.5644 24.7372 59.9923 25.1223 60.1634ZM26.6199 51.6056L29.7863 48.4391L28.5882 47.241C28.4599 47.1127 28.5454 46.8987 28.7166 46.8559L33.8513 46.3425C34.0225 46.3425 34.1508 46.4708 34.1508 46.642L33.6374 51.7767C33.6374 51.9479 33.3806 52.0335 33.2523 51.9051L32.0542 50.707L28.8877 53.8734C28.7594 54.0018 28.5454 54.0018 28.3743 53.8734L26.5771 52.0762C26.4487 51.9907 26.4487 51.7339 26.6199 51.6056Z" fill="#4D6CD9"/>
</svg>
