<svg width="20" height="20" viewBox="0 0 20 20" fill="none" xmlns="http://www.w3.org/2000/svg">
<path d="M19.6 19.5998V12.1724C19.6 8.1925 17.5696 6.34068 14.8624 6.34068C12.6778 6.34068 11.6986 7.59804 11.1532 8.48064V6.64513H7.03722C7.09182 7.86106 7.03722 19.5998 7.03722 19.5998H11.1532V12.3651C11.1532 11.979 11.1796 11.5917 11.2888 11.3155C11.5858 10.5415 12.2632 9.74051 13.3996 9.74051C14.8894 9.74051 15.4846 10.9282 15.4846 12.6695V19.6004H19.6V19.5998ZM2.70102 4.87679C4.13562 4.87679 5.03022 3.8812 5.03022 2.63765C5.00382 1.36711 4.13622 0.400391 2.72862 0.400391C1.32102 0.400391 0.400024 1.36648 0.400024 2.63765C0.400024 3.8812 1.29342 4.87679 2.67522 4.87679H2.70102ZM4.75902 19.5998V6.64513H0.643624V19.5998H4.75902Z" fill="#4D6CD9"/>
</svg>
