<svg width="24" height="24" viewBox="0 0 24 24" fill="none" xmlns="http://www.w3.org/2000/svg">
<path d="M18.0001 4.48003C16.4088 2.88873 14.2505 1.99475 12.0001 1.99475C9.74961 1.99475 7.59135 2.88873 6.00005 4.48003C4.40875 6.07133 3.51477 8.2296 3.51477 10.48C3.51477 12.7305 4.40875 14.8887 6.00005 16.48L11.2701 21.76C11.363 21.8538 11.4736 21.9282 11.5955 21.9789C11.7173 22.0297 11.848 22.0558 11.9801 22.0558C12.1121 22.0558 12.2428 22.0297 12.3646 21.9789C12.4865 21.9282 12.5971 21.8538 12.6901 21.76L18.0001 16.43C19.5847 14.8454 20.4749 12.6961 20.4749 10.455C20.4749 8.21398 19.5847 6.06471 18.0001 4.48003ZM16.5701 15L12.0001 19.59L7.43005 15C6.5272 14.0963 5.91253 12.9453 5.66375 11.6923C5.41497 10.4394 5.54324 9.14078 6.03236 7.96071C6.52147 6.78065 7.34947 5.77208 8.41168 5.06251C9.4739 4.35294 10.7226 3.97421 12.0001 3.97421C13.2775 3.97421 14.5262 4.35294 15.5884 5.06251C16.6506 5.77208 17.4786 6.78065 17.9677 7.96071C18.4569 9.14078 18.5851 10.4394 18.3364 11.6923C18.0876 12.9453 17.4729 14.0963 16.5701 15ZM9.00005 7.41003C8.19277 8.2198 7.73945 9.3166 7.73945 10.46C7.73945 11.6035 8.19277 12.7003 9.00005 13.51C9.59981 14.1108 10.3636 14.5211 11.1957 14.6894C12.0278 14.8578 12.891 14.7766 13.6771 14.4562C14.4632 14.1358 15.1372 13.5903 15.6145 12.8883C16.0918 12.1863 16.3512 11.3589 16.3601 10.51C16.3646 9.94324 16.2554 9.38129 16.039 8.85742C15.8225 8.33355 15.5033 7.85839 15.1001 7.46003C14.7037 7.05461 14.2311 6.73157 13.7095 6.5095C13.1878 6.28743 12.6274 6.17071 12.0605 6.16606C11.4935 6.16141 10.9313 6.26893 10.406 6.48242C9.8808 6.69591 9.40297 7.01116 9.00005 7.41003ZM13.6901 12.09C13.3111 12.4748 12.8103 12.7159 12.2732 12.7723C11.7361 12.8286 11.1961 12.6967 10.7456 12.399C10.295 12.1012 9.96185 11.6563 9.80306 11.1401C9.64427 10.624 9.6697 10.0687 9.87501 9.56919C10.0803 9.06971 10.4528 8.65705 10.9286 8.40177C11.4045 8.14649 11.9543 8.06444 12.484 8.16965C13.0137 8.27486 13.4904 8.56079 13.8326 8.97856C14.1748 9.39634 14.3612 9.92 14.3601 10.46C14.3455 11.0773 14.0865 11.6636 13.6401 12.09H13.6901Z" fill="#4D6CD9"/>
</svg>
