<svg width="21" height="20" viewBox="0 0 21 20" fill="none" xmlns="http://www.w3.org/2000/svg">
<rect x="0.333252" width="20" height="20" rx="5" fill="#00C15D"/>
<rect x="4.33325" y="4" width="12" height="12" rx="5" fill="white"/>
<path d="M14.6733 0C18.0633 0 20.3333 2.38 20.3333 5.92V14.091C20.3333 17.62 18.0633 20 14.6733 20H6.00325C2.61325 20 0.333252 17.62 0.333252 14.091V5.92C0.333252 2.38 2.61325 0 6.00325 0H14.6733ZM14.5133 7C14.1733 6.66 13.6133 6.66 13.2733 7L9.14325 11.13L7.39325 9.38C7.05325 9.04 6.49325 9.04 6.15325 9.38C5.81325 9.72 5.81325 10.27 6.15325 10.62L8.53325 12.99C8.70325 13.16 8.92325 13.24 9.14325 13.24C9.37325 13.24 9.59325 13.16 9.76325 12.99L14.5133 8.24C14.8533 7.9 14.8533 7.35 14.5133 7Z" fill="#00C15D"/>
</svg>
