<svg width="20" height="29" viewBox="0 0 20 29" fill="none" xmlns="http://www.w3.org/2000/svg">
<path d="M4.4444 15.5552L15.5552 15.5552L15.5552 28.8881L9.99979 24.1663L4.4444 28.8881L4.4444 15.5552Z" fill="#4D6CD9"/>
<path d="M19.7497 9.99998C19.7497 15.3847 15.3846 19.7498 9.99986 19.7498C4.61516 19.7498 0.25 15.3847 0.25 9.99998C0.25 4.61528 4.61516 0.250122 9.99986 0.250122C15.3846 0.250122 19.7497 4.61528 19.7497 9.99998Z" fill="#4D6CD9" stroke="white" stroke-width="0.5"/>
<path d="M10.0092 15.9085C13.2725 15.9085 15.9007 13.2631 15.8795 9.99978C15.8583 6.7365 13.1956 4.09109 9.93225 4.09109C6.6689 4.09109 4.04065 6.7365 4.06189 9.99978C4.08313 13.2631 6.74581 15.9085 10.0092 15.9085Z" fill="#FBFBFB"/>
</svg>
