<svg width="100" height="96" viewBox="0 0 100 96" fill="none" xmlns="http://www.w3.org/2000/svg">
<path d="M56.4098 74.2493L56.8825 71.001L59.9593 69.8529L57.0135 68.4015L56.8749 65.1178L54.5833 67.4696L51.4164 66.5903L52.9488 69.4984L51.1328 72.2365L54.369 71.6766L56.4098 74.2493Z" fill="#1749C7"/>
<path d="M47.153 74.2973L47.497 71.9281L49.7405 71.0922L47.5926 70.0343L47.4934 67.6439L45.8221 69.3585L43.5173 68.7167L44.6316 70.8338L43.3069 72.8295L45.6678 72.4247L47.153 74.2973Z" fill="#1749C7"/>
<path d="M64.7123 69.5702L65.0563 67.2011L67.2998 66.3651L65.1519 65.3073L65.0527 62.9168L63.3815 64.6315L61.0766 63.9896L62.1909 66.1068L60.8705 68.0989L63.2275 67.6937L64.7123 69.5702Z" fill="#1749C7"/>
<path d="M44.7153 24.7258L42.6706 22.1528L42.2018 25.4014L39.125 26.5495L42.0708 28.0009L42.2094 31.2846L44.501 28.9328L47.664 29.8118L46.1355 26.904L47.9515 24.1659L44.7153 24.7258Z" fill="#1749C7"/>
<path d="M53.4166 23.9775L51.9315 22.1049L51.5875 24.474L49.3443 25.3061L51.488 26.3675L51.5911 28.7583L53.2584 27.0433L55.5675 27.6815L54.4529 25.5683L55.7737 23.5723L53.4166 23.9775Z" fill="#1749C7"/>
<path d="M35.8575 28.706L34.3681 26.837L34.0283 29.2025L31.7852 30.0346L33.9289 31.096L34.0319 33.4868L35.7032 31.7722L38.0041 32.4136L36.8899 30.2965L38.2145 28.3008L35.8575 28.706Z" fill="#1749C7"/>
<path d="M17.0714 49.0993L20.779 62.9362L18.2222 63.6213L15.7191 54.2799L17.2008 63.895L15.3874 64.3809L11.8647 55.5417L14.3104 64.6694L11.7536 65.3545L8.046 51.5176L11.8327 50.503C12.1667 51.3051 12.5474 52.2534 12.9748 53.3481L14.3213 56.7613L13.257 50.1214L17.0714 49.0993Z" fill="#1749C7"/>
<path d="M27.1006 55.0958C27.4731 56.4861 27.7094 57.4792 27.8095 58.0753C27.9128 58.6644 27.8873 59.2361 27.7329 59.7905C27.5833 60.3435 27.3042 60.8122 26.8958 61.1964C26.4874 61.5807 25.966 61.8578 25.3314 62.0278C24.7292 62.1892 24.1552 62.2147 23.6094 62.1045C23.0666 61.9873 22.5845 61.7257 22.1629 61.3196C21.7413 60.9135 21.4264 60.433 21.2181 59.8781C21.0099 59.3232 20.7149 58.3336 20.3332 56.9091L19.6989 54.5417C19.3264 53.1515 19.0885 52.1618 18.9852 51.5727C18.8851 50.9766 18.9099 50.4021 19.0596 49.849C19.2139 49.2947 19.4952 48.8254 19.9036 48.4412C20.312 48.0569 20.8335 47.7798 21.4681 47.6098C22.0702 47.4484 22.6427 47.4263 23.1854 47.5435C23.7313 47.6537 24.215 47.9119 24.6366 48.318C25.0582 48.7241 25.3731 49.2046 25.5813 49.7595C25.7896 50.3144 26.0845 51.304 26.4662 52.7284L27.1006 55.0958ZM22.9572 51.3328C22.7846 50.689 22.6446 50.2868 22.5371 50.1263C22.4326 49.9589 22.2901 49.8994 22.1094 49.9478C21.9566 49.9888 21.8583 50.0945 21.8146 50.265C21.7741 50.4285 21.8492 50.8664 22.04 51.5786L23.7713 58.0398C23.9866 58.8432 24.1449 59.3321 24.2462 59.5064C24.3522 59.6796 24.5024 59.7401 24.697 59.6879C24.8961 59.6346 24.9945 59.4922 24.9921 59.2608C24.9896 59.0294 24.8793 58.5063 24.661 57.6915L22.9572 51.3328Z" fill="#1749C7"/>
<path d="M33.3471 49.2267L30.6304 49.9546L30.3556 48.9291C30.2274 48.4505 30.111 48.1549 30.0064 48.0425C29.9018 47.9301 29.7684 47.8956 29.6063 47.939C29.4303 47.9862 29.3196 48.1105 29.2743 48.3119C29.2336 48.5121 29.2614 48.7917 29.3576 49.1507C29.4812 49.6122 29.6253 49.9461 29.7898 50.1524C29.9497 50.36 30.3009 50.5681 30.8433 50.777C32.3999 51.3797 33.4289 51.9406 33.9304 52.4597C34.4319 52.9788 34.8643 53.9163 35.2277 55.2724C35.4918 56.2581 35.5915 57.01 35.5268 57.5281C35.4667 58.0449 35.2107 58.5349 34.7589 58.9979C34.3056 59.4553 33.7222 59.7795 33.0089 59.9706C32.2261 60.1804 31.5079 60.1774 30.8544 59.9617C30.2055 59.7447 29.7197 59.3772 29.3972 58.859C29.0747 58.3409 28.7745 57.5633 28.4966 56.5263L28.2539 55.6204L30.9705 54.8925L31.4217 56.5761C31.5606 57.0946 31.687 57.418 31.8008 57.5463C31.9192 57.6733 32.0757 57.7108 32.2703 57.6587C32.4648 57.6065 32.5832 57.4741 32.6255 57.2612C32.6723 57.0471 32.6462 56.7549 32.5469 56.3845C32.3286 55.5698 32.0956 55.0612 31.8477 54.8589C31.5953 54.6579 31.0268 54.3614 30.1423 53.9694C29.2563 53.5716 28.6594 53.2706 28.3514 53.0661C28.0434 52.8616 27.7473 52.544 27.4631 52.1132C27.1835 51.6813 26.9452 51.0978 26.7483 50.3628C26.4643 49.303 26.3656 48.499 26.452 47.9506C26.543 47.4011 26.7974 46.9237 27.2151 46.5187C27.6313 46.1079 28.1868 45.8095 28.8816 45.6233C29.6412 45.4198 30.3278 45.3976 30.9414 45.5569C31.5596 45.7149 32.0163 46.0017 32.3113 46.4173C32.6095 46.8259 32.9059 47.5801 33.2005 48.6797L33.3471 49.2267Z" fill="#1749C7"/>
<path d="M39.2841 43.1474L40.0261 45.9165L38.2891 46.3819L41.2547 57.4497L38.3296 58.2335L35.364 47.1657L33.634 47.6293L32.892 44.8602L39.2841 43.1474Z" fill="#1749C7"/>
<path d="M53.4719 39.3458L55.8802 53.5308L52.2256 54.5101C51.3226 52.4742 50.3812 50.1372 49.4012 47.499C49.5953 48.6867 49.9717 51.1751 50.5303 54.9644L46.8965 55.938L41.8827 42.4511L44.7244 41.6897L46.317 46.4385L47.8708 51.0144C47.3316 48.5757 46.7529 45.3415 46.1348 41.3118L49.178 40.4963C49.3281 40.8897 49.8423 42.3824 50.7205 44.9746L52.4485 50.1451C51.7145 46.7571 51.1084 43.4111 50.6302 40.1072L53.4719 39.3458Z" fill="#1749C7"/>
<path d="M59.1067 37.836L64.4888 51.2242L61.4942 52.0266L60.6819 49.5786L59.6327 49.8597L60.1254 52.3933L57.0961 53.205L54.8754 38.9697L59.1067 37.836ZM59.9413 47.1481C59.3732 45.6209 58.7066 43.7263 57.9416 41.4641C58.3536 44.1873 58.6866 46.1713 58.9407 47.4162L59.9413 47.1481Z" fill="#1749C7"/>
<path d="M67.8125 35.5032L71.5201 49.3401L68.9563 50.0271L65.7492 44.1446L67.4347 50.4348L64.989 51.0902L61.2814 37.2532L63.7271 36.5979L67.0363 42.389L65.3668 36.1586L67.8125 35.5032Z" fill="#1749C7"/>
<path d="M74.8856 33.608L75.6275 36.3771L73.8906 36.8425L76.8562 47.9104L73.9311 48.6941L70.9655 37.6263L69.2354 38.0899L68.4934 35.3208L74.8856 33.608Z" fill="#1749C7"/>
<path d="M75.5526 33.4293L80.4301 32.1224L81.172 34.8915L79.2197 35.4146L79.9227 38.0384L81.75 37.5488L82.4554 40.1811L80.628 40.6708L81.4433 43.7133L83.5902 43.1381L84.3322 45.9072L79.2602 47.2662L75.5526 33.4293Z" fill="#1749C7"/>
<path d="M81.4723 31.8431L83.6609 31.2567C85.0736 30.8781 86.0492 30.7022 86.5876 30.729C87.1306 30.7545 87.5806 30.9148 87.9377 31.2099C88.2948 31.5051 88.5661 31.869 88.7516 32.3018C88.9355 32.7288 89.203 33.5976 89.5542 34.9081L90.8526 39.754C91.1854 40.9961 91.3597 41.841 91.3754 42.2887C91.3942 42.7294 91.3176 43.1011 91.1455 43.4037C90.9718 43.7006 90.7243 43.944 90.4028 44.134C90.0799 44.3182 89.5687 44.5041 88.8692 44.6915L85.1798 45.68L81.4723 31.8431ZM85.0317 33.4268L87.4706 42.5289C87.8921 42.4159 88.124 42.2438 88.1663 42.0127C88.2071 41.7758 88.1039 41.1958 87.8565 40.2728L86.4161 34.897C86.2482 34.2703 86.1243 33.8729 86.0446 33.705C85.9648 33.537 85.8563 33.4287 85.7192 33.38C85.5805 33.3255 85.3513 33.3411 85.0317 33.4268Z" fill="#1749C7"/>
<path fill-rule="evenodd" clip-rule="evenodd" d="M81.6557 26.6532C72.8284 13.3029 56.1547 6.44294 39.8444 10.8133C23.5341 15.1836 12.5242 29.4613 11.5547 45.4367L12.5749 45.1633C13.6512 29.741 24.3331 16.0048 40.1032 11.7792C55.8733 7.55361 71.9922 14.1086 80.6355 26.9265L81.6557 26.6532ZM78.8609 27.4021C70.542 15.5056 55.3848 9.47725 40.5514 13.4519C25.718 17.4265 15.6057 30.2258 14.3495 44.6878L16.4137 44.1347C17.8686 30.7864 27.3196 19.0679 41.069 15.3837C54.8185 11.6996 68.8626 17.1226 76.7967 27.9551L78.8609 27.4021ZM83.1676 50.3938L85.2104 49.8464C84.3381 64.7092 74.1062 78.0027 58.9369 82.0673C43.7675 86.1319 28.2597 79.7354 20.0729 67.3L22.1157 66.7526C29.9326 78.1234 44.3306 83.9105 58.4192 80.1355C72.5078 76.3604 82.0833 64.1497 83.1676 50.3938ZM18.3146 67.7711C26.8141 81.1285 43.2815 88.0549 59.385 83.74C75.4886 79.425 86.2866 65.1929 86.9687 49.3753L87.9803 49.1042C87.4103 65.4721 76.2864 80.2465 59.6439 84.7059C43.0014 89.1652 25.9805 81.9321 17.303 68.0421L18.3146 67.7711Z" fill="#1749C7"/>
</svg>
