<svg width="81" height="80" viewBox="0 0 81 80" fill="none" xmlns="http://www.w3.org/2000/svg">
<rect x="0.5" width="80" height="80" rx="16" fill="white"/>
<path d="M40.487 26.8721C33.2296 26.8721 27.3921 32.7622 27.3921 39.967C27.3921 47.1718 33.2296 53.0619 40.487 53.0619C47.7444 53.0619 53.5819 47.2244 53.5819 39.967C53.5819 32.7096 47.7444 26.8721 40.487 26.8721ZM46.6926 37.9686L40.1189 44.5423C39.8033 44.8579 39.33 45.0682 38.8567 45.0682C38.3834 45.0682 37.9101 44.8579 37.5946 44.5423L34.334 41.2817C33.6503 40.5981 33.6503 39.4411 34.334 38.7048C35.0176 37.9686 36.1746 38.0212 36.9109 38.7048L38.9093 40.7033L44.1683 35.4443C44.852 34.7606 46.009 34.7606 46.7452 35.4443C47.4815 36.1279 47.3763 37.2849 46.6926 37.9686Z" fill="#4D6CD9"/>
<path d="M23.1849 25.1893H21.2391C20.2399 25.1893 19.451 25.9782 19.451 26.9774C19.451 27.9766 20.2399 28.7654 21.2391 28.7654H27.5499C28.5491 28.7654 29.3379 27.9766 29.3379 26.9774V20.6666C29.3379 19.6674 28.5491 18.8785 27.5499 18.8785C26.5507 18.8785 25.7618 19.6674 25.7618 20.6666V22.6124L18.6096 15.5128C17.8733 14.8291 16.7689 14.8291 16.0327 15.5128C15.2964 16.1964 15.349 17.3534 16.0327 18.0897L23.1849 25.1893Z" fill="#4D6CD9"/>
<path d="M57.7893 54.7451H59.7351C60.7343 54.7451 61.5232 53.9562 61.5232 52.957C61.5232 51.9578 60.7343 51.1689 59.7351 51.1689H53.4243C52.4251 51.1689 51.6362 51.9578 51.6362 52.957V59.2678C51.6362 60.267 52.4251 61.0559 53.4243 61.0559C54.4235 61.0559 55.2124 60.267 55.2124 59.2678V57.322L62.3646 64.4742C62.7327 64.8424 63.206 65.0001 63.6268 65.0001C64.0475 65.0001 64.5734 64.8424 64.8889 64.4742C65.5726 63.7906 65.5726 62.6336 64.8889 61.8973L57.7893 54.7451Z" fill="#4D6CD9"/>
<path d="M53.4242 28.818H59.735C60.7343 28.818 61.5231 28.0292 61.5231 27.03C61.5231 26.0308 60.7343 25.2419 59.735 25.2419H57.7892L64.9415 18.0897C65.6251 17.406 65.6251 16.249 64.9415 15.5128C64.2578 14.8291 63.1008 14.8291 62.3645 15.5128L55.2649 22.665V20.7192C55.2649 19.72 54.476 18.9311 53.4768 18.9311C52.4776 18.9311 51.6888 19.72 51.6888 20.7192V27.03C51.6362 28.0292 52.425 28.818 53.4242 28.818Z" fill="#4D6CD9"/>
<path d="M27.55 51.1162H21.2392C20.24 51.1162 19.4511 51.9051 19.4511 52.9043C19.4511 53.9035 20.24 54.6923 21.2392 54.6923H23.185L16.0328 61.8446C15.3491 62.5283 15.3491 63.6852 16.0328 64.4215C16.4009 64.7896 16.8742 64.9474 17.2949 64.9474C17.7157 64.9474 18.2416 64.7896 18.5571 64.4215L25.7093 57.2693V59.2151C25.7093 60.2143 26.4982 61.0031 27.4974 61.0031C28.4966 61.0031 29.2855 60.2143 29.2855 59.2151V52.9043C29.3381 51.9051 28.5492 51.1162 27.55 51.1162Z" fill="#4D6CD9"/>
</svg>
