<svg width="120" height="120" viewBox="0 0 120 120" fill="none" xmlns="http://www.w3.org/2000/svg">
<g filter="url(#filter0_d_4771_18941)">
<rect x="20" y="20" width="80" height="80" rx="16" fill="white"/>
</g>
<path d="M36.5106 71.771H32.7506C31.7838 71.771 31 70.9872 31 70.0204V48.2977C31 47.3309 31.7838 46.5471 32.7506 46.5471H36.5106C37.4774 46.5471 38.2612 47.3309 38.2612 48.2977V70.0205C38.2612 70.9873 37.4774 71.771 36.5106 71.771Z" fill="#4D6CD9"/>
<path d="M84.0094 71.7368H87.7694C88.7362 71.7368 89.52 70.9531 89.52 69.9862V48.2636C89.52 47.2967 88.7362 46.5129 87.7694 46.5129H84.0094C83.0426 46.5129 82.2588 47.2967 82.2588 48.2636V69.9864C82.2588 70.9531 83.0426 71.7368 84.0094 71.7368Z" fill="#4D6CD9"/>
<path d="M69.9861 49.5432L67.2789 47.1474C65.0452 44.5514 60.976 44.2668 58.4011 46.525L50.2459 53.6766C48.8567 54.8947 48.7269 57.1118 49.973 58.4824C51.1979 59.8297 53.3167 59.958 54.6988 58.7662L61.8038 52.5702C62.2495 52.1817 62.9186 52.212 63.3274 52.6391L78.6053 68.5865H79.56V49.5432H69.9861Z" fill="#4D6CD9"/>
<path d="M73.0731 67.6226L61.751 55.7668L56.3941 60.6348C54.0215 62.8041 50.3388 62.6361 48.1736 60.2599C46.0134 57.8893 46.181 54.2172 48.548 52.0531L54.3624 46.7371C51.1005 45.0333 46.9698 46.0144 44.8707 49.1931H41.0853V69.4255H44.4055L49.7865 74.9265C50.6741 75.9106 52.1209 76.1574 53.2845 75.5232C54.8312 74.6803 55.24 72.675 54.212 71.2989L57.0195 74.4364C57.8039 75.3131 59.0608 75.5905 60.1414 75.1253L60.2108 75.0954C61.9985 74.326 62.5108 72.0463 61.2294 70.5948C59.3629 68.4802 57.6459 66.4639 57.6459 66.4639L63.0388 72.5448C63.9224 73.5321 65.3627 73.7952 66.5382 73.184L66.6087 73.1473C68.3766 72.228 68.5371 69.7696 67.1964 68.3115C64.623 65.513 61.8319 62.2779 61.8319 62.2779C61.8319 62.2779 66.7541 67.5625 69.3261 70.3087C70.1313 71.1685 71.3829 71.4436 72.4744 71.0008L72.5487 70.9707C74.0058 70.0634 73.7056 68.6292 73.0731 67.6226Z" fill="#4D6CD9"/>
<defs>
<filter id="filter0_d_4771_18941" x="0" y="0" width="120" height="120" filterUnits="userSpaceOnUse" color-interpolation-filters="sRGB">
<feFlood flood-opacity="0" result="BackgroundImageFix"/>
<feColorMatrix in="SourceAlpha" type="matrix" values="0 0 0 0 0 0 0 0 0 0 0 0 0 0 0 0 0 0 127 0" result="hardAlpha"/>
<feOffset/>
<feGaussianBlur stdDeviation="10"/>
<feColorMatrix type="matrix" values="0 0 0 0 0.301961 0 0 0 0 0.423529 0 0 0 0 0.85098 0 0 0 0.16 0"/>
<feBlend mode="normal" in2="BackgroundImageFix" result="effect1_dropShadow_4771_18941"/>
<feBlend mode="normal" in="SourceGraphic" in2="effect1_dropShadow_4771_18941" result="shape"/>
</filter>
</defs>
</svg>
