<svg width="80" height="81" viewBox="0 0 80 81" fill="none" xmlns="http://www.w3.org/2000/svg">
<path d="M16.5106 52.2708H12.7506C11.7838 52.2708 11 51.487 11 50.5202V28.7975C11 27.8307 11.7838 27.0469 12.7506 27.0469H16.5106C17.4774 27.0469 18.2612 27.8307 18.2612 28.7975V50.5203C18.2612 51.487 17.4774 52.2708 16.5106 52.2708Z" fill="white"/>
<path d="M64.0084 52.2356H67.7684C68.7352 52.2356 69.519 51.4519 69.519 50.485V28.7623C69.519 27.7955 68.7352 27.0117 67.7684 27.0117H64.0084C63.0416 27.0117 62.2578 27.7955 62.2578 28.7623V50.4851C62.2578 51.4518 63.0416 52.2356 64.0084 52.2356Z" fill="white"/>
<path d="M49.9858 30.0432L47.2786 27.6474C45.045 25.0514 40.9758 24.7668 38.4009 27.025L30.2456 34.1766C28.8565 35.3947 28.7267 37.6118 29.9728 38.9824C31.1977 40.3297 33.3164 40.458 34.6986 39.2662L41.8036 33.0702C42.2492 32.6817 42.9183 32.712 43.3271 33.1391L58.605 49.0865H59.5597V30.0432H49.9858Z" fill="white"/>
<path d="M53.0737 48.1229L41.7516 36.2671L36.3947 41.135C34.0221 43.3043 30.3395 43.1364 28.1742 40.7602C26.0141 38.3896 26.1816 34.7174 28.5486 32.5534L34.363 27.2374C31.1011 25.5335 26.9704 26.5146 24.8713 29.6934H21.0859V49.9258H24.4061L29.7871 55.4267C30.6747 56.4108 32.1215 56.6576 33.2851 56.0234C34.8318 55.1805 35.2406 53.1753 34.2126 51.7992L37.0201 54.9367C37.8045 55.8134 39.0614 56.0907 40.142 55.6255L40.2114 55.5956C41.9991 54.8263 42.5114 52.5466 41.2301 51.0951C39.3635 48.9804 37.6465 46.9641 37.6465 46.9641L43.0394 53.045C43.923 54.0323 45.3633 54.2954 46.5388 53.6842L46.6093 53.6476C48.3772 52.7283 48.5378 50.2699 47.197 48.8117C44.6236 46.0133 41.8325 42.7781 41.8325 42.7781C41.8325 42.7781 46.7548 48.0627 49.3267 50.809C50.132 51.6688 51.3835 51.9439 52.475 51.5011L52.5493 51.4709C54.0064 50.5636 53.7062 49.1295 53.0737 48.1229Z" fill="white"/>
</svg>
