<svg width="56" height="45" viewBox="0 0 56 45" fill="none" xmlns="http://www.w3.org/2000/svg">
<path d="M29.518 23.2681H26.4851V30.8411L19.9302 34.6251L21.4464 37.2523L28.0019 33.4683L34.5567 37.2523L36.0735 34.6251L29.518 30.8411V23.2681Z" fill="#4D6CD9"/>
<path d="M32.9367 12.4382C33.975 12.5543 34.8855 12.7334 34.8855 12.7334C32.8145 11.5942 32.8676 7.50644 32.8676 7.50644C33.23 -0.41062 28.0049 0.00371995 28.0049 0.00371995L28.0013 0.0159421L27.997 0.00371995C27.997 0.00371995 22.7719 -0.41062 23.1343 7.50706C23.1343 7.50706 23.1875 11.5948 21.1158 12.734C21.1158 12.734 21.6737 12.6961 22.4193 12.682C20.3067 13.6256 18.8345 15.745 18.8345 18.2084C18.8345 21.5506 21.543 20.9596 24.8852 20.9596H31.1168C34.459 20.9596 37.1675 21.55 37.1675 18.2084C37.1681 15.5011 35.3891 13.2106 32.9367 12.4382ZM29.4007 14.0247L28.0013 16.2992L26.6012 14.0247C25.5843 13.7943 24.7984 13.3194 24.4818 12.734C25.3026 12.8055 25.998 12.9558 26.1777 13.251L25.4065 11.5313C26.1447 12.2689 27.0382 12.7016 28.0007 12.7016C28.9412 12.7016 29.8157 12.2885 30.5442 11.582L30.0064 12.7016C30.1866 12.4052 30.8638 12.3245 31.6582 12.3447C31.5323 13.1055 30.6364 13.7448 29.4007 14.0247ZM32.0194 6.73827C31.9406 7.78573 31.6741 8.7513 31.2702 9.56164C30.535 11.0351 29.3445 11.9927 28.0001 11.9927C25.9522 11.9927 24.2594 9.76698 23.9936 6.88188C23.9936 6.88188 25.6112 6.61421 26.5768 6.23226C26.5768 6.23226 28.327 5.64803 30.4635 4.10862C30.4745 4.10067 30.4843 4.09395 30.4959 4.086C30.4959 4.086 30.5344 4.14101 30.5888 4.23512C30.7739 4.5529 31.1712 5.50014 30.4201 5.93403L31.7878 6.1082H31.8128L32.0634 6.15465C32.0622 6.35204 32.0475 6.5476 32.0194 6.73827Z" fill="#4D6CD9"/>
<path d="M14.6028 35.6907C15.6411 35.8069 16.5517 35.9859 16.5517 35.9859C14.4806 34.8474 14.5338 30.759 14.5338 30.759C14.8955 22.8413 9.67047 23.2557 9.67047 23.2557L9.6668 23.2679L9.66253 23.2557C9.66253 23.2557 4.43745 22.8413 4.79923 30.759C4.79923 30.759 4.8524 34.8468 2.78131 35.9859C2.78131 35.9859 3.33926 35.9474 4.08483 35.934C1.9728 36.8782 0.5 38.9969 0.5 41.4616C0.5 44.8032 3.2091 44.2122 6.55131 44.2122H12.7829C16.1251 44.2122 18.8336 44.8032 18.8336 41.4616C18.8336 38.7543 17.0546 36.4638 14.6028 35.6907ZM11.0663 37.2772L9.6668 39.5524L8.26673 37.2772C7.24982 37.0468 6.46392 36.572 6.14736 35.9865C6.9681 36.058 7.66355 36.2084 7.84322 36.5035L7.07199 34.7845C7.81022 35.5221 8.70368 35.9548 9.6668 35.9548C10.6067 35.9548 11.4812 35.5416 12.2103 34.8352L11.6725 35.9548C11.8522 35.6584 12.5299 35.5777 13.3244 35.5979C13.1979 36.3581 12.302 36.9973 11.0663 37.2772ZM13.6849 29.9908C13.6067 31.0389 13.3396 32.0045 12.9357 32.8142C12.2005 34.2876 11.01 35.2452 9.66619 35.2452C7.61772 35.2452 5.92553 33.0195 5.65969 30.1344C5.65969 30.1344 7.27732 29.8668 8.24289 29.4848C8.24289 29.4848 9.99314 28.9006 12.1296 27.3612C12.14 27.3532 12.1504 27.3465 12.1614 27.3386C12.1614 27.3386 12.1993 27.3936 12.2543 27.4877C12.4395 27.8055 12.8367 28.7527 12.0856 29.186L13.4539 29.3602H13.479L13.7295 29.406C13.7277 29.6046 13.7124 29.8002 13.6849 29.9908Z" fill="#4D6CD9"/>
<path d="M51.269 35.6904C52.3073 35.8059 53.2178 35.9855 53.2178 35.9855C51.1467 34.8464 51.1999 30.7586 51.1999 30.7586C51.5623 22.841 46.3366 23.2547 46.3366 23.2547L46.3336 23.2675L46.3293 23.2547C46.3293 23.2547 41.1042 22.841 41.4666 30.7586C41.4666 30.7586 41.5198 34.8458 39.4481 35.9855C39.4481 35.9855 40.006 35.947 40.7516 35.933C38.6389 36.8778 37.1667 38.9965 37.1667 41.4612C37.1667 44.8028 39.8758 44.2118 43.2175 44.2118H49.4484C52.7913 44.2118 55.4998 44.8028 55.4998 41.4612C55.5004 38.7539 53.7214 36.4628 51.269 35.6904ZM47.733 37.2768L46.3336 39.552L44.9335 37.2768C43.9172 37.0464 43.1307 36.5716 42.8141 35.9861C43.6342 36.0576 44.3297 36.208 44.5094 36.5032L43.7381 34.7841C44.477 35.5217 45.3704 35.9544 46.3329 35.9544C47.2728 35.9544 48.1474 35.5412 48.8758 34.8348L48.338 35.9544C48.5183 35.658 49.1954 35.5773 49.9899 35.5975C49.8646 36.3577 48.9687 36.9969 47.733 37.2768ZM50.3511 29.9904C50.2728 31.0385 50.0064 32.0035 49.6018 32.8138C48.8673 34.2872 47.6774 35.2449 46.3336 35.2449C44.2851 35.2449 42.5929 33.0192 42.3264 30.1341C42.3264 30.1341 43.9435 29.8664 44.9103 29.4844C44.9103 29.4844 46.6599 28.9002 48.797 27.3608C48.8074 27.3529 48.8178 27.3461 48.8288 27.3382C48.8288 27.3382 48.8673 27.3932 48.921 27.4867C49.1068 27.8051 49.504 28.7523 48.753 29.1856L50.1213 29.3598H50.1463L50.3963 29.4056C50.3945 29.6042 50.3792 29.7998 50.3511 29.9904Z" fill="#4D6CD9"/>
</svg>
