<svg width="100" height="98" viewBox="0 0 100 98" fill="none" xmlns="http://www.w3.org/2000/svg">
<path d="M37.8669 12.7298C38.257 10.5403 41.0237 9.79903 42.4562 11.5001C43.7045 12.9824 46.0738 12.6462 46.8604 10.8751C47.7631 8.84263 50.6268 8.78496 51.6106 10.7795C52.4679 12.5174 54.8488 12.7579 56.0363 11.2266C57.3993 9.46921 60.1935 10.0985 60.6714 12.2705C61.0879 14.1631 63.342 14.9665 64.8616 13.7638C66.6054 12.3837 69.1679 13.6634 69.1121 15.8867C69.0636 17.8239 71.0599 19.1434 72.8231 18.3393C74.8466 17.4166 77.0284 19.2724 76.4422 21.4177C75.9314 23.287 77.554 25.0459 79.4584 24.6872C81.6439 24.2755 83.3181 26.5995 82.2355 28.5422C81.2923 30.235 82.4468 32.3311 84.3816 32.4385C86.6022 32.5619 87.6716 35.219 86.1556 36.8462C84.8346 38.264 85.4539 40.5754 87.3069 41.1428C89.4334 41.794 89.8358 44.6298 87.9744 45.8469C86.3525 46.9074 86.4007 49.2999 88.064 50.2943C89.9729 51.4354 89.685 54.2851 87.5864 55.0214C85.7578 55.6629 85.232 57.9975 86.609 59.361C88.1894 60.9258 87.2278 63.6238 85.014 63.8364C83.0851 64.0217 82.0159 66.1626 83.0266 67.816C84.1865 69.7135 82.6072 72.103 80.4069 71.7797C78.4896 71.498 76.9391 73.3208 77.5248 75.168C78.1969 77.288 76.0916 79.2301 74.0326 78.3896C72.2385 77.6573 70.2969 79.056 70.4234 80.9897C70.5686 83.209 68.0598 84.5908 66.2617 83.282C64.695 82.1415 62.4751 83.035 62.1351 84.9428C61.745 87.1323 58.9784 87.8736 57.5458 86.1725C56.2975 84.6902 53.9283 85.0265 53.1417 86.7975C52.239 88.83 49.3753 88.8877 48.3915 86.8932C47.5342 85.1552 45.1533 84.9147 43.9657 86.446C42.6028 88.2034 39.8086 87.5741 39.3306 85.4021C38.9142 83.5095 36.6601 82.7062 35.1405 83.9088C33.3966 85.289 30.8342 84.0093 30.8899 81.786C30.9385 79.8487 28.9421 78.5293 27.1789 79.3333C25.1554 80.256 22.9737 78.4003 23.5599 76.2549C24.0707 74.3856 22.4481 72.6267 20.5437 72.9854C18.3582 73.3971 16.684 71.0731 17.7665 69.1304C18.7098 67.4376 17.5553 65.3416 15.6204 65.2341C13.3999 65.1108 12.3305 62.4537 13.8465 60.8265C15.1675 59.4086 14.5482 57.0972 12.6952 56.5298C10.5687 55.8786 10.1663 53.0428 12.0277 51.8257C13.6496 50.7652 13.6014 48.3727 11.9381 47.3784C10.0292 46.2372 10.3171 43.3875 12.4157 42.6512C14.2443 42.0097 14.77 39.6752 13.393 38.3117C11.8127 36.7469 12.7742 34.0489 14.988 33.8362C16.917 33.6509 17.9862 31.5101 16.9755 29.8566C15.8156 27.9591 17.3949 25.5696 19.5952 25.8929C21.5125 26.1746 23.0629 24.3519 22.4773 22.5046C21.8052 20.3846 23.9104 18.4425 25.9695 19.283C27.7636 20.0154 29.7052 18.6166 29.5787 16.6829C29.4335 14.4637 31.9423 13.0818 33.7403 14.3906C35.3071 15.5311 37.527 14.6377 37.8669 12.7298Z" fill="#1749C7"/>
<path fill-rule="evenodd" clip-rule="evenodd" d="M58.6736 81.2067C76.5514 76.4164 87.1608 58.0402 82.3705 40.1624C77.5802 22.2846 59.204 11.6751 41.3262 16.4655C23.4484 21.2558 12.8389 39.632 17.6292 57.5098C22.4196 75.3876 40.7958 85.9971 58.6736 81.2067ZM56.9388 74.7326C71.2411 70.9003 79.7286 56.1994 75.8964 41.8972C72.0641 27.5949 57.3632 19.1073 43.0609 22.9396C28.7587 26.7719 20.2711 41.4728 24.1034 55.775C27.9356 70.0773 42.6366 78.5649 56.9388 74.7326Z" fill="white"/>
<path d="M81.6646 26.4294L11.3741 45.2637C8.28666 46.091 6.45444 49.2645 7.28172 52.3519L10.999 66.2251C11.8263 69.3125 14.9998 71.1447 18.0872 70.3175L88.3777 51.4832C91.4651 50.6559 93.2974 47.4824 92.4701 44.395L88.7528 30.5218C87.9255 27.4344 84.752 25.6022 81.6646 26.4294Z" fill="#1749C7" stroke="white" stroke-width="2"/>
<path d="M16.5718 49.8638L20.0933 48.9202C21.0456 48.665 21.7967 48.5447 22.3466 48.5593C22.902 48.5724 23.3453 48.6875 23.6765 48.9046C24.0132 49.1202 24.2805 49.4204 24.4786 49.8051C24.6806 50.1827 24.8956 50.7967 25.1235 51.6472L25.4406 52.8306C25.673 53.6978 25.7538 54.3538 25.683 54.7985C25.6123 55.2433 25.3673 55.6357 24.9481 55.9759C24.5344 56.3147 23.9456 56.5864 23.1815 56.7911L22.243 57.0426L23.7092 62.5146L20.2126 63.4515L16.5718 49.8638ZM20.6913 51.2516L21.6178 54.7094C21.7189 54.6883 21.8055 54.6681 21.8775 54.6488C22.1986 54.5628 22.3991 54.4251 22.479 54.2358C22.5628 54.0394 22.5373 53.6895 22.4024 53.1859L22.1033 52.0697C21.9789 51.6053 21.8259 51.3224 21.6445 51.2211C21.463 51.1198 21.1453 51.13 20.6913 51.2516Z" fill="white"/>
<path d="M25.1097 47.576L27.5847 46.9129C29.2347 46.4707 30.3677 46.2361 30.9835 46.209C31.6049 46.1805 32.1696 46.383 32.6774 46.8166C33.1893 47.2431 33.6004 48.0355 33.9108 49.1937C34.1941 50.2512 34.2544 50.9966 34.0916 51.43C33.9288 51.8635 33.4751 52.2189 32.7305 52.4964C33.4691 52.4844 33.9965 52.5919 34.3125 52.8191C34.6285 53.0462 34.8472 53.2755 34.9686 53.5068C35.0939 53.7311 35.3036 54.3916 35.5974 55.4882L36.5576 59.0719L33.3102 59.942L32.1004 55.4268C31.9055 54.6994 31.7266 54.2646 31.5639 54.1223C31.4067 53.9785 31.0872 53.9712 30.6055 54.1002L32.2471 60.2269L28.7506 61.1638L25.1097 47.576ZM29.2292 48.9639L30.0388 51.9853C30.4319 51.8799 30.6918 51.7533 30.8183 51.6055C30.9489 51.4506 30.934 51.0738 30.7736 50.4751L30.5734 49.7281C30.458 49.2973 30.3048 49.0355 30.1137 48.9428C29.9283 48.8486 29.6334 48.8556 29.2292 48.9639Z" fill="white"/>
<path d="M34.2789 45.1192L40.1093 43.5569L40.8379 46.2761L38.5041 46.9015L39.1945 49.478L41.3788 48.8928L42.0714 51.4777L39.8871 52.063L40.6877 55.0508L43.2541 54.3631L43.9827 57.0824L37.9197 58.7069L34.2789 45.1192Z" fill="white"/>
<path d="M52.1438 40.3323L55.7846 53.92L52.7283 54.739L50.2703 45.5658L51.5074 55.0661L49.3397 55.647L45.6506 47.0285L48.0523 55.9919L44.9959 56.8109L41.3551 43.2231L45.8815 42.0102C46.2333 42.7915 46.6324 43.7161 47.0787 44.7838L48.4869 48.1125L47.5841 41.554L52.1438 40.3323Z" fill="white"/>
<path d="M57.044 39.0193L60.6848 52.607L57.1883 53.5439L53.5474 39.9562L57.044 39.0193Z" fill="white"/>
<path d="M66.3959 36.5134L68.8291 45.5943C69.105 46.6238 69.2659 47.3573 69.3119 47.7947C69.3564 48.2266 69.2745 48.7073 69.0663 49.2368C68.8565 49.7608 68.5139 50.2094 68.0382 50.5827C67.5667 50.949 66.9682 51.2293 66.2429 51.4236C65.44 51.6387 64.6953 51.6944 64.0087 51.5905C63.3222 51.4866 62.7689 51.26 62.3489 50.9108C61.929 50.5616 61.6276 50.1566 61.4448 49.6958C61.2605 49.2295 60.9629 48.2298 60.5521 46.6967L58.3978 38.6565L61.8944 37.7196L64.6244 47.9084C64.7833 48.5014 64.9157 48.8737 65.0216 49.0253C65.1315 49.1697 65.2834 49.216 65.4772 49.1641C65.6987 49.1047 65.8159 48.9774 65.8288 48.782C65.8458 48.5796 65.7636 48.1398 65.5821 47.4628L62.8993 37.4503L66.3959 36.5134Z" fill="white"/>
<path d="M78.5384 33.2599L82.1792 46.8476L79.1228 47.6666L76.6649 38.4934L77.9019 47.9937L75.7342 48.5746L72.0452 39.9561L74.4469 48.9195L71.3905 49.7385L67.7497 36.1507L72.2761 34.9378C72.6279 35.7191 73.0269 36.6437 73.4733 37.7114L74.8815 41.0401L73.9787 34.4816L78.5384 33.2599Z" fill="white"/>
<path d="M43.5568 24.79L44.5037 25.7174L45.7852 25.7074L45.2556 26.9127L45.6913 28.1832L44.4171 28.0007L43.4049 28.7958L43.1469 27.4778L42.0857 26.6987L43.2004 26.0666L43.5568 24.79Z" fill="white"/>
<path d="M32.7726 32.6362L33.7195 33.5636L35.001 33.5536L34.4714 34.7589L34.9071 36.0294L33.6329 35.8469L32.6207 36.642L32.3627 35.324L31.3015 34.5449L32.4162 33.9128L32.7726 32.6362Z" fill="white"/>
<path d="M56.8195 26.1933L57.7664 27.1207L59.0479 27.1108L58.5183 28.3161L58.954 29.5865L57.6798 29.404L56.6675 30.1991L56.4096 28.8811L55.3484 28.102L56.4631 27.4699L56.8195 26.1933Z" fill="white"/>
<path d="M56.4432 72.8828L55.4963 71.9555L54.2148 71.9654L54.7444 70.7601L54.3087 69.4897L55.5829 69.6721L56.5951 68.877L56.8531 70.1951L57.9143 70.9741L56.7996 71.6063L56.4432 72.8828Z" fill="white"/>
<path d="M67.2275 65.0367L66.2806 64.1093L64.9991 64.1192L65.5287 62.9139L65.093 61.6435L66.3672 61.826L67.3795 61.0308L67.6374 62.3489L68.6986 63.1279L67.5839 63.7601L67.2275 65.0367Z" fill="white"/>
<path d="M43.1808 71.48L42.2339 70.5526L40.9524 70.5626L41.4819 69.3573L41.0463 68.0868L42.3205 68.2693L43.3327 67.4742L43.5906 68.7923L44.6519 69.5713L43.5371 70.2034L43.1808 71.48Z" fill="white"/>
</svg>
