<svg width="26" height="26" viewBox="0 0 26 26" fill="none" xmlns="http://www.w3.org/2000/svg">
<path d="M26 13.0001C26 15.7189 25.1476 18.3692 23.5628 20.5782C21.978 22.7872 19.7404 24.4438 17.165 25.3149C14.5896 26.1859 11.8059 26.2276 9.20553 25.434C6.60518 24.6405 4.31907 23.0516 2.66881 20.891C1.01856 18.7304 0.0872183 16.1068 0.00582685 13.3893C-0.0755646 10.6718 0.697087 7.99714 2.21508 5.74165C3.73307 3.48616 5.92 1.76335 8.46819 0.815594C11.0164 -0.132159 13.7976 -0.257154 16.4205 0.458194L15.1687 5.04816C13.5057 4.5946 11.7423 4.67386 10.1267 5.27476C8.51106 5.87566 7.12448 6.96798 6.16203 8.39803C5.19958 9.82808 4.70969 11.5239 4.7613 13.2469C4.8129 14.9699 5.4034 16.6333 6.44971 18.0032C7.49602 19.3731 8.94549 20.3805 10.5942 20.8836C12.2429 21.3867 14.0078 21.3603 15.6407 20.808C17.2736 20.2558 18.6923 19.2055 19.6971 17.8049C20.702 16.4043 21.2424 14.7239 21.2424 13.0001H26Z" fill="#4D6CD9"/>
<path d="M17.6824 2.75251C19.3491 3.51408 20.805 4.67072 21.9237 6.12214C23.0424 7.57356 23.7902 9.27595 24.1022 11.0817L21.2878 11.568C21.0549 10.22 20.4967 8.9492 19.6615 7.86571C18.8264 6.78223 17.7397 5.9188 16.4954 5.35028L17.6824 2.75251Z" fill="#4D6CD9"/>
</svg>
