<svg width="66" height="60" viewBox="0 0 66 60" fill="none" xmlns="http://www.w3.org/2000/svg">
<path d="M11.1279 4.87447C12.7907 2.39197 14.5174 1.00468 16.3081 0.712616C18.2267 0.42056 19.8256 0.858649 21.1047 2.02688C22.5116 3.0491 23.2791 4.65543 23.407 6.84587C23.6628 8.89029 22.8953 11.1538 21.1047 13.6363C19.4419 15.9727 18.0988 18.3092 17.0756 20.6457C16.1802 22.8362 15.5407 25.0266 15.157 27.2171C19.25 27.6551 22.5116 29.3345 24.9419 32.2551C27.3721 35.0297 28.5872 38.7534 28.5872 43.4264C28.5872 48.0993 27.3081 51.9691 24.75 55.0358C22.1919 57.9564 18.7384 59.4167 14.3895 59.4167C9.91279 59.4167 6.39535 57.6643 3.83721 54.1596C1.27907 50.6549 0 45.7629 0 39.4836C0 34.2265 0.703489 28.7504 2.11047 23.0552C3.64535 17.214 6.65116 11.1538 11.1279 4.87447ZM48.5407 4.87447C50.2035 2.39197 51.9302 1.00468 53.7209 0.712616C55.6395 0.42056 57.2384 0.858649 58.5174 2.02688C59.9244 3.0491 60.6919 4.65543 60.8198 6.84587C61.0756 8.89029 60.3081 11.1538 58.5174 13.6363C56.8546 15.9727 55.5116 18.3092 54.4884 20.6457C53.593 22.8362 52.9535 25.0266 52.5698 27.2171C56.6628 27.6551 59.9244 29.3345 62.3546 32.2551C64.7849 35.0297 66 38.7534 66 43.4264C66 48.0993 64.7209 51.9691 62.1628 55.0358C59.6046 57.9564 56.1512 59.4167 51.8023 59.4167C47.3256 59.4167 43.8081 57.6643 41.25 54.1596C38.6919 50.6549 37.4128 45.7629 37.4128 39.4836C37.4128 34.2265 38.1163 28.7504 39.5233 23.0552C41.0581 17.214 44.0639 11.1538 48.5407 4.87447Z" fill="#E9F0FF"/>
</svg>
