<svg width="57" height="57" viewBox="0 0 57 57" fill="none" xmlns="http://www.w3.org/2000/svg">
<path d="M48.5 28.5C48.5 32.6827 47.1887 36.7601 44.7504 40.1586C42.3122 43.5571 38.8699 46.1057 34.9077 47.4457C30.9455 48.7858 26.6629 48.8499 22.6624 47.6291C18.6618 46.4082 15.1447 43.9639 12.6059 40.6399C10.067 37.3159 8.63418 33.2795 8.50896 29.0987C8.38375 24.9179 9.57244 20.8031 11.9078 17.3331C14.2432 13.8631 17.6077 11.2127 21.528 9.75457C25.4483 8.29649 29.7271 8.10419 33.7624 9.20473L31.8511 16.2128C29.2814 15.5119 26.5567 15.6344 24.0602 16.5629C21.5638 17.4914 19.4213 19.1792 17.9341 21.3889C16.4469 23.5986 15.69 26.2189 15.7697 28.8813C15.8494 31.5436 16.7619 34.1139 18.3786 36.2307C19.9954 38.3474 22.235 39.904 24.7826 40.6814C27.3301 41.4588 30.0573 41.418 32.5804 40.5647C35.1035 39.7113 37.2956 38.0884 38.8483 35.9242C40.4009 33.76 41.236 31.1635 41.236 28.5H48.5Z" fill="#00E777"/>
<path d="M36.4858 11.2597C39.2899 12.5586 41.7349 14.5218 43.6087 16.9793C45.4825 19.4367 46.7287 22.3141 47.2391 25.362L42.4887 26.1575C42.1077 23.8822 41.1775 21.7342 39.7786 19.8998C38.3798 18.0653 36.5546 16.5997 34.4614 15.6301L36.4858 11.2597Z" fill="#4D6CD9"/>
</svg>
