<svg width="25" height="24" viewBox="0 0 25 24" fill="none" xmlns="http://www.w3.org/2000/svg">
<path d="M19.5 2H5.5C4.70435 2 3.94129 2.31607 3.37868 2.87868C2.81607 3.44129 2.5 4.20435 2.5 5V15C2.5 15.7956 2.81607 16.5587 3.37868 17.1213C3.94129 17.6839 4.70435 18 5.5 18H8.14L7.56 19C7.38446 19.304 7.29205 19.6489 7.29205 20C7.29205 20.3511 7.38446 20.696 7.56 21C7.73705 21.3067 7.99235 21.5609 8.29982 21.7366C8.60729 21.9123 8.95589 22.0032 9.31 22H15.77C16.1207 21.9996 16.4652 21.9071 16.7688 21.7315C17.0725 21.556 17.3246 21.3037 17.5 21C17.6755 20.696 17.768 20.3511 17.768 20C17.768 19.6489 17.6755 19.304 17.5 19L16.91 18H19.5C20.2956 18 21.0587 17.6839 21.6213 17.1213C22.1839 16.5587 22.5 15.7956 22.5 15V5C22.5 4.20435 22.1839 3.44129 21.6213 2.87868C21.0587 2.31607 20.2956 2 19.5 2ZM9.27 20L10.5 18H14.5L15.7 20H9.27ZM20.5 15C20.5 15.2652 20.3946 15.5196 20.2071 15.7071C20.0196 15.8946 19.7652 16 19.5 16H5.5C5.23478 16 4.98043 15.8946 4.79289 15.7071C4.60536 15.5196 4.5 15.2652 4.5 15V14H20.5V15ZM20.5 12H4.5V5C4.5 4.73478 4.60536 4.48043 4.79289 4.29289C4.98043 4.10536 5.23478 4 5.5 4H19.5C19.7652 4 20.0196 4.10536 20.2071 4.29289C20.3946 4.48043 20.5 4.73478 20.5 5V12Z" fill="#4D6CD9"/>
</svg>
