<svg width="16" height="16" viewBox="0 0 16 16" fill="none" xmlns="http://www.w3.org/2000/svg">
<path d="M11.7517 9.01374L11.7517 9.01369L11.7432 9.02189C11.3123 9.43952 11.1157 10.0417 11.2134 10.631L11.2146 10.6382L11.2158 10.6453L11.8197 13.9873L8.79535 12.4099C8.54037 12.2751 8.262 12.2051 7.98347 12.1972L7.96919 12.1967H7.95491H7.75166H7.6776L7.60435 12.2077C7.42654 12.2341 7.2476 12.2909 7.07892 12.3817L4.07524 13.9554L4.67819 10.6223L4.67962 10.6143L4.68092 10.6064C4.77783 10.0167 4.58238 9.41672 4.15649 8.99741L4.15651 8.99739L4.15089 8.99194L1.69842 6.61485L5.06628 6.12628C5.68055 6.05457 6.21716 5.67756 6.49359 5.12471L6.49363 5.12474L6.49795 5.11588L8.00079 2.03471L9.53245 5.12012C9.7979 5.66005 10.3106 6.03238 10.9002 6.12272L10.9002 6.12275L10.9081 6.12389L14.287 6.61407L11.7517 9.01374Z" fill="#F5BC2F" stroke="#F5BC2F" stroke-width="2"/>
</svg>
