<svg width="120" height="120" viewBox="0 0 120 120" fill="none" xmlns="http://www.w3.org/2000/svg">
<g filter="url(#filter0_d)">
<rect x="20" y="20" width="80" height="80" rx="16" fill="white"/>
<path d="M81.8127 49.9918L74.3749 48.9132L71.0552 42.1758C70.579 41.2233 69.0102 41.2233 68.5339 42.1758L65.2142 48.9132L57.7764 49.9918C56.6559 50.1179 56.1657 51.6306 57.0061 52.387L62.3848 57.6257L61.1102 65.0354C60.8861 66.142 62.1607 67.0665 63.1412 66.5062L69.7946 63.0184L76.448 66.5062C77.4145 67.0665 78.7031 66.142 78.479 65.0354L77.2043 57.6257L82.5831 52.387C83.4095 51.6306 82.9333 50.1179 81.8127 49.9918Z" fill="#4D6CD9"/>
<path d="M53.1261 55.9449C54.1066 56.5053 55.3813 55.5807 55.1572 54.4742L54.4568 50.3561L57.4544 47.4286C57.8326 47.0644 57.9726 46.5042 57.8045 45.9999C57.6365 45.4956 57.2022 45.1175 56.67 45.0474L52.5378 44.4451L50.6889 40.6912C50.2127 39.7387 48.6438 39.7387 48.1676 40.6912L46.3187 44.4451L42.1866 45.0474C41.6543 45.1175 41.2201 45.4956 41.052 45.9999C40.8839 46.5041 41.024 47.0644 41.4022 47.4286L44.3997 50.3561L43.6994 54.4742C43.6013 54.9925 43.8255 55.5247 44.2456 55.8469C44.6799 56.1551 45.2541 56.197 45.7304 55.9449L49.4283 53.9979L53.1261 55.9449Z" fill="#4D6CD9"/>
<path d="M64.6962 69.7141L59.8778 69.0137L57.7207 64.6575C57.4966 64.1812 57.0063 63.873 56.4741 63.873C55.9418 63.873 55.4516 64.1812 55.2134 64.6575L53.0563 69.0137L48.2379 69.7141C47.7196 69.7981 47.2714 70.1623 47.1173 70.6665C46.9492 71.1848 47.0893 71.7311 47.4675 72.1092L50.9553 75.499L50.1289 80.3035C49.9047 81.396 51.1794 82.3345 52.1598 81.7742L56.4741 79.5191L60.7742 81.7742C61.2504 82.0263 61.8248 81.9843 62.259 81.6761C62.6792 81.354 62.9034 80.8217 62.8053 80.3035L61.9929 75.499L65.4806 72.1092C66.3071 71.3529 65.8168 69.8401 64.6962 69.7141Z" fill="#4D6CD9"/>
</g>
<defs>
<filter id="filter0_d" x="0" y="0" width="120" height="120" filterUnits="userSpaceOnUse" color-interpolation-filters="sRGB">
<feFlood flood-opacity="0" result="BackgroundImageFix"/>
<feColorMatrix in="SourceAlpha" type="matrix" values="0 0 0 0 0 0 0 0 0 0 0 0 0 0 0 0 0 0 127 0"/>
<feOffset/>
<feGaussianBlur stdDeviation="10"/>
<feColorMatrix type="matrix" values="0 0 0 0 0.301961 0 0 0 0 0.423529 0 0 0 0 0.85098 0 0 0 0.16 0"/>
<feBlend mode="normal" in2="BackgroundImageFix" result="effect1_dropShadow"/>
<feBlend mode="normal" in="SourceGraphic" in2="effect1_dropShadow" result="shape"/>
</filter>
</defs>
</svg>
