<svg width="422" height="317" viewBox="0 0 422 317" fill="none" xmlns="http://www.w3.org/2000/svg">
<path d="M160 210L206 247L269 239L229.5 205L160 210Z" fill="#968523"/>
<path d="M96 130.5L209.113 173L268.5 159L212.5 122.5L96 130.5Z" fill="#D16A02"/>
<path d="M5 50.1521C19.0849 55.8805 334.965 128.846 337 130C339.035 131.154 398.065 86.0632 403.5 79C403.787 78.6266 50.7968 22 50.7968 22L5 50.1521Z" fill="#7A130F"/>
<path d="M422 8C422 3.58172 418.418 0 414 0H8.0154C3.59821 0 0.0169396 3.58002 0.0153942 7.9972L0.00279975 43.9972C0.00125365 48.4166 3.58343 52 8.0028 52H414C418.418 52 422 48.4183 422 44V8Z" fill="#CD433E"/>
<path d="M149.113 32.096C148.804 32.096 148.553 32.0053 148.361 31.824C148.18 31.632 148.089 31.376 148.089 31.056V21.696C148.089 21.3867 148.174 21.1467 148.345 20.976C148.526 20.8053 148.772 20.72 149.081 20.72H153.017C154.222 20.72 155.161 21.024 155.833 21.632C156.505 22.2293 156.841 23.072 156.841 24.16C156.841 25.248 156.505 26.096 155.833 26.704C155.161 27.312 154.222 27.616 153.017 27.616H150.153V31.056C150.153 31.376 150.057 31.632 149.865 31.824C149.684 32.0053 149.433 32.096 149.113 32.096ZM152.761 26.032C154.18 26.032 154.889 25.4133 154.889 24.176C154.889 22.9387 154.18 22.32 152.761 22.32H150.153V26.032H152.761ZM162.687 24.016C162.965 23.9947 163.183 24.0533 163.343 24.192C163.503 24.3307 163.583 24.5387 163.583 24.816C163.583 25.104 163.514 25.3173 163.375 25.456C163.237 25.5947 162.986 25.6853 162.623 25.728L162.143 25.776C161.514 25.84 161.05 26.0533 160.751 26.416C160.463 26.7787 160.319 27.232 160.319 27.776V31.136C160.319 31.4453 160.223 31.6853 160.031 31.856C159.839 32.016 159.599 32.096 159.311 32.096C159.023 32.096 158.783 32.016 158.591 31.856C158.41 31.6853 158.319 31.4453 158.319 31.136V24.944C158.319 24.6453 158.41 24.416 158.591 24.256C158.783 24.096 159.018 24.016 159.295 24.016C159.573 24.016 159.797 24.096 159.967 24.256C160.138 24.4053 160.223 24.624 160.223 24.912V25.552C160.426 25.0827 160.725 24.72 161.119 24.464C161.525 24.208 161.973 24.064 162.463 24.032L162.687 24.016ZM167.856 32.128C167.056 32.128 166.352 31.9627 165.744 31.632C165.147 31.3013 164.683 30.8267 164.352 30.208C164.021 29.5893 163.856 28.8693 163.856 28.048C163.856 27.2267 164.021 26.512 164.352 25.904C164.683 25.2853 165.147 24.8107 165.744 24.48C166.352 24.1493 167.056 23.984 167.856 23.984C168.656 23.984 169.355 24.1493 169.952 24.48C170.56 24.8107 171.024 25.2853 171.344 25.904C171.675 26.512 171.84 27.2267 171.84 28.048C171.84 28.8693 171.675 29.5893 171.344 30.208C171.024 30.8267 170.56 31.3013 169.952 31.632C169.355 31.9627 168.656 32.128 167.856 32.128ZM167.84 30.576C168.491 30.576 168.987 30.3627 169.328 29.936C169.669 29.5093 169.84 28.88 169.84 28.048C169.84 27.2267 169.669 26.6027 169.328 26.176C168.987 25.7387 168.496 25.52 167.856 25.52C167.216 25.52 166.72 25.7387 166.368 26.176C166.027 26.6027 165.856 27.2267 165.856 28.048C165.856 28.88 166.027 29.5093 166.368 29.936C166.709 30.3627 167.2 30.576 167.84 30.576ZM180.164 22.592C179.802 22.592 179.514 22.496 179.3 22.304C179.087 22.1013 178.98 21.84 178.98 21.52C178.98 21.2 179.087 20.944 179.3 20.752C179.514 20.56 179.802 20.464 180.164 20.464C180.516 20.464 180.799 20.56 181.012 20.752C181.236 20.944 181.348 21.2 181.348 21.52C181.348 21.84 181.236 22.1013 181.012 22.304C180.799 22.496 180.516 22.592 180.164 22.592ZM180.26 24.176C180.858 24.176 181.156 24.4267 181.156 24.928V31.136C181.156 31.4453 181.06 31.6853 180.868 31.856C180.687 32.016 180.452 32.096 180.164 32.096C179.876 32.096 179.636 32.016 179.444 31.856C179.252 31.6853 179.156 31.4453 179.156 31.136V25.68H175.988V31.136C175.988 31.4453 175.892 31.68 175.7 31.84C175.519 32 175.284 32.08 174.996 32.08C174.708 32.08 174.468 32 174.276 31.84C174.084 31.68 173.988 31.4453 173.988 31.136V25.68H173.188C172.591 25.68 172.292 25.4293 172.292 24.928C172.292 24.4267 172.591 24.176 173.188 24.176H173.988V24.096C173.988 23.104 174.25 22.32 174.772 21.744C175.306 21.1573 176.052 20.8213 177.012 20.736L177.38 20.704C177.434 20.6933 177.514 20.688 177.62 20.688C178.186 20.688 178.468 20.928 178.468 21.408C178.468 21.6427 178.404 21.824 178.276 21.952C178.148 22.08 177.972 22.1547 177.748 22.176L177.396 22.208C176.906 22.2507 176.548 22.4053 176.324 22.672C176.1 22.928 175.988 23.3067 175.988 23.808V24.176H180.26ZM184.233 32.096C183.945 32.096 183.705 32.016 183.513 31.856C183.332 31.6853 183.241 31.4453 183.241 31.136V21.584C183.241 21.2747 183.332 21.04 183.513 20.88C183.705 20.72 183.945 20.64 184.233 20.64C184.521 20.64 184.761 20.72 184.953 20.88C185.145 21.04 185.241 21.2747 185.241 21.584V31.136C185.241 31.4453 185.145 31.6853 184.953 31.856C184.761 32.016 184.521 32.096 184.233 32.096ZM193.496 29.856C193.677 29.856 193.821 29.9253 193.928 30.064C194.045 30.2027 194.104 30.3893 194.104 30.624C194.104 30.9547 193.906 31.232 193.512 31.456C193.149 31.6587 192.738 31.824 192.28 31.952C191.821 32.0693 191.384 32.128 190.968 32.128C189.709 32.128 188.712 31.7653 187.976 31.04C187.24 30.3147 186.872 29.3227 186.872 28.064C186.872 27.264 187.032 26.5547 187.352 25.936C187.672 25.3173 188.12 24.8373 188.696 24.496C189.282 24.1547 189.944 23.984 190.68 23.984C191.384 23.984 191.997 24.1387 192.52 24.448C193.042 24.7573 193.448 25.1947 193.736 25.76C194.024 26.3253 194.168 26.992 194.168 27.76C194.168 28.2187 193.965 28.448 193.56 28.448H188.84C188.904 29.184 189.112 29.728 189.464 30.08C189.816 30.4213 190.328 30.592 191 30.592C191.341 30.592 191.64 30.5493 191.896 30.464C192.162 30.3787 192.461 30.2613 192.792 30.112C193.112 29.9413 193.346 29.856 193.496 29.856ZM190.728 25.392C190.184 25.392 189.746 25.5627 189.416 25.904C189.096 26.2453 188.904 26.736 188.84 27.376H192.456C192.434 26.7253 192.274 26.2347 191.976 25.904C191.677 25.5627 191.261 25.392 190.728 25.392ZM198.636 32.128C197.473 32.128 196.534 31.8987 195.82 31.44C195.478 31.2373 195.308 30.9493 195.308 30.576C195.308 30.3627 195.366 30.192 195.484 30.064C195.601 29.9253 195.745 29.856 195.916 29.856C196.097 29.856 196.348 29.9413 196.668 30.112C197.009 30.272 197.318 30.3947 197.596 30.48C197.884 30.5653 198.246 30.608 198.684 30.608C199.132 30.608 199.478 30.5333 199.724 30.384C199.98 30.2347 200.108 30.0267 200.108 29.76C200.108 29.5787 200.054 29.4347 199.948 29.328C199.852 29.2213 199.67 29.1253 199.404 29.04C199.148 28.944 198.753 28.8373 198.22 28.72C197.27 28.528 196.588 28.256 196.172 27.904C195.766 27.552 195.564 27.0667 195.564 26.448C195.564 25.9787 195.702 25.5573 195.98 25.184C196.257 24.8 196.636 24.5067 197.116 24.304C197.606 24.0907 198.161 23.984 198.78 23.984C199.228 23.984 199.66 24.0427 200.076 24.16C200.492 24.2667 200.865 24.4267 201.196 24.64C201.537 24.8533 201.708 25.136 201.708 25.488C201.708 25.7013 201.649 25.8827 201.532 26.032C201.414 26.1707 201.27 26.24 201.1 26.24C200.982 26.24 200.865 26.2187 200.748 26.176C200.641 26.1227 200.502 26.048 200.332 25.952C200.022 25.792 199.756 25.6747 199.532 25.6C199.308 25.5147 199.03 25.472 198.7 25.472C198.305 25.472 197.99 25.552 197.756 25.712C197.532 25.872 197.42 26.0907 197.42 26.368C197.42 26.6347 197.537 26.8373 197.772 26.976C198.006 27.1147 198.46 27.2533 199.132 27.392C199.846 27.5413 200.406 27.712 200.812 27.904C201.217 28.096 201.505 28.336 201.676 28.624C201.857 28.912 201.948 29.28 201.948 29.728C201.948 30.4533 201.644 31.0347 201.036 31.472C200.438 31.9093 199.638 32.128 198.636 32.128ZM211.993 32.144C211.172 32.144 210.393 32.0373 209.657 31.824C208.932 31.6 208.34 31.3013 207.881 30.928C207.636 30.7467 207.513 30.4907 207.513 30.16C207.513 29.936 207.577 29.744 207.705 29.584C207.844 29.4133 208.004 29.328 208.185 29.328C208.377 29.328 208.596 29.4027 208.841 29.552C209.3 29.8827 209.78 30.1227 210.281 30.272C210.782 30.4213 211.337 30.496 211.945 30.496C212.724 30.496 213.321 30.3627 213.737 30.096C214.153 29.8187 214.361 29.4187 214.361 28.896C214.361 28.4907 214.164 28.1813 213.769 27.968C213.385 27.744 212.74 27.5307 211.833 27.328C210.894 27.1253 210.132 26.8907 209.545 26.624C208.958 26.3573 208.516 26.016 208.217 25.6C207.918 25.184 207.769 24.656 207.769 24.016C207.769 23.3547 207.956 22.7627 208.329 22.24C208.702 21.7173 209.22 21.312 209.881 21.024C210.553 20.7253 211.305 20.576 212.137 20.576C213.662 20.576 214.905 20.9813 215.865 21.792C216.004 21.9093 216.1 22.0267 216.153 22.144C216.217 22.2507 216.249 22.3893 216.249 22.56C216.249 22.784 216.18 22.9813 216.041 23.152C215.913 23.312 215.758 23.392 215.577 23.392C215.47 23.392 215.369 23.376 215.273 23.344C215.188 23.312 215.07 23.2533 214.921 23.168C214.484 22.848 214.057 22.6133 213.641 22.464C213.236 22.304 212.734 22.224 212.137 22.224C211.412 22.224 210.836 22.3733 210.409 22.672C209.993 22.96 209.785 23.3653 209.785 23.888C209.785 24.3253 209.972 24.6613 210.345 24.896C210.718 25.1307 211.353 25.3493 212.249 25.552C213.198 25.7653 213.966 26.0053 214.553 26.272C215.15 26.528 215.604 26.8587 215.913 27.264C216.233 27.6693 216.393 28.176 216.393 28.784C216.393 29.4453 216.206 30.032 215.833 30.544C215.47 31.0453 214.953 31.44 214.281 31.728C213.62 32.0053 212.857 32.144 211.993 32.144ZM224.292 24.016C224.602 24.016 224.847 24.1013 225.028 24.272C225.21 24.4427 225.3 24.672 225.3 24.96V31.168C225.3 31.4453 225.204 31.6693 225.012 31.84C224.831 32.0107 224.591 32.096 224.292 32.096C224.004 32.096 223.775 32.016 223.604 31.856C223.434 31.696 223.348 31.4773 223.348 31.2V30.8C223.103 31.2267 222.772 31.5573 222.356 31.792C221.94 32.016 221.471 32.128 220.948 32.128C219.028 32.128 218.068 31.0507 218.068 28.896V24.96C218.068 24.672 218.159 24.4427 218.34 24.272C218.522 24.1013 218.762 24.016 219.06 24.016C219.37 24.016 219.615 24.1013 219.796 24.272C219.978 24.4427 220.068 24.672 220.068 24.96V28.912C220.068 29.4667 220.18 29.8773 220.404 30.144C220.628 30.4107 220.98 30.544 221.46 30.544C222.015 30.544 222.458 30.3627 222.788 30C223.13 29.6267 223.3 29.136 223.3 28.528V24.96C223.3 24.672 223.391 24.4427 223.572 24.272C223.754 24.1013 223.994 24.016 224.292 24.016ZM231.878 23.984C232.56 23.984 233.163 24.1493 233.686 24.48C234.208 24.8107 234.614 25.28 234.902 25.888C235.2 26.496 235.35 27.2053 235.35 28.016C235.35 28.8267 235.2 29.5467 234.902 30.176C234.614 30.7947 234.203 31.2747 233.67 31.616C233.147 31.9573 232.55 32.128 231.878 32.128C231.312 32.128 230.806 32.0053 230.358 31.76C229.92 31.5147 229.584 31.1733 229.35 30.736V31.136C229.35 31.424 229.259 31.6533 229.078 31.824C228.896 31.9947 228.656 32.08 228.358 32.08C228.059 32.08 227.819 31.9947 227.638 31.824C227.467 31.6533 227.382 31.424 227.382 31.136V21.568C227.382 21.2907 227.472 21.0667 227.654 20.896C227.846 20.7253 228.091 20.64 228.39 20.64C228.688 20.64 228.928 20.72 229.11 20.88C229.291 21.04 229.382 21.2587 229.382 21.536V25.312C229.616 24.8853 229.952 24.56 230.39 24.336C230.827 24.1013 231.323 23.984 231.878 23.984ZM231.35 30.576C231.979 30.576 232.47 30.352 232.822 29.904C233.174 29.456 233.35 28.8267 233.35 28.016C233.35 27.216 233.174 26.6027 232.822 26.176C232.48 25.7493 231.99 25.536 231.35 25.536C230.71 25.536 230.214 25.7547 229.862 26.192C229.52 26.6187 229.35 27.2373 229.35 28.048C229.35 28.8587 229.52 29.4827 229.862 29.92C230.214 30.3573 230.71 30.576 231.35 30.576ZM246.287 23.984C247.141 23.984 247.791 24.24 248.239 24.752C248.698 25.2533 248.927 26.0693 248.927 27.2V31.136C248.927 31.4453 248.831 31.6853 248.639 31.856C248.458 32.016 248.218 32.096 247.919 32.096C247.631 32.096 247.391 32.016 247.199 31.856C247.018 31.6853 246.927 31.4453 246.927 31.136V27.2C246.927 26.6133 246.821 26.1973 246.607 25.952C246.405 25.696 246.09 25.568 245.663 25.568C245.141 25.568 244.725 25.7493 244.415 26.112C244.106 26.464 243.951 26.9493 243.951 27.568V31.136C243.951 31.4453 243.855 31.6853 243.663 31.856C243.482 32.016 243.247 32.096 242.959 32.096C242.671 32.096 242.431 32.016 242.239 31.856C242.047 31.6853 241.951 31.4453 241.951 31.136V27.2C241.951 26.6133 241.845 26.1973 241.631 25.952C241.429 25.696 241.114 25.568 240.687 25.568C240.165 25.568 239.749 25.7493 239.439 26.112C239.141 26.464 238.991 26.9493 238.991 27.568V31.136C238.991 31.4453 238.895 31.6853 238.703 31.856C238.511 32.016 238.271 32.096 237.983 32.096C237.695 32.096 237.455 32.016 237.263 31.856C237.082 31.6853 236.991 31.4453 236.991 31.136V24.944C236.991 24.6453 237.087 24.416 237.279 24.256C237.471 24.096 237.711 24.016 237.999 24.016C238.277 24.016 238.501 24.096 238.671 24.256C238.853 24.4053 238.943 24.624 238.943 24.912V25.296C239.189 24.8693 239.514 24.544 239.919 24.32C240.335 24.096 240.81 23.984 241.343 23.984C242.517 23.984 243.301 24.4747 243.695 25.456C243.93 25.008 244.277 24.6507 244.735 24.384C245.194 24.1173 245.711 23.984 246.287 23.984ZM251.952 32.096C251.664 32.096 251.424 32.016 251.232 31.856C251.051 31.6853 250.96 31.4453 250.96 31.136V24.96C250.96 24.6507 251.051 24.416 251.232 24.256C251.424 24.096 251.664 24.016 251.952 24.016C252.24 24.016 252.48 24.096 252.672 24.256C252.864 24.416 252.96 24.6507 252.96 24.96V31.136C252.96 31.4453 252.864 31.6853 252.672 31.856C252.48 32.016 252.24 32.096 251.952 32.096ZM251.952 22.592C251.589 22.592 251.301 22.496 251.088 22.304C250.875 22.1013 250.768 21.84 250.768 21.52C250.768 21.2 250.875 20.944 251.088 20.752C251.301 20.56 251.589 20.464 251.952 20.464C252.304 20.464 252.587 20.56 252.8 20.752C253.024 20.944 253.136 21.2 253.136 21.52C253.136 21.84 253.029 22.1013 252.816 22.304C252.603 22.496 252.315 22.592 251.952 22.592ZM259.43 30.608C259.964 30.64 260.23 30.88 260.23 31.328C260.23 31.584 260.124 31.7813 259.91 31.92C259.708 32.048 259.414 32.1013 259.03 32.08L258.598 32.048C256.806 31.92 255.91 30.96 255.91 29.168V25.68H255.11C254.822 25.68 254.598 25.616 254.438 25.488C254.289 25.36 254.214 25.1733 254.214 24.928C254.214 24.6827 254.289 24.496 254.438 24.368C254.598 24.24 254.822 24.176 255.11 24.176H255.91V22.704C255.91 22.416 256.001 22.1867 256.182 22.016C256.364 21.8453 256.609 21.76 256.918 21.76C257.217 21.76 257.457 21.8453 257.638 22.016C257.82 22.1867 257.91 22.416 257.91 22.704V24.176H259.27C259.558 24.176 259.777 24.24 259.926 24.368C260.086 24.496 260.166 24.6827 260.166 24.928C260.166 25.1733 260.086 25.36 259.926 25.488C259.777 25.616 259.558 25.68 259.27 25.68H257.91V29.312C257.91 30.1013 258.273 30.5227 258.998 30.576L259.43 30.608ZM265.227 30.608C265.76 30.64 266.027 30.88 266.027 31.328C266.027 31.584 265.92 31.7813 265.707 31.92C265.504 32.048 265.211 32.1013 264.827 32.08L264.395 32.048C262.603 31.92 261.707 30.96 261.707 29.168V25.68H260.907C260.619 25.68 260.395 25.616 260.235 25.488C260.086 25.36 260.011 25.1733 260.011 24.928C260.011 24.6827 260.086 24.496 260.235 24.368C260.395 24.24 260.619 24.176 260.907 24.176H261.707V22.704C261.707 22.416 261.798 22.1867 261.979 22.016C262.16 21.8453 262.406 21.76 262.715 21.76C263.014 21.76 263.254 21.8453 263.435 22.016C263.616 22.1867 263.707 22.416 263.707 22.704V24.176H265.067C265.355 24.176 265.574 24.24 265.723 24.368C265.883 24.496 265.963 24.6827 265.963 24.928C265.963 25.1733 265.883 25.36 265.723 25.488C265.574 25.616 265.355 25.68 265.067 25.68H263.707V29.312C263.707 30.1013 264.07 30.5227 264.795 30.576L265.227 30.608ZM273.261 29.856C273.443 29.856 273.587 29.9253 273.693 30.064C273.811 30.2027 273.869 30.3893 273.869 30.624C273.869 30.9547 273.672 31.232 273.277 31.456C272.915 31.6587 272.504 31.824 272.045 31.952C271.587 32.0693 271.149 32.128 270.733 32.128C269.475 32.128 268.477 31.7653 267.741 31.04C267.005 30.3147 266.637 29.3227 266.637 28.064C266.637 27.264 266.797 26.5547 267.117 25.936C267.437 25.3173 267.885 24.8373 268.461 24.496C269.048 24.1547 269.709 23.984 270.445 23.984C271.149 23.984 271.763 24.1387 272.285 24.448C272.808 24.7573 273.213 25.1947 273.501 25.76C273.789 26.3253 273.933 26.992 273.933 27.76C273.933 28.2187 273.731 28.448 273.325 28.448H268.605C268.669 29.184 268.877 29.728 269.229 30.08C269.581 30.4213 270.093 30.592 270.765 30.592C271.107 30.592 271.405 30.5493 271.661 30.464C271.928 30.3787 272.227 30.2613 272.557 30.112C272.877 29.9413 273.112 29.856 273.261 29.856ZM270.493 25.392C269.949 25.392 269.512 25.5627 269.181 25.904C268.861 26.2453 268.669 26.736 268.605 27.376H272.221C272.2 26.7253 272.04 26.2347 271.741 25.904C271.443 25.5627 271.027 25.392 270.493 25.392ZM282.097 20.64C282.396 20.64 282.641 20.7253 282.833 20.896C283.025 21.0667 283.121 21.2907 283.121 21.568V31.136C283.121 31.424 283.031 31.6533 282.849 31.824C282.668 31.9947 282.428 32.08 282.129 32.08C281.831 32.08 281.591 31.9947 281.409 31.824C281.228 31.6533 281.137 31.424 281.137 31.136V30.736C280.903 31.1733 280.561 31.5147 280.113 31.76C279.676 32.0053 279.175 32.128 278.609 32.128C277.937 32.128 277.335 31.9573 276.801 31.616C276.279 31.2747 275.868 30.7947 275.569 30.176C275.281 29.5467 275.137 28.8267 275.137 28.016C275.137 27.2053 275.281 26.496 275.569 25.888C275.868 25.28 276.279 24.8107 276.801 24.48C277.324 24.1493 277.927 23.984 278.609 23.984C279.175 23.984 279.676 24.1013 280.113 24.336C280.551 24.5707 280.887 24.9013 281.121 25.328V21.536C281.121 21.2693 281.207 21.056 281.377 20.896C281.559 20.7253 281.799 20.64 282.097 20.64ZM279.137 30.576C279.777 30.576 280.268 30.3573 280.609 29.92C280.961 29.4827 281.137 28.8587 281.137 28.048C281.137 27.2373 280.961 26.6187 280.609 26.192C280.268 25.7547 279.783 25.536 279.153 25.536C278.513 25.536 278.017 25.7493 277.665 26.176C277.313 26.6027 277.137 27.216 277.137 28.016C277.137 28.8267 277.313 29.456 277.665 29.904C278.017 30.352 278.508 30.576 279.137 30.576Z" fill="#FFDCDC"/>
<path d="M94.9706 130.61C95.3145 130.863 95.7305 131 96.1578 131H339.562C339.994 131 340.415 130.86 340.761 130.601L404.914 82.6014C406.454 81.4492 405.639 79 403.716 79H31.0809C29.1507 79 28.3404 81.4638 29.8937 82.6095L94.9706 130.61Z" fill="#F2B241"/>
<path d="M151.886 111.096C151.577 111.096 151.326 111.005 151.134 110.824C150.953 110.632 150.862 110.376 150.862 110.056V100.696C150.862 100.387 150.948 100.147 151.118 99.976C151.3 99.8053 151.545 99.72 151.854 99.72H155.79C156.996 99.72 157.934 100.024 158.606 100.632C159.278 101.229 159.614 102.072 159.614 103.16C159.614 104.248 159.278 105.096 158.606 105.704C157.934 106.312 156.996 106.616 155.79 106.616H152.926V110.056C152.926 110.376 152.83 110.632 152.638 110.824C152.457 111.005 152.206 111.096 151.886 111.096ZM155.534 105.032C156.953 105.032 157.662 104.413 157.662 103.176C157.662 101.939 156.953 101.32 155.534 101.32H152.926V105.032H155.534ZM165.461 103.016C165.738 102.995 165.957 103.053 166.117 103.192C166.277 103.331 166.357 103.539 166.357 103.816C166.357 104.104 166.287 104.317 166.149 104.456C166.01 104.595 165.759 104.685 165.397 104.728L164.917 104.776C164.287 104.84 163.823 105.053 163.525 105.416C163.237 105.779 163.093 106.232 163.093 106.776V110.136C163.093 110.445 162.997 110.685 162.805 110.856C162.613 111.016 162.373 111.096 162.085 111.096C161.797 111.096 161.557 111.016 161.365 110.856C161.183 110.685 161.093 110.445 161.093 110.136V103.944C161.093 103.645 161.183 103.416 161.365 103.256C161.557 103.096 161.791 103.016 162.069 103.016C162.346 103.016 162.57 103.096 162.741 103.256C162.911 103.405 162.997 103.624 162.997 103.912V104.552C163.199 104.083 163.498 103.72 163.893 103.464C164.298 103.208 164.746 103.064 165.237 103.032L165.461 103.016ZM170.629 111.128C169.829 111.128 169.125 110.963 168.517 110.632C167.92 110.301 167.456 109.827 167.125 109.208C166.795 108.589 166.629 107.869 166.629 107.048C166.629 106.227 166.795 105.512 167.125 104.904C167.456 104.285 167.92 103.811 168.517 103.48C169.125 103.149 169.829 102.984 170.629 102.984C171.429 102.984 172.128 103.149 172.725 103.48C173.333 103.811 173.797 104.285 174.117 104.904C174.448 105.512 174.613 106.227 174.613 107.048C174.613 107.869 174.448 108.589 174.117 109.208C173.797 109.827 173.333 110.301 172.725 110.632C172.128 110.963 171.429 111.128 170.629 111.128ZM170.613 109.576C171.264 109.576 171.76 109.363 172.101 108.936C172.443 108.509 172.613 107.88 172.613 107.048C172.613 106.227 172.443 105.603 172.101 105.176C171.76 104.739 171.269 104.52 170.629 104.52C169.989 104.52 169.493 104.739 169.141 105.176C168.8 105.603 168.629 106.227 168.629 107.048C168.629 107.88 168.8 108.509 169.141 108.936C169.483 109.363 169.973 109.576 170.613 109.576ZM182.938 101.592C182.575 101.592 182.287 101.496 182.074 101.304C181.86 101.101 181.754 100.84 181.754 100.52C181.754 100.2 181.86 99.944 182.074 99.752C182.287 99.56 182.575 99.464 182.938 99.464C183.29 99.464 183.572 99.56 183.786 99.752C184.01 99.944 184.122 100.2 184.122 100.52C184.122 100.84 184.01 101.101 183.786 101.304C183.572 101.496 183.29 101.592 182.938 101.592ZM183.034 103.176C183.631 103.176 183.93 103.427 183.93 103.928V110.136C183.93 110.445 183.834 110.685 183.642 110.856C183.46 111.016 183.226 111.096 182.938 111.096C182.65 111.096 182.41 111.016 182.218 110.856C182.026 110.685 181.93 110.445 181.93 110.136V104.68H178.762V110.136C178.762 110.445 178.666 110.68 178.474 110.84C178.292 111 178.058 111.08 177.77 111.08C177.482 111.08 177.242 111 177.05 110.84C176.858 110.68 176.762 110.445 176.762 110.136V104.68H175.962C175.364 104.68 175.066 104.429 175.066 103.928C175.066 103.427 175.364 103.176 175.962 103.176H176.762V103.096C176.762 102.104 177.023 101.32 177.546 100.744C178.079 100.157 178.826 99.8213 179.786 99.736L180.154 99.704C180.207 99.6933 180.287 99.688 180.394 99.688C180.959 99.688 181.242 99.928 181.242 100.408C181.242 100.643 181.178 100.824 181.05 100.952C180.922 101.08 180.746 101.155 180.522 101.176L180.17 101.208C179.679 101.251 179.322 101.405 179.098 101.672C178.874 101.928 178.762 102.307 178.762 102.808V103.176H183.034ZM187.007 111.096C186.719 111.096 186.479 111.016 186.287 110.856C186.105 110.685 186.015 110.445 186.015 110.136V100.584C186.015 100.275 186.105 100.04 186.287 99.88C186.479 99.72 186.719 99.64 187.007 99.64C187.295 99.64 187.535 99.72 187.727 99.88C187.919 100.04 188.015 100.275 188.015 100.584V110.136C188.015 110.445 187.919 110.685 187.727 110.856C187.535 111.016 187.295 111.096 187.007 111.096ZM196.269 108.856C196.45 108.856 196.594 108.925 196.701 109.064C196.818 109.203 196.877 109.389 196.877 109.624C196.877 109.955 196.68 110.232 196.285 110.456C195.922 110.659 195.512 110.824 195.053 110.952C194.594 111.069 194.157 111.128 193.741 111.128C192.482 111.128 191.485 110.765 190.749 110.04C190.013 109.315 189.645 108.323 189.645 107.064C189.645 106.264 189.805 105.555 190.125 104.936C190.445 104.317 190.893 103.837 191.469 103.496C192.056 103.155 192.717 102.984 193.453 102.984C194.157 102.984 194.77 103.139 195.293 103.448C195.816 103.757 196.221 104.195 196.509 104.76C196.797 105.325 196.941 105.992 196.941 106.76C196.941 107.219 196.738 107.448 196.333 107.448H191.613C191.677 108.184 191.885 108.728 192.237 109.08C192.589 109.421 193.101 109.592 193.773 109.592C194.114 109.592 194.413 109.549 194.669 109.464C194.936 109.379 195.234 109.261 195.565 109.112C195.885 108.941 196.12 108.856 196.269 108.856ZM193.501 104.392C192.957 104.392 192.52 104.563 192.189 104.904C191.869 105.245 191.677 105.736 191.613 106.376H195.229C195.208 105.725 195.048 105.235 194.749 104.904C194.45 104.563 194.034 104.392 193.501 104.392ZM201.409 111.128C200.246 111.128 199.308 110.899 198.593 110.44C198.252 110.237 198.081 109.949 198.081 109.576C198.081 109.363 198.14 109.192 198.257 109.064C198.374 108.925 198.518 108.856 198.689 108.856C198.87 108.856 199.121 108.941 199.441 109.112C199.782 109.272 200.092 109.395 200.369 109.48C200.657 109.565 201.02 109.608 201.457 109.608C201.905 109.608 202.252 109.533 202.497 109.384C202.753 109.235 202.881 109.027 202.881 108.76C202.881 108.579 202.828 108.435 202.721 108.328C202.625 108.221 202.444 108.125 202.177 108.04C201.921 107.944 201.526 107.837 200.993 107.72C200.044 107.528 199.361 107.256 198.945 106.904C198.54 106.552 198.337 106.067 198.337 105.448C198.337 104.979 198.476 104.557 198.753 104.184C199.03 103.8 199.409 103.507 199.889 103.304C200.38 103.091 200.934 102.984 201.553 102.984C202.001 102.984 202.433 103.043 202.849 103.16C203.265 103.267 203.638 103.427 203.969 103.64C204.31 103.853 204.481 104.136 204.481 104.488C204.481 104.701 204.422 104.883 204.305 105.032C204.188 105.171 204.044 105.24 203.873 105.24C203.756 105.24 203.638 105.219 203.521 105.176C203.414 105.123 203.276 105.048 203.105 104.952C202.796 104.792 202.529 104.675 202.305 104.6C202.081 104.515 201.804 104.472 201.473 104.472C201.078 104.472 200.764 104.552 200.529 104.712C200.305 104.872 200.193 105.091 200.193 105.368C200.193 105.635 200.31 105.837 200.545 105.976C200.78 106.115 201.233 106.253 201.905 106.392C202.62 106.541 203.18 106.712 203.585 106.904C203.99 107.096 204.278 107.336 204.449 107.624C204.63 107.912 204.721 108.28 204.721 108.728C204.721 109.453 204.417 110.035 203.809 110.472C203.212 110.909 202.412 111.128 201.409 111.128ZM214.766 111.144C213.945 111.144 213.166 111.037 212.43 110.824C211.705 110.6 211.113 110.301 210.654 109.928C210.409 109.747 210.286 109.491 210.286 109.16C210.286 108.936 210.35 108.744 210.478 108.584C210.617 108.413 210.777 108.328 210.958 108.328C211.15 108.328 211.369 108.403 211.614 108.552C212.073 108.883 212.553 109.123 213.054 109.272C213.556 109.421 214.11 109.496 214.718 109.496C215.497 109.496 216.094 109.363 216.51 109.096C216.926 108.819 217.134 108.419 217.134 107.896C217.134 107.491 216.937 107.181 216.542 106.968C216.158 106.744 215.513 106.531 214.606 106.328C213.668 106.125 212.905 105.891 212.318 105.624C211.732 105.357 211.289 105.016 210.99 104.6C210.692 104.184 210.542 103.656 210.542 103.016C210.542 102.355 210.729 101.763 211.102 101.24C211.476 100.717 211.993 100.312 212.654 100.024C213.326 99.7253 214.078 99.576 214.91 99.576C216.436 99.576 217.678 99.9813 218.638 100.792C218.777 100.909 218.873 101.027 218.926 101.144C218.99 101.251 219.022 101.389 219.022 101.56C219.022 101.784 218.953 101.981 218.814 102.152C218.686 102.312 218.532 102.392 218.35 102.392C218.244 102.392 218.142 102.376 218.046 102.344C217.961 102.312 217.844 102.253 217.694 102.168C217.257 101.848 216.83 101.613 216.414 101.464C216.009 101.304 215.508 101.224 214.91 101.224C214.185 101.224 213.609 101.373 213.182 101.672C212.766 101.96 212.558 102.365 212.558 102.888C212.558 103.325 212.745 103.661 213.118 103.896C213.492 104.131 214.126 104.349 215.022 104.552C215.972 104.765 216.74 105.005 217.326 105.272C217.924 105.528 218.377 105.859 218.686 106.264C219.006 106.669 219.166 107.176 219.166 107.784C219.166 108.445 218.98 109.032 218.606 109.544C218.244 110.045 217.726 110.44 217.054 110.728C216.393 111.005 215.63 111.144 214.766 111.144ZM225.466 102.984C227.3 102.984 228.218 104.056 228.218 106.2V110.136C228.218 110.435 228.127 110.669 227.946 110.84C227.775 111.011 227.535 111.096 227.226 111.096C226.916 111.096 226.671 111.011 226.49 110.84C226.308 110.669 226.218 110.435 226.218 110.136V106.2C226.218 105.635 226.1 105.224 225.866 104.968C225.642 104.701 225.284 104.568 224.794 104.568C224.218 104.568 223.754 104.749 223.402 105.112C223.06 105.475 222.89 105.96 222.89 106.568V110.136C222.89 110.435 222.799 110.669 222.618 110.84C222.436 111.011 222.191 111.096 221.882 111.096C221.572 111.096 221.327 111.011 221.146 110.84C220.975 110.669 220.89 110.435 220.89 110.136V100.568C220.89 100.291 220.98 100.067 221.162 99.896C221.354 99.7253 221.599 99.64 221.898 99.64C222.196 99.64 222.436 99.72 222.618 99.88C222.799 100.04 222.89 100.259 222.89 100.536V104.264C223.156 103.848 223.508 103.533 223.946 103.32C224.394 103.096 224.9 102.984 225.466 102.984ZM233.817 111.128C233.017 111.128 232.313 110.963 231.705 110.632C231.108 110.301 230.644 109.827 230.313 109.208C229.982 108.589 229.817 107.869 229.817 107.048C229.817 106.227 229.982 105.512 230.313 104.904C230.644 104.285 231.108 103.811 231.705 103.48C232.313 103.149 233.017 102.984 233.817 102.984C234.617 102.984 235.316 103.149 235.913 103.48C236.521 103.811 236.985 104.285 237.305 104.904C237.636 105.512 237.801 106.227 237.801 107.048C237.801 107.869 237.636 108.589 237.305 109.208C236.985 109.827 236.521 110.301 235.913 110.632C235.316 110.963 234.617 111.128 233.817 111.128ZM233.801 109.576C234.452 109.576 234.948 109.363 235.289 108.936C235.63 108.509 235.801 107.88 235.801 107.048C235.801 106.227 235.63 105.603 235.289 105.176C234.948 104.739 234.457 104.52 233.817 104.52C233.177 104.52 232.681 104.739 232.329 105.176C231.988 105.603 231.817 106.227 231.817 107.048C231.817 107.88 231.988 108.509 232.329 108.936C232.67 109.363 233.161 109.576 233.801 109.576ZM243.82 103.016C244.097 102.995 244.316 103.053 244.476 103.192C244.636 103.331 244.716 103.539 244.716 103.816C244.716 104.104 244.647 104.317 244.508 104.456C244.369 104.595 244.119 104.685 243.756 104.728L243.276 104.776C242.647 104.84 242.183 105.053 241.884 105.416C241.596 105.779 241.452 106.232 241.452 106.776V110.136C241.452 110.445 241.356 110.685 241.164 110.856C240.972 111.016 240.732 111.096 240.444 111.096C240.156 111.096 239.916 111.016 239.724 110.856C239.543 110.685 239.452 110.445 239.452 110.136V103.944C239.452 103.645 239.543 103.416 239.724 103.256C239.916 103.096 240.151 103.016 240.428 103.016C240.705 103.016 240.929 103.096 241.1 103.256C241.271 103.405 241.356 103.624 241.356 103.912V104.552C241.559 104.083 241.857 103.72 242.252 103.464C242.657 103.208 243.105 103.064 243.596 103.032L243.82 103.016ZM246.569 111.096C246.281 111.096 246.041 111.016 245.849 110.856C245.668 110.685 245.577 110.445 245.577 110.136V100.584C245.577 100.275 245.668 100.04 245.849 99.88C246.041 99.72 246.281 99.64 246.569 99.64C246.857 99.64 247.097 99.72 247.289 99.88C247.481 100.04 247.577 100.275 247.577 100.584V110.136C247.577 110.445 247.481 110.685 247.289 110.856C247.097 111.016 246.857 111.096 246.569 111.096ZM250.632 111.096C250.344 111.096 250.104 111.016 249.912 110.856C249.73 110.685 249.64 110.445 249.64 110.136V103.96C249.64 103.651 249.73 103.416 249.912 103.256C250.104 103.096 250.344 103.016 250.632 103.016C250.92 103.016 251.16 103.096 251.352 103.256C251.544 103.416 251.64 103.651 251.64 103.96V110.136C251.64 110.445 251.544 110.685 251.352 110.856C251.16 111.016 250.92 111.096 250.632 111.096ZM250.632 101.592C250.269 101.592 249.981 101.496 249.768 101.304C249.554 101.101 249.448 100.84 249.448 100.52C249.448 100.2 249.554 99.944 249.768 99.752C249.981 99.56 250.269 99.464 250.632 99.464C250.984 99.464 251.266 99.56 251.48 99.752C251.704 99.944 251.816 100.2 251.816 100.52C251.816 100.84 251.709 101.101 251.496 101.304C251.282 101.496 250.994 101.592 250.632 101.592ZM256.534 111.128C255.371 111.128 254.433 110.899 253.718 110.44C253.377 110.237 253.206 109.949 253.206 109.576C253.206 109.363 253.265 109.192 253.382 109.064C253.499 108.925 253.643 108.856 253.814 108.856C253.995 108.856 254.246 108.941 254.566 109.112C254.907 109.272 255.217 109.395 255.494 109.48C255.782 109.565 256.145 109.608 256.582 109.608C257.03 109.608 257.377 109.533 257.622 109.384C257.878 109.235 258.006 109.027 258.006 108.76C258.006 108.579 257.953 108.435 257.846 108.328C257.75 108.221 257.569 108.125 257.302 108.04C257.046 107.944 256.651 107.837 256.118 107.72C255.169 107.528 254.486 107.256 254.07 106.904C253.665 106.552 253.462 106.067 253.462 105.448C253.462 104.979 253.601 104.557 253.878 104.184C254.155 103.8 254.534 103.507 255.014 103.304C255.505 103.091 256.059 102.984 256.678 102.984C257.126 102.984 257.558 103.043 257.974 103.16C258.39 103.267 258.763 103.427 259.094 103.64C259.435 103.853 259.606 104.136 259.606 104.488C259.606 104.701 259.547 104.883 259.43 105.032C259.313 105.171 259.169 105.24 258.998 105.24C258.881 105.24 258.763 105.219 258.646 105.176C258.539 105.123 258.401 105.048 258.23 104.952C257.921 104.792 257.654 104.675 257.43 104.6C257.206 104.515 256.929 104.472 256.598 104.472C256.203 104.472 255.889 104.552 255.654 104.712C255.43 104.872 255.318 105.091 255.318 105.368C255.318 105.635 255.435 105.837 255.67 105.976C255.905 106.115 256.358 106.253 257.03 106.392C257.745 106.541 258.305 106.712 258.71 106.904C259.115 107.096 259.403 107.336 259.574 107.624C259.755 107.912 259.846 108.28 259.846 108.728C259.846 109.453 259.542 110.035 258.934 110.472C258.337 110.909 257.537 111.128 256.534 111.128ZM265.454 109.608C265.987 109.64 266.254 109.88 266.254 110.328C266.254 110.584 266.147 110.781 265.934 110.92C265.731 111.048 265.438 111.101 265.054 111.08L264.622 111.048C262.83 110.92 261.934 109.96 261.934 108.168V104.68H261.134C260.846 104.68 260.622 104.616 260.462 104.488C260.312 104.36 260.238 104.173 260.238 103.928C260.238 103.683 260.312 103.496 260.462 103.368C260.622 103.24 260.846 103.176 261.134 103.176H261.934V101.704C261.934 101.416 262.024 101.187 262.206 101.016C262.387 100.845 262.632 100.76 262.942 100.76C263.24 100.76 263.48 100.845 263.662 101.016C263.843 101.187 263.934 101.416 263.934 101.704V103.176H265.294C265.582 103.176 265.8 103.24 265.95 103.368C266.11 103.496 266.19 103.683 266.19 103.928C266.19 104.173 266.11 104.36 265.95 104.488C265.8 104.616 265.582 104.68 265.294 104.68H263.934V108.312C263.934 109.101 264.296 109.523 265.022 109.576L265.454 109.608ZM273.488 108.856C273.669 108.856 273.813 108.925 273.92 109.064C274.037 109.203 274.096 109.389 274.096 109.624C274.096 109.955 273.899 110.232 273.504 110.456C273.141 110.659 272.731 110.824 272.272 110.952C271.813 111.069 271.376 111.128 270.96 111.128C269.701 111.128 268.704 110.765 267.968 110.04C267.232 109.315 266.864 108.323 266.864 107.064C266.864 106.264 267.024 105.555 267.344 104.936C267.664 104.317 268.112 103.837 268.688 103.496C269.275 103.155 269.936 102.984 270.672 102.984C271.376 102.984 271.989 103.139 272.512 103.448C273.035 103.757 273.44 104.195 273.728 104.76C274.016 105.325 274.16 105.992 274.16 106.76C274.16 107.219 273.957 107.448 273.552 107.448H268.832C268.896 108.184 269.104 108.728 269.456 109.08C269.808 109.421 270.32 109.592 270.992 109.592C271.333 109.592 271.632 109.549 271.888 109.464C272.155 109.379 272.453 109.261 272.784 109.112C273.104 108.941 273.339 108.856 273.488 108.856ZM270.72 104.392C270.176 104.392 269.739 104.563 269.408 104.904C269.088 105.245 268.896 105.736 268.832 106.376H272.448C272.427 105.725 272.267 105.235 271.968 104.904C271.669 104.563 271.253 104.392 270.72 104.392ZM282.324 99.64C282.623 99.64 282.868 99.7253 283.06 99.896C283.252 100.067 283.348 100.291 283.348 100.568V110.136C283.348 110.424 283.257 110.653 283.076 110.824C282.895 110.995 282.655 111.08 282.356 111.08C282.057 111.08 281.817 110.995 281.636 110.824C281.455 110.653 281.364 110.424 281.364 110.136V109.736C281.129 110.173 280.788 110.515 280.34 110.76C279.903 111.005 279.401 111.128 278.836 111.128C278.164 111.128 277.561 110.957 277.028 110.616C276.505 110.275 276.095 109.795 275.796 109.176C275.508 108.547 275.364 107.827 275.364 107.016C275.364 106.205 275.508 105.496 275.796 104.888C276.095 104.28 276.505 103.811 277.028 103.48C277.551 103.149 278.153 102.984 278.836 102.984C279.401 102.984 279.903 103.101 280.34 103.336C280.777 103.571 281.113 103.901 281.348 104.328V100.536C281.348 100.269 281.433 100.056 281.604 99.896C281.785 99.7253 282.025 99.64 282.324 99.64ZM279.364 109.576C280.004 109.576 280.495 109.357 280.836 108.92C281.188 108.483 281.364 107.859 281.364 107.048C281.364 106.237 281.188 105.619 280.836 105.192C280.495 104.755 280.009 104.536 279.38 104.536C278.74 104.536 278.244 104.749 277.892 105.176C277.54 105.603 277.364 106.216 277.364 107.016C277.364 107.827 277.54 108.456 277.892 108.904C278.244 109.352 278.735 109.576 279.364 109.576Z" fill="#956209"/>
<path d="M162.977 158.615C160.777 158.628 159 160.415 159 162.615V206C159 208.209 160.791 210 163 210H266C268.209 210 270 208.209 270 206V162.24L270 162.019C269.997 159.802 268.193 158.01 265.977 158.023L162.977 158.615Z" fill="#EDD85F"/>
<path d="M175.615 180.144C174.516 180.144 173.562 179.909 172.751 179.44C171.951 178.971 171.332 178.299 170.895 177.424C170.458 176.549 170.239 175.525 170.239 174.352C170.239 173.179 170.452 172.16 170.879 171.296C171.316 170.421 171.94 169.749 172.751 169.28C173.562 168.811 174.516 168.576 175.615 168.576C176.714 168.576 177.663 168.811 178.463 169.28C179.274 169.749 179.892 170.421 180.319 171.296C180.756 172.16 180.975 173.179 180.975 174.352C180.975 175.525 180.756 176.549 180.319 177.424C179.882 178.299 179.258 178.971 178.447 179.44C177.647 179.909 176.703 180.144 175.615 180.144ZM175.615 178.496C176.65 178.496 177.455 178.139 178.031 177.424C178.618 176.709 178.911 175.685 178.911 174.352C178.911 173.019 178.618 172 178.031 171.296C177.455 170.581 176.65 170.224 175.615 170.224C174.57 170.224 173.754 170.581 173.167 171.296C172.591 172 172.303 173.019 172.303 174.352C172.303 175.685 172.591 176.709 173.167 177.424C173.754 178.139 174.57 178.496 175.615 178.496ZM186.836 170.208C186.345 170.24 185.988 170.389 185.764 170.656C185.54 170.923 185.428 171.307 185.428 171.808V172.176H186.788C187.385 172.176 187.684 172.427 187.684 172.928C187.684 173.429 187.385 173.68 186.788 173.68H185.428V179.136C185.428 179.445 185.332 179.68 185.14 179.84C184.958 180 184.724 180.08 184.436 180.08C184.148 180.08 183.908 180 183.716 179.84C183.524 179.68 183.428 179.445 183.428 179.136V173.68H182.628C182.03 173.68 181.732 173.429 181.732 172.928C181.732 172.427 182.03 172.176 182.628 172.176H183.428V172.064C183.428 171.061 183.689 170.277 184.212 169.712C184.745 169.136 185.492 168.811 186.452 168.736L186.868 168.704C187.294 168.672 187.593 168.72 187.764 168.848C187.945 168.965 188.036 169.152 188.036 169.408C188.036 169.867 187.774 170.123 187.252 170.176L186.836 170.208ZM192.43 170.208C191.939 170.24 191.582 170.389 191.358 170.656C191.134 170.923 191.022 171.307 191.022 171.808V172.176H192.382C192.979 172.176 193.278 172.427 193.278 172.928C193.278 173.429 192.979 173.68 192.382 173.68H191.022V179.136C191.022 179.445 190.926 179.68 190.734 179.84C190.552 180 190.318 180.08 190.03 180.08C189.742 180.08 189.502 180 189.31 179.84C189.118 179.68 189.022 179.445 189.022 179.136V173.68H188.222C187.624 173.68 187.325 173.429 187.325 172.928C187.325 172.427 187.624 172.176 188.222 172.176H189.022V172.064C189.022 171.061 189.283 170.277 189.806 169.712C190.339 169.136 191.086 168.811 192.046 168.736L192.462 168.704C192.888 168.672 193.187 168.72 193.358 168.848C193.539 168.965 193.63 169.152 193.63 169.408C193.63 169.867 193.368 170.123 192.846 170.176L192.43 170.208ZM200.326 177.856C200.507 177.856 200.651 177.925 200.758 178.064C200.875 178.203 200.934 178.389 200.934 178.624C200.934 178.955 200.736 179.232 200.342 179.456C199.979 179.659 199.568 179.824 199.11 179.952C198.651 180.069 198.214 180.128 197.798 180.128C196.539 180.128 195.542 179.765 194.806 179.04C194.07 178.315 193.702 177.323 193.702 176.064C193.702 175.264 193.862 174.555 194.182 173.936C194.502 173.317 194.95 172.837 195.526 172.496C196.112 172.155 196.774 171.984 197.51 171.984C198.214 171.984 198.827 172.139 199.35 172.448C199.872 172.757 200.278 173.195 200.566 173.76C200.854 174.325 200.998 174.992 200.998 175.76C200.998 176.219 200.795 176.448 200.39 176.448H195.67C195.734 177.184 195.942 177.728 196.294 178.08C196.646 178.421 197.158 178.592 197.83 178.592C198.171 178.592 198.47 178.549 198.726 178.464C198.992 178.379 199.291 178.261 199.622 178.112C199.942 177.941 200.176 177.856 200.326 177.856ZM197.558 173.392C197.014 173.392 196.576 173.563 196.246 173.904C195.926 174.245 195.734 174.736 195.67 175.376H199.286C199.264 174.725 199.104 174.235 198.806 173.904C198.507 173.563 198.091 173.392 197.558 173.392ZM207.002 172.016C207.279 171.995 207.498 172.053 207.658 172.192C207.818 172.331 207.898 172.539 207.898 172.816C207.898 173.104 207.828 173.317 207.69 173.456C207.551 173.595 207.3 173.685 206.938 173.728L206.458 173.776C205.828 173.84 205.364 174.053 205.066 174.416C204.778 174.779 204.634 175.232 204.634 175.776V179.136C204.634 179.445 204.538 179.685 204.346 179.856C204.154 180.016 203.914 180.096 203.626 180.096C203.338 180.096 203.098 180.016 202.906 179.856C202.724 179.685 202.634 179.445 202.634 179.136V172.944C202.634 172.645 202.724 172.416 202.906 172.256C203.098 172.096 203.332 172.016 203.61 172.016C203.887 172.016 204.111 172.096 204.282 172.256C204.452 172.405 204.538 172.624 204.538 172.912V173.552C204.74 173.083 205.039 172.72 205.434 172.464C205.839 172.208 206.287 172.064 206.778 172.032L207.002 172.016ZM222.303 178.704C222.431 178.896 222.495 179.083 222.495 179.264C222.495 179.509 222.393 179.712 222.191 179.872C221.999 180.032 221.769 180.112 221.503 180.112C221.332 180.112 221.167 180.075 221.007 180C220.857 179.915 220.729 179.792 220.623 179.632L218.495 176.4C218.281 176.059 218.052 175.819 217.807 175.68C217.572 175.541 217.263 175.472 216.879 175.472H215.311V179.056C215.311 179.376 215.22 179.632 215.039 179.824C214.857 180.005 214.612 180.096 214.303 180.096C213.993 180.096 213.743 180.005 213.551 179.824C213.369 179.632 213.279 179.376 213.279 179.056V169.696C213.279 169.387 213.364 169.147 213.535 168.976C213.716 168.805 213.961 168.72 214.271 168.72H218.271C219.551 168.72 220.521 169.008 221.183 169.584C221.855 170.149 222.191 170.971 222.191 172.048C222.191 172.923 221.94 173.643 221.439 174.208C220.948 174.763 220.249 175.12 219.343 175.28C219.652 175.355 219.924 175.488 220.159 175.68C220.393 175.872 220.623 176.139 220.847 176.48L222.303 178.704ZM217.983 173.888C218.761 173.888 219.332 173.744 219.695 173.456C220.057 173.157 220.239 172.704 220.239 172.096C220.239 171.477 220.057 171.029 219.695 170.752C219.332 170.464 218.761 170.32 217.983 170.32H215.295V173.888H217.983ZM227.796 180.128C226.996 180.128 226.292 179.963 225.684 179.632C225.086 179.301 224.622 178.827 224.292 178.208C223.961 177.589 223.796 176.869 223.796 176.048C223.796 175.227 223.961 174.512 224.292 173.904C224.622 173.285 225.086 172.811 225.684 172.48C226.292 172.149 226.996 171.984 227.796 171.984C228.596 171.984 229.294 172.149 229.892 172.48C230.5 172.811 230.964 173.285 231.284 173.904C231.614 174.512 231.78 175.227 231.78 176.048C231.78 176.869 231.614 177.589 231.284 178.208C230.964 178.827 230.5 179.301 229.892 179.632C229.294 179.963 228.596 180.128 227.796 180.128ZM227.78 178.576C228.43 178.576 228.926 178.363 229.268 177.936C229.609 177.509 229.78 176.88 229.78 176.048C229.78 175.227 229.609 174.603 229.268 174.176C228.926 173.739 228.436 173.52 227.796 173.52C227.156 173.52 226.66 173.739 226.308 174.176C225.966 174.603 225.796 175.227 225.796 176.048C225.796 176.88 225.966 177.509 226.308 177.936C226.649 178.363 227.14 178.576 227.78 178.576ZM234.423 180.096C234.135 180.096 233.895 180.016 233.703 179.856C233.521 179.685 233.431 179.445 233.431 179.136V169.584C233.431 169.275 233.521 169.04 233.703 168.88C233.895 168.72 234.135 168.64 234.423 168.64C234.711 168.64 234.951 168.72 235.143 168.88C235.335 169.04 235.431 169.275 235.431 169.584V179.136C235.431 179.445 235.335 179.685 235.143 179.856C234.951 180.016 234.711 180.096 234.423 180.096ZM238.485 180.096C238.197 180.096 237.957 180.016 237.765 179.856C237.584 179.685 237.493 179.445 237.493 179.136V169.584C237.493 169.275 237.584 169.04 237.765 168.88C237.957 168.72 238.197 168.64 238.485 168.64C238.773 168.64 239.013 168.72 239.205 168.88C239.397 169.04 239.493 169.275 239.493 169.584V179.136C239.493 179.445 239.397 179.685 239.205 179.856C239.013 180.016 238.773 180.096 238.485 180.096ZM247.748 177.856C247.929 177.856 248.073 177.925 248.18 178.064C248.297 178.203 248.356 178.389 248.356 178.624C248.356 178.955 248.158 179.232 247.764 179.456C247.401 179.659 246.99 179.824 246.532 179.952C246.073 180.069 245.636 180.128 245.22 180.128C243.961 180.128 242.964 179.765 242.228 179.04C241.492 178.315 241.124 177.323 241.124 176.064C241.124 175.264 241.284 174.555 241.604 173.936C241.924 173.317 242.372 172.837 242.948 172.496C243.534 172.155 244.196 171.984 244.932 171.984C245.636 171.984 246.249 172.139 246.772 172.448C247.294 172.757 247.7 173.195 247.988 173.76C248.276 174.325 248.42 174.992 248.42 175.76C248.42 176.219 248.217 176.448 247.812 176.448H243.092C243.156 177.184 243.364 177.728 243.716 178.08C244.068 178.421 244.58 178.592 245.252 178.592C245.593 178.592 245.892 178.549 246.148 178.464C246.414 178.379 246.713 178.261 247.044 178.112C247.364 177.941 247.598 177.856 247.748 177.856ZM244.98 173.392C244.436 173.392 243.998 173.563 243.668 173.904C243.348 174.245 243.156 174.736 243.092 175.376H246.708C246.686 174.725 246.526 174.235 246.228 173.904C245.929 173.563 245.513 173.392 244.98 173.392ZM256.584 168.64C256.882 168.64 257.128 168.725 257.32 168.896C257.512 169.067 257.608 169.291 257.608 169.568V179.136C257.608 179.424 257.517 179.653 257.336 179.824C257.154 179.995 256.914 180.08 256.616 180.08C256.317 180.08 256.077 179.995 255.896 179.824C255.714 179.653 255.624 179.424 255.624 179.136V178.736C255.389 179.173 255.048 179.515 254.6 179.76C254.162 180.005 253.661 180.128 253.096 180.128C252.424 180.128 251.821 179.957 251.288 179.616C250.765 179.275 250.354 178.795 250.056 178.176C249.768 177.547 249.624 176.827 249.624 176.016C249.624 175.205 249.768 174.496 250.056 173.888C250.354 173.28 250.765 172.811 251.288 172.48C251.81 172.149 252.413 171.984 253.096 171.984C253.661 171.984 254.162 172.101 254.6 172.336C255.037 172.571 255.373 172.901 255.608 173.328V169.536C255.608 169.269 255.693 169.056 255.864 168.896C256.045 168.725 256.285 168.64 256.584 168.64ZM253.624 178.576C254.264 178.576 254.754 178.357 255.096 177.92C255.448 177.483 255.624 176.859 255.624 176.048C255.624 175.237 255.448 174.619 255.096 174.192C254.754 173.755 254.269 173.536 253.64 173.536C253 173.536 252.504 173.749 252.152 174.176C251.8 174.603 251.624 175.216 251.624 176.016C251.624 176.827 251.8 177.456 252.152 177.904C252.504 178.352 252.994 178.576 253.624 178.576ZM206.42 202.144C205.321 202.144 204.366 201.909 203.556 201.44C202.756 200.971 202.137 200.299 201.7 199.424C201.262 198.549 201.044 197.525 201.044 196.352C201.044 195.179 201.257 194.16 201.684 193.296C202.121 192.421 202.745 191.749 203.556 191.28C204.366 190.811 205.321 190.576 206.42 190.576C207.518 190.576 208.468 190.811 209.268 191.28C210.078 191.749 210.697 192.421 211.124 193.296C211.561 194.16 211.78 195.179 211.78 196.352C211.78 197.525 211.561 198.549 211.124 199.424C210.686 200.299 210.062 200.971 209.252 201.44C208.452 201.909 207.508 202.144 206.42 202.144ZM206.42 200.496C207.454 200.496 208.26 200.139 208.836 199.424C209.422 198.709 209.716 197.685 209.716 196.352C209.716 195.019 209.422 194 208.836 193.296C208.26 192.581 207.454 192.224 206.42 192.224C205.374 192.224 204.558 192.581 203.972 193.296C203.396 194 203.108 195.019 203.108 196.352C203.108 197.685 203.396 198.709 203.972 199.424C204.558 200.139 205.374 200.496 206.42 200.496ZM219.864 194.016C220.174 194.016 220.419 194.101 220.6 194.272C220.782 194.443 220.872 194.672 220.872 194.96V201.168C220.872 201.445 220.776 201.669 220.584 201.84C220.403 202.011 220.163 202.096 219.864 202.096C219.576 202.096 219.347 202.016 219.176 201.856C219.006 201.696 218.92 201.477 218.92 201.2V200.8C218.675 201.227 218.344 201.557 217.928 201.792C217.512 202.016 217.043 202.128 216.52 202.128C214.6 202.128 213.64 201.051 213.64 198.896V194.96C213.64 194.672 213.731 194.443 213.912 194.272C214.094 194.101 214.334 194.016 214.632 194.016C214.942 194.016 215.187 194.101 215.368 194.272C215.55 194.443 215.64 194.672 215.64 194.96V198.912C215.64 199.467 215.752 199.877 215.976 200.144C216.2 200.411 216.552 200.544 217.032 200.544C217.587 200.544 218.03 200.363 218.36 200C218.702 199.627 218.872 199.136 218.872 198.528V194.96C218.872 194.672 218.963 194.443 219.144 194.272C219.326 194.101 219.566 194.016 219.864 194.016ZM227.018 200.608C227.551 200.64 227.818 200.88 227.818 201.328C227.818 201.584 227.711 201.781 227.498 201.92C227.295 202.048 227.002 202.101 226.618 202.08L226.186 202.048C224.394 201.92 223.498 200.96 223.498 199.168V195.68H222.698C222.41 195.68 222.186 195.616 222.026 195.488C221.877 195.36 221.802 195.173 221.802 194.928C221.802 194.683 221.877 194.496 222.026 194.368C222.186 194.24 222.41 194.176 222.698 194.176H223.498V192.704C223.498 192.416 223.589 192.187 223.77 192.016C223.951 191.845 224.197 191.76 224.506 191.76C224.805 191.76 225.045 191.845 225.226 192.016C225.407 192.187 225.498 192.416 225.498 192.704V194.176H226.858C227.146 194.176 227.365 194.24 227.514 194.368C227.674 194.496 227.754 194.683 227.754 194.928C227.754 195.173 227.674 195.36 227.514 195.488C227.365 195.616 227.146 195.68 226.858 195.68H225.498V199.312C225.498 200.101 225.861 200.523 226.586 200.576L227.018 200.608Z" fill="#978414"/>
<path d="M265 237H163C160.791 237 159 238.791 159 241V313.826C159 315.297 160.536 316.265 161.863 315.63L267.59 265.028C269.674 264.03 271 261.926 271 259.616V243C271 239.686 268.314 237 265 237Z" fill="#8FC38B"/>
<path d="M169.736 259.112C169.437 259.123 169.203 259.043 169.032 258.872C168.861 258.701 168.776 258.483 168.776 258.216C168.776 258.013 168.84 257.837 168.968 257.688C169.085 257.528 169.261 257.443 169.496 257.432L169.976 257.4C170.925 257.336 171.4 256.813 171.4 255.832V248.632C171.4 247.939 171.741 247.592 172.424 247.592C173.107 247.592 173.448 247.939 173.448 248.632V255.816C173.448 256.819 173.181 257.597 172.648 258.152C172.115 258.707 171.325 259.016 170.28 259.08L169.736 259.112ZM179.264 259.16C178.454 259.16 177.75 258.995 177.152 258.664C176.555 258.333 176.091 257.864 175.76 257.256C175.43 256.637 175.264 255.912 175.264 255.08C175.264 254.248 175.43 253.528 175.76 252.92C176.091 252.312 176.555 251.843 177.152 251.512C177.75 251.181 178.454 251.016 179.264 251.016C180.075 251.016 180.779 251.181 181.376 251.512C181.974 251.843 182.438 252.312 182.768 252.92C183.099 253.528 183.264 254.248 183.264 255.08C183.264 255.912 183.099 256.637 182.768 257.256C182.438 257.864 181.974 258.333 181.376 258.664C180.779 258.995 180.075 259.16 179.264 259.16ZM179.264 257.64C179.862 257.64 180.342 257.427 180.704 257C181.067 256.563 181.248 255.923 181.248 255.08C181.248 254.227 181.067 253.592 180.704 253.176C180.342 252.749 179.862 252.536 179.264 252.536C178.667 252.536 178.187 252.749 177.824 253.176C177.462 253.592 177.28 254.227 177.28 255.08C177.28 255.923 177.462 256.563 177.824 257C178.187 257.427 178.667 257.64 179.264 257.64ZM189.427 259.16C188.851 259.16 188.339 259.037 187.891 258.792C187.443 258.536 187.107 258.195 186.883 257.768V258.104C186.883 258.787 186.558 259.128 185.907 259.128C185.246 259.128 184.915 258.787 184.915 258.104V248.6C184.915 247.928 185.246 247.592 185.907 247.592C186.579 247.592 186.915 247.928 186.915 248.6V252.328C187.15 251.933 187.486 251.619 187.923 251.384C188.371 251.139 188.872 251.016 189.427 251.016C190.12 251.016 190.723 251.181 191.235 251.512C191.747 251.843 192.147 252.312 192.435 252.92C192.723 253.517 192.867 254.237 192.867 255.08C192.867 255.912 192.723 256.637 192.435 257.256C192.147 257.864 191.742 258.333 191.219 258.664C190.707 258.995 190.11 259.16 189.427 259.16ZM188.867 257.64C189.464 257.64 189.944 257.427 190.307 257C190.67 256.563 190.851 255.923 190.851 255.08C190.851 254.227 190.67 253.592 190.307 253.176C189.944 252.749 189.464 252.536 188.867 252.536C188.27 252.536 187.79 252.749 187.427 253.176C187.064 253.592 186.883 254.227 186.883 255.08C186.883 255.923 187.064 256.563 187.427 257C187.79 257.427 188.27 257.64 188.867 257.64ZM202.933 259.16C202.218 259.16 201.519 259.08 200.837 258.92C200.165 258.76 199.578 258.52 199.077 258.2C198.831 258.04 198.682 257.843 198.629 257.608C198.575 257.373 198.591 257.155 198.677 256.952C198.773 256.739 198.917 256.595 199.109 256.52C199.311 256.435 199.541 256.472 199.797 256.632C200.266 256.909 200.762 257.112 201.285 257.24C201.807 257.368 202.357 257.432 202.933 257.432C203.775 257.432 204.389 257.293 204.773 257.016C205.157 256.728 205.349 256.36 205.349 255.912C205.349 255.539 205.21 255.245 204.933 255.032C204.666 254.819 204.202 254.643 203.541 254.504L201.781 254.136C199.775 253.709 198.773 252.68 198.773 251.048C198.773 250.344 198.959 249.731 199.333 249.208C199.706 248.685 200.223 248.28 200.885 247.992C201.546 247.704 202.309 247.56 203.173 247.56C203.813 247.56 204.421 247.64 204.997 247.8C205.573 247.96 206.09 248.195 206.549 248.504C206.762 248.653 206.89 248.84 206.933 249.064C206.975 249.277 206.948 249.48 206.852 249.672C206.757 249.853 206.602 249.981 206.389 250.056C206.186 250.12 205.946 250.072 205.669 249.912C205.274 249.688 204.874 249.528 204.469 249.432C204.063 249.336 203.626 249.288 203.157 249.288C202.421 249.288 201.845 249.443 201.429 249.752C201.013 250.061 200.805 250.467 200.805 250.968C200.805 251.352 200.933 251.661 201.189 251.896C201.445 252.12 201.882 252.296 202.501 252.424L204.245 252.792C205.301 253.016 206.085 253.368 206.597 253.848C207.119 254.328 207.381 254.968 207.381 255.768C207.381 256.44 207.199 257.032 206.837 257.544C206.474 258.056 205.957 258.456 205.285 258.744C204.623 259.021 203.839 259.16 202.933 259.16ZM212.802 259.16C211.917 259.16 211.154 258.995 210.514 258.664C209.874 258.333 209.378 257.864 209.026 257.256C208.685 256.648 208.514 255.928 208.514 255.096C208.514 254.285 208.68 253.576 209.01 252.968C209.352 252.36 209.816 251.885 210.402 251.544C211 251.192 211.677 251.016 212.434 251.016C213.544 251.016 214.418 251.368 215.058 252.072C215.709 252.776 216.034 253.736 216.034 254.952C216.034 255.347 215.778 255.544 215.266 255.544H210.434C210.584 256.941 211.384 257.64 212.834 257.64C213.112 257.64 213.421 257.608 213.762 257.544C214.114 257.469 214.445 257.347 214.754 257.176C215.032 257.016 215.266 256.968 215.458 257.032C215.65 257.085 215.784 257.197 215.858 257.368C215.944 257.539 215.954 257.731 215.89 257.944C215.837 258.147 215.688 258.323 215.442 258.472C215.069 258.707 214.637 258.883 214.146 259C213.666 259.107 213.218 259.16 212.802 259.16ZM212.514 252.376C211.928 252.376 211.453 252.557 211.09 252.92C210.728 253.283 210.509 253.773 210.434 254.392H214.37C214.328 253.741 214.146 253.245 213.826 252.904C213.517 252.552 213.08 252.376 212.514 252.376ZM221.474 259.16C220.589 259.16 219.826 258.995 219.186 258.664C218.546 258.333 218.05 257.864 217.698 257.256C217.357 256.648 217.186 255.928 217.186 255.096C217.186 254.285 217.351 253.576 217.682 252.968C218.023 252.36 218.487 251.885 219.074 251.544C219.671 251.192 220.349 251.016 221.106 251.016C222.215 251.016 223.09 251.368 223.73 252.072C224.381 252.776 224.706 253.736 224.706 254.952C224.706 255.347 224.45 255.544 223.938 255.544H219.106C219.255 256.941 220.055 257.64 221.506 257.64C221.783 257.64 222.093 257.608 222.434 257.544C222.786 257.469 223.117 257.347 223.426 257.176C223.703 257.016 223.938 256.968 224.13 257.032C224.322 257.085 224.455 257.197 224.53 257.368C224.615 257.539 224.626 257.731 224.562 257.944C224.509 258.147 224.359 258.323 224.114 258.472C223.741 258.707 223.309 258.883 222.818 259C222.338 259.107 221.89 259.16 221.474 259.16ZM221.186 252.376C220.599 252.376 220.125 252.557 219.762 252.92C219.399 253.283 219.181 253.773 219.106 254.392H223.042C222.999 253.741 222.818 253.245 222.498 252.904C222.189 252.552 221.751 252.376 221.186 252.376ZM227.282 259.128C226.621 259.128 226.29 258.787 226.29 258.104V248.6C226.29 247.928 226.621 247.592 227.282 247.592C227.954 247.592 228.29 247.928 228.29 248.6V254.504H228.322L230.962 251.72C231.175 251.507 231.362 251.341 231.522 251.224C231.682 251.107 231.901 251.048 232.178 251.048C232.455 251.048 232.663 251.123 232.802 251.272C232.951 251.411 233.026 251.581 233.026 251.784C233.026 251.987 232.93 252.189 232.738 252.392L230.338 254.92L233.01 257.8C233.202 258.003 233.287 258.211 233.266 258.424C233.255 258.627 233.17 258.797 233.01 258.936C232.85 259.064 232.647 259.128 232.402 259.128C232.103 259.128 231.863 259.069 231.682 258.952C231.511 258.835 231.319 258.659 231.106 258.424L228.322 255.512H228.29V258.104C228.29 258.787 227.954 259.128 227.282 259.128ZM238.568 259.16C237.683 259.16 236.92 258.995 236.28 258.664C235.64 258.333 235.144 257.864 234.792 257.256C234.451 256.648 234.28 255.928 234.28 255.096C234.28 254.285 234.445 253.576 234.776 252.968C235.117 252.36 235.581 251.885 236.168 251.544C236.765 251.192 237.443 251.016 238.2 251.016C239.309 251.016 240.184 251.368 240.824 252.072C241.475 252.776 241.8 253.736 241.8 254.952C241.8 255.347 241.544 255.544 241.032 255.544H236.2C236.349 256.941 237.149 257.64 238.6 257.64C238.877 257.64 239.187 257.608 239.528 257.544C239.88 257.469 240.211 257.347 240.52 257.176C240.797 257.016 241.032 256.968 241.224 257.032C241.416 257.085 241.549 257.197 241.624 257.368C241.709 257.539 241.72 257.731 241.656 257.944C241.603 258.147 241.453 258.323 241.208 258.472C240.835 258.707 240.403 258.883 239.912 259C239.432 259.107 238.984 259.16 238.568 259.16ZM238.28 252.376C237.693 252.376 237.219 252.557 236.856 252.92C236.493 253.283 236.275 253.773 236.2 254.392H240.136C240.093 253.741 239.912 253.245 239.592 252.904C239.283 252.552 238.845 252.376 238.28 252.376ZM244.408 259.128C243.725 259.128 243.384 258.787 243.384 258.104V252.056C243.384 251.384 243.709 251.048 244.36 251.048C245.01 251.048 245.336 251.384 245.336 252.056V252.552C245.72 251.635 246.541 251.123 247.8 251.016C248.258 250.963 248.514 251.224 248.568 251.8C248.621 252.365 248.344 252.68 247.736 252.744L247.384 252.776C246.072 252.904 245.416 253.576 245.416 254.792V258.104C245.416 258.787 245.08 259.128 244.408 259.128ZM252.435 259.16C251.977 259.16 251.491 259.112 250.979 259.016C250.467 258.92 250.009 258.755 249.603 258.52C249.379 258.392 249.241 258.237 249.187 258.056C249.134 257.864 249.139 257.688 249.203 257.528C249.278 257.357 249.395 257.235 249.555 257.16C249.726 257.085 249.923 257.101 250.147 257.208C250.574 257.411 250.974 257.555 251.347 257.64C251.721 257.715 252.089 257.752 252.451 257.752C252.963 257.752 253.342 257.667 253.587 257.496C253.843 257.315 253.971 257.08 253.971 256.792C253.971 256.344 253.641 256.056 252.979 255.928L251.379 255.624C250.025 255.368 249.347 254.664 249.347 253.512C249.347 253 249.486 252.557 249.763 252.184C250.051 251.811 250.446 251.523 250.947 251.32C251.449 251.117 252.025 251.016 252.675 251.016C253.614 251.016 254.451 251.224 255.187 251.64C255.39 251.747 255.507 251.896 255.539 252.088C255.582 252.269 255.561 252.445 255.475 252.616C255.401 252.776 255.278 252.893 255.107 252.968C254.937 253.032 254.739 253.011 254.515 252.904C254.185 252.733 253.865 252.611 253.555 252.536C253.257 252.461 252.969 252.424 252.691 252.424C252.169 252.424 251.779 252.515 251.523 252.696C251.278 252.877 251.155 253.117 251.155 253.416C251.155 253.885 251.459 254.173 252.067 254.28L253.667 254.584C254.361 254.712 254.883 254.947 255.235 255.288C255.598 255.629 255.779 256.088 255.779 256.664C255.779 257.443 255.475 258.056 254.867 258.504C254.259 258.941 253.449 259.16 252.435 259.16ZM169.736 281.112C169.437 281.123 169.203 281.043 169.032 280.872C168.861 280.701 168.776 280.483 168.776 280.216C168.776 280.013 168.84 279.837 168.968 279.688C169.085 279.528 169.261 279.443 169.496 279.432L169.976 279.4C170.925 279.336 171.4 278.813 171.4 277.832V270.632C171.4 269.939 171.741 269.592 172.424 269.592C173.107 269.592 173.448 269.939 173.448 270.632V277.816C173.448 278.819 173.181 279.597 172.648 280.152C172.115 280.707 171.325 281.016 170.28 281.08L169.736 281.112ZM179.264 281.16C178.454 281.16 177.75 280.995 177.152 280.664C176.555 280.333 176.091 279.864 175.76 279.256C175.43 278.637 175.264 277.912 175.264 277.08C175.264 276.248 175.43 275.528 175.76 274.92C176.091 274.312 176.555 273.843 177.152 273.512C177.75 273.181 178.454 273.016 179.264 273.016C180.075 273.016 180.779 273.181 181.376 273.512C181.974 273.843 182.438 274.312 182.768 274.92C183.099 275.528 183.264 276.248 183.264 277.08C183.264 277.912 183.099 278.637 182.768 279.256C182.438 279.864 181.974 280.333 181.376 280.664C180.779 280.995 180.075 281.16 179.264 281.16ZM179.264 279.64C179.862 279.64 180.342 279.427 180.704 279C181.067 278.563 181.248 277.923 181.248 277.08C181.248 276.227 181.067 275.592 180.704 275.176C180.342 274.749 179.862 274.536 179.264 274.536C178.667 274.536 178.187 274.749 177.824 275.176C177.462 275.592 177.28 276.227 177.28 277.08C177.28 277.923 177.462 278.563 177.824 279C178.187 279.427 178.667 279.64 179.264 279.64ZM185.907 271.576C185.534 271.576 185.24 271.485 185.027 271.304C184.824 271.112 184.723 270.851 184.723 270.52C184.723 270.179 184.824 269.917 185.027 269.736C185.24 269.555 185.534 269.464 185.907 269.464C186.696 269.464 187.091 269.816 187.091 270.52C187.091 271.224 186.696 271.576 185.907 271.576ZM185.907 281.112C185.587 281.112 185.342 281.016 185.171 280.824C185 280.632 184.915 280.365 184.915 280.024V274.152C184.915 273.427 185.246 273.064 185.907 273.064C186.579 273.064 186.915 273.427 186.915 274.152V280.024C186.915 280.365 186.83 280.632 186.659 280.824C186.488 281.016 186.238 281.112 185.907 281.112ZM189.985 281.128C189.324 281.128 188.993 280.787 188.993 280.104V274.056C188.993 273.384 189.318 273.048 189.969 273.048C190.62 273.048 190.945 273.384 190.945 274.056V274.392C191.212 273.944 191.569 273.603 192.017 273.368C192.476 273.133 192.988 273.016 193.553 273.016C195.398 273.016 196.321 274.088 196.321 276.232V280.104C196.321 280.787 195.99 281.128 195.329 281.128C194.657 281.128 194.321 280.787 194.321 280.104V276.328C194.321 275.72 194.204 275.277 193.969 275C193.745 274.723 193.393 274.584 192.913 274.584C192.326 274.584 191.857 274.771 191.505 275.144C191.164 275.507 190.993 275.992 190.993 276.6V280.104C190.993 280.787 190.657 281.128 189.985 281.128ZM202.209 281.16C201.323 281.16 200.561 280.995 199.921 280.664C199.281 280.333 198.785 279.864 198.433 279.256C198.091 278.648 197.921 277.928 197.921 277.096C197.921 276.285 198.086 275.576 198.417 274.968C198.758 274.36 199.222 273.885 199.809 273.544C200.406 273.192 201.083 273.016 201.841 273.016C202.95 273.016 203.825 273.368 204.465 274.072C205.115 274.776 205.441 275.736 205.441 276.952C205.441 277.347 205.185 277.544 204.673 277.544H199.841C199.99 278.941 200.79 279.64 202.241 279.64C202.518 279.64 202.827 279.608 203.169 279.544C203.521 279.469 203.851 279.347 204.161 279.176C204.438 279.016 204.673 278.968 204.865 279.032C205.057 279.085 205.19 279.197 205.265 279.368C205.35 279.539 205.361 279.731 205.297 279.944C205.243 280.147 205.094 280.323 204.849 280.472C204.475 280.707 204.043 280.883 203.553 281C203.073 281.107 202.625 281.16 202.209 281.16ZM201.921 274.376C201.334 274.376 200.859 274.557 200.497 274.92C200.134 275.283 199.915 275.773 199.841 276.392H203.777C203.734 275.741 203.553 275.245 203.233 274.904C202.923 274.552 202.486 274.376 201.921 274.376ZM210.032 281.16C209.35 281.16 208.747 280.995 208.224 280.664C207.712 280.333 207.312 279.864 207.024 279.256C206.736 278.637 206.592 277.912 206.592 277.08C206.592 276.237 206.736 275.517 207.024 274.92C207.312 274.312 207.712 273.843 208.224 273.512C208.747 273.181 209.35 273.016 210.032 273.016C210.587 273.016 211.088 273.139 211.536 273.384C211.984 273.629 212.32 273.955 212.544 274.36V270.6C212.544 269.928 212.875 269.592 213.536 269.592C214.208 269.592 214.544 269.928 214.544 270.6V280.104C214.544 280.787 214.214 281.128 213.552 281.128C212.891 281.128 212.56 280.787 212.56 280.104V279.768C212.336 280.195 212 280.536 211.552 280.792C211.104 281.037 210.598 281.16 210.032 281.16ZM210.592 279.64C211.19 279.64 211.67 279.427 212.032 279C212.395 278.563 212.576 277.923 212.576 277.08C212.576 276.227 212.395 275.592 212.032 275.176C211.67 274.749 211.19 274.536 210.592 274.536C209.995 274.536 209.515 274.749 209.152 275.176C208.79 275.592 208.608 276.227 208.608 277.08C208.608 277.923 208.79 278.563 209.152 279C209.515 279.427 209.995 279.64 210.592 279.64Z" fill="#0D6306"/>
<path d="M204 71L209.774 61L198.226 61L204 71ZM203 38L203 62L205 62L205 38L203 38Z" fill="white"/>
<path d="M204 150L209.774 140L198.226 140L204 150ZM203 117L203 141L205 141L205 117L203 117Z" fill="white"/>
<path d="M204 234L209.774 224L198.226 224L204 234ZM203 205L203 225L205 225L205 205L203 205Z" fill="white"/>
</svg>
