<svg width="80" height="80" viewBox="0 0 80 80" fill="none" xmlns="http://www.w3.org/2000/svg">
<rect width="80" height="80" rx="16" fill="white"/>
<path d="M37.5112 29.5376C37.5112 32.6942 34.9528 35.252 31.7968 35.252C28.6414 35.252 26.0824 32.6942 26.0824 29.5376C26.0824 26.3816 28.6414 23.8244 31.7968 23.8244C34.9528 23.8244 37.5112 26.3816 37.5112 29.5376ZM65.7646 57.3908L61.4908 62.945L47.116 51.8834C43.1746 55.6358 37.8412 57.9392 31.9696 57.9392C19.8364 57.9392 10 48.1028 10 35.9696C10 23.8364 19.8364 14 31.9696 14C44.104 14 53.9392 23.8364 53.9392 35.9696C53.9392 39.707 53.005 43.2254 51.3586 46.307L65.7646 57.3908ZM49.0432 35.9696C49.0432 26.54 41.3992 18.896 31.9696 18.896C22.54 18.896 14.8966 26.54 14.8966 35.9696C14.8966 41.7314 17.7502 46.8254 22.1212 49.9172V42.8234C22.1212 39.0914 25.7368 36.0668 29.4688 36.0668L34.126 36.068C37.8574 36.068 41.4748 39.0914 41.4748 42.8234V50.1548C46.0384 47.09 49.0432 41.8808 49.0432 35.9696ZM68.6332 59.5982L66.7696 58.1648L62.4964 63.7178L64.3594 65.1524C65.8924 66.3314 68.0926 66.0458 69.274 64.5116C70.4524 62.978 70.1662 60.7778 68.6332 59.5982Z" fill="#4D6CD9"/>
</svg>
