<svg width="100" height="100" viewBox="0 0 100 100" fill="none" xmlns="http://www.w3.org/2000/svg">
<circle cx="50" cy="50" r="50" fill="#E8EAFA"/>
<mask id="mask0_4713_12580" style="mask-type:alpha" maskUnits="userSpaceOnUse" x="0" y="0" width="100" height="100">
<circle cx="50" cy="50" r="50" fill="#C4C4C4"/>
</mask>
<g mask="url(#mask0_4713_12580)">
<path d="M60.8314 25.6294C60.0619 26.6072 59.5127 27.7397 59.2214 28.9494C55.9714 24.6694 53.5914 16.2694 58.2214 12.4194C65.1614 6.63942 65.2814 21.1894 60.8314 25.6294Z" fill="#432918"/>
<path d="M68.1614 97.7695C68.1614 97.7695 75.3814 126.219 76.0814 132.819C76.0814 132.819 78.8814 136.149 79.3414 133.269C80.2614 127.529 78.9514 97.4595 77.4814 95.0795C76.0114 92.6995 68.1614 97.7695 68.1614 97.7695Z" fill="#E89776"/>
<path d="M74.0214 63.4495L76.3914 64.2195C76.3914 64.2195 80.1514 93.3995 76.9714 99.9195C73.7914 106.439 70.1414 99.9195 68.9714 99.1495C67.8014 98.3795 60.1614 65.3595 60.1614 65.3595L74.0214 63.4495Z" fill="#E89776"/>
<path d="M79.1614 96.5295L77.6114 59.9795C75.8914 50.9795 66.7114 53.6695 66.7114 53.6695C59.2514 55.6095 59.6114 63.9595 59.6114 63.9595L66.0214 98.9595C66.0214 98.9595 67.3614 104.319 74.2514 104.319C74.2514 104.34 79.3414 103.649 79.1614 96.5295Z" fill="#14171C"/>
<path d="M66.6515 100.209C66.6515 100.209 69.8515 121.699 74.4315 134.869C76.4923 135.066 78.57 134.992 80.6115 134.649C80.6115 134.649 80.9515 103.839 78.4115 93.8694C78.4115 93.8694 65.7415 94.1294 66.6515 100.209Z" fill="#14171C"/>
<path d="M69.5316 104.169L76.2116 63.3194C76.2116 63.3194 78.5216 57.1794 73.9116 54.1094L56.3616 45.8594H43.9716L22.8716 58.3294L36.7016 104.169H69.5316Z" fill="#F5A987"/>
<path d="M25.5916 100.53C23.1616 124.77 24.1616 126.33 24.4116 136.04C24.4116 136.04 23.1216 139.45 20.9316 137.53C18.7416 135.61 15.2416 103.39 16.3416 100.82C17.9816 97.0095 25.5916 100.53 25.5916 100.53Z" fill="#F5A987"/>
<path d="M30.9415 59.0795C22.7915 57.2295 20.0115 64.7695 20.0115 64.7695C20.0115 64.7695 15.9215 89.8395 16.0115 100.58C16.0115 107.83 24.8915 101.99 25.4715 100.72C26.7515 97.9095 36.0515 67.7195 36.0515 67.7195C36.0515 67.7195 36.4915 60.5995 30.9415 59.0795Z" fill="#F5A987"/>
<path d="M26.8116 101.129L37.3716 66.8694C37.1416 58.3494 28.8016 57.0794 28.8016 57.0794C20.9616 56.3294 19.2516 63.0794 19.2516 63.0794L15.4616 97.3694C15.4616 97.3694 14.1716 105.079 18.6216 105.189C18.6216 105.189 26.1016 105.999 26.8116 101.129Z" fill="#181C22"/>
<path d="M27.4515 99.0494C27.4515 99.0494 26.0815 127.829 25.5915 133.769L19.1615 135.069C19.1615 135.069 13.3515 106.219 15.4615 97.3694C15.4615 97.3694 23.8515 92.7694 27.4515 99.0494Z" fill="#181C22"/>
<path d="M43.9114 36.8293V50.0693H57.9114C57.9114 50.0693 54.4614 44.8193 56.1614 36.8293H43.9114Z" fill="#F5A987"/>
<path d="M51.0114 48.0694C52.2714 48.8794 54.9514 50.6094 56.4814 49.5994C56.6569 49.4889 56.8072 49.3428 56.9226 49.1706C57.0381 48.9983 57.116 48.8037 57.1514 48.5994C55.6057 44.8851 55.2562 40.7815 56.1514 36.8594H43.9114V38.0594C45.4414 41.9094 47.4114 45.7694 51.0114 48.0694Z" fill="#E28C72"/>
<path d="M43.5814 37.0195C43.5814 37.0195 41.1914 36.0195 38.5014 30.0895C38.5014 30.0895 32.6414 23.0895 36.7914 15.1995C36.7914 15.1995 39.2414 8.50946 51.1314 10.3795C51.1614 10.3795 52.1614 28.3195 43.5814 37.0195Z" fill="#F5A47F"/>
<path d="M58.2116 40.5995L59.0016 38.5195L61.1616 30.7695C61.4231 29.6987 61.4606 28.5855 61.2716 27.4995C61.0364 26.3919 61.0364 25.2472 61.2716 24.1395C62.6516 18.5795 59.8116 15.4295 59.8116 15.4295C56.6716 10.1895 48.9516 10.0195 48.9516 10.0195C39.3916 10.2695 38.3816 19.4895 38.3816 19.4895C36.6816 25.5995 41.4516 30.8295 41.4616 30.8395C41.8416 31.2495 41.6016 33.2695 41.7016 33.8395C42.1516 36.2995 44.4616 37.8395 46.5116 38.9495C48.8426 40.3266 51.3986 41.2812 54.0616 41.7695C55.0216 41.8695 57.7616 41.7695 58.2116 40.5995Z" fill="#F5A987"/>
<path d="M34.4316 103.059C34.4316 104.429 32.4316 118.669 33.2616 118.849C33.2616 118.849 56.8816 124.289 69.4816 118.849L69.5316 104.169L76.2116 63.3194C76.2116 63.3194 78.5216 57.1794 73.9116 54.1094L56.3616 45.8594L57.5416 49.4094L55.0016 56.6294L44.0016 45.8594L22.8716 58.3294C24.0382 62.236 25.2149 66.146 26.4016 70.0594C28.5716 77.2594 30.6916 84.4894 32.9316 91.6794C32.9316 91.6794 34.7916 99.4694 34.4316 103.059Z" fill="white"/>
<path d="M53.4814 48.4294L53.3414 55.0094L50.9114 52.6394L53.4814 48.4294Z" fill="#DADADA"/>
<path d="M56.5614 59.0294C56.5614 59.2153 56.5063 59.397 56.403 59.5516C56.2997 59.7062 56.1529 59.8267 55.9811 59.8978C55.8094 59.969 55.6204 59.9876 55.438 59.9513C55.2557 59.915 55.0882 59.8255 54.9567 59.694C54.8253 59.5626 54.7357 59.3951 54.6995 59.2127C54.6632 59.0304 54.6818 58.8414 54.7529 58.6696C54.8241 58.4979 54.9446 58.3511 55.0992 58.2478C55.2537 58.1445 55.4355 58.0894 55.6214 58.0894C55.8707 58.0894 56.1098 58.1884 56.2861 58.3647C56.4624 58.541 56.5614 58.7801 56.5614 59.0294Z" fill="#EDEDED"/>
<path d="M56.5616 76.0694C56.5636 76.2557 56.5101 76.4384 56.4081 76.5943C56.306 76.7502 56.1599 76.8723 55.9883 76.9449C55.8167 77.0176 55.6274 77.0377 55.4444 77.0025C55.2614 76.9674 55.093 76.8787 54.9605 76.7476C54.8281 76.6166 54.7375 76.4491 54.7004 76.2665C54.6634 76.0839 54.6814 75.8944 54.7522 75.722C54.8231 75.5497 54.9435 75.4023 55.0983 75.2985C55.2531 75.1948 55.4352 75.1394 55.6216 75.1394C55.8692 75.1394 56.1068 75.2371 56.2828 75.4112C56.4588 75.5853 56.559 75.8218 56.5616 76.0694Z" fill="#EDEDED"/>
<path d="M56.5614 93.1194C56.5614 93.3054 56.5063 93.4871 56.403 93.6417C56.2997 93.7963 56.1529 93.9167 55.9811 93.9879C55.8094 94.059 55.6204 94.0776 55.438 94.0414C55.2557 94.0051 55.0882 93.9156 54.9567 93.7841C54.8253 93.6527 54.7357 93.4852 54.6995 93.3028C54.6632 93.1205 54.6818 92.9315 54.7529 92.7597C54.8241 92.588 54.9446 92.4411 55.0992 92.3379C55.2537 92.2346 55.4355 92.1794 55.6214 92.1794C55.8707 92.1794 56.1098 92.2785 56.2861 92.4548C56.4624 92.631 56.5614 92.8701 56.5614 93.1194Z" fill="#EDEDED"/>
<path d="M53.4814 55.7595V120.44" stroke="#EDEDED" stroke-width="2.95" stroke-miterlimit="10"/>
<path d="M53.4816 48.2795C53.4816 48.2795 45.7316 45.2795 43.9116 42.2795L41.6216 46.6395L49.7916 54.4795L53.4816 48.4295" fill="#EDEDED"/>
<path d="M45.8816 16.9795C45.6216 17.4495 44.5816 20.7395 45.8816 22.3795C43.1816 24.4595 44.4816 28.6495 44.4816 28.6495H43.8316C40.0416 27.6495 41.3116 34.8295 41.3116 34.8295C41.3116 34.6695 40.6516 34.2695 40.5316 34.1495C39.4735 32.8532 38.5394 31.4604 37.7416 29.9895C35.0716 25.1095 35.3316 24.8595 34.6116 21.9895C34.1216 19.9895 34.3316 14.6795 37.2016 11.9895C37.1616 12.0295 40.5216 12.0295 45.8816 16.9795Z" fill="#432918"/>
<path d="M42.8914 31.7696C42.5122 32.0771 42.0396 32.2464 41.5514 32.2496C40.7644 32.2222 40.0172 31.8973 39.4604 31.3406C38.9036 30.7838 38.5787 30.0365 38.5514 29.2496C38.4909 28.8609 38.5118 28.4639 38.6127 28.0838C38.7137 27.7036 38.8926 27.3486 39.1379 27.0411C39.3833 26.7337 39.6899 26.4806 40.0382 26.2979C40.3865 26.1151 40.769 26.0067 41.1614 25.9796C41.518 25.9741 41.8721 26.0393 42.2034 26.1715C42.5347 26.3036 42.8365 26.5001 43.0914 26.7496C43.4282 27.1876 43.6676 27.6926 43.7935 28.2307C43.9194 28.7688 43.9289 29.3275 43.8214 29.8696C43.7626 30.5977 43.4303 31.2765 42.8914 31.7696Z" fill="#F5A987"/>
<path d="M41.8114 27.5595C41.6814 26.6595 39.8814 27.6095 40.1814 28.1095C40.3948 28.3847 40.6597 28.6156 40.9614 28.7895C41.1302 28.9012 41.2724 29.0487 41.3778 29.2215C41.4832 29.3943 41.5493 29.5882 41.5714 29.7895C41.5714 29.8395 41.5714 29.9995 41.5714 30.0395C41.3414 30.2195 40.5214 29.3595 40.3414 29.1795C40.1761 28.983 40.063 28.7482 40.0123 28.4965C39.9616 28.2449 39.9751 27.9845 40.0514 27.7395C40.0974 27.5152 40.2253 27.3161 40.4102 27.1811C40.5952 27.0461 40.8238 26.9849 41.0514 27.0095C41.4614 27.0095 41.8914 27.0095 41.8814 27.5395C41.8814 27.5395 41.8814 27.6395 41.8814 27.5895L41.8114 27.5595Z" fill="#EA8F72"/>
<path d="M41.2715 28.5294C41.4515 28.3294 41.6415 28.4794 41.8415 28.6194C42.0246 28.7392 42.1538 28.9258 42.2015 29.1394C42.34 29.6483 42.2829 30.1906 42.0415 30.6594C41.9416 30.8365 41.7963 30.9836 41.6204 31.0856C41.4446 31.1876 41.2447 31.2407 41.0415 31.2394C40.4815 31.2394 40.2915 30.7594 40.2515 30.2894C40.2515 30.1694 40.2515 29.8694 40.3315 29.7894C40.4115 29.7094 40.5715 29.8994 40.6615 29.9894C40.8015 30.0891 40.9696 30.1416 41.1415 30.1394C41.2967 30.1394 41.4498 30.1033 41.5887 30.0339C41.7275 29.9644 41.8483 29.8636 41.9415 29.7394C41.9757 29.6939 42.0027 29.6433 42.0215 29.5894C42.0215 29.8994 42.0215 29.9694 42.0215 29.7994C41.997 29.7237 41.9598 29.6527 41.9115 29.5894C41.7485 29.3998 41.5748 29.2195 41.3915 29.0494C41.3215 28.9594 41.1815 28.6394 41.2715 28.5294Z" fill="#EA8F72"/>
<path d="M40.4716 47.9294L49.8516 80.9294L48.4616 140.829C48.4616 140.829 33.8716 139.939 27.4616 134.169L31.9516 99.1694L22.8716 58.3294L40.4716 47.9294Z" fill="#181C22"/>
<path d="M40.4714 47.9294L49.8514 80.9294V82.4894L37.9914 70.3694C37.9914 70.3694 36.7514 68.2694 38.4314 67.0294L41.2214 64.3594L39.2214 62.9294C39.2214 62.9294 36.4314 61.5694 36.7714 59.0294L37.5714 49.4794L40.4714 47.9294Z" fill="#28333A"/>
<path d="M61.2615 48.1594L71.9515 53.1594C71.9515 53.1594 78.0315 54.7694 76.7915 61.0794L73.2815 96.0194L75.0415 133.019C75.0415 133.019 76.5415 139.899 64.1615 138.769L59.7615 80.0194L61.2615 48.1594Z" fill="#181C22"/>
<path d="M60.0215 48.6095C59.2465 46.4841 57.7634 44.6903 55.8215 43.5295L56.2715 53.0195C56.2715 53.0195 58.2115 48.1695 60.0215 48.6095Z" fill="#EDEDED"/>
<path d="M60.3414 53.0194L60.0214 48.6094C58.9514 48.3494 58.0214 49.8394 57.2214 51.0694L60.3414 53.0194Z" fill="#DADADA"/>
<path d="M61.2615 48.1594L64.0215 49.4594L66.0215 58.6494C66.0215 58.6494 67.0215 61.0294 65.5715 61.6494L62.9615 63.1694L66.6215 65.4894C66.8749 65.6303 67.0966 65.8219 67.2726 66.0523C67.4487 66.2826 67.5754 66.5468 67.6448 66.8283C67.7143 67.1098 67.725 67.4026 67.6762 67.6884C67.6275 67.9742 67.5203 68.2469 67.3615 68.4894L60.0215 82.7694L59.7915 80.3194L61.2615 48.1594Z" fill="#28333A"/>
<path d="M42.8915 36.5995C46.022 39.4128 49.9293 41.2148 54.1015 41.7695C57.7715 42.1495 58.2715 40.5795 58.2715 40.5795C59.4115 38.5795 61.0215 31.3895 61.0215 31.3895C61.0215 31.6095 59.4515 30.8295 59.2915 30.7695C58.0632 30.4198 56.7742 30.338 55.5115 30.5295C54.2731 30.5637 53.063 30.9075 51.9915 31.5295C51.8615 31.6095 50.9215 32.5295 50.8415 32.5295C50.1915 32.4495 48.6615 32.2095 48.6615 32.2095C47.6945 32.1135 46.7782 31.731 46.0299 31.1111C45.2817 30.4911 44.7355 29.6618 44.4615 28.7295H43.8115L42.8115 33.1895C42.8115 33.1895 42.0815 35.9895 42.8915 36.5995ZM57.3815 37.5995C55.9615 38.5995 53.1515 37.7995 52.2915 36.2995C52.008 35.8077 51.8249 35.2646 51.7528 34.7016C51.6807 34.1386 51.721 33.5668 51.8715 33.0195C52.2915 31.9095 53.5415 31.7795 54.5515 31.6495C55.8338 31.4079 57.1452 31.3607 58.4415 31.5095C59.0815 31.6295 59.1115 32.0895 59.2515 32.8395C59.3274 33.7248 59.1982 34.6157 58.8739 35.443C58.5496 36.2703 58.0389 37.0116 57.3815 37.6095V37.5995Z" fill="#B78167"/>
<path d="M52.7215 50.8095L52.4415 50.2695L50.4915 53.2595L52.1615 53.8595L52.7215 50.8095Z" fill="#007FC8"/>
<path d="M57.2214 51.0695L57.7714 50.2295C58.0504 50.4459 58.2743 50.7252 58.4248 51.0446C58.5754 51.3641 58.6482 51.7145 58.6375 52.0675C58.6268 52.4204 58.5328 52.7658 58.3631 53.0755C58.1935 53.3852 57.9531 53.6504 57.6614 53.8495C57.656 52.9059 57.5077 51.9686 57.2214 51.0695Z" fill="#007FC8"/>
<path d="M52.7214 50.7695C52.7214 50.7695 54.3714 52.2395 57.2214 51.0395C57.4927 51.443 57.6726 51.9008 57.7485 52.3809C57.8245 52.8611 57.7948 53.352 57.6614 53.8195L56.1614 56.8995H54.1614L52.1614 53.8495C52.1614 53.8495 51.9514 53.1795 52.7214 50.7695Z" fill="#007FC8"/>
<path d="M54.1214 56.9094L52.4514 100.559L55.9414 107.339L58.7814 100.599L56.1914 56.9094H54.1214Z" fill="#006CA9"/>
<path d="M46.4214 16.3795L43.2414 14.7695L37.1614 12.0295C37.1614 12.0295 37.1614 7.87946 44.8014 6.27946C44.8214 6.27946 54.1614 4.76946 61.6514 8.76946C61.6514 8.76946 63.6514 9.87946 65.2814 8.89946C65.2814 8.86946 62.7014 19.7095 46.4214 16.3795Z" fill="#432918"/>
</g>
</svg>
