<svg width="80" height="80" viewBox="0 0 80 80" fill="none" xmlns="http://www.w3.org/2000/svg">
<rect x="1" y="1" width="78" height="78" rx="15" fill="white" stroke="#DFE5FF" stroke-width="2"/>
<path d="M23.8132 38.7509C23.9188 38.753 24.014 38.7127 24.0971 38.6516C24.3711 40.3241 25.0848 42.3538 26.8452 43.7764C26.8452 43.7764 30.8752 46.9726 35.1212 43.7121C36.8403 42.2796 37.5347 40.2629 37.7987 38.6061C37.8918 38.6897 38.0031 38.7504 38.1286 38.7509C38.5056 38.7519 39.0138 38.2098 39.5622 36.1032C40.2487 33.4665 39.6009 32.9526 38.9777 32.9604C38.8888 32.9615 38.8005 32.9735 38.7163 32.9907C38.7189 32.973 38.7205 32.963 38.7205 32.963C40.4615 25.661 36.833 25.3834 36.2553 25.3845C36.2061 25.3845 36.1795 25.3865 36.1795 25.3865C35.8715 24.0115 34.1205 22.5872 32.2927 22.5412C32.0318 22.5344 31.7688 22.5564 31.5084 22.6097C30.858 22.7441 29.9911 22.7891 29.1065 22.7875C27.161 22.7833 25.1302 22.5527 25.1302 22.5527C25.0701 23.4609 25.8486 24.0915 25.8486 24.0915C21.4196 26.793 23.2611 32.9379 23.2611 32.9379L23.2595 32.9955C23.1351 32.9583 23.1116 32.9604 22.9683 32.9594C22.3466 32.9547 21.7046 33.4733 22.389 36.1027C22.9327 38.192 23.4373 38.743 23.8132 38.7509Z" fill="#9BA9E8"/>
<path d="M43.9134 48.4878C39.9079 47.4693 36.6532 45.1783 36.6532 45.1783L34.1138 53.2086L33.6359 54.7201L33.6286 54.6992L33.2114 55.9802L31.8724 52.1822C35.2578 47.4584 30.9752 47.6419 30.9752 47.6419C30.9752 47.6419 26.6926 47.4578 30.078 52.1822L28.727 56.01L28.3139 54.7159L25.2977 45.1777C25.2977 45.1777 22.043 47.4688 18.0375 48.4873C15.05 49.247 14.9078 52.6967 15.028 54.4012L15.0144 54.398C15.0144 54.398 14.9799 56.7686 15.3616 57.7301C15.3616 57.7301 21.1934 61.5207 30.9616 61.5207L30.9564 61.3001L30.9752 61.5207C40.7434 61.5207 46.5752 57.7301 46.5752 57.7301C46.9569 56.7681 46.9224 54.398 46.9224 54.398C47.0432 52.6931 46.8988 49.247 43.9134 48.4878Z" fill="#9BA9E8"/>
<path d="M62.0926 41.8281C60.2783 40.9748 59.355 40.8038 59.2912 40.7698C59.2274 40.7359 56.677 40.189 55.8279 39.3467L58.1875 44.8098L55.6407 44.4344L50.8165 51.4959L55.6407 44.435L51.5213 49.0475L54.2693 39.4962V37.3693C58.9948 37.4111 60.3866 35.3861 60.3866 35.3861C60.3866 35.3861 57.6866 35.3443 57.8534 28.2175C58.0207 21.0906 54.7352 19.9137 53.5102 19.4478C49.9439 18.0916 48.1516 20.2483 48.1516 20.2483C44.0174 19.8661 42.8766 24.3824 43.3843 29.5256C43.892 34.6693 41.0665 35.4698 41.0665 35.4698C43.0078 37.4529 47.1001 37.3274 47.1001 37.3274V39.4962L50.0322 48.9654L46.01 44.4621L45.9917 44.4355L45.987 44.436L45.9865 44.4355L45.987 44.436L43.4455 44.8109L45.6419 39.3373C45.6126 39.3665 45.5807 39.3953 45.5478 39.424C45.5368 39.4335 45.5253 39.4423 45.5143 39.4518C45.4913 39.4711 45.4678 39.4899 45.4432 39.5087C45.4296 39.5192 45.4155 39.5297 45.4014 39.5401C45.3774 39.5579 45.3533 39.5751 45.3282 39.5924C45.3136 39.6029 45.2984 39.6128 45.2832 39.6232C45.2561 39.641 45.2289 39.6588 45.2006 39.6766C45.1865 39.6855 45.1729 39.6944 45.1588 39.7027C45.1201 39.7262 45.0809 39.7493 45.0401 39.7723C45.0359 39.7743 45.0323 39.777 45.0281 39.7791C44.9837 39.8042 44.9382 39.8287 44.8916 39.8533C44.8765 39.8611 44.8608 39.869 44.8451 39.8773C44.8132 39.8936 44.7813 39.9098 44.7484 39.926C44.7301 39.9349 44.7123 39.9437 44.694 39.9521C44.6626 39.9673 44.6313 39.9819 44.5994 39.9966C44.5811 40.0049 44.5633 40.0133 44.545 40.0217C44.511 40.0368 44.477 40.052 44.4425 40.0671C44.4268 40.0739 44.4111 40.0813 44.3949 40.0881C44.3474 40.1084 44.2993 40.1288 44.2517 40.1482C44.2496 40.1492 44.247 40.1503 44.2449 40.1508C44.1931 40.1717 44.1414 40.1926 44.0896 40.2125C44.0776 40.2172 44.0655 40.2219 44.0535 40.2261C44.0138 40.2412 43.9746 40.2564 43.9348 40.271C43.9197 40.2768 43.9045 40.282 43.8894 40.2878C43.8522 40.3014 43.8156 40.315 43.779 40.3275C43.7644 40.3327 43.7503 40.338 43.7356 40.3427C43.6959 40.3568 43.6567 40.3704 43.6175 40.384C43.6075 40.3871 43.5976 40.3908 43.5877 40.3944C43.4862 40.4289 43.3874 40.4614 43.2928 40.4917C42.7679 40.659 42.3668 40.7573 42.3412 40.7709C42.2774 40.8049 41.3546 40.9758 39.5398 41.8291C39.3495 41.9185 39.1796 42.02 39.0254 42.1282C39.0212 42.1308 39.0175 42.1334 39.0133 42.1365C38.9705 42.1669 38.9292 42.1982 38.8889 42.2296C38.8805 42.2364 38.8722 42.2427 38.8638 42.249C38.8256 42.2798 38.7885 42.3107 38.7524 42.342C38.7435 42.3499 38.7352 42.3572 38.7263 42.365C38.6907 42.3964 38.6568 42.4283 38.6233 42.4607C38.6154 42.468 38.6081 42.4753 38.6008 42.4832C38.5673 42.5161 38.5349 42.5496 38.5036 42.5836C38.4989 42.5888 38.4947 42.5935 38.49 42.5987C38.3572 42.7451 38.2442 42.8957 38.1491 43.0458C38.1418 43.0573 38.1344 43.0688 38.1271 43.0798C38.1109 43.1064 38.0952 43.1331 38.0801 43.1592C38.0696 43.177 38.0591 43.1953 38.0492 43.2131C38.0367 43.2361 38.0246 43.2586 38.0126 43.2816C38.0011 43.3035 37.9896 43.3255 37.9786 43.3469C37.9692 43.3663 37.9598 43.3856 37.9504 43.4044C37.9378 43.4306 37.9263 43.4562 37.9148 43.4818C37.908 43.497 37.9012 43.5116 37.895 43.5263C37.8809 43.5587 37.8678 43.5906 37.8552 43.6225C37.8521 43.6303 37.849 43.6381 37.8458 43.6455C37.8145 43.726 37.7873 43.8039 37.7643 43.8776C37.7643 43.8776 37.7643 43.8776 37.7648 43.8776C37.7643 43.8797 37.7632 43.8818 37.7627 43.8844L38.1355 44.081H38.1365C38.1527 44.0899 38.1689 44.0988 38.1857 44.1077C40.0287 45.1011 42.5451 46.291 44.9591 46.9043C47.3113 47.5025 48.2499 49.4365 48.5845 51.3171C49.8754 51.4562 50.7501 51.4938 50.8086 51.4965C50.8107 51.4965 50.8144 51.4965 50.8144 51.4965C50.8149 51.4965 60.9016 51.0923 63.9999 47.5417V44.5374C64.0025 44.5364 63.9069 42.6819 62.0926 41.8281ZM50.8097 51.4844L50.8034 51.451L50.817 51.4954L50.8097 51.4844Z" fill="#9BA9E8"/>
</svg>
