<svg width="120" height="120" viewBox="0 0 120 120" fill="none" xmlns="http://www.w3.org/2000/svg">
<g filter="url(#filter0_d_4143_238910)">
<rect x="20" y="20" width="80" height="80" rx="16" fill="white"/>
</g>
<path d="M66.0059 36.1094V49.2879H77.5237L66.0059 36.1094Z" fill="#4D6CD9"/>
<path d="M64.2143 52.8571C63.7407 52.8571 63.2865 52.669 62.9516 52.3341C62.6167 51.9992 62.4286 51.545 62.4286 51.0714V35H42.7857C42.3121 35 41.8579 35.1881 41.523 35.523C41.1881 35.8579 41 36.3121 41 36.7857V83.2143C41 83.6879 41.1881 84.1421 41.523 84.477C41.8579 84.8119 42.3121 85 42.7857 85H76.7143C77.1879 85 77.6421 84.8119 77.977 84.477C78.3119 84.1421 78.5 83.6879 78.5 83.2143V52.8571H64.2143ZM49.9286 56.4286H67.7857C68.2593 56.4286 68.7135 56.6167 69.0484 56.9516C69.3833 57.2865 69.5714 57.7407 69.5714 58.2143C69.5714 58.6879 69.3833 59.1421 69.0484 59.477C68.7135 59.8119 68.2593 60 67.7857 60H49.9286C49.455 60 49.0008 59.8119 48.6659 59.477C48.331 59.1421 48.1429 58.6879 48.1429 58.2143C48.1429 57.7407 48.331 57.2865 48.6659 56.9516C49.0008 56.6167 49.455 56.4286 49.9286 56.4286V56.4286ZM49.9286 63.5714H60.6429C61.1165 63.5714 61.5707 63.7596 61.9055 64.0945C62.2404 64.4293 62.4286 64.8835 62.4286 65.3571C62.4286 65.8307 62.2404 66.2849 61.9055 66.6198C61.5707 66.9547 61.1165 67.1429 60.6429 67.1429H49.9286C49.455 67.1429 49.0008 66.9547 48.6659 66.6198C48.331 66.2849 48.1429 65.8307 48.1429 65.3571C48.1429 64.8835 48.331 64.4293 48.6659 64.0945C49.0008 63.7596 49.455 63.5714 49.9286 63.5714V63.5714ZM71.3571 74.2857H49.9286C49.455 74.2857 49.0008 74.0976 48.6659 73.7627C48.331 73.4278 48.1429 72.9736 48.1429 72.5C48.1429 72.0264 48.331 71.5722 48.6659 71.2373C49.0008 70.9024 49.455 70.7143 49.9286 70.7143H71.3571C71.8307 70.7143 72.2849 70.9024 72.6198 71.2373C72.9547 71.5722 73.1429 72.0264 73.1429 72.5C73.1429 72.9736 72.9547 73.4278 72.6198 73.7627C72.2849 74.0976 71.8307 74.2857 71.3571 74.2857Z" fill="#4D6CD9"/>
<defs>
<filter id="filter0_d_4143_238910" x="0" y="0" width="120" height="120" filterUnits="userSpaceOnUse" color-interpolation-filters="sRGB">
<feFlood flood-opacity="0" result="BackgroundImageFix"/>
<feColorMatrix in="SourceAlpha" type="matrix" values="0 0 0 0 0 0 0 0 0 0 0 0 0 0 0 0 0 0 127 0" result="hardAlpha"/>
<feOffset/>
<feGaussianBlur stdDeviation="10"/>
<feColorMatrix type="matrix" values="0 0 0 0 0.301961 0 0 0 0 0.423529 0 0 0 0 0.85098 0 0 0 0.16 0"/>
<feBlend mode="normal" in2="BackgroundImageFix" result="effect1_dropShadow_4143_238910"/>
<feBlend mode="normal" in="SourceGraphic" in2="effect1_dropShadow_4143_238910" result="shape"/>
</filter>
</defs>
</svg>
