<svg width="30" height="30" viewBox="0 0 30 30" fill="none" xmlns="http://www.w3.org/2000/svg">
<rect x="0.5" y="0.5" width="29" height="29" rx="7.5" fill="white" stroke="#DFE5FF"/>
<path d="M9 7V22.9895H17.7054V19.2586H21.4363V7H9ZM11.6649 8.77661C11.8406 8.77661 12.0124 8.82871 12.1584 8.92632C12.3045 9.02392 12.4184 9.16266 12.4856 9.32497C12.5528 9.48729 12.5704 9.6659 12.5362 9.83821C12.5019 10.0105 12.4173 10.1688 12.293 10.293C12.1688 10.4173 12.0105 10.5019 11.8382 10.5362C11.6659 10.5704 11.4873 10.5528 11.325 10.4856C11.1627 10.4184 11.0239 10.3045 10.9263 10.1584C10.8287 10.0123 10.7766 9.8406 10.7766 9.66491C10.7766 9.42932 10.8702 9.20338 11.0368 9.03679C11.2034 8.8702 11.4293 8.77661 11.6649 8.77661ZM11.6649 10.9974C12.0183 10.9974 12.3572 11.1378 12.6071 11.3876C12.857 11.6375 12.9974 11.9764 12.9974 12.3298H10.3325C10.3325 11.9764 10.4728 11.6375 10.7227 11.3876C10.9726 11.1378 11.3115 10.9974 11.6649 10.9974ZM20.1038 18.1038H10.3325V17.6597H20.1038V18.1038ZM20.1038 16.3272H10.3325V15.883H20.1038V16.3272ZM20.1038 14.5506H10.3325V14.1064H20.1038V14.5506ZM20.1038 12.3298H13.8857V11.8857H20.1038V12.3298ZM20.1038 10.5532H13.8857V10.1091H20.1038V10.5532Z" fill="#4D6CD9"/>
<path d="M18.144 22.9898L21.4361 19.6978H18.144V22.9898Z" fill="#4D6CD9"/>
</svg>
