<svg width="50" height="50" viewBox="0 0 50 50" fill="none" xmlns="http://www.w3.org/2000/svg">
<path d="M26.7629 25.126C27.2412 25.4021 27.405 26.0137 27.1289 26.492L14.6443 48.1159C14.2295 48.8344 13.1706 48.7644 12.854 47.9975L10.7933 43.0056C10.6202 42.5864 10.1868 42.3361 9.73721 42.3959L4.38375 43.1072C3.5613 43.2165 2.97117 42.3344 3.38601 41.6159L15.8706 19.992C16.1467 19.5137 16.7583 19.3498 17.2366 19.626L26.7629 25.126Z" fill="#04E675"/>
<path d="M32.7629 19.626C33.2412 19.3498 33.8528 19.5137 34.1289 19.992L46.6136 41.6158C47.0285 42.3343 46.4384 43.2164 45.6159 43.1071L40.2624 42.3958C39.8129 42.3361 39.3794 42.5864 39.2064 43.0055L37.1457 47.9975C36.8291 48.7644 35.7702 48.8344 35.3553 48.1159L22.8706 26.4921C22.5945 26.0138 22.7584 25.4022 23.2366 25.126L32.7629 19.626Z" fill="#04E675"/>
<path d="M15.7555 2.25237C16.2438 0.385706 18.4094 -0.463509 20.0363 0.573749L23.9815 3.08902C24.8813 3.66269 26.0265 3.68444 26.9474 3.14536L30.9853 0.781754C32.6504 -0.192962 34.7823 0.737895 35.1992 2.62176L36.2103 7.18998C36.4409 8.23187 37.2353 9.05703 38.2677 9.32705L42.7942 10.5109C44.6609 10.9991 45.5101 13.1648 44.4728 14.7917L41.9576 18.7369C41.3839 19.6367 41.3621 20.7819 41.9012 21.7028L44.2648 25.7406C45.2395 27.4058 44.3087 29.5376 42.4248 29.9546L37.8566 30.9657C36.8147 31.1963 35.9895 31.9907 35.7195 33.0231L34.5357 37.5496C34.0475 39.4162 31.8818 40.2655 30.2549 39.2282L26.3097 36.7129C25.4099 36.1393 24.2647 36.1175 23.3438 36.6566L19.3059 39.0202C17.6408 39.9949 15.509 39.0641 15.092 37.1802L14.0809 32.612C13.8503 31.5701 13.0559 30.7449 12.0235 30.4749L7.497 29.291C5.63033 28.8028 4.78112 26.6372 5.81838 25.0103L8.33365 21.0651C8.90732 20.1653 8.92907 19.0201 8.38999 18.0992L6.02638 14.0613C5.05167 12.3962 5.98252 10.2643 7.86639 9.84737L12.4346 8.83628C13.4765 8.60567 14.3017 7.81128 14.5717 6.77889L15.7555 2.25237Z" fill="url(#paint0_linear)"/>
<path d="M37.0906 19.486C37.0906 26.3122 31.5568 31.846 24.7306 31.846C17.9044 31.846 12.3706 26.3122 12.3706 19.486C12.3706 12.6597 17.9044 7.12598 24.7306 7.12598C31.5568 7.12598 37.0906 12.6597 37.0906 19.486Z" stroke="#344FB4" stroke-width="2"/>
<path d="M24.2303 14.635C24.6128 13.9563 25.5901 13.9563 25.9726 14.635L27.1017 16.6382C27.2444 16.8914 27.4902 17.07 27.7751 17.1275L30.0292 17.5823C30.7929 17.7364 31.0949 18.6658 30.5676 19.2393L29.0113 20.9322C28.8147 21.1462 28.7208 21.4351 28.7541 21.7238L29.0181 24.0081C29.1076 24.782 28.317 25.3564 27.6086 25.0322L25.5176 24.0753C25.2534 23.9543 24.9496 23.9543 24.6853 24.0753L22.5943 25.0322C21.886 25.3564 21.0953 24.782 21.1848 24.0081L21.4488 21.7238C21.4822 21.4351 21.3883 21.1462 21.1916 20.9322L19.6353 19.2393C19.1081 18.6658 19.4101 17.7364 20.1737 17.5823L22.4278 17.1275C22.7127 17.07 22.9585 16.8914 23.1012 16.6382L24.2303 14.635Z" fill="#E8EAFA"/>
<defs>
<linearGradient id="paint0_linear" x1="25.1456" y1="0.125977" x2="25.1456" y2="39.676" gradientUnits="userSpaceOnUse">
<stop stop-color="#4D6CD9"/>
<stop offset="1" stop-color="#3E59BF"/>
</linearGradient>
</defs>
</svg>
