<svg width="80" height="81" viewBox="0 0 80 81" fill="none" xmlns="http://www.w3.org/2000/svg">
<path fill-rule="evenodd" clip-rule="evenodd" d="M40.3287 38.1523C48.1574 38.1523 54.5024 44.4981 54.5024 52.326C54.5024 60.1547 48.1574 66.4997 40.3287 66.4997C32.5 66.4997 26.155 60.1547 26.155 52.326C26.155 44.4981 32.5 38.1523 40.3287 38.1523ZM40.3287 40.8179C43.5045 40.8179 46.3831 42.1083 48.4644 44.1903L48.4652 44.1895C50.5473 46.2716 51.8368 49.1502 51.8368 52.326C51.8368 55.5018 50.5464 58.3813 48.4652 60.4617H48.4644V60.4625C46.384 62.5438 43.5045 63.8342 40.3287 63.8342C37.1529 63.8342 34.2734 62.5438 32.193 60.4625V60.4617H32.1922C30.1109 58.3813 28.8206 55.5018 28.8206 52.326C28.8206 49.1502 30.1101 46.2716 32.1922 44.1895L32.193 44.1903C34.2743 42.1083 37.1529 40.8179 40.3287 40.8179V40.8179ZM47.9731 44.6808C46.0194 42.7263 43.3152 41.5157 40.3287 41.5157C37.3422 41.5157 34.638 42.7263 32.6843 44.6808V44.6816C30.729 46.637 29.5184 49.3403 29.5184 52.326C29.5184 55.3125 30.729 58.0167 32.6835 59.9704L32.6843 59.9712C34.638 61.9257 37.3422 63.1363 40.3287 63.1363C43.3152 63.1363 46.0194 61.9257 47.9731 59.9712L47.9739 59.9704C49.9284 58.0167 51.139 55.3125 51.139 52.326C51.139 49.3403 49.9284 46.637 47.9731 44.6816V44.6808Z" fill="white"/>
<path fill-rule="evenodd" clip-rule="evenodd" d="M22 14.5C28.5046 14.5 35.01 14.5 41.5146 14.5C38.2845 20.0952 35.0553 25.6888 31.8252 31.2841C28.5499 25.6888 25.2753 20.0952 22 14.5V14.5Z" fill="white"/>
<path fill-rule="evenodd" clip-rule="evenodd" d="M43.0781 14.5C48.27 14.5 53.4629 14.5 58.6549 14.5C55.4865 20.0952 52.319 25.6888 49.1498 31.2841C43.8961 31.2841 38.6424 31.2841 33.3878 31.2841C36.6179 25.6888 39.8472 20.0952 43.0781 14.5V14.5Z" fill="white"/>
<path d="M47.1329 33.7856H33.5165V36.0551H47.1329V33.7856Z" fill="white"/>
</svg>
