<svg width="24" height="25" viewBox="0 0 24 25" fill="none" xmlns="http://www.w3.org/2000/svg">
<path d="M11.2826 3.6286C11.5761 3.03406 12.4239 3.03406 12.7174 3.6286L14.904 8.05857C15.0205 8.29444 15.2454 8.45801 15.5057 8.49605L20.397 9.21099C21.0529 9.30686 21.3143 10.1131 20.8395 10.5757L17.3014 14.0217C17.1127 14.2055 17.0266 14.4704 17.0711 14.73L17.9059 19.5974C18.018 20.251 17.332 20.7493 16.7451 20.4407L12.3724 18.1411C12.1393 18.0185 11.8607 18.0185 11.6276 18.1411L7.25491 20.4407C6.668 20.7493 5.98196 20.251 6.09406 19.5974L6.92887 14.73C6.9734 14.4704 6.88727 14.2055 6.69857 14.0217L3.16054 10.5757C2.68567 10.1131 2.9471 9.30686 3.60303 9.21099L8.49429 8.49605C8.75458 8.45801 8.97953 8.29444 9.09596 8.05857L11.2826 3.6286Z" stroke="#4D6CD9" stroke-width="2" stroke-linecap="round" stroke-linejoin="round"/>
</svg>
