<svg width="78" height="89" viewBox="0 0 78 89" fill="none" xmlns="http://www.w3.org/2000/svg">
<path d="M34.4547 37.5085L69.4756 10.281L42.5046 39.7334L66.747 60.3943L77.6337 0.580952L77.7357 0L12.2642 39.7643L13.2777 39.6593L34.4547 37.5085Z" fill="#4D6CD9"/>
<path d="M43.2877 53.6438L43.3526 53.5634L45.3488 51.0727C45.3488 51.0727 39.3724 43.2608 38.8162 42.4233L35.21 42.7973L36.9065 59.1783L36.9157 59.2648L36.9405 59.512L36.9652 59.7592L36.9744 59.8457L37.129 61.3383L37.4287 60.9706L43.2877 53.6438Z" fill="#4D6CD9"/>
<line x1="17.2642" y1="56.1213" x2="6.38548" y2="67" stroke="#4D6CD9" stroke-width="3" stroke-linecap="round"/>
<line x1="24.2642" y1="65.1213" x2="2.38548" y2="87" stroke="#4D6CD9" stroke-width="3" stroke-linecap="round"/>
<line x1="35.2642" y1="69.1213" x2="29.3855" y2="75" stroke="#4D6CD9" stroke-width="3" stroke-linecap="round"/>
</svg>
