<svg width="30" height="31" viewBox="0 0 30 31" fill="none" xmlns="http://www.w3.org/2000/svg">
<path d="M25.8875 21.1426L22.8625 18.1176C22.7463 18.0005 22.608 17.9075 22.4557 17.844C22.3034 17.7806 22.14 17.7479 21.975 17.7479C21.81 17.7479 21.6466 17.7806 21.4943 17.844C21.342 17.9075 21.2037 18.0005 21.0875 18.1176L16.6125 22.5926C16.4966 22.7094 16.405 22.8479 16.3428 23.0002C16.2806 23.1525 16.249 23.3156 16.25 23.4801V26.5051C16.25 26.8366 16.3817 27.1546 16.6161 27.389C16.8505 27.6234 17.1685 27.7551 17.5 27.7551H20.525C20.6895 27.7561 20.8526 27.7246 21.0049 27.6623C21.1572 27.6001 21.2957 27.5085 21.4125 27.3926L25.8875 22.9176C26.0047 22.8014 26.0977 22.6632 26.1611 22.5108C26.2246 22.3585 26.2572 22.1951 26.2572 22.0301C26.2572 21.8651 26.2246 21.7017 26.1611 21.5494C26.0977 21.3971 26.0047 21.2588 25.8875 21.1426ZM20 25.2551H18.75V24.0051L21.975 20.7801L23.225 22.0301L20 25.2551ZM12.5 25.2551H7.5C7.16848 25.2551 6.85054 25.1234 6.61612 24.889C6.3817 24.6546 6.25 24.3366 6.25 24.0051V6.50513C6.25 6.17361 6.3817 5.85566 6.61612 5.62124C6.85054 5.38682 7.16848 5.25513 7.5 5.25513H13.75V9.00513C13.75 9.99969 14.1451 10.9535 14.8483 11.6568C15.5516 12.36 16.5054 12.7551 17.5 12.7551H21.25V14.0051C21.25 14.3366 21.3817 14.6546 21.6161 14.889C21.8505 15.1234 22.1685 15.2551 22.5 15.2551C22.8315 15.2551 23.1495 15.1234 23.3839 14.889C23.6183 14.6546 23.75 14.3366 23.75 14.0051V11.5051C23.75 11.5051 23.75 11.5051 23.75 11.4301C23.737 11.3153 23.7118 11.2022 23.675 11.0926V10.9801C23.6149 10.8516 23.5347 10.7335 23.4375 10.6301L15.9375 3.13013C15.8342 3.0329 15.716 2.95273 15.5875 2.89263C15.5502 2.88733 15.5123 2.88733 15.475 2.89263L15.075 2.75513H7.5C6.50544 2.75513 5.55161 3.15022 4.84835 3.85348C4.14509 4.55674 3.75 5.51057 3.75 6.50513V24.0051C3.75 24.9997 4.14509 25.9535 4.84835 26.6568C5.55161 27.36 6.50544 27.7551 7.5 27.7551H12.5C12.8315 27.7551 13.1495 27.6234 13.3839 27.389C13.6183 27.1546 13.75 26.8366 13.75 26.5051C13.75 26.1736 13.6183 25.8557 13.3839 25.6212C13.1495 25.3868 12.8315 25.2551 12.5 25.2551ZM16.25 7.01763L19.4875 10.2551H17.5C17.1685 10.2551 16.8505 10.1234 16.6161 9.88901C16.3817 9.65459 16.25 9.33665 16.25 9.00513V7.01763ZM10 17.7551H17.5C17.8315 17.7551 18.1495 17.6234 18.3839 17.389C18.6183 17.1546 18.75 16.8366 18.75 16.5051C18.75 16.1736 18.6183 15.8557 18.3839 15.6212C18.1495 15.3868 17.8315 15.2551 17.5 15.2551H10C9.66848 15.2551 9.35054 15.3868 9.11612 15.6212C8.8817 15.8557 8.75 16.1736 8.75 16.5051C8.75 16.8366 8.8817 17.1546 9.11612 17.389C9.35054 17.6234 9.66848 17.7551 10 17.7551ZM10 12.7551H11.25C11.5815 12.7551 11.8995 12.6234 12.1339 12.389C12.3683 12.1546 12.5 11.8366 12.5 11.5051C12.5 11.1736 12.3683 10.8557 12.1339 10.6212C11.8995 10.3868 11.5815 10.2551 11.25 10.2551H10C9.66848 10.2551 9.35054 10.3868 9.11612 10.6212C8.8817 10.8557 8.75 11.1736 8.75 11.5051C8.75 11.8366 8.8817 12.1546 9.11612 12.389C9.35054 12.6234 9.66848 12.7551 10 12.7551ZM12.5 20.2551H10C9.66848 20.2551 9.35054 20.3868 9.11612 20.6212C8.8817 20.8557 8.75 21.1736 8.75 21.5051C8.75 21.8366 8.8817 22.1546 9.11612 22.389C9.35054 22.6234 9.66848 22.7551 10 22.7551H12.5C12.8315 22.7551 13.1495 22.6234 13.3839 22.389C13.6183 22.1546 13.75 21.8366 13.75 21.5051C13.75 21.1736 13.6183 20.8557 13.3839 20.6212C13.1495 20.3868 12.8315 20.2551 12.5 20.2551Z" fill="#4D6CD9"/>
</svg>
