<svg width="25" height="24" viewBox="0 0 25 24" fill="none" xmlns="http://www.w3.org/2000/svg">
<path d="M17.4091 5.45459H7.59095C6.68721 5.45459 5.95459 6.18721 5.95459 7.09095V16.9091C5.95459 17.8129 6.68721 18.5455 7.59095 18.5455H17.4091C18.3129 18.5455 19.0455 17.8129 19.0455 16.9091V7.09095C19.0455 6.18721 18.3129 5.45459 17.4091 5.45459Z" stroke="#4D6CD9" stroke-width="2" stroke-linecap="round" stroke-linejoin="round"/>
<path d="M14.9545 9.54541H10.0454V14.4545H14.9545V9.54541Z" stroke="#4D6CD9" stroke-width="2" stroke-linecap="round" stroke-linejoin="round"/>
<path d="M10.0454 3V5.45455" stroke="#4D6CD9" stroke-width="2" stroke-linecap="round" stroke-linejoin="round"/>
<path d="M14.9546 3V5.45455" stroke="#4D6CD9" stroke-width="2" stroke-linecap="round" stroke-linejoin="round"/>
<path d="M10.0454 18.5454V21" stroke="#4D6CD9" stroke-width="2" stroke-linecap="round" stroke-linejoin="round"/>
<path d="M14.9546 18.5454V21" stroke="#4D6CD9" stroke-width="2" stroke-linecap="round" stroke-linejoin="round"/>
<path d="M19.0454 9.54541H21.5" stroke="#4D6CD9" stroke-width="2" stroke-linecap="round" stroke-linejoin="round"/>
<path d="M19.0454 13.6365H21.5" stroke="#4D6CD9" stroke-width="2" stroke-linecap="round" stroke-linejoin="round"/>
<path d="M3.5 9.54541H5.95455" stroke="#4D6CD9" stroke-width="2" stroke-linecap="round" stroke-linejoin="round"/>
<path d="M3.5 13.6365H5.95455" stroke="#4D6CD9" stroke-width="2" stroke-linecap="round" stroke-linejoin="round"/>
</svg>
