<svg width="24" height="25" viewBox="0 0 24 25" fill="none" xmlns="http://www.w3.org/2000/svg">
<path d="M13.3 12.3948C13.8336 11.9329 14.2616 11.3617 14.5549 10.7198C14.8482 10.078 15 9.38051 15 8.6748C15 7.34872 14.4732 6.07695 13.5355 5.13927C12.5979 4.20159 11.3261 3.6748 10 3.6748C8.67392 3.6748 7.40215 4.20159 6.46447 5.13927C5.52678 6.07695 5 7.34872 5 8.6748C4.99999 9.38051 5.1518 10.078 5.44513 10.7198C5.73845 11.3617 6.16642 11.9329 6.7 12.3948C5.30014 13.0287 4.11247 14.0523 3.27898 15.3433C2.4455 16.6344 2.00147 18.1381 2 19.6748C2 19.94 2.10536 20.1944 2.29289 20.3819C2.48043 20.5694 2.73478 20.6748 3 20.6748C3.26522 20.6748 3.51957 20.5694 3.70711 20.3819C3.89464 20.1944 4 19.94 4 19.6748C4 18.0835 4.63214 16.5574 5.75736 15.4322C6.88258 14.3069 8.4087 13.6748 10 13.6748C11.5913 13.6748 13.1174 14.3069 14.2426 15.4322C15.3679 16.5574 16 18.0835 16 19.6748C16 19.94 16.1054 20.1944 16.2929 20.3819C16.4804 20.5694 16.7348 20.6748 17 20.6748C17.2652 20.6748 17.5196 20.5694 17.7071 20.3819C17.8946 20.1944 18 19.94 18 19.6748C17.9985 18.1381 17.5545 16.6344 16.721 15.3433C15.8875 14.0523 14.6999 13.0287 13.3 12.3948ZM10 11.6748C9.40666 11.6748 8.82664 11.4989 8.33329 11.1692C7.83994 10.8396 7.45542 10.371 7.22836 9.82285C7.0013 9.27468 6.94189 8.67148 7.05764 8.08953C7.1734 7.50759 7.45912 6.97304 7.87868 6.55348C8.29824 6.13393 8.83279 5.8482 9.41473 5.73245C9.99667 5.61669 10.5999 5.6761 11.1481 5.90317C11.6962 6.13023 12.1648 6.51475 12.4944 7.00809C12.8241 7.50144 13 8.08146 13 8.6748C13 9.47045 12.6839 10.2335 12.1213 10.7961C11.5587 11.3587 10.7956 11.6748 10 11.6748ZM20.91 12.1748L21.71 11.3848C21.8032 11.2916 21.8772 11.1809 21.9277 11.0591C21.9781 10.9372 22.0041 10.8067 22.0041 10.6748C22.0041 10.5429 21.9781 10.4124 21.9277 10.2906C21.8772 10.1687 21.8032 10.058 21.71 9.9648C21.6168 9.87157 21.5061 9.79761 21.3842 9.74714C21.2624 9.69668 21.1319 9.67071 21 9.67071C20.8681 9.67071 20.7376 9.69668 20.6158 9.74714C20.4939 9.79761 20.3832 9.87157 20.29 9.9648L19.5 10.7648L18.71 9.9648C18.6168 9.87157 18.5061 9.79761 18.3842 9.74714C18.2624 9.69668 18.1319 9.67071 18 9.67071C17.7337 9.67071 17.4783 9.7765 17.29 9.9648C17.1968 10.058 17.1228 10.1687 17.0723 10.2906C17.0219 10.4124 16.9959 10.5429 16.9959 10.6748C16.9959 10.9411 17.1017 11.1965 17.29 11.3848L18.09 12.1748L17.29 12.9648C17.1963 13.0578 17.1219 13.1684 17.0711 13.2902C17.0203 13.4121 16.9942 13.5428 16.9942 13.6748C16.9942 13.8068 17.0203 13.9375 17.0711 14.0594C17.1219 14.1812 17.1963 14.2918 17.29 14.3848C17.383 14.4785 17.4936 14.5529 17.6154 14.6037C17.7373 14.6545 17.868 14.6806 18 14.6806C18.132 14.6806 18.2627 14.6545 18.3846 14.6037C18.5064 14.5529 18.617 14.4785 18.71 14.3848L19.5 13.5848L20.29 14.3848C20.383 14.4785 20.4936 14.5529 20.6154 14.6037C20.7373 14.6545 20.868 14.6806 21 14.6806C21.132 14.6806 21.2627 14.6545 21.3846 14.6037C21.5064 14.5529 21.617 14.4785 21.71 14.3848C21.8037 14.2918 21.8781 14.1812 21.9289 14.0594C21.9797 13.9375 22.0058 13.8068 22.0058 13.6748C22.0058 13.5428 21.9797 13.4121 21.9289 13.2902C21.8781 13.1684 21.8037 13.0578 21.71 12.9648L20.91 12.1748Z" fill="#4D6CD9"/>
</svg>
