<svg width="81" height="80" viewBox="0 0 81 80" fill="none" xmlns="http://www.w3.org/2000/svg">
<rect x="0.5" width="80" height="80" rx="16" fill="white"/>
<path d="M44.6382 63.2254L42.5066 64.9644L43.1236 67.6009C43.2358 67.9936 42.8992 68.3301 42.5627 68.3301C42.4505 68.3301 42.3383 68.2741 42.2822 68.218L40.0384 66.8156L37.7384 68.218C37.6262 68.2741 37.5141 68.3301 37.458 68.3301C37.1214 68.3301 36.7848 67.9936 36.897 67.6009L37.5141 64.9644L35.4385 63.2254C35.0458 62.8889 35.2702 62.2718 35.7751 62.2157L38.4677 62.0474L39.4774 59.5231C39.5896 59.2987 39.814 59.1865 39.9823 59.1865C40.2066 59.1865 40.431 59.2987 40.4871 59.5231L41.4968 62.0474L44.1894 62.2157C44.8065 62.2718 45.0309 62.8889 44.6382 63.2254ZM30.8948 62.2157L28.2022 62.0474L27.1363 59.5231C27.0241 59.2987 26.7998 59.1865 26.6315 59.1865C26.4071 59.1865 26.1827 59.2987 26.1266 59.5231L25.1169 62.0474L22.4243 62.2157C21.9194 62.2157 21.695 62.8889 22.0877 63.2254L24.1633 64.9644L23.5462 67.6009C23.434 67.9936 23.7706 68.3301 24.1072 68.3301C24.2194 68.3301 24.3315 68.2741 24.3876 68.218L26.6876 66.8156L28.9875 68.218C29.0997 68.2741 29.2119 68.3301 29.268 68.3301C29.6045 68.3301 29.885 67.9936 29.8289 67.6009L29.2119 64.9644L31.3435 63.2254C31.624 62.8889 31.3996 62.2718 30.8948 62.2157ZM55.7452 68.218C55.8574 68.2741 55.9696 68.3301 56.0257 68.3301C56.3622 68.3301 56.6427 67.9936 56.5866 67.6009L55.9696 64.9644L58.1012 63.2254C58.4939 62.8889 58.2695 62.2718 57.7646 62.2157L55.072 62.0474L54.0623 59.5231C53.9501 59.2987 53.7257 59.1865 53.5574 59.1865C53.3331 59.1865 53.1087 59.2987 53.0526 59.5231L52.0429 62.0474L49.3503 62.2157C48.8454 62.2157 48.621 62.8889 49.0137 63.2254L51.0892 64.9644L50.4722 67.6009C50.36 67.9936 50.6966 68.3301 51.0331 68.3301C51.1453 68.3301 51.2575 68.2741 51.3136 68.218L53.6135 66.8156L55.7452 68.218ZM45.0309 40.0579V38.2628C45.0309 38.2628 50.7527 38.4311 53.4452 35.6824C53.4452 35.6824 49.5185 34.5605 50.1917 27.3802C50.9209 20.2 49.2942 13.9172 43.5724 14.4221C43.5724 14.4221 41.0481 11.3929 36.1117 13.3002C34.4288 13.9733 29.8289 15.6001 30.0533 25.5291C30.2777 35.458 26.5193 35.5141 26.5193 35.5141C26.5193 35.5141 28.4826 38.3189 35.0458 38.2628V40.114L40.0384 54.755L45.0309 40.1701V40.0579ZM58.4939 54.9794L57.4841 49.4259C57.1476 47.6308 55.9696 46.0601 54.3428 45.2748L48.0601 42.1895C47.7235 42.0212 47.3308 41.7968 46.9942 41.6286L48.9576 47.5186L46.1528 47.2381L40.0384 54.755L33.9239 47.2381L31.1752 47.4625L33.1947 41.4603L31.9606 42.2456L25.79 45.2748C24.1633 46.0601 22.9852 47.6308 22.6487 49.4259L21.6389 54.9794C21.5829 55.372 21.8633 55.7647 22.3121 55.7647H39.8701H40.3188H57.8768C58.2134 55.7647 58.55 55.372 58.4939 54.9794Z" fill="#4D6CD9"/>
</svg>
