<svg width="121" height="120" viewBox="0 0 121 120" fill="none" xmlns="http://www.w3.org/2000/svg">
<g filter="url(#filter0_d_4143_240259)">
<rect x="20.75" y="20" width="80" height="80" rx="16" fill="white"/>
</g>
<path d="M36.3056 62.0601L34.0846 65.1101H26.119C24.9345 65.1101 23.75 66.1169 23.75 67.331C23.75 68.6932 24.7568 69.7 26.119 69.7H35.4468C36.3056 69.7 36.9866 69.3743 37.49 68.5155L39.6813 65.2878C39.5333 65.2582 36.4832 63.2445 36.3056 62.0601Z" fill="#4D6CD9"/>
<path d="M51.7331 47.6385C54.0724 47.6385 55.9676 45.7433 55.9676 43.404C55.9676 41.0646 54.0724 39.1694 51.7331 39.1694C49.3937 39.1694 47.4985 41.0646 47.4985 43.404C47.4985 45.7433 49.3937 47.6385 51.7331 47.6385Z" fill="#4D6CD9"/>
<path d="M50.0476 58.1508C50.2253 58.8319 50.7287 59.3353 51.4098 59.513L58.6944 61.3785H58.872C59.8788 61.5562 60.7376 60.8751 60.9153 59.8683C61.241 58.6838 60.5895 57.6474 59.5531 57.4993L53.2753 55.9595L51.4098 50.1851C51.3802 50.0667 51.2913 49.9779 51.2321 49.8594C51.1433 49.5633 50.936 49.2672 50.551 49.0007L47.7675 47.1351C47.5602 46.9278 47.3233 46.7205 46.9976 46.6317L40.5421 44.4404C40.0387 44.2627 39.3576 44.2627 39.0023 44.4404L31.7177 48.3196C30.7109 48.823 30.3555 50.0075 30.8589 50.8662C31.1847 51.5473 31.7177 51.873 32.3988 51.873C32.7245 51.873 33.0798 51.873 33.4056 51.6954L40.0091 48.29L43.9179 49.6817L38.8246 57.4697C37.877 59.128 37.3736 60.7567 38.3804 62.03C38.5581 62.3557 38.795 62.6815 39.1799 62.8888L45.6354 67.6267L41.7266 76.2735C41.2232 77.4579 41.7266 78.8201 42.9111 79.3235C43.2368 79.5012 43.5922 79.5012 43.9179 79.5012C44.7766 79.5012 45.6058 78.9978 45.9611 78.139L50.551 67.6267C51.0544 66.768 50.7287 65.5835 49.8699 64.9024L44.8359 61.2305L48.9223 54.6566L50.0476 58.1508Z" fill="#4D6CD9"/>
<path d="M98.0764 52.672C97.188 51.073 95.4113 50.6584 93.5753 51.606C92.0355 52.4351 90.4957 53.2939 88.867 54.1823C87.9194 52.7016 87.0014 51.2803 86.0242 49.9181C85.7873 49.5924 85.3431 49.2666 84.9582 49.237C81.997 49.0001 79.8057 47.5787 78.2362 45.0913C78.0289 44.7656 77.4663 44.4398 77.0814 44.4398C74.0017 44.3806 70.9516 44.4102 67.872 44.4102C66.4802 44.4102 65.4734 45.0025 64.7923 46.2166C63.5782 48.4375 62.3345 50.6288 61.15 52.8497C60.1432 54.7153 60.5874 56.5512 62.216 57.4396C63.8447 58.328 65.5918 57.7061 66.6579 55.8405C67.487 54.3599 68.2865 52.8497 69.1157 51.3987C69.2637 51.1026 69.5895 50.7176 69.8264 50.688C71.6031 50.6288 73.3798 50.6584 75.3046 50.6584C75.127 51.0434 75.0677 51.2506 74.9493 51.4283C72.225 56.1959 69.5303 60.9634 66.7467 65.7014C66.5394 66.0271 65.9768 66.3232 65.5622 66.3232C62.3049 66.3825 59.0772 66.3232 55.8198 66.3529C53.7174 66.3825 52.3256 67.715 52.3552 69.551C52.3848 71.3573 53.8062 72.601 55.8198 72.601C59.7582 72.601 63.6967 72.5714 67.6351 72.6306C69.2637 72.6602 70.389 72.0088 71.1589 70.617C71.7512 69.5214 72.4322 68.4553 73.1133 67.3004C74.9197 68.7218 76.6372 70.0248 78.2658 71.4165C78.4731 71.5942 78.5323 72.1865 78.4139 72.5122C77.4663 74.9996 76.4299 77.4574 75.4527 79.9448C74.742 81.7512 75.3935 83.4983 77.0221 84.209C78.71 84.9197 80.4571 84.1498 81.2271 82.3138C82.5892 78.9676 83.9514 75.6215 85.2543 72.2753C85.9946 70.4097 85.6393 69.2252 84.0698 67.9815C82.1154 66.4417 80.161 64.9019 78.177 63.3324C79.5984 60.9042 80.9902 58.5352 82.5004 55.959C83.3887 57.3211 84.1587 58.5056 84.9286 59.6901C86.1723 61.5853 87.6825 61.9703 89.6665 60.9042C91.9763 59.6605 94.286 58.3576 96.5662 57.0546C98.4021 56.0478 98.9647 54.2711 98.0764 52.672Z" fill="#4D6CD9"/>
<path d="M85.2555 46.3942C88.1575 46.4238 90.5264 44.114 90.5264 41.212C90.5264 38.3693 88.2167 36.0299 85.3739 36.0003C82.4719 35.9707 80.1326 38.2508 80.1326 41.1824C80.1326 44.0548 82.3831 46.3349 85.2555 46.3942Z" fill="#4D6CD9"/>
<defs>
<filter id="filter0_d_4143_240259" x="0.75" y="0" width="120" height="120" filterUnits="userSpaceOnUse" color-interpolation-filters="sRGB">
<feFlood flood-opacity="0" result="BackgroundImageFix"/>
<feColorMatrix in="SourceAlpha" type="matrix" values="0 0 0 0 0 0 0 0 0 0 0 0 0 0 0 0 0 0 127 0" result="hardAlpha"/>
<feOffset/>
<feGaussianBlur stdDeviation="10"/>
<feColorMatrix type="matrix" values="0 0 0 0 0.301961 0 0 0 0 0.423529 0 0 0 0 0.85098 0 0 0 0.16 0"/>
<feBlend mode="normal" in2="BackgroundImageFix" result="effect1_dropShadow_4143_240259"/>
<feBlend mode="normal" in="SourceGraphic" in2="effect1_dropShadow_4143_240259" result="shape"/>
</filter>
</defs>
</svg>
