<svg width="121" height="120" viewBox="0 0 121 120" fill="none" xmlns="http://www.w3.org/2000/svg">
<g filter="url(#filter0_d_4143_240268)">
<rect x="20.25" y="20" width="80" height="80" rx="16" fill="#4D6CD9"/>
</g>
<path d="M54.4317 37.735C56.2565 36.7668 64.4602 36.7668 66.285 37.735V40.6942H68.9366V35.9783C68.9366 34.0021 66.0509 33 60.3584 33C54.6658 33 51.7802 34.0021 51.7802 35.9783V40.6942H54.4317V37.735Z" fill="white"/>
<path d="M79.6563 42.2407L60.3617 42.2441L41.0637 42.2407C40.5822 42.2412 40.1207 42.4329 39.7806 42.7737C39.4404 43.1145 39.2496 43.5764 39.25 44.0578V60.1384L40.91 61.4704V72.3832H48.4174C48.148 71.3985 48 70.3845 47.9768 69.3638C47.9734 69.2136 47.97 69.0667 47.9734 68.9198H44.3802V62.3038C45.8728 62.5532 47.6352 62.7513 49.548 62.905C50.6478 60.9841 52.2353 59.3877 54.1498 58.2769C56.0644 57.1662 58.2382 56.5805 60.4517 56.5791C62.6651 56.5777 64.8397 57.1607 66.7557 58.269C68.6716 59.3774 70.2611 60.9719 71.3633 62.8913C73.2009 62.7376 74.8984 62.5463 76.3398 62.3039V68.9198H72.9891C73.0041 70.0901 72.8511 71.2564 72.5349 72.3832H79.81V61.4704L81.47 60.1384V44.0578C81.4704 43.5764 81.2796 43.1144 80.9395 42.7737C80.5993 42.4329 80.1378 42.2412 79.6563 42.2407Z" fill="white"/>
<path d="M72.496 77.2144C72.2356 76.9652 71.9226 76.7778 71.5799 76.666C71.2373 76.5542 70.874 76.5209 70.5167 76.5686L69.3184 75.1941C70.8086 73.0882 71.4856 70.5138 71.2238 67.9472C70.9621 65.3807 69.7795 62.9959 67.8949 61.2341C65.815 59.2699 63.0408 58.211 60.1811 58.2897C57.3214 58.3685 54.6097 59.5785 52.6411 61.6542C50.6725 63.73 49.6077 66.5019 49.6804 69.3618C49.7531 72.2217 50.9573 74.9359 53.0288 76.9089C54.8878 78.6976 57.3318 79.7523 59.9085 79.8779C62.4852 80.0035 65.0202 79.1914 67.0442 77.5919L68.4806 78.7158C68.4524 79.0751 68.5051 79.436 68.6348 79.7722C68.7646 80.1083 68.9681 80.4111 69.2305 80.6581L75.1494 86.2189C75.327 86.3857 75.5613 86.4789 75.8049 86.4798C75.9641 86.4799 76.1206 86.4389 76.2593 86.3608C76.7474 86.0848 77.1917 85.7377 77.5778 85.331L77.6253 85.2821C78.0016 84.8796 78.3174 84.4246 78.5627 83.9313C78.6508 83.7502 78.6788 83.5457 78.6425 83.3476C78.6062 83.1495 78.5076 82.9681 78.361 82.83L72.496 77.2144ZM68.3815 70.003C68.2201 71.3709 67.7073 72.6737 66.8931 73.7846C66.0788 74.8955 64.9908 75.7767 63.735 76.3425C62.4791 76.9082 61.0982 77.1392 59.7266 77.0129C58.355 76.8867 57.0395 76.4075 55.908 75.6221C54.9666 74.9652 54.1781 74.1128 53.5963 73.1232C53.0146 72.1335 52.6533 71.03 52.5372 69.8879C52.4211 68.7459 52.5529 67.5922 52.9235 66.5057C53.2942 65.4193 53.8951 64.4256 54.685 63.5927C55.475 62.7598 56.4354 62.1072 57.5008 61.6796C58.5661 61.2519 59.7112 61.0592 60.8578 61.1148C62.0044 61.1703 63.1255 61.4727 64.1445 62.0012C65.1635 62.5298 66.0564 63.2721 66.7622 64.1775C67.4044 64.9929 67.8783 65.9278 68.1562 66.9278C68.4342 67.9278 68.5108 68.9731 68.3815 70.003Z" fill="white"/>
<defs>
<filter id="filter0_d_4143_240268" x="0.25" y="0" width="120" height="120" filterUnits="userSpaceOnUse" color-interpolation-filters="sRGB">
<feFlood flood-opacity="0" result="BackgroundImageFix"/>
<feColorMatrix in="SourceAlpha" type="matrix" values="0 0 0 0 0 0 0 0 0 0 0 0 0 0 0 0 0 0 127 0" result="hardAlpha"/>
<feOffset/>
<feGaussianBlur stdDeviation="10"/>
<feColorMatrix type="matrix" values="0 0 0 0 0.301961 0 0 0 0 0.423529 0 0 0 0 0.85098 0 0 0 0.16 0"/>
<feBlend mode="normal" in2="BackgroundImageFix" result="effect1_dropShadow_4143_240268"/>
<feBlend mode="normal" in="SourceGraphic" in2="effect1_dropShadow_4143_240268" result="shape"/>
</filter>
</defs>
</svg>
