<svg width="121" height="120" viewBox="0 0 121 120" fill="none" xmlns="http://www.w3.org/2000/svg">
<g filter="url(#filter0_d_4143_240271)">
<rect x="20.75" y="20" width="80" height="80" rx="16" fill="white"/>
</g>
<path d="M37.2606 71.7713H33.5006C32.5338 71.7713 31.75 70.9875 31.75 70.0207V48.298C31.75 47.3311 32.5338 46.5474 33.5006 46.5474H37.2606C38.2274 46.5474 39.0112 47.3311 39.0112 48.298V70.0208C39.0112 70.9875 38.2274 71.7713 37.2606 71.7713Z" fill="#4D6CD9"/>
<path d="M84.7594 71.7371H88.5194C89.4862 71.7371 90.27 70.9533 90.27 69.9865V48.2638C90.27 47.297 89.4862 46.5132 88.5194 46.5132H84.7594C83.7926 46.5132 83.0088 47.297 83.0088 48.2638V69.9866C83.0088 70.9533 83.7926 71.7371 84.7594 71.7371Z" fill="#4D6CD9"/>
<path d="M70.7361 49.5432L68.0289 47.1474C65.7952 44.5514 61.726 44.2668 59.1511 46.525L50.9959 53.6766C49.6067 54.8947 49.4769 57.1118 50.723 58.4824C51.9479 59.8297 54.0667 59.958 55.4488 58.7662L62.5538 52.5702C62.9995 52.1817 63.6686 52.212 64.0774 52.6391L79.3553 68.5865H80.31V49.5432H70.7361Z" fill="#4D6CD9"/>
<path d="M73.8231 67.6229L62.501 55.7671L57.1441 60.635C54.7715 62.8043 51.0888 62.6364 48.9236 60.2602C46.7634 57.8896 46.931 54.2174 49.298 52.0534L55.1124 46.7374C51.8505 45.0335 47.7198 46.0146 45.6207 49.1934H41.8353V69.4258H45.1555L50.5365 74.9267C51.4241 75.9108 52.8709 76.1576 54.0345 75.5234C55.5812 74.6805 55.99 72.6753 54.962 71.2992L57.7695 74.4367C58.5539 75.3134 59.8108 75.5907 60.8914 75.1255L60.9608 75.0956C62.7485 74.3263 63.2608 72.0466 61.9794 70.5951C60.1129 68.4804 58.3959 66.4641 58.3959 66.4641L63.7888 72.545C64.6724 73.5323 66.1127 73.7954 67.2882 73.1842L67.3587 73.1476C69.1266 72.2283 69.2871 69.7699 67.9464 68.3117C65.373 65.5133 62.5819 62.2781 62.5819 62.2781C62.5819 62.2781 67.5041 67.5627 70.0761 70.309C70.8813 71.1688 72.1329 71.4439 73.2244 71.0011L73.2987 70.9709C74.7558 70.0636 74.4556 68.6295 73.8231 67.6229Z" fill="#4D6CD9"/>
<defs>
<filter id="filter0_d_4143_240271" x="0.75" y="0" width="120" height="120" filterUnits="userSpaceOnUse" color-interpolation-filters="sRGB">
<feFlood flood-opacity="0" result="BackgroundImageFix"/>
<feColorMatrix in="SourceAlpha" type="matrix" values="0 0 0 0 0 0 0 0 0 0 0 0 0 0 0 0 0 0 127 0" result="hardAlpha"/>
<feOffset/>
<feGaussianBlur stdDeviation="10"/>
<feColorMatrix type="matrix" values="0 0 0 0 0.301961 0 0 0 0 0.423529 0 0 0 0 0.85098 0 0 0 0.16 0"/>
<feBlend mode="normal" in2="BackgroundImageFix" result="effect1_dropShadow_4143_240271"/>
<feBlend mode="normal" in="SourceGraphic" in2="effect1_dropShadow_4143_240271" result="shape"/>
</filter>
</defs>
</svg>
