<svg width="121" height="120" viewBox="0 0 121 120" fill="none" xmlns="http://www.w3.org/2000/svg">
<g filter="url(#filter0_d_4143_240262)">
<rect x="20.25" y="20" width="80" height="80" rx="16" fill="white"/>
</g>
<path d="M57.7612 49.5376C57.7612 52.6942 55.2028 55.252 52.0468 55.252C48.8914 55.252 46.3324 52.6942 46.3324 49.5376C46.3324 46.3816 48.8914 43.8244 52.0468 43.8244C55.2028 43.8244 57.7612 46.3816 57.7612 49.5376ZM86.0146 77.3908L81.7408 82.945L67.366 71.8834C63.4246 75.6358 58.0912 77.9392 52.2196 77.9392C40.0864 77.9392 30.25 68.1028 30.25 55.9696C30.25 43.8364 40.0864 34 52.2196 34C64.354 34 74.1892 43.8364 74.1892 55.9696C74.1892 59.707 73.255 63.2254 71.6086 66.307L86.0146 77.3908ZM69.2932 55.9696C69.2932 46.54 61.6492 38.896 52.2196 38.896C42.79 38.896 35.1466 46.54 35.1466 55.9696C35.1466 61.7314 38.0002 66.8254 42.3712 69.9172V62.8234C42.3712 59.0914 45.9868 56.0668 49.7188 56.0668L54.376 56.068C58.1074 56.068 61.7248 59.0914 61.7248 62.8234V70.1548C66.2884 67.09 69.2932 61.8808 69.2932 55.9696ZM88.8832 79.5982L87.0196 78.1648L82.7464 83.7178L84.6094 85.1524C86.1424 86.3314 88.3426 86.0458 89.524 84.5116C90.7024 82.978 90.4162 80.7778 88.8832 79.5982Z" fill="#4D6CD9"/>
<defs>
<filter id="filter0_d_4143_240262" x="0.25" y="0" width="120" height="120" filterUnits="userSpaceOnUse" color-interpolation-filters="sRGB">
<feFlood flood-opacity="0" result="BackgroundImageFix"/>
<feColorMatrix in="SourceAlpha" type="matrix" values="0 0 0 0 0 0 0 0 0 0 0 0 0 0 0 0 0 0 127 0" result="hardAlpha"/>
<feOffset/>
<feGaussianBlur stdDeviation="10"/>
<feColorMatrix type="matrix" values="0 0 0 0 0.301961 0 0 0 0 0.423529 0 0 0 0 0.85098 0 0 0 0.16 0"/>
<feBlend mode="normal" in2="BackgroundImageFix" result="effect1_dropShadow_4143_240262"/>
<feBlend mode="normal" in="SourceGraphic" in2="effect1_dropShadow_4143_240262" result="shape"/>
</filter>
</defs>
</svg>
